<?xml version="1.0" encoding="UTF-8" standalone="no"?>
<!-- Created with Inkscape (http://www.inkscape.org/) -->
<svg xmlns:dc="http://purl.org/dc/elements/1.1/" xmlns:cc="http://creativecommons.org/ns#" xmlns:rdf="http://www.w3.org/1999/02/22-rdf-syntax-ns#" xmlns:svg="http://www.w3.org/2000/svg" xmlns="http://www.w3.org/2000/svg" xmlns:sodipodi="http://sodipodi.sourceforge.net/DTD/sodipodi-0.dtd" xmlns:inkscape="http://www.inkscape.org/namespaces/inkscape" width="90" height="135" id="svg16720" sodipodi:version="0.32" inkscape:version="0.46" version="1.0" sodipodi:docname="heart_q.svg" inkscape:output_extension="org.inkscape.output.svg.inkscape">
  <defs id="defs16722">
    <inkscape:perspective sodipodi:type="inkscape:persp3d" inkscape:vp_x="0 : 526.18109 : 1" inkscape:vp_y="0 : 1000 : 0" inkscape:vp_z="744.09448 : 526.18109 : 1" inkscape:persp3d-origin="372.04724 : 350.78739 : 1" id="perspective16728"/>
  </defs>
  <sodipodi:namedview id="base" pagecolor="#ffffff" bordercolor="#666666" borderopacity="1.0" gridtolerance="10000" guidetolerance="10" objecttolerance="10" inkscape:pageopacity="0.0" inkscape:pageshadow="2" inkscape:zoom="1.4" inkscape:cx="1.1905278" inkscape:cy="112.32681" inkscape:document-units="px" inkscape:current-layer="layer1" showgrid="false" inkscape:window-width="641" inkscape:window-height="719" inkscape:window-x="611" inkscape:window-y="47"/>
  <metadata id="metadata16725">
    <rdf:RDF>
      <cc:Work rdf:about="">
        <dc:format>image/svg+xml</dc:format>
        <dc:type rdf:resource="http://purl.org/dc/dcmitype/StillImage"/>
      </cc:Work>
    </rdf:RDF>
  </metadata>
  <g inkscape:label="Layer 1" inkscape:groupmode="layer" id="layer1" transform="translate(-117.857, -330.576)">
    <g transform="translate(-846.912, 42.7143)" id="g15563">
      <g transform="translate(943.912, 277.929)" id="g4644">
        <rect style="fill: rgb(0, 0, 0); fill-opacity: 1; stroke: none; stroke-width: 3; stroke-linecap: butt; stroke-linejoin: round; stroke-miterlimit: 4; stroke-dasharray: none; stroke-opacity: 1;" id="rect4646" width="90" height="135" x="20.85714" y="9.9336166" ry="14.04"/>
        <rect style="fill: rgb(242, 242, 242); fill-opacity: 1; stroke: none; stroke-width: 3; stroke-linecap: butt; stroke-linejoin: round; stroke-miterlimit: 4; stroke-dasharray: none; stroke-opacity: 1;" id="rect4648" width="80" height="125" x="25.85714" y="14.933617" ry="13"/>
      </g>
      <path id="text5349" d="M 1009.5037,296.80751 C 1011.9666,296.80754 1014.1379,297.39735 1016.0176,298.57695 C 1017.9102,299.75661 1019.349,301.35105 1020.3343,303.36029 C 1021.3194,305.36956 1021.812,307.61864 1021.812,310.10751 C 1021.812,311.81863 1021.5592,313.49085 1021.0537,315.12418 C 1020.5481,316.75752 1019.8676,318.09918 1019.012,319.14918 L 1021.812,321.81307 L 1019.1481,324.63251 L 1016.1148,321.81307 C 1014.1963,322.96677 1011.9926,323.54362 1009.5037,323.54362 C 1007.0537,323.54362 1004.8889,322.96677 1003.0093,321.81307 C 1001.1426,320.65936 999.71018,319.0714 998.71203,317.04918 C 997.71388,315.02696 997.21481,312.739 997.21481,310.18529 C 997.21481,307.6316 997.71388,305.34364 998.71203,303.3214 C 999.71018,301.2992 1001.1426,299.71124 1003.0093,298.55751 C 1004.8889,297.39087 1007.0537,296.80754 1009.5037,296.80751 M 1012.5176,313.02418 L 1015.3954,315.7464 C 1016.1472,314.22974 1016.5231,312.389 1016.5231,310.22418 C 1016.5231,307.50197 1015.8879,305.33068 1014.6176,303.71029 C 1013.3472,302.08994 1011.6426,301.27975 1009.5037,301.27973 C 1007.3907,301.27975 1005.6926,302.09642 1004.4093,303.72973 C 1003.1259,305.35012 1002.4843,307.50197 1002.4843,310.18529 C 1002.4843,312.85567 1003.1259,315.00104 1004.4093,316.6214 C 1005.6926,318.24177 1007.3842,319.05196 1009.4843,319.05195 C 1010.6768,319.05196 1011.7009,318.83807 1012.5565,318.41029 L 1009.8537,315.84362 L 1012.5176,313.02418" style="font-size: 35px; font-style: normal; font-variant: normal; font-weight: bold; font-stretch: normal; text-align: start; line-height: 125%; text-anchor: start; fill: rgb(170, 0, 0); fill-opacity: 1; stroke: none; stroke-width: 1px; stroke-linecap: butt; stroke-linejoin: miter; stroke-opacity: 1; font-family: AlMothnna;"/>
      <path sodipodi:nodetypes="ccccccc" id="path5462" d="M 984.74176,305.29639 C 985.34816,302.17139 986.56096,299.04639 990.80576,299.04639 C 995.05066,299.04639 998.38586,302.17139 996.86986,308.42139 C 995.35386,314.67139 988.38016,317.79639 984.74176,324.04639 C 981.10336,317.79639 974.12974,314.67139 972.61374,308.42139 C 971.09774,302.17139 974.43294,299.04639 978.67776,299.04639 C 982.92256,299.04639 984.13536,302.17139 984.74176,305.29639 z" style="fill: rgb(212, 0, 0); fill-opacity: 1; stroke: none; stroke-width: 0.354331; stroke-linecap: round; stroke-linejoin: round; stroke-miterlimit: 4; stroke-dasharray: 1.41732, 1.41732; stroke-dashoffset: 0pt; stroke-opacity: 1;"/>
      <path sodipodi:nodetypes="ccccccc" id="path5724" d="M 1009.769,339.86219 C 1010.982,333.61219 1013.4076,327.36219 1021.8973,327.36219 C 1030.3866,327.36219 1037.0573,333.61219 1034.0253,346.11219 C 1030.9933,358.61219 1017.046,364.86219 1009.769,377.36219 C 1002.4923,364.86219 988.54504,358.61219 985.51304,346.11219 C 982.48104,333.61219 989.15164,327.36219 997.64104,327.36219 C 1006.1306,327.36219 1008.5563,333.61219 1009.769,339.86219 z" style="fill: rgb(212, 0, 0); fill-opacity: 1; stroke: none; stroke-width: 0.354331; stroke-linecap: round; stroke-linejoin: round; stroke-miterlimit: 4; stroke-dasharray: 1.41732, 1.41732; stroke-dashoffset: 0pt; stroke-opacity: 1;"/>
      <path id="text4704" d="M 1032.169,360.30646 C 1028.7023,360.73316 1025.2623,361.4265 1021.849,362.38646 C 1018.489,363.29316 1015.1557,364.38649 1011.849,365.66646 C 1008.5957,366.89316 1005.369,368.25316 1002.169,369.74646 C 999.02234,371.23982 995.95567,372.75982 992.96902,374.30646 C 992.54234,374.51982 991.98234,374.83982 991.28902,375.26646 C 990.59568,375.63982 989.87568,376.03982 989.12902,376.46646 C 988.43568,376.83981 987.74235,377.18648 987.04902,377.50646 C 986.40902,377.82648 985.84902,377.98648 985.36902,377.98646 L 985.44902,377.98646 C 985.39568,377.98648 985.34235,378.01315 985.28902,378.06646 C 985.28902,378.06648 985.26235,378.06648 985.20902,378.06646 L 985.12902,377.98646 C 985.02235,377.39981 984.94235,376.78648 984.88902,376.14646 C 984.83568,375.50648 984.80902,374.89315 984.80902,374.30646 L 984.56902,373.82646 C 991.55568,369.61315 998.94234,366.06649 1006.729,363.18646 C 1014.5157,360.3065 1022.569,358.35983 1030.889,357.34646 L 1030.969,357.42646 C 1031.129,357.85317 1031.3423,358.27983 1031.609,358.70646 C 1031.8756,359.13317 1032.089,359.5865 1032.249,360.06646 L 1032.169,360.14646 L 1032.169,360.30646 M 1008.729,402.46646 C 1005.7423,402.30646 1002.9423,401.55979 1000.329,400.22646 C 997.71567,398.89313 995.39567,397.18646 993.36902,395.10646 C 991.34234,392.97313 989.63568,390.5998 988.24902,387.98646 C 986.86235,385.31981 985.90235,382.57314 985.36902,379.74646 L 985.52902,379.74646 C 987.39568,378.41315 989.31568,377.26648 991.28902,376.30646 C 993.26234,375.34648 995.26234,374.43982 997.28902,373.58646 C 999.31567,372.73315 1001.3423,371.93315 1003.369,371.18646 C 1005.449,370.38649 1007.529,369.50649 1009.609,368.54646 L 1009.689,368.78646 C 1009.5823,373.85315 1009.449,378.99981 1009.289,384.22646 C 1009.1823,389.45314 1009.3157,394.70646 1009.689,399.98646 L 1008.969,402.22646 L 1008.729,402.46646 M 1009.689,343.66646 L 1010.089,343.66646 C 1012.2223,343.66651 1014.2757,343.98651 1016.249,344.62646 C 1018.2223,345.21318 1020.0623,346.06651 1021.769,347.18646 C 1023.4756,348.25318 1025.049,349.53318 1026.489,351.02646 C 1027.929,352.46651 1029.1823,354.03984 1030.249,355.74646 C 1030.249,355.79984 1030.2223,355.8265 1030.169,355.82646 C 1030.0623,355.8265 1029.9556,355.79984 1029.849,355.74646 C 1022.1156,356.8665 1014.3823,358.83983 1006.649,361.66646 C 998.969,364.43983 991.74234,368.03982 984.96902,372.46646 L 984.56902,372.22646 C 984.56902,368.75982 985.18235,365.34649 986.40902,361.98646 C 987.68901,358.57317 989.44901,355.53317 991.68902,352.86646 C 993.92901,350.19984 996.56901,348.03984 999.60902,346.38646 C 1002.7023,344.67985 1006.089,343.79985 1009.769,343.74646 L 1009.689,343.66646 M 1010.969,402.38646 C 1010.8623,396.57313 1010.649,390.86647 1010.329,385.26646 C 1010.0623,379.66648 1009.849,374.09315 1009.689,368.54646 L 1009.769,368.46646 C 1013.5557,367.02649 1017.289,365.61316 1020.969,364.22646 C 1024.649,362.7865 1028.5423,361.8265 1032.649,361.34646 L 1032.729,361.42646 C 1033.4223,363.29316 1033.9556,365.21316 1034.329,367.18646 C 1034.7556,369.10649 1034.969,371.07982 1034.969,373.10646 C 1034.969,375.82648 1034.6223,378.54648 1033.929,381.26646 C 1033.2356,383.93314 1032.2223,386.46647 1030.889,388.86646 C 1029.609,391.21313 1028.009,393.34646 1026.089,395.26646 C 1024.169,397.18646 1022.009,398.78646 1019.609,400.06646 C 1020.8356,400.54646 1022.0623,400.99979 1023.289,401.42646 C 1024.569,401.79979 1025.8223,402.19979 1027.049,402.62646 L 1027.129,402.70646 C 1026.7023,403.98645 1026.3023,405.26645 1025.929,406.54646 C 1025.609,407.82645 1025.2356,409.07978 1024.809,410.30646 L 1024.729,410.38646 C 1022.9156,409.63978 1021.129,408.86645 1019.369,408.06646 C 1017.609,407.31978 1015.8223,406.59978 1014.009,405.90646 L 1013.929,405.82646 C 1014.1957,405.13312 1014.4357,404.41312 1014.649,403.66646 C 1014.8623,402.97312 1015.1023,402.27979 1015.369,401.58646 C 1014.6223,401.85312 1013.849,402.01312 1013.049,402.06646 C 1012.3023,402.11979 1011.5557,402.19979 1010.809,402.30646 L 1010.729,402.22646 L 1010.969,402.38646" style="font-size: 80px; font-style: normal; font-variant: normal; font-weight: normal; font-stretch: normal; text-align: start; line-height: 125%; text-anchor: start; fill: rgb(128, 0, 0); fill-opacity: 1; stroke: none; stroke-width: 1px; stroke-linecap: butt; stroke-linejoin: miter; stroke-opacity: 1; font-family: Airmole Stripe;"/>
    </g>
  </g>
</svg>