<?xml version="1.0" encoding="UTF-8" standalone="no"?>
<!-- Created with Inkscape (http://www.inkscape.org/) -->
<svg xmlns:dc="http://purl.org/dc/elements/1.1/" xmlns:cc="http://creativecommons.org/ns#" xmlns:rdf="http://www.w3.org/1999/02/22-rdf-syntax-ns#" xmlns:svg="http://www.w3.org/2000/svg" xmlns="http://www.w3.org/2000/svg" xmlns:sodipodi="http://sodipodi.sourceforge.net/DTD/sodipodi-0.dtd" xmlns:inkscape="http://www.inkscape.org/namespaces/inkscape" width="90" height="135" id="svg16720" sodipodi:version="0.32" inkscape:version="0.46" version="1.0" sodipodi:docname="heart_3.svg" inkscape:output_extension="org.inkscape.output.svg.inkscape">
  <defs id="defs16722">
    <inkscape:perspective sodipodi:type="inkscape:persp3d" inkscape:vp_x="0 : 526.18109 : 1" inkscape:vp_y="0 : 1000 : 0" inkscape:vp_z="744.09448 : 526.18109 : 1" inkscape:persp3d-origin="372.04724 : 350.78739 : 1" id="perspective16728"/>
  </defs>
  <sodipodi:namedview id="base" pagecolor="#ffffff" bordercolor="#666666" borderopacity="1.0" gridtolerance="10000" guidetolerance="10" objecttolerance="10" inkscape:pageopacity="0.0" inkscape:pageshadow="2" inkscape:zoom="1.4" inkscape:cx="1.1905278" inkscape:cy="112.32681" inkscape:document-units="px" inkscape:current-layer="layer1" showgrid="false" inkscape:window-width="641" inkscape:window-height="719" inkscape:window-x="611" inkscape:window-y="47"/>
  <metadata id="metadata16725">
    <rdf:RDF>
      <cc:Work rdf:about="">
        <dc:format>image/svg+xml</dc:format>
        <dc:type rdf:resource="http://purl.org/dc/dcmitype/StillImage"/>
      </cc:Work>
    </rdf:RDF>
  </metadata>
  <g inkscape:label="Layer 1" inkscape:groupmode="layer" id="layer1" transform="translate(-117.857, -330.576)">
    <g transform="translate(16.4945, 42.7143)" id="g14248">
      <g transform="translate(80.5055, 277.929)" id="g4590">
        <rect style="fill: rgb(0, 0, 0); fill-opacity: 1; stroke: none; stroke-width: 3; stroke-linecap: butt; stroke-linejoin: round; stroke-miterlimit: 4; stroke-dasharray: none; stroke-opacity: 1;" id="rect4592" width="90" height="135" x="20.85714" y="9.9336166" ry="14.04"/>
        <rect style="fill: rgb(242, 242, 242); fill-opacity: 1; stroke: none; stroke-width: 3; stroke-linecap: butt; stroke-linejoin: round; stroke-miterlimit: 4; stroke-dasharray: none; stroke-opacity: 1;" id="rect4594" width="80" height="125" x="25.85714" y="14.933617" ry="13"/>
      </g>
      <path id="text4672" d="M 161.32261,352.22645 C 161.74924,352.97317 162.12258,353.71983 162.44261,354.46645 C 162.76258,355.21317 163.05591,355.95983 163.32261,356.70645 L 163.16261,356.62645 C 158.20258,359.07983 153.34925,361.77316 148.60261,364.70645 C 143.85593,367.58649 139.42927,370.97315 135.32261,374.86645 L 134.92261,374.94645 L 133.16261,375.34645 C 133.05594,374.75981 132.92261,374.22648 132.76261,373.74645 C 132.60261,373.26648 132.46927,372.73315 132.36261,372.14645 L 132.28261,372.14645 C 136.4426,367.82649 140.97593,364.01316 145.88261,360.70645 C 150.78926,357.39983 155.90925,354.5465 161.24261,352.14645 L 161.32261,352.22645 M 159.24261,349.18645 C 159.34925,349.45317 159.53591,349.7465 159.80261,350.06645 C 160.06925,350.33317 160.30925,350.57317 160.52261,350.78645 L 160.68261,350.94645 C 155.18925,353.3465 150.01592,356.11983 145.16261,359.26645 C 140.3626,362.35982 136.01594,366.09315 132.12261,370.46645 L 132.04261,370.46645 C 131.29594,367.37315 130.57594,364.30649 129.88261,361.26645 C 129.18928,358.2265 128.46928,355.1865 127.72261,352.14645 L 127.72261,352.06645 C 129.58928,349.29317 132.06927,347.21317 135.16261,345.82645 C 138.30927,344.38651 141.50927,343.66651 144.76261,343.66645 L 145.00261,343.66645 C 147.56259,343.71984 150.09592,344.17318 152.60261,345.02645 C 155.16258,345.87984 157.37592,347.23984 159.24261,349.10645 L 159.24261,349.18645 M 135.32261,385.98645 C 135.26927,385.13314 135.21594,384.30647 135.16261,383.50645 C 135.10927,382.70647 135.05594,381.87981 135.00261,381.02645 L 135.08261,380.94645 C 135.7226,381.05314 136.3626,381.10647 137.00261,381.10645 C 137.6426,381.10647 138.2826,381.13314 138.92261,381.18645 C 139.45593,381.18647 140.0426,381.15981 140.68261,381.10645 C 141.3226,381.05314 141.93593,380.94647 142.52261,380.78645 C 143.10926,380.62647 143.6426,380.38647 144.12261,380.06645 C 144.6026,379.69314 144.9226,379.18647 145.08261,378.54645 C 144.9226,377.74648 144.57593,377.10648 144.04261,376.62645 C 143.50926,376.14648 142.89593,375.77314 142.20261,375.50645 C 141.5626,375.18648 140.8426,374.97315 140.04261,374.86645 C 139.29593,374.70648 138.57593,374.62648 137.88261,374.62645 L 137.64261,374.46645 C 141.6426,370.83982 145.82926,367.77315 150.20261,365.26645 C 154.57592,362.75982 159.10925,360.35983 163.80261,358.06645 L 163.88261,358.14645 C 164.30924,359.37316 164.60258,360.65316 164.76261,361.98645 C 164.92258,363.26649 165.00258,364.57316 165.00261,365.90645 C 164.94924,368.03982 164.65591,370.11982 164.12261,372.14645 C 163.64258,374.17315 162.89591,376.03981 161.88261,377.74645 C 160.86925,379.39981 159.58925,380.83981 158.04261,382.06645 C 156.54925,383.2398 154.76259,384.09314 152.68261,384.62645 C 153.74925,385.37314 154.62925,386.30647 155.32261,387.42645 C 156.01592,388.49313 156.36258,389.66646 156.36261,390.94645 C 156.25592,392.54646 155.80258,393.98646 155.00261,395.26645 C 154.25592,396.54646 153.26925,397.63979 152.04261,398.54645 C 150.81592,399.39979 149.45592,400.03979 147.96261,400.46645 C 146.52259,400.94645 145.08259,401.18645 143.64261,401.18645 L 143.48261,401.18645 C 140.01593,401.07979 136.81594,400.14645 133.88261,398.38645 L 133.80261,398.30645 C 134.06927,397.07979 134.28261,395.87979 134.44261,394.70645 C 134.60261,393.53313 134.81594,392.33313 135.08261,391.10645 L 135.16261,391.02645 C 135.90927,391.18646 136.62927,391.3198 137.32261,391.42645 C 138.06927,391.53313 138.81593,391.58646 139.56261,391.58645 C 140.46927,391.58646 141.45593,391.4798 142.52261,391.26645 C 143.58926,390.9998 144.2826,390.3598 144.60261,389.34645 C 144.22926,388.54647 143.66926,387.9598 142.92261,387.58645 C 142.22926,387.1598 141.45593,386.8398 140.60261,386.62645 C 139.74927,386.41313 138.86927,386.30647 137.96261,386.30645 C 137.05594,386.25313 136.2026,386.17313 135.40261,386.06645 L 135.32261,385.98645 L 135.32261,385.98645" style="font-size: 80px; font-style: normal; font-variant: normal; font-weight: normal; font-stretch: normal; text-align: start; line-height: 125%; text-anchor: start; fill: rgb(128, 0, 0); fill-opacity: 1; stroke: none; stroke-width: 1px; stroke-linecap: butt; stroke-linejoin: miter; stroke-opacity: 1; font-family: Airmole Stripe;"/>
      <path id="text5313" d="M 134.95601,303.74019 C 134.95601,302.45688 135.13749,301.3291 135.50046,300.35686 C 135.86342,299.3717 136.31712,298.6004 136.86157,298.04297 C 137.40601,297.48559 138.05416,297.03188 138.80601,296.68186 C 139.57082,296.33188 140.28378,296.10503 140.9449,296.0013 C 141.606,295.88466 142.29304,295.82633 143.00601,295.8263 C 145.41711,295.82633 147.33563,296.43559 148.76157,297.65408 C 150.18748,298.87262 150.90044,300.51892 150.90046,302.59297 C 150.90044,303.72077 150.64118,304.70595 150.12268,305.54853 C 149.61711,306.37817 148.78748,307.14947 147.63379,307.86241 C 149.03377,308.54946 150.05785,309.38557 150.70601,310.37075 C 151.3671,311.35594 151.69766,312.57446 151.69768,314.0263 C 151.69766,316.43742 150.90692,318.36242 149.32546,319.8013 C 147.75692,321.24019 145.65044,321.95964 143.00601,321.95964 C 140.46526,321.95964 138.44304,321.23371 136.93934,319.78186 C 135.43564,318.33001 134.67731,316.36612 134.66434,313.89019 L 139.42823,313.89019 C 139.57082,316.46983 140.79582,317.75964 143.10323,317.75964 C 144.17915,317.75964 145.06063,317.40964 145.74768,316.70964 C 146.44767,315.99668 146.79766,315.10224 146.79768,314.0263 C 146.79766,313.1189 146.55137,312.32816 146.05879,311.65408 C 145.57915,310.98002 144.92452,310.5328 144.0949,310.31241 C 143.42082,310.14391 142.46804,310.05965 141.23657,310.05964 L 141.23657,306.79297 L 141.66434,306.79297 C 144.55507,306.79298 146.00044,305.54206 146.00046,303.04019 C 146.00044,302.00317 145.72822,301.20595 145.18379,300.64853 C 144.6523,300.07818 143.90045,299.79299 142.92823,299.79297 C 141.63193,299.79299 140.74397,300.14947 140.26434,300.86241 C 139.79767,301.5754 139.54489,302.67077 139.50601,304.14853 L 134.95601,304.14853 L 134.95601,303.74019" style="font-size: 35px; font-style: normal; font-variant: normal; font-weight: bold; font-stretch: normal; text-align: start; line-height: 125%; text-anchor: start; fill: rgb(170, 0, 0); fill-opacity: 1; stroke: none; stroke-width: 1px; stroke-linecap: butt; stroke-linejoin: miter; stroke-opacity: 1; font-family: AlMothnna;"/>
      <path sodipodi:nodetypes="ccccccc" id="path5444" d="M 121.33535,305.29639 C 121.94175,302.17139 123.15455,299.04639 127.39936,299.04639 C 131.64416,299.04639 134.97936,302.17139 133.46336,308.42139 C 131.94736,314.67139 124.97375,317.79639 121.33535,324.04639 C 117.69695,317.79639 110.72335,314.67139 109.20735,308.42139 C 107.69135,302.17139 111.02655,299.04639 115.27135,299.04639 C 119.51615,299.04639 120.72895,302.17139 121.33535,305.29639 z" style="fill: rgb(212, 0, 0); fill-opacity: 1; stroke: none; stroke-width: 0.354331; stroke-linecap: round; stroke-linejoin: round; stroke-miterlimit: 4; stroke-dasharray: 1.41732, 1.41732; stroke-dashoffset: 0pt; stroke-opacity: 1;"/>
      <path sodipodi:nodetypes="ccccccc" id="path5612" d="M 132.42855,344.11219 C 132.79239,342.23719 133.52007,340.36219 136.06695,340.36219 C 138.61383,340.36219 140.61495,342.23719 139.70535,345.98719 C 138.79575,349.73719 134.61159,351.61219 132.42855,355.36219 C 130.24551,351.61219 126.06135,349.73719 125.15175,345.98719 C 124.24215,342.23719 126.24327,340.36219 128.79015,340.36219 C 131.33703,340.36219 132.06471,342.23719 132.42855,344.11219 z" style="fill: rgb(212, 0, 0); fill-opacity: 1; stroke: none; stroke-width: 0.354331; stroke-linecap: round; stroke-linejoin: round; stroke-miterlimit: 4; stroke-dasharray: 1.41732, 1.41732; stroke-dashoffset: 0pt; stroke-opacity: 1;"/>
      <path sodipodi:nodetypes="ccccccc" id="path5614" d="M 162.42855,374.11219 C 162.79239,372.23719 163.52007,370.36219 166.06695,370.36219 C 168.61383,370.36219 170.61495,372.23719 169.70535,375.98719 C 168.79575,379.73719 164.61159,381.61219 162.42855,385.36219 C 160.24551,381.61219 156.06135,379.73719 155.15175,375.98719 C 154.24215,372.23719 156.24327,370.36219 158.79015,370.36219 C 161.33703,370.36219 162.06471,372.23719 162.42855,374.11219 z" style="fill: rgb(212, 0, 0); fill-opacity: 1; stroke: none; stroke-width: 0.354331; stroke-linecap: round; stroke-linejoin: round; stroke-miterlimit: 4; stroke-dasharray: 1.41732, 1.41732; stroke-dashoffset: 0pt; stroke-opacity: 1;"/>
      <path sodipodi:nodetypes="ccccccc" id="path5616" d="M 136.42855,393.11219 C 136.79239,391.23719 137.52007,389.36219 140.06695,389.36219 C 142.61383,389.36219 144.61495,391.23719 143.70535,394.98719 C 142.79575,398.73719 138.61159,400.61219 136.42855,404.36219 C 134.24551,400.61219 130.06135,398.73719 129.15175,394.98719 C 128.24215,391.23719 130.24327,389.36219 132.79015,389.36219 C 135.33703,389.36219 136.06471,391.23719 136.42855,393.11219 z" style="fill: rgb(212, 0, 0); fill-opacity: 1; stroke: none; stroke-width: 0.354331; stroke-linecap: round; stroke-linejoin: round; stroke-miterlimit: 4; stroke-dasharray: 1.41732, 1.41732; stroke-dashoffset: 0pt; stroke-opacity: 1;"/>
    </g>
  </g>
</svg>