<?xml version="1.0" encoding="UTF-8" standalone="no"?>
<!-- Created with Inkscape (http://www.inkscape.org/) -->
<svg xmlns:dc="http://purl.org/dc/elements/1.1/" xmlns:cc="http://creativecommons.org/ns#" xmlns:rdf="http://www.w3.org/1999/02/22-rdf-syntax-ns#" xmlns:svg="http://www.w3.org/2000/svg" xmlns="http://www.w3.org/2000/svg" xmlns:sodipodi="http://sodipodi.sourceforge.net/DTD/sodipodi-0.dtd" xmlns:inkscape="http://www.inkscape.org/namespaces/inkscape" width="90" height="135" id="svg16720" sodipodi:version="0.32" inkscape:version="0.46" version="1.0" sodipodi:docname="heart_k.svg" inkscape:output_extension="org.inkscape.output.svg.inkscape">
  <defs id="defs16722">
    <inkscape:perspective sodipodi:type="inkscape:persp3d" inkscape:vp_x="0 : 526.18109 : 1" inkscape:vp_y="0 : 1000 : 0" inkscape:vp_z="744.09448 : 526.18109 : 1" inkscape:persp3d-origin="372.04724 : 350.78739 : 1" id="perspective16728"/>
  </defs>
  <sodipodi:namedview id="base" pagecolor="#ffffff" bordercolor="#666666" borderopacity="1.0" gridtolerance="10000" guidetolerance="10" objecttolerance="10" inkscape:pageopacity="0.0" inkscape:pageshadow="2" inkscape:zoom="1.4" inkscape:cx="1.1905278" inkscape:cy="112.32681" inkscape:document-units="px" inkscape:current-layer="layer1" showgrid="false" inkscape:window-width="641" inkscape:window-height="719" inkscape:window-x="611" inkscape:window-y="47"/>
  <metadata id="metadata16725">
    <rdf:RDF>
      <cc:Work rdf:about="">
        <dc:format>image/svg+xml</dc:format>
        <dc:type rdf:resource="http://purl.org/dc/dcmitype/StillImage"/>
      </cc:Work>
    </rdf:RDF>
  </metadata>
  <g inkscape:label="Layer 1" inkscape:groupmode="layer" id="layer1" transform="translate(-117.857, -330.576)">
    <g transform="translate(-942.846, 42.7143)" id="g15583">
      <g transform="translate(1039.85, 277.929)" id="g4650">
        <rect style="fill: rgb(0, 0, 0); fill-opacity: 1; stroke: none; stroke-width: 3; stroke-linecap: butt; stroke-linejoin: round; stroke-miterlimit: 4; stroke-dasharray: none; stroke-opacity: 1;" id="rect4652" width="90" height="135" x="20.85714" y="9.9336166" ry="14.04"/>
        <rect style="fill: rgb(242, 242, 242); fill-opacity: 1; stroke: none; stroke-width: 3; stroke-linecap: butt; stroke-linejoin: round; stroke-miterlimit: 4; stroke-dasharray: none; stroke-opacity: 1;" id="rect4654" width="80" height="125" x="25.85714" y="14.933617" ry="13"/>
      </g>
      <path id="text5353" d="M 1099.8249,313.53741 L 1099.8249,322.07352 L 1094.5749,322.07352 L 1094.5749,296.54296 L 1099.8249,296.54296 L 1099.8249,307.74296 L 1109.8193,296.54296 L 1116.0027,296.54296 L 1105.7943,307.56796 L 1117.0915,322.07352 L 1110.811,322.07352 L 1102.4499,310.79574 L 1099.8249,313.53741" style="font-size: 35px; font-style: normal; font-variant: normal; font-weight: bold; font-stretch: normal; text-align: start; line-height: 125%; text-anchor: start; fill: rgb(170, 0, 0); fill-opacity: 1; stroke: none; stroke-width: 1px; stroke-linecap: butt; stroke-linejoin: miter; stroke-opacity: 1; font-family: AlMothnna;"/>
      <path sodipodi:nodetypes="ccccccc" id="path5464" d="M 1080.6758,305.29639 C 1081.2822,302.17139 1082.495,299.04639 1086.7398,299.04639 C 1090.9846,299.04639 1094.3198,302.17139 1092.8038,308.42139 C 1091.2878,314.67139 1084.3142,317.79639 1080.6758,324.04639 C 1077.0374,317.79639 1070.0638,314.67139 1068.5478,308.42139 C 1067.0318,302.17139 1070.367,299.04639 1074.6118,299.04639 C 1078.8566,299.04639 1080.0694,302.17139 1080.6758,305.29639 z" style="fill: rgb(212, 0, 0); fill-opacity: 1; stroke: none; stroke-width: 0.354331; stroke-linecap: round; stroke-linejoin: round; stroke-miterlimit: 4; stroke-dasharray: 1.41732, 1.41732; stroke-dashoffset: 0pt; stroke-opacity: 1;"/>
      <path sodipodi:nodetypes="ccccccc" id="path5722" d="M 1105.7031,339.86219 C 1106.9161,333.61219 1109.3417,327.36219 1117.8314,327.36219 C 1126.3207,327.36219 1132.9914,333.61219 1129.9594,346.11219 C 1126.9274,358.61219 1112.9801,364.86219 1105.7031,377.36219 C 1098.4264,364.86219 1084.4791,358.61219 1081.4471,346.11219 C 1078.4151,333.61219 1085.0857,327.36219 1093.5751,327.36219 C 1102.0647,327.36219 1104.4904,333.61219 1105.7031,339.86219 z" style="fill: rgb(212, 0, 0); fill-opacity: 1; stroke: none; stroke-width: 0.354331; stroke-linecap: round; stroke-linejoin: round; stroke-miterlimit: 4; stroke-dasharray: 1.41732, 1.41732; stroke-dashoffset: 0pt; stroke-opacity: 1;"/>
      <path id="text4708" d="M 1115.5031,360.94646 C 1115.5564,361.21317 1115.583,361.47983 1115.5831,361.74646 C 1115.6364,361.95983 1115.6897,362.19983 1115.7431,362.46646 L 1115.8231,362.30646 C 1110.3831,364.33316 1105.0231,366.3865 1099.7431,368.46646 C 1094.5164,370.54649 1089.5297,373.10649 1084.7831,376.14646 L 1084.6231,376.06646 C 1084.5164,375.42649 1084.4897,374.78649 1084.5431,374.14646 C 1084.5964,373.50649 1084.5697,372.86649 1084.4631,372.22646 L 1084.4631,372.14646 C 1089.4764,369.21316 1094.6764,366.41316 1100.0631,363.74646 C 1105.5031,361.0265 1111.1031,358.73317 1116.8631,356.86646 C 1116.863,356.91984 1116.863,356.9465 1116.8631,356.94646 C 1116.9164,356.9465 1116.943,356.97317 1116.9431,357.02646 C 1116.6764,357.45317 1116.383,357.87984 1116.0631,358.30646 C 1115.7964,358.67984 1115.5297,359.07984 1115.2631,359.50646 L 1115.5031,360.94646 M 1083.1031,344.86646 C 1086.7831,344.81318 1090.4897,344.65318 1094.2231,344.38646 C 1097.9564,344.11985 1101.6897,343.90652 1105.4231,343.74646 L 1105.5831,343.74646 C 1105.3164,346.19985 1105.1031,348.59985 1104.9431,350.94646 C 1104.7831,353.23984 1104.5697,355.58651 1104.3031,357.98646 C 1104.9431,355.58651 1105.6097,353.21318 1106.3031,350.86646 C 1107.0497,348.51985 1107.7164,346.14652 1108.3031,343.74646 L 1108.3831,343.66646 C 1111.1564,343.77318 1113.903,343.93318 1116.6231,344.14646 C 1119.343,344.35985 1122.063,344.57318 1124.7831,344.78646 C 1123.7164,346.54652 1122.623,348.27985 1121.5031,349.98646 C 1120.383,351.63984 1119.3697,353.34651 1118.4631,355.10646 C 1112.4897,356.75984 1106.6497,358.89317 1100.9431,361.50646 C 1095.2364,364.0665 1089.7697,367.18649 1084.5431,370.86646 L 1084.1431,370.70646 L 1084.1431,369.10646 C 1084.1431,365.15983 1084.0364,361.1865 1083.8231,357.18646 C 1083.6631,353.18651 1083.4497,349.15985 1083.1831,345.10646 L 1083.2631,345.02646 L 1083.1031,344.86646 M 1086.0631,400.54646 C 1085.6897,396.81313 1085.4497,393.0798 1085.3431,389.34646 C 1085.2897,385.55981 1085.0764,381.74648 1084.7031,377.90646 L 1084.5431,377.66646 C 1086.9431,376.11982 1089.4231,374.70649 1091.9831,373.42646 C 1094.5431,372.14649 1097.1297,370.97316 1099.7431,369.90646 C 1102.4097,368.83983 1105.1031,367.82649 1107.8231,366.86646 C 1110.5431,365.85316 1113.263,364.8665 1115.9831,363.90646 L 1116.0631,363.98646 C 1117.343,369.85316 1119.023,375.53315 1121.1031,381.02646 C 1123.183,386.46648 1125.583,391.74647 1128.3031,396.86646 L 1128.1431,396.94646 C 1124.943,397.69313 1121.7164,398.41313 1118.4631,399.10646 C 1115.263,399.74646 1112.0364,400.43979 1108.7831,401.18646 C 1107.0231,399.05313 1105.6364,396.7598 1104.6231,394.30646 C 1103.6097,391.7998 1102.7564,389.23981 1102.0631,386.62646 C 1101.9031,388.81314 1101.7164,390.97314 1101.5031,393.10646 C 1101.3431,395.2398 1101.2097,397.3998 1101.1031,399.58646 L 1101.0231,399.74646 C 1098.5164,399.90646 1096.0097,400.09313 1093.5031,400.30646 C 1091.0497,400.46646 1088.5697,400.59979 1086.0631,400.70646 L 1085.9831,400.62646 L 1086.0631,400.54646" style="font-size: 80px; font-style: normal; font-variant: normal; font-weight: normal; font-stretch: normal; text-align: start; line-height: 125%; text-anchor: start; fill: rgb(128, 0, 0); fill-opacity: 1; stroke: none; stroke-width: 1px; stroke-linecap: butt; stroke-linejoin: miter; stroke-opacity: 1; font-family: Airmole Stripe;"/>
    </g>
  </g>
</svg>