<?xml version="1.0" encoding="UTF-8" standalone="no"?>
<!-- Created with Inkscape (http://www.inkscape.org/) -->
<svg xmlns:dc="http://purl.org/dc/elements/1.1/" xmlns:cc="http://creativecommons.org/ns#" xmlns:rdf="http://www.w3.org/1999/02/22-rdf-syntax-ns#" xmlns:svg="http://www.w3.org/2000/svg" xmlns="http://www.w3.org/2000/svg" xmlns:sodipodi="http://sodipodi.sourceforge.net/DTD/sodipodi-0.dtd" xmlns:inkscape="http://www.inkscape.org/namespaces/inkscape" width="90" height="135" id="svg16720" sodipodi:version="0.32" inkscape:version="0.46" version="1.0" sodipodi:docname="heart_7.svg" inkscape:output_extension="org.inkscape.output.svg.inkscape">
  <defs id="defs16722">
    <inkscape:perspective sodipodi:type="inkscape:persp3d" inkscape:vp_x="0 : 526.18109 : 1" inkscape:vp_y="0 : 1000 : 0" inkscape:vp_z="744.09448 : 526.18109 : 1" inkscape:persp3d-origin="372.04724 : 350.78739 : 1" id="perspective16728"/>
  </defs>
  <sodipodi:namedview id="base" pagecolor="#ffffff" bordercolor="#666666" borderopacity="1.0" gridtolerance="10000" guidetolerance="10" objecttolerance="10" inkscape:pageopacity="0.0" inkscape:pageshadow="2" inkscape:zoom="1.4" inkscape:cx="1.1905278" inkscape:cy="112.32681" inkscape:document-units="px" inkscape:current-layer="layer1" showgrid="false" inkscape:window-width="641" inkscape:window-height="719" inkscape:window-x="611" inkscape:window-y="47"/>
  <metadata id="metadata16725">
    <rdf:RDF>
      <cc:Work rdf:about="">
        <dc:format>image/svg+xml</dc:format>
        <dc:type rdf:resource="http://purl.org/dc/dcmitype/StillImage"/>
      </cc:Work>
    </rdf:RDF>
  </metadata>
  <g inkscape:label="Layer 1" inkscape:groupmode="layer" id="layer1" transform="translate(-117.857, -330.576)">
    <g transform="translate(-367.242, 42.7143)" id="g14388">
      <g transform="translate(464.242, 277.929)" id="g4614">
        <rect style="fill: rgb(0, 0, 0); fill-opacity: 1; stroke: none; stroke-width: 3; stroke-linecap: butt; stroke-linejoin: round; stroke-miterlimit: 4; stroke-dasharray: none; stroke-opacity: 1;" id="rect4616" width="90" height="135" x="20.85714" y="9.9336166" ry="14.04"/>
        <rect style="fill: rgb(242, 242, 242); fill-opacity: 1; stroke: none; stroke-width: 3; stroke-linecap: butt; stroke-linejoin: round; stroke-miterlimit: 4; stroke-dasharray: none; stroke-opacity: 1;" id="rect4618" width="80" height="125" x="25.85714" y="14.933617" ry="13"/>
      </g>
      <path id="text4684" d="M 547.77881,358.30646 C 547.51211,359.05317 547.27211,359.8265 547.05881,360.62646 C 546.89877,361.37317 546.68544,362.11983 546.41881,362.86646 L 546.57881,362.86646 C 542.04544,364.73317 537.59212,366.65316 533.21881,368.62646 C 528.84546,370.54649 524.6588,372.89316 520.65881,375.66646 C 519.27213,375.71982 517.91214,375.77315 516.57881,375.82646 C 515.24547,375.87982 513.88547,375.93315 512.49881,375.98646 L 512.65881,375.82646 C 515.2188,373.79982 517.91214,371.95982 520.73881,370.30646 C 523.6188,368.65316 526.55213,367.13316 529.53881,365.74646 C 532.52545,364.3065 535.53878,362.97317 538.57881,361.74646 C 541.61878,360.51984 544.65878,359.3465 547.69881,358.22646 L 547.77881,358.30646 M 517.37881,399.50646 C 517.8588,395.66647 518.47213,391.82647 519.21881,387.98646 C 519.96547,384.09315 520.95213,380.30648 522.17881,376.62646 C 525.69879,374.06649 529.45879,371.87982 533.45881,370.06646 C 537.51212,368.19983 541.61878,366.41316 545.77881,364.70646 L 545.77881,364.78646 C 543.91211,370.75983 541.96544,376.73315 539.93881,382.70646 C 537.91212,388.62647 535.69878,394.41314 533.29881,400.06646 L 533.29881,400.14646 C 530.57879,399.93313 527.93879,399.82646 525.37881,399.82646 C 522.8188,399.82646 520.1788,399.7198 517.45881,399.50646 L 517.37881,399.50646 M 508.41881,344.46646 C 515.56547,344.35985 522.76546,344.19985 530.01881,343.98646 C 537.32545,343.77319 544.63211,343.66652 551.93881,343.66646 L 552.01881,343.74646 C 551.37877,345.93318 550.76544,348.09318 550.17881,350.22646 C 549.5921,352.35984 548.97877,354.51984 548.33881,356.70646 L 548.09881,356.70646 C 544.73878,357.93317 541.37878,359.1865 538.01881,360.46646 C 534.65879,361.69317 531.35212,363.07983 528.09881,364.62646 C 524.8988,366.11983 521.75213,367.8265 518.65881,369.74646 C 515.56547,371.61316 512.63214,373.74649 509.85881,376.14646 L 509.45881,376.14646 L 508.25881,376.30646 C 508.31215,374.91982 508.33881,373.55982 508.33881,372.22646 C 508.33881,370.89316 508.33881,369.55983 508.33881,368.22646 C 508.33881,364.7065 508.31215,361.23984 508.25881,357.82646 C 508.20548,354.35984 508.17881,350.86651 508.17881,347.34646 L 508.25881,344.78646 L 508.41881,344.46646" style="font-size: 80px; font-style: normal; font-variant: normal; font-weight: normal; font-stretch: normal; text-align: start; line-height: 125%; text-anchor: start; fill: rgb(128, 0, 0); fill-opacity: 1; stroke: none; stroke-width: 1px; stroke-linecap: butt; stroke-linejoin: miter; stroke-opacity: 1; font-family: Airmole Stripe;"/>
      <path id="text5329" d="M 537.17907,297.24296 L 537.17907,301.11241 C 534.23646,304.66427 532.07165,308.06705 530.68463,311.32074 C 529.31054,314.57445 528.51332,318.15871 528.29296,322.07352 L 523.37351,322.07352 C 523.69758,319.44204 524.10592,317.21241 524.59851,315.38463 C 525.0911,313.55686 525.76517,311.74205 526.62074,309.94018 C 527.10036,308.85131 527.93647,307.39946 529.12907,305.58463 C 530.33461,303.76983 531.3198,302.45409 532.08463,301.63741 L 519.7374,301.63741 L 519.7374,297.24296 L 537.17907,297.24296" style="font-size: 35px; font-style: normal; font-variant: normal; font-weight: bold; font-stretch: normal; text-align: start; line-height: 125%; text-anchor: start; fill: rgb(170, 0, 0); fill-opacity: 1; stroke: none; stroke-width: 1px; stroke-linecap: butt; stroke-linejoin: miter; stroke-opacity: 1; font-family: AlMothnna;"/>
      <path sodipodi:nodetypes="ccccccc" id="path5452" d="M 505.07156,305.29639 C 505.67796,302.17139 506.89076,299.04639 511.13556,299.04639 C 515.38036,299.04639 518.71556,302.17139 517.19956,308.42139 C 515.68356,314.67139 508.70996,317.79639 505.07156,324.04639 C 501.43315,317.79639 494.45955,314.67139 492.94355,308.42139 C 491.42755,302.17139 494.76275,299.04639 499.00755,299.04639 C 503.25235,299.04639 504.46515,302.17139 505.07156,305.29639 z" style="fill: rgb(212, 0, 0); fill-opacity: 1; stroke: none; stroke-width: 0.354331; stroke-linecap: round; stroke-linejoin: round; stroke-miterlimit: 4; stroke-dasharray: 1.41732, 1.41732; stroke-dashoffset: 0pt; stroke-opacity: 1;"/>
      <path sodipodi:nodetypes="ccccccc" id="path5656" d="M 512.42855,339.11219 C 512.79239,337.23719 513.52007,335.36219 516.06695,335.36219 C 518.61383,335.36219 520.61495,337.23719 519.70535,340.98719 C 518.79575,344.73719 514.61159,346.61219 512.42855,350.36219 C 510.24551,346.61219 506.06135,344.73719 505.15175,340.98719 C 504.24215,337.23719 506.24327,335.36219 508.79015,335.36219 C 511.33703,335.36219 512.06471,337.23719 512.42855,339.11219 z" style="fill: rgb(212, 0, 0); fill-opacity: 1; stroke: none; stroke-width: 0.354331; stroke-linecap: round; stroke-linejoin: round; stroke-miterlimit: 4; stroke-dasharray: 1.41732, 1.41732; stroke-dashoffset: 0pt; stroke-opacity: 1;"/>
      <path sodipodi:nodetypes="ccccccc" id="path5658" d="M 511.42855,370.11219 C 511.79239,368.23719 512.52007,366.36219 515.06695,366.36219 C 517.61383,366.36219 519.61495,368.23719 518.70535,371.98719 C 517.79575,375.73719 513.61159,377.61219 511.42855,381.36219 C 509.24551,377.61219 505.06135,375.73719 504.15175,371.98719 C 503.24215,368.23719 505.24327,366.36219 507.79015,366.36219 C 510.33703,366.36219 511.06471,368.23719 511.42855,370.11219 z" style="fill: rgb(212, 0, 0); fill-opacity: 1; stroke: none; stroke-width: 0.354331; stroke-linecap: round; stroke-linejoin: round; stroke-miterlimit: 4; stroke-dasharray: 1.41732, 1.41732; stroke-dashoffset: 0pt; stroke-opacity: 1;"/>
      <path sodipodi:nodetypes="ccccccc" id="path5660" d="M 517.42855,393.11219 C 517.79239,391.23719 518.52007,389.36219 521.06695,389.36219 C 523.61383,389.36219 525.61495,391.23719 524.70535,394.98719 C 523.79575,398.73719 519.61159,400.61219 517.42855,404.36219 C 515.24551,400.61219 511.06135,398.73719 510.15175,394.98719 C 509.24215,391.23719 511.24327,389.36219 513.79015,389.36219 C 516.33703,389.36219 517.06471,391.23719 517.42855,393.11219 z" style="fill: rgb(212, 0, 0); fill-opacity: 1; stroke: none; stroke-width: 0.354331; stroke-linecap: round; stroke-linejoin: round; stroke-miterlimit: 4; stroke-dasharray: 1.41732, 1.41732; stroke-dashoffset: 0pt; stroke-opacity: 1;"/>
      <path sodipodi:nodetypes="ccccccc" id="path5662" d="M 540.42855,394.11219 C 540.79239,392.23719 541.52007,390.36219 544.06695,390.36219 C 546.61383,390.36219 548.61495,392.23719 547.70535,395.98719 C 546.79575,399.73719 542.61159,401.61219 540.42855,405.36219 C 538.24551,401.61219 534.06135,399.73719 533.15175,395.98719 C 532.24215,392.23719 534.24327,390.36219 536.79015,390.36219 C 539.33703,390.36219 540.06471,392.23719 540.42855,394.11219 z" style="fill: rgb(212, 0, 0); fill-opacity: 1; stroke: none; stroke-width: 0.354331; stroke-linecap: round; stroke-linejoin: round; stroke-miterlimit: 4; stroke-dasharray: 1.41732, 1.41732; stroke-dashoffset: 0pt; stroke-opacity: 1;"/>
      <path sodipodi:nodetypes="ccccccc" id="path5664" d="M 546.42855,371.11219 C 546.79239,369.23719 547.52007,367.36219 550.06695,367.36219 C 552.61383,367.36219 554.61495,369.23719 553.70535,372.98719 C 552.79575,376.73719 548.61159,378.61219 546.42855,382.36219 C 544.24551,378.61219 540.06135,376.73719 539.15175,372.98719 C 538.24215,369.23719 540.24327,367.36219 542.79015,367.36219 C 545.33703,367.36219 546.06471,369.23719 546.42855,371.11219 z" style="fill: rgb(212, 0, 0); fill-opacity: 1; stroke: none; stroke-width: 0.354331; stroke-linecap: round; stroke-linejoin: round; stroke-miterlimit: 4; stroke-dasharray: 1.41732, 1.41732; stroke-dashoffset: 0pt; stroke-opacity: 1;"/>
      <path sodipodi:nodetypes="ccccccc" id="path5666" d="M 554.42855,341.11219 C 554.79239,339.23719 555.52007,337.36219 558.06695,337.36219 C 560.61383,337.36219 562.61495,339.23719 561.70535,342.98719 C 560.79575,346.73719 556.61159,348.61219 554.42855,352.36219 C 552.24551,348.61219 548.06135,346.73719 547.15175,342.98719 C 546.24215,339.23719 548.24327,337.36219 550.79015,337.36219 C 553.33703,337.36219 554.06471,339.23719 554.42855,341.11219 z" style="fill: rgb(212, 0, 0); fill-opacity: 1; stroke: none; stroke-width: 0.354331; stroke-linecap: round; stroke-linejoin: round; stroke-miterlimit: 4; stroke-dasharray: 1.41732, 1.41732; stroke-dashoffset: 0pt; stroke-opacity: 1;"/>
      <path sodipodi:nodetypes="ccccccc" id="path5668" d="M 533.42855,331.11219 C 533.79239,329.23719 534.52007,327.36219 537.06695,327.36219 C 539.61383,327.36219 541.61495,329.23719 540.70535,332.98719 C 539.79575,336.73719 535.61159,338.61219 533.42855,342.36219 C 531.24551,338.61219 527.06135,336.73719 526.15175,332.98719 C 525.24215,329.23719 527.24327,327.36219 529.79015,327.36219 C 532.33703,327.36219 533.06471,329.23719 533.42855,331.11219 z" style="fill: rgb(212, 0, 0); fill-opacity: 1; stroke: none; stroke-width: 0.354331; stroke-linecap: round; stroke-linejoin: round; stroke-miterlimit: 4; stroke-dasharray: 1.41732, 1.41732; stroke-dashoffset: 0pt; stroke-opacity: 1;"/>
    </g>
  </g>
</svg>