<?xml version="1.0" encoding="UTF-8" standalone="no"?>
<!-- Created with Inkscape (http://www.inkscape.org/) -->
<svg xmlns:dc="http://purl.org/dc/elements/1.1/" xmlns:cc="http://creativecommons.org/ns#" xmlns:rdf="http://www.w3.org/1999/02/22-rdf-syntax-ns#" xmlns:svg="http://www.w3.org/2000/svg" xmlns="http://www.w3.org/2000/svg" xmlns:sodipodi="http://sodipodi.sourceforge.net/DTD/sodipodi-0.dtd" xmlns:inkscape="http://www.inkscape.org/namespaces/inkscape" width="90" height="135" id="svg16720" sodipodi:version="0.32" inkscape:version="0.46" version="1.0" sodipodi:docname="heart_8.svg" inkscape:output_extension="org.inkscape.output.svg.inkscape">
  <defs id="defs16722">
    <inkscape:perspective sodipodi:type="inkscape:persp3d" inkscape:vp_x="0 : 526.18109 : 1" inkscape:vp_y="0 : 1000 : 0" inkscape:vp_z="744.09448 : 526.18109 : 1" inkscape:persp3d-origin="372.04724 : 350.78739 : 1" id="perspective16728"/>
  </defs>
  <sodipodi:namedview id="base" pagecolor="#ffffff" bordercolor="#666666" borderopacity="1.0" gridtolerance="10000" guidetolerance="10" objecttolerance="10" inkscape:pageopacity="0.0" inkscape:pageshadow="2" inkscape:zoom="1.4" inkscape:cx="1.1905278" inkscape:cy="112.32681" inkscape:document-units="px" inkscape:current-layer="layer1" showgrid="false" inkscape:window-width="641" inkscape:window-height="719" inkscape:window-x="611" inkscape:window-y="47"/>
  <metadata id="metadata16725">
    <rdf:RDF>
      <cc:Work rdf:about="">
        <dc:format>image/svg+xml</dc:format>
        <dc:type rdf:resource="http://purl.org/dc/dcmitype/StillImage"/>
      </cc:Work>
    </rdf:RDF>
  </metadata>
  <g inkscape:label="Layer 1" inkscape:groupmode="layer" id="layer1" transform="translate(-117.857, -330.576)">
    <g transform="translate(-463.176, 42.7143)" id="g14421">
      <g transform="translate(560.176, 277.929)" id="g4620">
        <rect style="fill: rgb(0, 0, 0); fill-opacity: 1; stroke: none; stroke-width: 3; stroke-linecap: butt; stroke-linejoin: round; stroke-miterlimit: 4; stroke-dasharray: none; stroke-opacity: 1;" id="rect4622" width="90" height="135" x="20.85714" y="9.9336166" ry="14.04"/>
        <rect style="fill: rgb(242, 242, 242); fill-opacity: 1; stroke: none; stroke-width: 3; stroke-linecap: butt; stroke-linejoin: round; stroke-miterlimit: 4; stroke-dasharray: none; stroke-opacity: 1;" id="rect4624" width="80" height="125" x="25.85714" y="14.933617" ry="13"/>
      </g>
      <path id="text4688" d="M 648.59284,357.82644 L 649.47284,360.30644 C 645.47279,362.17314 641.52613,363.90647 637.63284,365.50644 C 633.7928,367.05314 629.97947,368.78647 626.19284,370.70644 L 626.11284,370.62644 C 626.11281,370.14647 626.08614,369.66647 626.03284,369.18644 C 626.03281,368.70647 626.03281,368.22647 626.03284,367.74644 L 626.11284,366.94644 C 629.84614,365.18647 633.49947,363.50648 637.07284,361.90644 C 640.69946,360.25315 644.51279,358.86648 648.51284,357.74644 L 648.59284,357.82644 M 625.95284,367.18644 C 625.84614,367.77314 625.81948,368.38647 625.87284,369.02644 C 625.92614,369.66647 625.89948,370.2798 625.79284,370.86644 L 625.71284,370.78644 C 619.31282,374.09313 613.60616,378.30646 608.59284,383.42644 L 608.43284,383.42644 C 607.84616,382.89312 607.28616,382.33312 606.75284,381.74644 C 606.27283,381.10646 605.8195,380.46646 605.39284,379.82644 L 605.31284,379.74644 C 608.51283,377.02646 611.89949,374.70646 615.47284,372.78644 C 619.04615,370.86647 622.51281,368.97314 625.87284,367.10644 L 625.95284,367.18644 L 625.95284,367.18644 M 612.11284,393.02644 C 612.11282,391.95978 612.32616,390.97311 612.75284,390.06644 C 613.23282,389.10645 613.84616,388.27978 614.59284,387.58644 C 612.77949,386.78645 611.12616,385.74645 609.63284,384.46644 L 609.63284,384.30644 C 611.97949,381.85312 614.51282,379.69313 617.23284,377.82644 C 619.95282,375.90646 622.77948,374.14646 625.71284,372.54644 L 625.95284,372.38644 C 625.68614,377.45313 625.49948,382.46646 625.39284,387.42644 C 625.28614,392.38645 625.12615,397.29311 624.91284,402.14644 L 624.83284,402.22644 C 623.49948,402.1731 622.11281,401.9331 620.67284,401.50644 C 619.23282,401.1331 617.89949,400.5731 616.67284,399.82644 C 615.44615,399.07977 614.40616,398.14644 613.55284,397.02644 C 612.69949,395.90644 612.21949,394.57311 612.11284,393.02644 M 627.23284,402.14644 C 627.07281,397.13311 626.88614,392.17311 626.67284,387.26644 C 626.45948,382.30646 626.29948,377.31979 626.19284,372.30644 L 626.27284,372.38644 C 630.11281,370.30647 634.08614,368.33314 638.19284,366.46644 C 642.29946,364.54647 646.21946,362.97314 649.95284,361.74644 L 650.03284,361.82644 C 650.19279,362.57314 650.32612,363.31981 650.43284,364.06644 C 650.53945,364.81314 650.59279,365.55981 650.59284,366.30644 L 650.59284,367.58644 C 650.59279,369.77314 650.24612,371.8798 649.55284,373.90644 C 648.91279,375.8798 648.00612,377.74646 646.83284,379.50644 C 645.71279,381.26646 644.32613,382.83979 642.67284,384.22644 C 641.0728,385.61312 639.3128,386.75979 637.39284,387.66644 C 638.13947,388.35978 638.7528,389.15978 639.23284,390.06644 C 639.76613,390.97311 640.0328,391.93311 640.03284,392.94644 C 639.92613,394.49311 639.44613,395.85311 638.59284,397.02644 C 637.7928,398.14644 636.7528,399.07977 635.47284,399.82644 C 634.24614,400.5731 632.9128,401.1331 631.47284,401.50644 C 630.03281,401.9331 628.64614,402.1731 627.31284,402.22644 L 627.23284,402.14644 L 627.23284,402.14644 M 625.95284,365.02644 C 622.11281,366.89314 618.43282,368.94647 614.91284,371.18644 C 611.44616,373.42647 608.16616,375.98646 605.07284,378.86644 L 604.91284,378.86644 C 602.6195,375.18646 601.47284,371.21313 601.47284,366.94644 L 601.47284,366.70644 C 601.47284,363.55981 602.1395,360.59981 603.47284,357.82644 C 604.8595,354.99982 606.64616,352.54649 608.83284,350.46644 C 611.07283,348.38649 613.60616,346.73316 616.43284,345.50644 C 619.31282,344.27983 622.24615,343.6665 625.23284,343.66644 L 625.87284,343.66644 C 628.11281,343.71983 630.35281,344.03983 632.59284,344.62644 C 634.8328,345.21316 636.9128,346.06649 638.83284,347.18644 C 640.80613,348.25316 642.56613,349.58649 644.11284,351.18644 C 645.71279,352.78649 646.99279,354.62648 647.95284,356.70644 L 647.87284,356.86644 C 644.08613,357.93315 640.3528,359.15981 636.67284,360.54644 C 633.04614,361.93314 629.49947,363.42648 626.03284,365.02644 L 625.95284,365.02644" style="font-size: 80px; font-style: normal; font-variant: normal; font-weight: normal; font-stretch: normal; text-align: start; line-height: 125%; text-anchor: start; fill: rgb(128, 0, 0); fill-opacity: 1; stroke: none; stroke-width: 1px; stroke-linecap: butt; stroke-linejoin: miter; stroke-opacity: 1; font-family: Airmole Stripe;"/>
      <path id="text5333" d="M 632.76124,302.53464 C 632.76122,303.44206 632.59919,304.24576 632.27513,304.94575 C 631.964,305.6328 631.58808,306.17076 631.14735,306.55964 C 630.71956,306.93558 630.18808,307.29854 629.55291,307.64853 C 630.97882,308.41335 632.00937,309.30132 632.64457,310.31241 C 633.2927,311.32354 633.61678,312.5615 633.6168,314.0263 C 633.61678,316.3726 632.79363,318.28464 631.14735,319.76241 C 629.514,321.22723 627.40104,321.95964 624.80846,321.95964 C 622.21586,321.95964 620.09642,321.22723 618.45013,319.76241 C 616.81679,318.28464 616.00013,316.3726 616.00013,314.0263 C 616.00013,312.54853 616.31772,311.31057 616.95291,310.31241 C 617.58809,309.30132 618.61864,308.41335 620.04457,307.64853 C 618.91679,307.05224 618.10013,306.35873 617.59457,305.56797 C 617.08902,304.76428 616.83624,303.77262 616.83624,302.59297 C 616.83624,300.63558 617.58809,299.0217 619.0918,297.7513 C 620.59549,296.46799 622.50105,295.82633 624.80846,295.8263 C 627.11586,295.82633 629.01493,296.46151 630.50568,297.73186 C 632.00937,299.00225 632.76122,300.60318 632.76124,302.53464 M 624.82791,299.79297 C 623.73901,299.79299 622.85105,300.09114 622.16402,300.68741 C 621.48994,301.28373 621.1529,302.05503 621.15291,303.0013 C 621.1529,303.96058 621.49642,304.74484 622.18346,305.35408 C 622.87049,305.96336 623.75197,306.26799 624.82791,306.26797 C 625.90382,306.26799 626.7853,305.96984 627.47235,305.37353 C 628.17234,304.76428 628.52234,303.98651 628.52235,303.04019 C 628.52234,302.06799 628.17882,301.28373 627.4918,300.68741 C 626.81771,300.09114 625.92975,299.79299 624.82791,299.79297 M 624.78902,309.61241 C 623.60938,309.61243 622.66308,309.98835 621.95013,310.74019 C 621.25012,311.47909 620.90012,312.47724 620.90013,313.73464 C 620.90012,314.96612 621.25012,315.94483 621.95013,316.67075 C 622.66308,317.39668 623.60938,317.75964 624.78902,317.75964 C 625.96864,317.75964 626.91493,317.40316 627.62791,316.69019 C 628.35382,315.96427 628.71678,315.00501 628.7168,313.81241 C 628.71678,312.51613 628.3603,311.49205 627.64735,310.74019 C 626.94734,309.98835 625.99456,309.61243 624.78902,309.61241" style="font-size: 35px; font-style: normal; font-variant: normal; font-weight: bold; font-stretch: normal; text-align: start; line-height: 125%; text-anchor: start; fill: rgb(170, 0, 0); fill-opacity: 1; stroke: none; stroke-width: 1px; stroke-linecap: butt; stroke-linejoin: miter; stroke-opacity: 1; font-family: AlMothnna;"/>
      <path sodipodi:nodetypes="ccccccc" id="path5454" d="M 601.0056,305.29639 C 601.612,302.17139 602.8248,299.04639 607.06961,299.04639 C 611.31441,299.04639 614.64961,302.17139 613.13361,308.42139 C 611.61761,314.67139 604.64401,317.79639 601.0056,324.04639 C 597.3672,317.79639 590.3936,314.67139 588.8776,308.42139 C 587.3616,302.17139 590.6968,299.04639 594.9416,299.04639 C 599.1864,299.04639 600.3992,302.17139 601.0056,305.29639 z" style="fill: rgb(212, 0, 0); fill-opacity: 1; stroke: none; stroke-width: 0.354331; stroke-linecap: round; stroke-linejoin: round; stroke-miterlimit: 4; stroke-dasharray: 1.41732, 1.41732; stroke-dashoffset: 0pt; stroke-opacity: 1;"/>
      <path sodipodi:nodetypes="ccccccc" id="path5640" d="M 628.42855,364.11219 C 628.79239,362.23719 629.52007,360.36219 632.06695,360.36219 C 634.61383,360.36219 636.61495,362.23719 635.70535,365.98719 C 634.79575,369.73719 630.61159,371.61219 628.42855,375.36219 C 626.24551,371.61219 622.06135,369.73719 621.15175,365.98719 C 620.24215,362.23719 622.24327,360.36219 624.79015,360.36219 C 627.33703,360.36219 628.06471,362.23719 628.42855,364.11219 z" style="fill: rgb(212, 0, 0); fill-opacity: 1; stroke: none; stroke-width: 0.354331; stroke-linecap: round; stroke-linejoin: round; stroke-miterlimit: 4; stroke-dasharray: 1.41732, 1.41732; stroke-dashoffset: 0pt; stroke-opacity: 1;"/>
      <path sodipodi:nodetypes="ccccccc" id="path5670" d="M 626.42855,337.11219 C 626.79239,335.23719 627.52007,333.36219 630.06695,333.36219 C 632.61383,333.36219 634.61495,335.23719 633.70535,338.98719 C 632.79575,342.73719 628.61159,344.61219 626.42855,348.36219 C 624.24551,344.61219 620.06135,342.73719 619.15175,338.98719 C 618.24215,335.23719 620.24327,333.36219 622.79015,333.36219 C 625.33703,333.36219 626.06471,335.23719 626.42855,337.11219 z" style="fill: rgb(212, 0, 0); fill-opacity: 1; stroke: none; stroke-width: 0.354331; stroke-linecap: round; stroke-linejoin: round; stroke-miterlimit: 4; stroke-dasharray: 1.41732, 1.41732; stroke-dashoffset: 0pt; stroke-opacity: 1;"/>
      <path sodipodi:nodetypes="ccccccc" id="path5672" d="M 607.42855,347.11219 C 607.79239,345.23719 608.52007,343.36219 611.06695,343.36219 C 613.61383,343.36219 615.61495,345.23719 614.70535,348.98719 C 613.79575,352.73719 609.61159,354.61219 607.42855,358.36219 C 605.24551,354.61219 601.06135,352.73719 600.15175,348.98719 C 599.24215,345.23719 601.24327,343.36219 603.79015,343.36219 C 606.33703,343.36219 607.06471,345.23719 607.42855,347.11219 z" style="fill: rgb(212, 0, 0); fill-opacity: 1; stroke: none; stroke-width: 0.354331; stroke-linecap: round; stroke-linejoin: round; stroke-miterlimit: 4; stroke-dasharray: 1.41732, 1.41732; stroke-dashoffset: 0pt; stroke-opacity: 1;"/>
      <path sodipodi:nodetypes="ccccccc" id="path5674" d="M 601.42855,367.11219 C 601.79239,365.23719 602.52007,363.36219 605.06695,363.36219 C 607.61383,363.36219 609.61495,365.23719 608.70535,368.98719 C 607.79575,372.73719 603.61159,374.61219 601.42855,378.36219 C 599.24551,374.61219 595.06135,372.73719 594.15175,368.98719 C 593.24215,365.23719 595.24327,363.36219 597.79015,363.36219 C 600.33703,363.36219 601.06471,365.23719 601.42855,367.11219 z" style="fill: rgb(212, 0, 0); fill-opacity: 1; stroke: none; stroke-width: 0.354331; stroke-linecap: round; stroke-linejoin: round; stroke-miterlimit: 4; stroke-dasharray: 1.41732, 1.41732; stroke-dashoffset: 0pt; stroke-opacity: 1;"/>
      <path sodipodi:nodetypes="ccccccc" id="path5676" d="M 615.42855,392.11219 C 615.79239,390.23719 616.52007,388.36219 619.06695,388.36219 C 621.61383,388.36219 623.61495,390.23719 622.70535,393.98719 C 621.79575,397.73719 617.61159,399.61219 615.42855,403.36219 C 613.24551,399.61219 609.06135,397.73719 608.15175,393.98719 C 607.24215,390.23719 609.24327,388.36219 611.79015,388.36219 C 614.33703,388.36219 615.06471,390.23719 615.42855,392.11219 z" style="fill: rgb(212, 0, 0); fill-opacity: 1; stroke: none; stroke-width: 0.354331; stroke-linecap: round; stroke-linejoin: round; stroke-miterlimit: 4; stroke-dasharray: 1.41732, 1.41732; stroke-dashoffset: 0pt; stroke-opacity: 1;"/>
      <path sodipodi:nodetypes="ccccccc" id="path5678" d="M 642.42855,393.11219 C 642.79239,391.23719 643.52007,389.36219 646.06695,389.36219 C 648.61383,389.36219 650.61495,391.23719 649.70535,394.98719 C 648.79575,398.73719 644.61159,400.61219 642.42855,404.36219 C 640.24551,400.61219 636.06135,398.73719 635.15175,394.98719 C 634.24215,391.23719 636.24327,389.36219 638.79015,389.36219 C 641.33703,389.36219 642.06471,391.23719 642.42855,393.11219 z" style="fill: rgb(212, 0, 0); fill-opacity: 1; stroke: none; stroke-width: 0.354331; stroke-linecap: round; stroke-linejoin: round; stroke-miterlimit: 4; stroke-dasharray: 1.41732, 1.41732; stroke-dashoffset: 0pt; stroke-opacity: 1;"/>
      <path sodipodi:nodetypes="ccccccc" id="path5680" d="M 648.42855,372.11219 C 648.79239,370.23719 649.52007,368.36219 652.06695,368.36219 C 654.61383,368.36219 656.61495,370.23719 655.70535,373.98719 C 654.79575,377.73719 650.61159,379.61219 648.42855,383.36219 C 646.24551,379.61219 642.06135,377.73719 641.15175,373.98719 C 640.24215,370.23719 642.24327,368.36219 644.79015,368.36219 C 647.33703,368.36219 648.06471,370.23719 648.42855,372.11219 z" style="fill: rgb(212, 0, 0); fill-opacity: 1; stroke: none; stroke-width: 0.354331; stroke-linecap: round; stroke-linejoin: round; stroke-miterlimit: 4; stroke-dasharray: 1.41732, 1.41732; stroke-dashoffset: 0pt; stroke-opacity: 1;"/>
      <path sodipodi:nodetypes="ccccccc" id="path5682" d="M 647.42855,346.11219 C 647.79239,344.23719 648.52007,342.36219 651.06695,342.36219 C 653.61383,342.36219 655.61495,344.23719 654.70535,347.98719 C 653.79575,351.73719 649.61159,353.61219 647.42855,357.36219 C 645.24551,353.61219 641.06135,351.73719 640.15175,347.98719 C 639.24215,344.23719 641.24327,342.36219 643.79015,342.36219 C 646.33703,342.36219 647.06471,344.23719 647.42855,346.11219 z" style="fill: rgb(212, 0, 0); fill-opacity: 1; stroke: none; stroke-width: 0.354331; stroke-linecap: round; stroke-linejoin: round; stroke-miterlimit: 4; stroke-dasharray: 1.41732, 1.41732; stroke-dashoffset: 0pt; stroke-opacity: 1;"/>
    </g>
  </g>
</svg>