<?xml version="1.0" encoding="UTF-8" standalone="no"?>
<!-- Created with Inkscape (http://www.inkscape.org/) -->
<svg xmlns:dc="http://purl.org/dc/elements/1.1/" xmlns:cc="http://creativecommons.org/ns#" xmlns:rdf="http://www.w3.org/1999/02/22-rdf-syntax-ns#" xmlns:svg="http://www.w3.org/2000/svg" xmlns="http://www.w3.org/2000/svg" xmlns:sodipodi="http://sodipodi.sourceforge.net/DTD/sodipodi-0.dtd" xmlns:inkscape="http://www.inkscape.org/namespaces/inkscape" width="90" height="135" id="svg16720" sodipodi:version="0.32" inkscape:version="0.46" version="1.0" sodipodi:docname="heart_5.svg" inkscape:output_extension="org.inkscape.output.svg.inkscape">
  <defs id="defs16722">
    <inkscape:perspective sodipodi:type="inkscape:persp3d" inkscape:vp_x="0 : 526.18109 : 1" inkscape:vp_y="0 : 1000 : 0" inkscape:vp_z="744.09448 : 526.18109 : 1" inkscape:persp3d-origin="372.04724 : 350.78739 : 1" id="perspective16728"/>
  </defs>
  <sodipodi:namedview id="base" pagecolor="#ffffff" bordercolor="#666666" borderopacity="1.0" gridtolerance="10000" guidetolerance="10" objecttolerance="10" inkscape:pageopacity="0.0" inkscape:pageshadow="2" inkscape:zoom="1.4" inkscape:cx="1.1905278" inkscape:cy="112.32681" inkscape:document-units="px" inkscape:current-layer="layer1" showgrid="false" inkscape:window-width="641" inkscape:window-height="719" inkscape:window-x="611" inkscape:window-y="47"/>
  <metadata id="metadata16725">
    <rdf:RDF>
      <cc:Work rdf:about="">
        <dc:format>image/svg+xml</dc:format>
        <dc:type rdf:resource="http://purl.org/dc/dcmitype/StillImage"/>
      </cc:Work>
    </rdf:RDF>
  </metadata>
  <g inkscape:label="Layer 1" inkscape:groupmode="layer" id="layer1" transform="translate(-117.857, -330.576)">
    <g transform="translate(-175.374, 42.7143)" id="g14328">
      <g transform="translate(272.374, 277.929)" id="g4602">
        <rect style="fill: rgb(0, 0, 0); fill-opacity: 1; stroke: none; stroke-width: 3; stroke-linecap: butt; stroke-linejoin: round; stroke-miterlimit: 4; stroke-dasharray: none; stroke-opacity: 1;" id="rect4604" width="90" height="135" x="20.85714" y="9.9336166" ry="14.04"/>
        <rect style="fill: rgb(242, 242, 242); fill-opacity: 1; stroke: none; stroke-width: 3; stroke-linecap: butt; stroke-linejoin: round; stroke-miterlimit: 4; stroke-dasharray: none; stroke-opacity: 1;" id="rect4606" width="80" height="125" x="25.85714" y="14.933617" ry="13"/>
      </g>
      <path id="text4680" d="M 359.99072,353.50645 L 359.91072,353.98645 C 359.80401,354.57316 359.72401,355.18649 359.67072,355.82645 C 359.67068,356.46649 359.64401,357.10649 359.59072,357.74645 L 359.43072,357.90645 C 355.96401,359.23982 352.47068,360.59982 348.95072,361.98645 C 345.48402,363.37315 342.04403,364.86648 338.63072,366.46645 C 335.2707,368.06648 331.93737,369.82648 328.63072,371.74645 C 325.37738,373.66647 322.28405,375.82647 319.35072,378.22645 L 319.19072,378.14645 C 318.97738,377.45314 318.81738,376.6798 318.71072,375.82645 C 318.60405,374.9198 318.55072,374.09314 318.55072,373.34645 L 318.23072,373.02645 C 324.41738,368.11981 331.08404,364.06648 338.23072,360.86645 C 345.37736,357.61316 352.60402,355.13316 359.91072,353.42645 L 359.99072,353.50645 M 316.15072,344.78645 C 322.76405,344.89317 329.40404,344.73317 336.07072,344.30645 C 342.79069,343.87984 349.56402,343.71984 356.39072,343.82645 L 360.55072,343.90645 C 360.44401,345.23983 360.36401,346.57317 360.31072,347.90645 C 360.31068,349.1865 360.25734,350.49316 360.15072,351.82645 L 360.31072,352.30645 C 352.52402,354.01316 345.13736,356.46649 338.15072,359.66645 C 331.16404,362.86648 324.60405,366.83981 318.47072,371.58645 L 318.39072,371.50645 C 317.80405,366.97315 317.32405,362.51982 316.95072,358.14645 C 316.57739,353.77316 316.23072,349.39983 315.91072,345.02645 L 315.99072,344.94645 L 316.15072,344.78645 M 320.63072,386.14645 C 320.41738,385.07979 320.23072,384.06646 320.07072,383.10645 C 319.96405,382.14646 319.77738,381.13313 319.51072,380.06645 L 319.91072,379.90645 C 325.51071,375.1598 331.72404,371.13314 338.55072,367.82645 C 345.37736,364.46648 352.31068,361.61315 359.35072,359.26645 L 359.43072,359.34645 C 359.16401,361.79982 358.84401,364.22648 358.47072,366.62645 C 358.15068,369.02648 357.83068,371.42647 357.51072,373.82645 L 357.59072,373.82645 C 354.07068,373.61314 350.55069,373.37314 347.03072,373.10645 C 343.51069,372.78647 339.9907,372.49314 336.47072,372.22645 L 336.47072,372.86645 C 336.4707,373.39981 336.44403,373.90647 336.39072,374.38645 C 336.3907,374.86647 336.3907,375.37314 336.39072,375.90645 L 336.39072,376.54645 C 336.81737,376.4398 337.21737,376.3598 337.59072,376.30645 C 337.96403,376.1998 338.36403,376.14647 338.79072,376.14645 C 340.5507,376.14647 342.44403,376.38647 344.47072,376.86645 C 346.49736,377.34647 348.36402,378.09313 350.07072,379.10645 C 351.83068,380.1198 353.27068,381.42646 354.39072,383.02645 C 355.56401,384.57313 356.15068,386.41313 356.15072,388.54645 C 356.15068,391.05312 355.59068,393.15979 354.47072,394.86645 C 353.40402,396.51978 352.01735,397.85312 350.31072,398.86645 C 348.65735,399.87978 346.79069,400.59978 344.71072,401.02645 C 342.68403,401.50644 340.7107,401.74644 338.79072,401.74645 C 335.7507,401.74644 332.76404,401.34645 329.83072,400.54645 C 326.95071,399.79978 324.25738,398.57311 321.75072,396.86645 L 321.75072,396.78645 C 322.17738,395.61312 322.63071,394.46645 323.11072,393.34645 C 323.59071,392.22645 324.04405,391.07979 324.47072,389.90645 L 324.55072,389.82645 C 326.41738,390.57312 328.33738,391.26646 330.31072,391.90645 C 332.33737,392.54645 334.36404,392.89312 336.39072,392.94645 L 336.79072,392.94645 C 337.96403,392.94645 339.08403,392.62645 340.15072,391.98645 C 341.21736,391.34646 341.77736,390.35979 341.83072,389.02645 L 341.83072,388.70645 C 341.56403,387.69313 341.08403,386.94646 340.39072,386.46645 C 339.69736,385.93313 338.89736,385.55979 337.99072,385.34645 C 337.08403,385.13313 336.12403,385.02646 335.11072,385.02645 C 334.1507,384.97313 333.2707,384.91979 332.47072,384.86645 C 328.57737,384.86646 324.65738,385.31979 320.71072,386.22645 L 320.63072,386.14645" style="font-size: 80px; font-style: normal; font-variant: normal; font-weight: normal; font-stretch: normal; text-align: start; line-height: 125%; text-anchor: start; fill: rgb(128, 0, 0); fill-opacity: 1; stroke: none; stroke-width: 1px; stroke-linecap: butt; stroke-linejoin: miter; stroke-opacity: 1; font-family: Airmole Stripe;"/>
      <path id="text5321" d="M 343.4509,296.33186 L 343.4509,300.7263 L 333.18423,300.7263 L 332.38701,305.89853 C 333.70922,304.90039 335.14163,304.40132 336.68423,304.4013 C 338.9657,304.40132 340.82588,305.19854 342.26479,306.79297 C 343.70366,308.37446 344.4231,310.43557 344.42312,312.9763 C 344.4231,315.64668 343.59347,317.81149 341.93423,319.47075 C 340.28792,321.13001 338.12959,321.95964 335.45923,321.95964 C 333.04811,321.95964 331.09071,321.29204 329.58701,319.95686 C 328.0833,318.60871 327.30553,316.84575 327.25368,314.66797 L 332.11479,314.66797 C 332.15367,315.67909 332.46478,316.45038 333.04812,316.98186 C 333.63145,317.50038 334.45459,317.75964 335.51757,317.75964 C 336.74904,317.75964 337.72126,317.34483 338.43423,316.51519 C 339.16014,315.68557 339.52311,314.54483 339.52312,313.09297 C 339.52311,311.57631 339.16663,310.39668 338.45368,309.55408 C 337.7407,308.7115 336.762,308.29021 335.51757,308.29019 C 333.93608,308.29021 332.89256,308.91891 332.38701,310.1763 L 327.95368,310.1763 L 330.17034,296.33186 L 343.4509,296.33186" style="font-size: 35px; font-style: normal; font-variant: normal; font-weight: bold; font-stretch: normal; text-align: start; line-height: 125%; text-anchor: start; fill: rgb(170, 0, 0); fill-opacity: 1; stroke: none; stroke-width: 1px; stroke-linecap: butt; stroke-linejoin: miter; stroke-opacity: 1; font-family: AlMothnna;"/>
      <path sodipodi:nodetypes="ccccccc" id="path5448" d="M 313.20343,305.29639 C 313.80983,302.17139 315.02263,299.04639 319.26744,299.04639 C 323.51224,299.04639 326.84744,302.17139 325.33144,308.42139 C 323.81544,314.67139 316.84183,317.79639 313.20343,324.04639 C 309.56503,317.79639 302.59143,314.67139 301.07543,308.42139 C 299.55943,302.17139 302.89463,299.04639 307.13943,299.04639 C 311.38423,299.04639 312.59703,302.17139 313.20343,305.29639 z" style="fill: rgb(212, 0, 0); fill-opacity: 1; stroke: none; stroke-width: 0.354331; stroke-linecap: round; stroke-linejoin: round; stroke-miterlimit: 4; stroke-dasharray: 1.41732, 1.41732; stroke-dashoffset: 0pt; stroke-opacity: 1;"/>
      <path sodipodi:nodetypes="ccccccc" id="path5628" d="M 316.42855,341.11219 C 316.79239,339.23719 317.52007,337.36219 320.06695,337.36219 C 322.61383,337.36219 324.61495,339.23719 323.70535,342.98719 C 322.79575,346.73719 318.61159,348.61219 316.42855,352.36219 C 314.24551,348.61219 310.06135,346.73719 309.15175,342.98719 C 308.24215,339.23719 310.24327,337.36219 312.79015,337.36219 C 315.33703,337.36219 316.06471,339.23719 316.42855,341.11219 z" style="fill: rgb(212, 0, 0); fill-opacity: 1; stroke: none; stroke-width: 0.354331; stroke-linecap: round; stroke-linejoin: round; stroke-miterlimit: 4; stroke-dasharray: 1.41732, 1.41732; stroke-dashoffset: 0pt; stroke-opacity: 1;"/>
      <path sodipodi:nodetypes="ccccccc" id="path5630" d="M 322.42855,378.11219 C 322.79239,376.23719 323.52007,374.36219 326.06695,374.36219 C 328.61383,374.36219 330.61495,376.23719 329.70535,379.98719 C 328.79575,383.73719 324.61159,385.61219 322.42855,389.36219 C 320.24551,385.61219 316.06135,383.73719 315.15175,379.98719 C 314.24215,376.23719 316.24327,374.36219 318.79015,374.36219 C 321.33703,374.36219 322.06471,376.23719 322.42855,378.11219 z" style="fill: rgb(212, 0, 0); fill-opacity: 1; stroke: none; stroke-width: 0.354331; stroke-linecap: round; stroke-linejoin: round; stroke-miterlimit: 4; stroke-dasharray: 1.41732, 1.41732; stroke-dashoffset: 0pt; stroke-opacity: 1;"/>
      <path sodipodi:nodetypes="ccccccc" id="path5632" d="M 353.42855,392.11219 C 353.79239,390.23719 354.52007,388.36219 357.06695,388.36219 C 359.61383,388.36219 361.61495,390.23719 360.70535,393.98719 C 359.79575,397.73719 355.61159,399.61219 353.42855,403.36219 C 351.24551,399.61219 347.06135,397.73719 346.15175,393.98719 C 345.24215,390.23719 347.24327,388.36219 349.79015,388.36219 C 352.33703,388.36219 353.06471,390.23719 353.42855,392.11219 z" style="fill: rgb(212, 0, 0); fill-opacity: 1; stroke: none; stroke-width: 0.354331; stroke-linecap: round; stroke-linejoin: round; stroke-miterlimit: 4; stroke-dasharray: 1.41732, 1.41732; stroke-dashoffset: 0pt; stroke-opacity: 1;"/>
      <path sodipodi:nodetypes="ccccccc" id="path5634" d="M 356.42855,367.11219 C 356.79239,365.23719 357.52007,363.36219 360.06695,363.36219 C 362.61383,363.36219 364.61495,365.23719 363.70535,368.98719 C 362.79575,372.73719 358.61159,374.61219 356.42855,378.36219 C 354.24551,374.61219 350.06135,372.73719 349.15175,368.98719 C 348.24215,365.23719 350.24327,363.36219 352.79015,363.36219 C 355.33703,363.36219 356.06471,365.23719 356.42855,367.11219 z" style="fill: rgb(212, 0, 0); fill-opacity: 1; stroke: none; stroke-width: 0.354331; stroke-linecap: round; stroke-linejoin: round; stroke-miterlimit: 4; stroke-dasharray: 1.41732, 1.41732; stroke-dashoffset: 0pt; stroke-opacity: 1;"/>
      <path sodipodi:nodetypes="ccccccc" id="path5636" d="M 360.42855,338.11219 C 360.79239,336.23719 361.52007,334.36219 364.06695,334.36219 C 366.61383,334.36219 368.61495,336.23719 367.70535,339.98719 C 366.79575,343.73719 362.61159,345.61219 360.42855,349.36219 C 358.24551,345.61219 354.06135,343.73719 353.15175,339.98719 C 352.24215,336.23719 354.24327,334.36219 356.79015,334.36219 C 359.33703,334.36219 360.06471,336.23719 360.42855,338.11219 z" style="fill: rgb(212, 0, 0); fill-opacity: 1; stroke: none; stroke-width: 0.354331; stroke-linecap: round; stroke-linejoin: round; stroke-miterlimit: 4; stroke-dasharray: 1.41732, 1.41732; stroke-dashoffset: 0pt; stroke-opacity: 1;"/>
    </g>
  </g>
</svg>