<?xml version="1.0" encoding="UTF-8" standalone="no"?>
<!-- Created with Inkscape (http://www.inkscape.org/) -->
<svg xmlns:dc="http://purl.org/dc/elements/1.1/" xmlns:cc="http://creativecommons.org/ns#" xmlns:rdf="http://www.w3.org/1999/02/22-rdf-syntax-ns#" xmlns:svg="http://www.w3.org/2000/svg" xmlns="http://www.w3.org/2000/svg" xmlns:sodipodi="http://sodipodi.sourceforge.net/DTD/sodipodi-0.dtd" xmlns:inkscape="http://www.inkscape.org/namespaces/inkscape" width="90" height="135" id="svg16720" sodipodi:version="0.32" inkscape:version="0.46" version="1.0" sodipodi:docname="heart_6.svg" inkscape:output_extension="org.inkscape.output.svg.inkscape">
  <defs id="defs16722">
    <inkscape:perspective sodipodi:type="inkscape:persp3d" inkscape:vp_x="0 : 526.18109 : 1" inkscape:vp_y="0 : 1000 : 0" inkscape:vp_z="744.09448 : 526.18109 : 1" inkscape:persp3d-origin="372.04724 : 350.78739 : 1" id="perspective16728"/>
  </defs>
  <sodipodi:namedview id="base" pagecolor="#ffffff" bordercolor="#666666" borderopacity="1.0" gridtolerance="10000" guidetolerance="10" objecttolerance="10" inkscape:pageopacity="0.0" inkscape:pageshadow="2" inkscape:zoom="1.4" inkscape:cx="1.1905278" inkscape:cy="112.32681" inkscape:document-units="px" inkscape:current-layer="layer1" showgrid="false" inkscape:window-width="641" inkscape:window-height="719" inkscape:window-x="611" inkscape:window-y="47"/>
  <metadata id="metadata16725">
    <rdf:RDF>
      <cc:Work rdf:about="">
        <dc:format>image/svg+xml</dc:format>
        <dc:type rdf:resource="http://purl.org/dc/dcmitype/StillImage"/>
      </cc:Work>
    </rdf:RDF>
  </metadata>
  <g inkscape:label="Layer 1" inkscape:groupmode="layer" id="layer1" transform="translate(-117.857, -330.576)">
    <g transform="translate(-271.308, 42.7143)" id="g14357">
      <g transform="translate(368.308, 277.929)" id="g4608">
        <rect style="fill: rgb(0, 0, 0); fill-opacity: 1; stroke: none; stroke-width: 3; stroke-linecap: butt; stroke-linejoin: round; stroke-miterlimit: 4; stroke-dasharray: none; stroke-opacity: 1;" id="rect4610" width="90" height="135" x="20.85714" y="9.9336166" ry="14.04"/>
        <rect style="fill: rgb(242, 242, 242); fill-opacity: 1; stroke: none; stroke-width: 3; stroke-linecap: butt; stroke-linejoin: round; stroke-miterlimit: 4; stroke-dasharray: none; stroke-opacity: 1;" id="rect4612" width="80" height="125" x="25.85714" y="14.933617" ry="13"/>
      </g>
      <path id="text4716" d="M 449.84476,369.98645 C 449.95139,370.25315 450.08472,370.46649 450.24476,370.62645 C 450.40472,370.78649 450.59139,370.97315 450.80476,371.18645 L 450.80476,371.34645 C 447.71139,372.67982 444.64473,374.09315 441.60476,375.58645 C 438.61807,377.07981 435.7114,378.70648 432.88476,380.46645 C 430.05807,382.17314 427.31141,384.06647 424.64476,386.14645 C 422.03142,388.17313 419.55142,390.41313 417.20476,392.86645 L 417.04476,392.78645 C 416.77809,392.25313 416.53809,391.7198 416.32476,391.18645 C 416.16475,390.5998 415.95142,390.0398 415.68476,389.50645 L 416.00476,389.42645 C 418.19142,387.13314 420.59142,384.9998 423.20476,383.02645 C 425.87141,381.05314 428.64474,379.26648 431.52476,377.66645 C 434.40474,376.06648 437.36473,374.62648 440.40476,373.34645 C 443.49806,372.06648 446.61806,370.94649 449.76476,369.98645 L 449.84476,369.98645 L 449.84476,369.98645 M 446.24476,367.02645 C 446.67139,367.29316 447.07139,367.55982 447.44476,367.82645 C 447.81806,368.09315 448.19139,368.38649 448.56476,368.70645 L 448.40476,369.10645 C 442.53806,370.97315 436.72473,373.42648 430.96476,376.46645 C 425.25808,379.45314 420.05808,383.21314 415.36476,387.74645 L 415.20476,387.66645 C 414.83142,386.54647 414.56476,385.3198 414.40476,383.98645 C 414.29809,382.65314 414.24476,381.39981 414.24476,380.22645 L 414.24476,379.42645 C 414.24476,375.95981 414.72476,372.57315 415.68476,369.26645 C 416.69809,365.90649 418.03142,362.70649 419.68476,359.66645 C 421.39142,356.6265 423.31141,353.77317 425.44476,351.10645 C 427.63141,348.38651 429.92474,345.90651 432.32476,343.66645 L 432.48476,343.74645 C 434.1914,345.82651 436.05807,347.77317 438.08476,349.58645 C 440.1114,351.3465 442.13806,353.07984 444.16476,354.78645 C 444.16473,354.83983 444.13806,354.89317 444.08476,354.94645 C 444.08473,354.9465 444.08473,354.99983 444.08476,355.10645 C 441.89806,356.0665 439.73806,357.2665 437.60476,358.70645 C 435.52474,360.1465 433.57807,361.79983 431.76476,363.66645 C 430.00474,365.47982 428.48474,367.50649 427.20476,369.74645 C 425.97808,371.93315 425.17808,374.27982 424.80476,376.78645 C 425.28475,375.39981 425.81808,373.98648 426.40476,372.54645 C 426.99141,371.10648 427.73808,369.79982 428.64476,368.62645 C 429.60474,367.45316 430.72474,366.49316 432.00476,365.74645 C 433.33807,364.99982 434.96474,364.62649 436.88476,364.62645 L 437.36476,364.62645 C 440.56473,364.73316 443.52473,365.53316 446.24476,367.02645 M 434.72476,403.58645 C 431.31141,403.53312 428.11141,402.73312 425.12476,401.18645 C 422.13808,399.58646 419.71142,397.26646 417.84476,394.22645 L 417.84476,394.06645 C 422.69808,389.21313 428.00474,385.10647 433.76476,381.74645 C 439.52473,378.38648 445.49806,375.31981 451.68476,372.54645 L 451.76476,372.78645 L 451.76476,372.70645 C 452.56472,374.03982 453.15138,375.47981 453.52476,377.02645 C 453.89805,378.57314 454.08472,380.17314 454.08476,381.82645 L 454.08476,382.70645 C 454.08472,385.26647 453.60472,387.7998 452.64476,390.30645 C 451.73805,392.81313 450.45805,395.05313 448.80476,397.02645 C 447.20472,398.99979 445.25806,400.59979 442.96476,401.82645 C 440.72473,402.99979 438.2714,403.58645 435.60476,403.58645 L 434.80476,403.58645 L 434.72476,403.58645" style="font-size: 80px; font-style: normal; font-variant: normal; font-weight: normal; font-stretch: normal; text-align: start; line-height: 125%; text-anchor: start; fill: rgb(128, 0, 0); fill-opacity: 1; stroke: none; stroke-width: 1px; stroke-linecap: butt; stroke-linejoin: miter; stroke-opacity: 1; font-family: Airmole Stripe;"/>
      <path id="text5325" d="M 423.63028,309.35964 C 423.63028,300.33744 426.68305,295.82633 432.78861,295.8263 C 433.07379,295.82633 433.35249,295.83929 433.62472,295.86519 C 433.9099,295.87818 434.28582,295.93003 434.7525,296.02075 C 435.23212,296.11151 435.67286,296.23466 436.07472,296.39019 C 436.48953,296.54577 436.93027,296.77911 437.39695,297.09019 C 437.87656,297.40133 438.29138,297.77077 438.64139,298.19853 C 438.99137,298.61336 439.31545,299.15133 439.61361,299.81241 C 439.91174,300.46058 440.11915,301.18651 440.23584,301.99019 L 435.70528,301.99019 C 435.38119,301.19947 434.98582,300.63558 434.51917,300.29853 C 434.05249,299.96151 433.43027,299.79299 432.6525,299.79297 C 431.66731,299.79299 430.83768,300.1041 430.16361,300.7263 C 429.5025,301.34855 429.06176,302.21706 428.84139,303.33186 C 428.72472,303.86336 428.65342,304.28465 428.6275,304.59575 C 428.60157,304.90688 428.56916,305.71706 428.53028,307.0263 C 429.29509,306.22261 430.04694,305.65873 430.78584,305.33464 C 431.53768,304.99762 432.43212,304.8291 433.46917,304.82908 C 435.59508,304.8291 437.32564,305.57447 438.66084,307.06519 C 439.996,308.55595 440.6636,310.48743 440.66361,312.85964 C 440.6636,315.55594 439.89878,317.74668 438.36917,319.43186 C 436.83953,321.11704 434.84323,321.95964 432.38028,321.95964 C 430.90249,321.95964 429.54787,321.63556 428.31639,320.98741 C 427.08491,320.33927 426.11268,319.43834 425.39972,318.28464 C 424.7775,317.29946 424.3238,316.10686 424.03861,314.70686 C 423.76639,313.30687 423.63028,311.52446 423.63028,309.35964 M 432.26361,308.65964 C 431.13583,308.65965 430.21546,309.08743 429.5025,309.94297 C 428.8025,310.79854 428.4525,311.90687 428.4525,313.26797 C 428.4525,314.5902 428.8025,315.67261 429.5025,316.51519 C 430.20249,317.34483 431.1099,317.75964 432.22472,317.75964 C 433.3136,317.75964 434.21453,317.33186 434.9275,316.4763 C 435.65342,315.60779 436.01638,314.51242 436.01639,313.19019 C 436.01638,311.81613 435.67286,310.72076 434.98584,309.90408 C 434.31175,309.07446 433.40434,308.65965 432.26361,308.65964" style="font-size: 35px; font-style: normal; font-variant: normal; font-weight: bold; font-stretch: normal; text-align: start; line-height: 125%; text-anchor: start; fill: rgb(170, 0, 0); fill-opacity: 1; stroke: none; stroke-width: 1px; stroke-linecap: butt; stroke-linejoin: miter; stroke-opacity: 1; font-family: AlMothnna;"/>
      <path sodipodi:nodetypes="ccccccc" id="path5450" d="M 409.1375,305.29639 C 409.7439,302.17139 410.9567,299.04639 415.2015,299.04639 C 419.4463,299.04639 422.7815,302.17139 421.2655,308.42139 C 419.7495,314.67139 412.7759,317.79639 409.1375,324.04639 C 405.49909,317.79639 398.52549,314.67139 397.00949,308.42139 C 395.49349,302.17139 398.82869,299.04639 403.07349,299.04639 C 407.3183,299.04639 408.5311,302.17139 409.1375,305.29639 z" style="fill: rgb(212, 0, 0); fill-opacity: 1; stroke: none; stroke-width: 0.354331; stroke-linecap: round; stroke-linejoin: round; stroke-miterlimit: 4; stroke-dasharray: 1.41732, 1.41732; stroke-dashoffset: 0pt; stroke-opacity: 1;"/>
      <path sodipodi:nodetypes="ccccccc" id="path5638" d="M 436.42855,379.11219 C 436.79239,377.23719 437.52007,375.36219 440.06695,375.36219 C 442.61383,375.36219 444.61495,377.23719 443.70535,380.98719 C 442.79575,384.73719 438.61159,386.61219 436.42855,390.36219 C 434.24551,386.61219 430.06135,384.73719 429.15175,380.98719 C 428.24215,377.23719 430.24327,375.36219 432.79015,375.36219 C 435.33703,375.36219 436.06471,377.23719 436.42855,379.11219 z" style="fill: rgb(212, 0, 0); fill-opacity: 1; stroke: none; stroke-width: 0.354331; stroke-linecap: round; stroke-linejoin: round; stroke-miterlimit: 4; stroke-dasharray: 1.41732, 1.41732; stroke-dashoffset: 0pt; stroke-opacity: 1;"/>
      <path sodipodi:nodetypes="ccccccc" id="path5646" d="M 430.42855,339.11219 C 430.79239,337.23719 431.52007,335.36219 434.06695,335.36219 C 436.61383,335.36219 438.61495,337.23719 437.70535,340.98719 C 436.79575,344.73719 432.61159,346.61219 430.42855,350.36219 C 428.24551,346.61219 424.06135,344.73719 423.15175,340.98719 C 422.24215,337.23719 424.24327,335.36219 426.79015,335.36219 C 429.33703,335.36219 430.06471,337.23719 430.42855,339.11219 z" style="fill: rgb(212, 0, 0); fill-opacity: 1; stroke: none; stroke-width: 0.354331; stroke-linecap: round; stroke-linejoin: round; stroke-miterlimit: 4; stroke-dasharray: 1.41732, 1.41732; stroke-dashoffset: 0pt; stroke-opacity: 1;"/>
      <path sodipodi:nodetypes="ccccccc" id="path5648" d="M 414.42855,379.11219 C 414.79239,377.23719 415.52007,375.36219 418.06695,375.36219 C 420.61383,375.36219 422.61495,377.23719 421.70535,380.98719 C 420.79575,384.73719 416.61159,386.61219 414.42855,390.36219 C 412.24551,386.61219 408.06135,384.73719 407.15175,380.98719 C 406.24215,377.23719 408.24327,375.36219 410.79015,375.36219 C 413.33703,375.36219 414.06471,377.23719 414.42855,379.11219 z" style="fill: rgb(212, 0, 0); fill-opacity: 1; stroke: none; stroke-width: 0.354331; stroke-linecap: round; stroke-linejoin: round; stroke-miterlimit: 4; stroke-dasharray: 1.41732, 1.41732; stroke-dashoffset: 0pt; stroke-opacity: 1;"/>
      <path sodipodi:nodetypes="ccccccc" id="path5650" d="M 435.42855,399.11219 C 435.79239,397.23719 436.52007,395.36219 439.06695,395.36219 C 441.61383,395.36219 443.61495,397.23719 442.70535,400.98719 C 441.79575,404.73719 437.61159,406.61219 435.42855,410.36219 C 433.24551,406.61219 429.06135,404.73719 428.15175,400.98719 C 427.24215,397.23719 429.24327,395.36219 431.79015,395.36219 C 434.33703,395.36219 435.06471,397.23719 435.42855,399.11219 z" style="fill: rgb(212, 0, 0); fill-opacity: 1; stroke: none; stroke-width: 0.354331; stroke-linecap: round; stroke-linejoin: round; stroke-miterlimit: 4; stroke-dasharray: 1.41732, 1.41732; stroke-dashoffset: 0pt; stroke-opacity: 1;"/>
      <path sodipodi:nodetypes="ccccccc" id="path5652" d="M 456.42855,384.11219 C 456.79239,382.23719 457.52007,380.36219 460.06695,380.36219 C 462.61383,380.36219 464.61495,382.23719 463.70535,385.98719 C 462.79575,389.73719 458.61159,391.61219 456.42855,395.36219 C 454.24551,391.61219 450.06135,389.73719 449.15175,385.98719 C 448.24215,382.23719 450.24327,380.36219 452.79015,380.36219 C 455.33703,380.36219 456.06471,382.23719 456.42855,384.11219 z" style="fill: rgb(212, 0, 0); fill-opacity: 1; stroke: none; stroke-width: 0.354331; stroke-linecap: round; stroke-linejoin: round; stroke-miterlimit: 4; stroke-dasharray: 1.41732, 1.41732; stroke-dashoffset: 0pt; stroke-opacity: 1;"/>
      <path sodipodi:nodetypes="ccccccc" id="path5654" d="M 448.42855,360.11219 C 448.79239,358.23719 449.52007,356.36219 452.06695,356.36219 C 454.61383,356.36219 456.61495,358.23719 455.70535,361.98719 C 454.79575,365.73719 450.61159,367.61219 448.42855,371.36219 C 446.24551,367.61219 442.06135,365.73719 441.15175,361.98719 C 440.24215,358.23719 442.24327,356.36219 444.79015,356.36219 C 447.33703,356.36219 448.06471,358.23719 448.42855,360.11219 z" style="fill: rgb(212, 0, 0); fill-opacity: 1; stroke: none; stroke-width: 0.354331; stroke-linecap: round; stroke-linejoin: round; stroke-miterlimit: 4; stroke-dasharray: 1.41732, 1.41732; stroke-dashoffset: 0pt; stroke-opacity: 1;"/>
    </g>
  </g>
</svg>