<?xml version="1.0" encoding="UTF-8" standalone="no"?>
<!-- Created with Inkscape (http://www.inkscape.org/) -->
<svg xmlns:dc="http://purl.org/dc/elements/1.1/" xmlns:cc="http://creativecommons.org/ns#" xmlns:rdf="http://www.w3.org/1999/02/22-rdf-syntax-ns#" xmlns:svg="http://www.w3.org/2000/svg" xmlns="http://www.w3.org/2000/svg" xmlns:sodipodi="http://sodipodi.sourceforge.net/DTD/sodipodi-0.dtd" xmlns:inkscape="http://www.inkscape.org/namespaces/inkscape" width="90" height="135" id="svg16720" sodipodi:version="0.32" inkscape:version="0.46" version="1.0" sodipodi:docname="diamond_10.svg" inkscape:output_extension="org.inkscape.output.svg.inkscape">
  <defs id="defs16722">
    <inkscape:perspective sodipodi:type="inkscape:persp3d" inkscape:vp_x="0 : 526.18109 : 1" inkscape:vp_y="0 : 1000 : 0" inkscape:vp_z="744.09448 : 526.18109 : 1" inkscape:persp3d-origin="372.04724 : 350.78739 : 1" id="perspective16728"/>
  </defs>
  <sodipodi:namedview id="base" pagecolor="#ffffff" bordercolor="#666666" borderopacity="1.0" gridtolerance="10000" guidetolerance="10" objecttolerance="10" inkscape:pageopacity="0.0" inkscape:pageshadow="2" inkscape:zoom="1.4" inkscape:cx="1.1905278" inkscape:cy="112.32681" inkscape:document-units="px" inkscape:current-layer="layer1" showgrid="false" inkscape:window-width="641" inkscape:window-height="719" inkscape:window-x="611" inkscape:window-y="47"/>
  <metadata id="metadata16725">
    <rdf:RDF>
      <cc:Work rdf:about="">
        <dc:format>image/svg+xml</dc:format>
        <dc:type rdf:resource="http://purl.org/dc/dcmitype/StillImage"/>
      </cc:Work>
    </rdf:RDF>
  </metadata>
  <g inkscape:label="Layer 1" inkscape:groupmode="layer" id="layer1" transform="translate(-117.857, -330.576)">
    <g transform="translate(-655.044, -96.2857)" id="g15480">
      <g transform="translate(752.044, 416.929)" id="g4768">
        <rect style="fill: rgb(0, 0, 0); fill-opacity: 1; stroke: none; stroke-width: 3; stroke-linecap: butt; stroke-linejoin: round; stroke-miterlimit: 4; stroke-dasharray: none; stroke-opacity: 1;" id="rect4770" width="90" height="135" x="20.85714" y="9.9336166" ry="14.04"/>
        <rect style="fill: rgb(242, 242, 242); fill-opacity: 1; stroke: none; stroke-width: 3; stroke-linecap: butt; stroke-linejoin: round; stroke-miterlimit: 4; stroke-dasharray: none; stroke-opacity: 1;" id="rect4772" width="80" height="125" x="25.85714" y="14.933617" ry="13"/>
      </g>
      <path id="text4832" d="M 783.96221,513.38642 C 783.90887,512.58645 783.85554,511.81312 783.80221,511.06642 C 783.8022,510.31978 783.77554,509.54645 783.72221,508.74642 L 783.72221,508.58642 C 787.18887,505.06646 790.9222,501.97313 794.92221,499.30642 C 798.97552,496.58646 803.08218,494.10647 807.24221,491.86642 L 807.32221,491.94642 C 807.21551,493.17313 807.13551,494.42647 807.08221,495.70642 C 807.02885,496.98646 806.94885,498.2398 806.84221,499.46642 L 806.76221,499.70642 C 802.81552,501.57313 798.94886,503.62646 795.16221,505.86642 C 791.42886,508.05312 787.8022,510.58645 784.28221,513.46642 L 783.96221,513.38642 L 783.96221,513.38642 M 782.68221,484.74642 C 786.89553,484.31981 791.0822,483.97314 795.24221,483.70642 C 799.45552,483.43981 803.64218,483.09314 807.80221,482.66642 L 807.88221,482.74642 C 807.82885,483.97314 807.74885,485.22648 807.64221,486.50642 C 807.53551,487.73314 807.48218,488.9598 807.48221,490.18642 C 803.26885,492.53313 799.16219,495.01313 795.16221,497.62642 C 791.1622,500.23979 787.37553,503.25312 783.80221,506.66642 L 783.64221,506.58642 C 783.4822,502.85312 783.3222,499.17313 783.16221,495.54642 C 783.0022,491.9198 782.81554,488.31981 782.60221,484.74642 L 782.68221,484.66642 L 782.68221,484.74642 M 788.36221,539.86642 C 787.93553,535.49309 787.69553,531.06643 787.64221,526.58642 C 787.58887,522.10644 787.4022,517.65311 787.08221,513.22642 L 787.16221,513.06642 C 790.2022,510.82645 793.34886,508.74645 796.60221,506.82642 C 799.90885,504.90646 803.24218,503.03979 806.60221,501.22642 L 806.36221,501.30642 C 806.09552,507.70645 805.74885,513.99978 805.32221,520.18642 C 804.89552,526.31977 804.30885,532.53309 803.56221,538.82642 L 803.48221,538.98642 C 800.92219,539.19975 798.38886,539.41309 795.88221,539.62642 C 793.42886,539.78642 790.94886,539.94642 788.44221,540.10642 L 788.36221,539.86642 M 831.83971,508.50642 C 831.78635,508.71979 831.75968,509.03978 831.75971,509.46642 C 831.75968,509.73312 831.75968,510.02645 831.75971,510.34642 C 831.81302,510.61312 831.83968,510.87978 831.83971,511.14642 C 831.83968,511.57312 831.81302,511.89312 831.75971,512.10642 L 831.75971,512.02642 C 828.39969,514.10645 825.22636,516.42644 822.23971,518.98642 C 819.25303,521.49311 816.45303,524.23977 813.83971,527.22642 L 813.67971,527.14642 C 813.41304,526.71977 813.22637,526.2931 813.11971,525.86642 C 813.01304,525.43977 812.85304,525.0131 812.63971,524.58642 L 812.55971,524.58642 C 815.49303,521.38644 818.5597,518.45311 821.75971,515.78642 C 824.95969,513.11978 828.26635,510.66645 831.67971,508.42642 L 831.83971,508.50642 L 831.83971,508.50642 M 850.63971,498.18642 C 850.79967,498.7198 850.98633,499.25313 851.19971,499.78642 C 851.413,500.26646 851.573,500.77313 851.67971,501.30642 L 851.75971,501.22642 C 848.34633,502.82646 844.98634,504.47979 841.67971,506.18642 C 838.37301,507.83979 835.19968,509.70645 832.15971,511.78642 L 831.99971,510.82642 L 831.91971,509.14642 L 831.99971,508.26642 C 834.93301,506.39979 837.94634,504.58646 841.03971,502.82642 C 844.13301,501.06646 847.30634,499.49313 850.55971,498.10642 L 850.63971,498.18642 M 831.11971,540.74642 C 829.25302,540.74642 827.46636,540.39975 825.75971,539.70642 C 824.05303,539.06642 822.47969,538.18642 821.03971,537.06642 C 819.65303,535.94642 818.37303,534.66643 817.19971,533.22642 C 816.0797,531.78643 815.14637,530.2931 814.39971,528.74642 L 814.31971,528.66642 C 816.8797,525.78643 819.57303,523.11977 822.39971,520.66642 C 825.27969,518.15978 828.34635,515.89311 831.59971,513.86642 L 831.91971,513.86642 C 831.81302,518.39978 831.67968,522.87977 831.51971,527.30642 C 831.41302,531.7331 831.25302,536.18642 831.03971,540.66642 L 831.11971,540.74642 M 832.79971,540.58642 C 832.69302,536.05309 832.58635,531.54643 832.47971,527.06642 C 832.42635,522.58644 832.31968,518.07978 832.15971,513.54642 L 832.15971,513.38642 C 835.41301,511.41312 838.66634,509.57312 841.91971,507.86642 C 845.22634,506.15979 848.58633,504.47979 851.99971,502.82642 L 852.07971,502.90642 C 852.453,504.34646 852.71966,505.81312 852.87971,507.30642 C 853.03966,508.79979 853.14633,510.29312 853.19971,511.78642 L 853.19971,512.66642 C 853.19966,515.75978 852.79966,518.90644 851.99971,522.10642 C 851.19967,525.30644 849.973,528.23977 848.31971,530.90642 C 846.66634,533.51976 844.55967,535.73309 841.99971,537.54642 C 839.49301,539.30642 836.50635,540.34642 833.03971,540.66642 L 832.95971,540.58642 L 832.79971,540.58642 M 810.39971,511.94642 C 810.39971,508.85312 810.85304,505.59979 811.75971,502.18642 C 812.66637,498.77313 814.02637,495.62646 815.83971,492.74642 C 817.65303,489.86647 819.89303,487.49314 822.55971,485.62642 C 825.27969,483.75981 828.45302,482.82648 832.07971,482.82642 C 834.10635,482.82648 836.05301,483.22648 837.91971,484.02642 C 839.78634,484.77314 841.49301,485.81314 843.03971,487.14642 C 844.58634,488.47981 845.94634,489.9998 847.11971,491.70642 C 848.34633,493.41313 849.333,495.17313 850.07971,496.98642 L 849.99971,497.06642 C 846.90634,498.34646 843.83967,499.78646 840.79971,501.38642 C 837.81301,502.93312 834.87968,504.58646 831.99971,506.34642 L 831.75971,506.42642 C 828.18635,508.82645 824.74636,511.38645 821.43971,514.10642 C 818.18636,516.82644 815.14637,519.86644 812.31971,523.22642 L 812.15971,523.14642 C 811.6797,521.33311 811.30637,519.49311 811.03971,517.62642 C 810.77304,515.70644 810.63971,513.81311 810.63971,511.94642 L 810.39971,511.94642" style="font-size: 80px; font-style: normal; font-variant: normal; font-weight: normal; font-stretch: normal; text-align: start; line-height: 125%; text-anchor: start; fill: rgb(128, 0, 0); fill-opacity: 1; stroke: none; stroke-width: 1px; stroke-linecap: butt; stroke-linejoin: miter; stroke-opacity: 1; font-family: Airmole Stripe;"/>
      <path id="text5393" d="M 805.06049,442.6789 L 799.62049,442.6789 L 799.62049,439.71001 C 803.53159,439.71003 805.85455,438.353 806.58938,435.6389 L 809.54049,435.6389 L 809.54049,458.34113 L 805.06049,458.34113 L 805.06049,442.6789 M 827.16604,458.43001 C 826.24159,458.85668 825.169,459.07001 823.94827,459.07001 C 822.72752,459.07001 821.65493,458.86261 820.73049,458.44779 C 819.81789,458.03298 819.07122,457.47594 818.49049,456.77668 C 817.9216,456.07742 817.45345,455.21224 817.08604,454.18113 C 816.73049,453.13817 816.4816,452.05372 816.33938,450.92779 C 816.20901,449.80187 816.14382,448.53965 816.14382,447.14113 C 816.14382,442.80336 816.78382,439.78114 818.06382,438.07446 C 818.75123,437.13818 819.59863,436.42115 820.60604,435.92335 C 821.61344,435.42559 822.72752,435.1767 823.94827,435.17668 C 825.27566,435.1767 826.4727,435.46707 827.53938,436.04779 C 828.61788,436.62855 829.48307,437.45818 830.13493,438.53668 C 831.21343,440.25522 831.75269,443.16484 831.75271,447.26557 C 831.75269,448.62854 831.68158,449.86113 831.53938,450.96335 C 831.40899,452.06558 831.16603,453.13224 830.81049,454.16335 C 830.45492,455.19446 829.98677,456.05965 829.40604,456.7589 C 828.83714,457.45816 828.09048,458.0152 827.16604,458.43001 M 827.27271,447.1589 C 827.2727,445.4404 827.19566,444.01818 827.0416,442.89224 C 826.89937,441.76633 826.67418,440.91299 826.36604,440.33224 C 826.05788,439.73966 825.71418,439.3367 825.33493,439.12335 C 824.96752,438.91003 824.50529,438.80337 823.94827,438.80335 C 823.15418,438.80337 822.52011,439.04633 822.04604,439.53224 C 821.58381,440.01818 821.22826,440.87151 820.97938,442.09224 C 820.74233,443.31299 820.62382,444.99003 820.62382,447.12335 C 820.62382,448.77076 820.69493,450.13965 820.83715,451.23001 C 820.97937,452.30854 821.19863,453.13817 821.49493,453.7189 C 821.80307,454.2878 822.14678,454.68483 822.52604,454.91001 C 822.91715,455.12335 823.39122,455.23002 823.94827,455.23001 C 825.24011,455.23002 826.1527,454.53668 826.68604,453.15001 C 826.85196,452.7115 826.98825,451.92335 827.09493,450.78557 C 827.21344,449.63595 827.2727,448.42706 827.27271,447.1589" style="font-size: 32px; font-style: normal; font-variant: normal; font-weight: bold; font-stretch: normal; text-align: start; line-height: 125%; text-anchor: start; fill: rgb(170, 0, 0); fill-opacity: 1; stroke: none; stroke-width: 1px; stroke-linecap: butt; stroke-linejoin: miter; stroke-opacity: 1; font-family: AlMothnna;"/>
      <path sodipodi:nodetypes="ccccc" id="path5484" d="M 791.4595,434.8109 C 793.9595,441.6859 797.0845,444.8109 803.9595,447.3109 C 797.0845,449.8109 793.9595,452.9359 791.4595,459.8109 C 788.9595,452.9359 785.8345,449.8109 778.9595,447.3109 C 785.8345,444.8109 788.9595,441.6859 791.4595,434.8109 z" style="fill: rgb(212, 0, 0); fill-opacity: 1; stroke: none; stroke-width: 0.354331; stroke-linecap: round; stroke-linejoin: round; stroke-miterlimit: 4; stroke-dasharray: 1.41732, 1.41732; stroke-dashoffset: 0pt; stroke-opacity: 1;"/>
      <path sodipodi:nodetypes="ccccc" id="path5784" d="M 834.42855,503.36219 C 835.92855,507.48719 837.80355,509.36219 841.92855,510.86219 C 837.80355,512.36219 835.92855,514.23719 834.42855,518.36219 C 832.92855,514.23719 831.05355,512.36219 826.92855,510.86219 C 831.05355,509.36219 832.92855,507.48719 834.42855,503.36219 z" style="fill: rgb(212, 0, 0); fill-opacity: 1; stroke: none; stroke-width: 0.354331; stroke-linecap: round; stroke-linejoin: round; stroke-miterlimit: 4; stroke-dasharray: 1.41732, 1.41732; stroke-dashoffset: 0pt; stroke-opacity: 1;"/>
      <path sodipodi:nodetypes="ccccc" id="path5786" d="M 785.42855,477.36219 C 786.92855,481.48719 788.80355,483.36219 792.92855,484.86219 C 788.80355,486.36219 786.92855,488.23719 785.42855,492.36219 C 783.92855,488.23719 782.05355,486.36219 777.92855,484.86219 C 782.05355,483.36219 783.92855,481.48719 785.42855,477.36219 z" style="fill: rgb(212, 0, 0); fill-opacity: 1; stroke: none; stroke-width: 0.354331; stroke-linecap: round; stroke-linejoin: round; stroke-miterlimit: 4; stroke-dasharray: 1.41732, 1.41732; stroke-dashoffset: 0pt; stroke-opacity: 1;"/>
      <path sodipodi:nodetypes="ccccc" id="path5788" d="M 809.42855,474.36219 C 810.92855,478.48719 812.80355,480.36219 816.92855,481.86219 C 812.80355,483.36219 810.92855,485.23719 809.42855,489.36219 C 807.92855,485.23719 806.05355,483.36219 801.92855,481.86219 C 806.05355,480.36219 807.92855,478.48719 809.42855,474.36219 z" style="fill: rgb(212, 0, 0); fill-opacity: 1; stroke: none; stroke-width: 0.354331; stroke-linecap: round; stroke-linejoin: round; stroke-miterlimit: 4; stroke-dasharray: 1.41732, 1.41732; stroke-dashoffset: 0pt; stroke-opacity: 1;"/>
      <path sodipodi:nodetypes="ccccc" id="path5790" d="M 790.42855,528.36219 C 791.92855,532.48719 793.80355,534.36219 797.92855,535.86219 C 793.80355,537.36219 791.92855,539.23719 790.42855,543.36219 C 788.92855,539.23719 787.05355,537.36219 782.92855,535.86219 C 787.05355,534.36219 788.92855,532.48719 790.42855,528.36219 z" style="fill: rgb(212, 0, 0); fill-opacity: 1; stroke: none; stroke-width: 0.354331; stroke-linecap: round; stroke-linejoin: round; stroke-miterlimit: 4; stroke-dasharray: 1.41732, 1.41732; stroke-dashoffset: 0pt; stroke-opacity: 1;"/>
      <path sodipodi:nodetypes="ccccc" id="path5792" d="M 802.42855,526.36219 C 803.92855,530.48719 805.80355,532.36219 809.92855,533.86219 C 805.80355,535.36219 803.92855,537.23719 802.42855,541.36219 C 800.92855,537.23719 799.05355,535.36219 794.92855,533.86219 C 799.05355,532.36219 800.92855,530.48719 802.42855,526.36219 z" style="fill: rgb(212, 0, 0); fill-opacity: 1; stroke: none; stroke-width: 0.354331; stroke-linecap: round; stroke-linejoin: round; stroke-miterlimit: 4; stroke-dasharray: 1.41732, 1.41732; stroke-dashoffset: 0pt; stroke-opacity: 1;"/>
      <path sodipodi:nodetypes="ccccc" id="path5794" d="M 821.42855,481.36219 C 822.92855,485.48719 824.80355,487.36219 828.92855,488.86219 C 824.80355,490.36219 822.92855,492.23719 821.42855,496.36219 C 819.92855,492.23719 818.05355,490.36219 813.92855,488.86219 C 818.05355,487.36219 819.92855,485.48719 821.42855,481.36219 z" style="fill: rgb(212, 0, 0); fill-opacity: 1; stroke: none; stroke-width: 0.354331; stroke-linecap: round; stroke-linejoin: round; stroke-miterlimit: 4; stroke-dasharray: 1.41732, 1.41732; stroke-dashoffset: 0pt; stroke-opacity: 1;"/>
      <path sodipodi:nodetypes="ccccc" id="path5796" d="M 844.42855,476.36219 C 845.92855,480.48719 847.80355,482.36219 851.92855,483.86219 C 847.80355,485.36219 845.92855,487.23719 844.42855,491.36219 C 842.92855,487.23719 841.05355,485.36219 836.92855,483.86219 C 841.05355,482.36219 842.92855,480.48719 844.42855,476.36219 z" style="fill: rgb(212, 0, 0); fill-opacity: 1; stroke: none; stroke-width: 0.354331; stroke-linecap: round; stroke-linejoin: round; stroke-miterlimit: 4; stroke-dasharray: 1.41732, 1.41732; stroke-dashoffset: 0pt; stroke-opacity: 1;"/>
      <path sodipodi:nodetypes="ccccc" id="path5798" d="M 851.42855,490.36219 C 852.92855,494.48719 854.80355,496.36219 858.92855,497.86219 C 854.80355,499.36219 852.92855,501.23719 851.42855,505.36219 C 849.92855,501.23719 848.05355,499.36219 843.92855,497.86219 C 848.05355,496.36219 849.92855,494.48719 851.42855,490.36219 z" style="fill: rgb(212, 0, 0); fill-opacity: 1; stroke: none; stroke-width: 0.354331; stroke-linecap: round; stroke-linejoin: round; stroke-miterlimit: 4; stroke-dasharray: 1.41732, 1.41732; stroke-dashoffset: 0pt; stroke-opacity: 1;"/>
      <path sodipodi:nodetypes="ccccc" id="path5800" d="M 850.42855,524.36219 C 851.92855,528.48719 853.80355,530.36219 857.92855,531.86219 C 853.80355,533.36219 851.92855,535.23719 850.42855,539.36219 C 848.92855,535.23719 847.05355,533.36219 842.92855,531.86219 C 847.05355,530.36219 848.92855,528.48719 850.42855,524.36219 z" style="fill: rgb(212, 0, 0); fill-opacity: 1; stroke: none; stroke-width: 0.354331; stroke-linecap: round; stroke-linejoin: round; stroke-miterlimit: 4; stroke-dasharray: 1.41732, 1.41732; stroke-dashoffset: 0pt; stroke-opacity: 1;"/>
      <path sodipodi:nodetypes="ccccc" id="path5802" d="M 820.42855,527.36219 C 821.92855,531.48719 823.80355,533.36219 827.92855,534.86219 C 823.80355,536.36219 821.92855,538.23719 820.42855,542.36219 C 818.92855,538.23719 817.05355,536.36219 812.92855,534.86219 C 817.05355,533.36219 818.92855,531.48719 820.42855,527.36219 z" style="fill: rgb(212, 0, 0); fill-opacity: 1; stroke: none; stroke-width: 0.354331; stroke-linecap: round; stroke-linejoin: round; stroke-miterlimit: 4; stroke-dasharray: 1.41732, 1.41732; stroke-dashoffset: 0pt; stroke-opacity: 1;"/>
    </g>
  </g>
</svg>