<?xml version="1.0" encoding="UTF-8" standalone="no"?>
<!-- Created with Inkscape (http://www.inkscape.org/) -->
<svg xmlns:dc="http://purl.org/dc/elements/1.1/" xmlns:cc="http://creativecommons.org/ns#" xmlns:rdf="http://www.w3.org/1999/02/22-rdf-syntax-ns#" xmlns:svg="http://www.w3.org/2000/svg" xmlns="http://www.w3.org/2000/svg" xmlns:sodipodi="http://sodipodi.sourceforge.net/DTD/sodipodi-0.dtd" xmlns:inkscape="http://www.inkscape.org/namespaces/inkscape" width="90" height="135" id="svg16720" sodipodi:version="0.32" inkscape:version="0.46" version="1.0" sodipodi:docname="diamond_k.svg" inkscape:output_extension="org.inkscape.output.svg.inkscape">
  <defs id="defs16722">
    <inkscape:perspective sodipodi:type="inkscape:persp3d" inkscape:vp_x="0 : 526.18109 : 1" inkscape:vp_y="0 : 1000 : 0" inkscape:vp_z="744.09448 : 526.18109 : 1" inkscape:persp3d-origin="372.04724 : 350.78739 : 1" id="perspective16728"/>
  </defs>
  <sodipodi:namedview id="base" pagecolor="#ffffff" bordercolor="#666666" borderopacity="1.0" gridtolerance="10000" guidetolerance="10" objecttolerance="10" inkscape:pageopacity="0.0" inkscape:pageshadow="2" inkscape:zoom="1.4" inkscape:cx="1.1905278" inkscape:cy="112.32681" inkscape:document-units="px" inkscape:current-layer="layer1" showgrid="false" inkscape:window-width="641" inkscape:window-height="719" inkscape:window-x="611" inkscape:window-y="47"/>
  <metadata id="metadata16725">
    <rdf:RDF>
      <cc:Work rdf:about="">
        <dc:format>image/svg+xml</dc:format>
        <dc:type rdf:resource="http://purl.org/dc/dcmitype/StillImage"/>
      </cc:Work>
    </rdf:RDF>
  </metadata>
  <g inkscape:label="Layer 1" inkscape:groupmode="layer" id="layer1" transform="translate(-117.857, -330.576)">
    <g transform="translate(-942.846, -96.2857)" id="g15415">
      <g transform="translate(1039.85, 416.929)" id="g4786">
        <rect style="fill: rgb(0, 0, 0); fill-opacity: 1; stroke: none; stroke-width: 3; stroke-linecap: butt; stroke-linejoin: round; stroke-miterlimit: 4; stroke-dasharray: none; stroke-opacity: 1;" id="rect4788" width="90" height="135" x="20.85714" y="9.9336166" ry="14.04"/>
        <rect style="fill: rgb(242, 242, 242); fill-opacity: 1; stroke: none; stroke-width: 3; stroke-linecap: butt; stroke-linejoin: round; stroke-miterlimit: 4; stroke-dasharray: none; stroke-opacity: 1;" id="rect4790" width="80" height="125" x="25.85714" y="14.933617" ry="13"/>
      </g>
      <path id="text5405" d="M 1096.9964,453.54455 L 1096.9964,462.08066 L 1091.7464,462.08066 L 1091.7464,436.5501 L 1096.9964,436.5501 L 1096.9964,447.7501 L 1106.9908,436.5501 L 1113.1742,436.5501 L 1102.9658,447.5751 L 1114.2631,462.08066 L 1107.9825,462.08066 L 1099.6214,450.80288 L 1096.9964,453.54455" style="font-size: 35px; font-style: normal; font-variant: normal; font-weight: bold; font-stretch: normal; text-align: start; line-height: 125%; text-anchor: start; fill: rgb(170, 0, 0); fill-opacity: 1; stroke: none; stroke-width: 1px; stroke-linecap: butt; stroke-linejoin: miter; stroke-opacity: 1; font-family: AlMothnna;"/>
      <path sodipodi:nodetypes="ccccc" id="path5490" d="M 1079.2616,434.8109 C 1081.7616,441.6859 1084.8866,444.8109 1091.7616,447.3109 C 1084.8866,449.8109 1081.7616,452.9359 1079.2616,459.8109 C 1076.7616,452.9359 1073.6366,449.8109 1066.7616,447.3109 C 1073.6366,444.8109 1076.7616,441.6859 1079.2616,434.8109 z" style="fill: rgb(212, 0, 0); fill-opacity: 1; stroke: none; stroke-width: 0.354331; stroke-linecap: round; stroke-linejoin: round; stroke-miterlimit: 4; stroke-dasharray: 1.41732, 1.41732; stroke-dashoffset: 0pt; stroke-opacity: 1;"/>
      <path sodipodi:nodetypes="ccccc" id="path5838" d="M 1105.7032,462.36219 C 1110.7032,476.11219 1116.9532,482.36219 1130.7032,487.36219 C 1116.9532,492.36219 1110.7032,498.61219 1105.7032,512.36219 C 1100.7032,498.61219 1094.4532,492.36219 1080.7032,487.36219 C 1094.4532,482.36219 1100.7032,476.11219 1105.7032,462.36219 z" style="fill: rgb(212, 0, 0); fill-opacity: 1; stroke: none; stroke-width: 0.354331; stroke-linecap: round; stroke-linejoin: round; stroke-miterlimit: 4; stroke-dasharray: 1.41732, 1.41732; stroke-dashoffset: 0pt; stroke-opacity: 1;"/>
      <path id="text4844" d="M 1115.5031,499.94643 C 1115.5564,500.21314 1115.583,500.4798 1115.5831,500.74643 C 1115.6364,500.9598 1115.6897,501.1998 1115.7431,501.46643 L 1115.8231,501.30643 C 1110.3831,503.33313 1105.0231,505.38646 1099.7431,507.46643 C 1094.5164,509.54646 1089.5297,512.10646 1084.7831,515.14643 L 1084.6231,515.06643 C 1084.5164,514.42646 1084.4897,513.78646 1084.5431,513.14643 C 1084.5964,512.50646 1084.5697,511.86646 1084.4631,511.22643 L 1084.4631,511.14643 C 1089.4764,508.21313 1094.6764,505.41313 1100.0631,502.74643 C 1105.5031,500.02647 1111.1031,497.73314 1116.8631,495.86643 C 1116.863,495.91981 1116.863,495.94647 1116.8631,495.94643 C 1116.9164,495.94647 1116.943,495.97314 1116.9431,496.02643 C 1116.6764,496.45314 1116.383,496.87981 1116.0631,497.30643 C 1115.7964,497.67981 1115.5297,498.07981 1115.2631,498.50643 L 1115.5031,499.94643 M 1083.1031,483.86643 C 1086.7831,483.81315 1090.4897,483.65315 1094.2231,483.38643 C 1097.9564,483.11982 1101.6897,482.90649 1105.4231,482.74643 L 1105.5831,482.74643 C 1105.3164,485.19982 1105.1031,487.59982 1104.9431,489.94643 C 1104.7831,492.23981 1104.5697,494.58648 1104.3031,496.98643 C 1104.9431,494.58648 1105.6097,492.21314 1106.3031,489.86643 C 1107.0497,487.51982 1107.7164,485.14648 1108.3031,482.74643 L 1108.3831,482.66643 C 1111.1564,482.77315 1113.903,482.93315 1116.6231,483.14643 C 1119.343,483.35982 1122.063,483.57315 1124.7831,483.78643 C 1123.7164,485.54648 1122.623,487.27982 1121.5031,488.98643 C 1120.383,490.63981 1119.3697,492.34648 1118.4631,494.10643 C 1112.4897,495.75981 1106.6497,497.89314 1100.9431,500.50643 C 1095.2364,503.06647 1089.7697,506.18646 1084.5431,509.86643 L 1084.1431,509.70643 L 1084.1431,508.10643 C 1084.1431,504.1598 1084.0364,500.18647 1083.8231,496.18643 C 1083.6631,492.18648 1083.4497,488.15982 1083.1831,484.10643 L 1083.2631,484.02643 L 1083.1031,483.86643 M 1086.0631,539.54643 C 1085.6897,535.8131 1085.4497,532.07977 1085.3431,528.34643 C 1085.2897,524.55978 1085.0764,520.74645 1084.7031,516.90643 L 1084.5431,516.66643 C 1086.9431,515.11979 1089.4231,513.70646 1091.9831,512.42643 C 1094.5431,511.14646 1097.1297,509.97313 1099.7431,508.90643 C 1102.4097,507.8398 1105.1031,506.82646 1107.8231,505.86643 C 1110.5431,504.85313 1113.263,503.86647 1115.9831,502.90643 L 1116.0631,502.98643 C 1117.343,508.85313 1119.023,514.53312 1121.1031,520.02643 C 1123.183,525.46644 1125.583,530.74644 1128.3031,535.86643 L 1128.1431,535.94643 C 1124.943,536.6931 1121.7164,537.4131 1118.4631,538.10643 C 1115.263,538.74643 1112.0364,539.43976 1108.7831,540.18643 C 1107.0231,538.0531 1105.6364,535.75977 1104.6231,533.30643 C 1103.6097,530.79977 1102.7564,528.23978 1102.0631,525.62643 C 1101.9031,527.81311 1101.7164,529.97311 1101.5031,532.10643 C 1101.3431,534.23977 1101.2097,536.39977 1101.1031,538.58643 L 1101.0231,538.74643 C 1098.5164,538.90643 1096.0097,539.0931 1093.5031,539.30643 C 1091.0497,539.46643 1088.5697,539.59976 1086.0631,539.70643 L 1085.9831,539.62643 L 1086.0631,539.54643" style="font-size: 80px; font-style: normal; font-variant: normal; font-weight: normal; font-stretch: normal; text-align: start; line-height: 125%; text-anchor: start; fill: rgb(128, 0, 0); fill-opacity: 1; stroke: none; stroke-width: 1px; stroke-linecap: butt; stroke-linejoin: miter; stroke-opacity: 1; font-family: Airmole Stripe;"/>
    </g>
  </g>
</svg>