<?xml version="1.0" encoding="UTF-8" standalone="no"?>
<!-- Created with Inkscape (http://www.inkscape.org/) -->
<svg xmlns:dc="http://purl.org/dc/elements/1.1/" xmlns:cc="http://creativecommons.org/ns#" xmlns:rdf="http://www.w3.org/1999/02/22-rdf-syntax-ns#" xmlns:svg="http://www.w3.org/2000/svg" xmlns="http://www.w3.org/2000/svg" xmlns:sodipodi="http://sodipodi.sourceforge.net/DTD/sodipodi-0.dtd" xmlns:inkscape="http://www.inkscape.org/namespaces/inkscape" width="90" height="135" id="svg16720" sodipodi:version="0.32" inkscape:version="0.46" version="1.0" sodipodi:docname="diamond_2.svg" inkscape:output_extension="org.inkscape.output.svg.inkscape">
  <defs id="defs16722">
    <inkscape:perspective sodipodi:type="inkscape:persp3d" inkscape:vp_x="0 : 526.18109 : 1" inkscape:vp_y="0 : 1000 : 0" inkscape:vp_z="744.09448 : 526.18109 : 1" inkscape:persp3d-origin="372.04724 : 350.78739 : 1" id="perspective16728"/>
  </defs>
  <sodipodi:namedview id="base" pagecolor="#ffffff" bordercolor="#666666" borderopacity="1.0" gridtolerance="10000" guidetolerance="10" objecttolerance="10" inkscape:pageopacity="0.0" inkscape:pageshadow="2" inkscape:zoom="1.4" inkscape:cx="1.1905278" inkscape:cy="112.32681" inkscape:document-units="px" inkscape:current-layer="layer1" showgrid="false" inkscape:window-width="641" inkscape:window-height="719" inkscape:window-x="611" inkscape:window-y="47"/>
  <metadata id="metadata16725">
    <rdf:RDF>
      <cc:Work rdf:about="">
        <dc:format>image/svg+xml</dc:format>
        <dc:type rdf:resource="http://purl.org/dc/dcmitype/StillImage"/>
      </cc:Work>
    </rdf:RDF>
  </metadata>
  <g inkscape:label="Layer 1" inkscape:groupmode="layer" id="layer1" transform="translate(-117.857, -330.576)">
    <g transform="translate(112.429, -96.2857)" id="g14523">
      <g transform="translate(-15.4286, 416.929)" id="g4720">
        <rect style="fill: rgb(0, 0, 0); fill-opacity: 1; stroke: none; stroke-width: 3; stroke-linecap: butt; stroke-linejoin: round; stroke-miterlimit: 4; stroke-dasharray: none; stroke-opacity: 1;" id="rect4722" width="90" height="135" x="20.85714" y="9.9336166" ry="14.04"/>
        <rect style="fill: rgb(242, 242, 242); fill-opacity: 1; stroke: none; stroke-width: 3; stroke-linecap: butt; stroke-linejoin: round; stroke-miterlimit: 4; stroke-dasharray: none; stroke-opacity: 1;" id="rect4724" width="80" height="125" x="25.85714" y="14.933617" ry="13"/>
      </g>
      <path id="text4804" d="M 38.188552,513.54646 C 37.975212,513.06649 37.815212,512.58649 37.708552,512.10646 C 37.655212,511.62649 37.548546,511.14649 37.388552,510.66646 L 37.388552,510.34646 C 41.281875,506.23983 45.441871,502.5065 49.868552,499.14646 C 54.295195,495.73317 59.041857,492.69317 64.108552,490.02646 L 64.188552,490.02646 C 64.881852,490.93317 65.441851,491.89317 65.868552,492.90646 C 66.348517,493.8665 66.80185,494.87984 67.228552,495.94646 L 67.308552,495.94646 C 63.30852,498.3465 59.388524,500.79983 55.548552,503.30646 C 51.708531,505.81316 48.001868,508.55982 44.428552,511.54646 L 43.388552,511.46646 C 42.428541,511.46649 41.495208,511.65315 40.588552,512.02646 C 39.73521,512.34649 38.988544,512.87982 38.348552,513.62646 L 38.188552,513.54646 L 38.188552,513.54646 M 31.788552,490.58646 C 34.188549,488.23984 36.828546,486.34651 39.708552,484.90646 C 42.641874,483.41318 45.788537,482.66652 49.148552,482.66646 C 51.921865,482.66652 54.481862,483.19985 56.828552,484.26646 C 59.175191,485.33318 61.308522,486.85318 63.228552,488.82646 C 63.22852,488.87984 63.201853,488.90651 63.148552,488.90646 C 63.14852,488.90651 63.14852,488.93318 63.148552,488.98646 C 58.135192,491.43984 53.415196,494.3465 48.988552,497.70646 C 44.615205,501.0665 40.615209,504.79983 36.988552,508.90646 L 36.828552,508.74646 C 35.921881,505.70649 35.095215,502.71983 34.348552,499.78646 C 33.601883,496.79984 32.775217,493.7865 31.868552,490.74646 L 31.788552,490.58646 M 50.268552,515.94646 L 50.268552,515.78646 C 50.268533,514.77315 49.868533,513.94648 49.068552,513.30646 C 48.321868,512.66649 47.495202,512.21315 46.588552,511.94646 L 46.588552,511.78646 C 49.948533,509.17316 53.38853,506.63983 56.908552,504.18646 C 60.481856,501.73316 64.028519,499.3865 67.548552,497.14646 L 67.708552,497.22646 C 68.135182,498.5065 68.455181,499.8665 68.668552,501.30646 C 68.935181,502.7465 69.068514,504.10649 69.068552,505.38646 L 69.068552,505.54646 C 69.068514,507.89316 68.668514,510.21316 67.868552,512.50646 C 67.121849,514.74648 66.055184,516.82648 64.668552,518.74646 C 63.281853,520.66648 61.628521,522.37314 59.708552,523.86646 C 57.788525,525.30647 55.681861,526.37314 53.388552,527.06646 C 52.74853,527.2798 52.028531,527.49314 51.228552,527.70646 C 50.481866,527.86647 49.7352,528.10647 48.988552,528.42646 C 48.295201,528.74647 47.681869,529.17314 47.148552,529.70646 C 46.668536,530.18647 46.40187,530.85313 46.348552,531.70646 C 46.348537,531.86647 46.348537,532.02647 46.348552,532.18646 C 46.40187,532.34647 46.428537,532.4798 46.428552,532.58646 C 49.308534,532.37313 52.188531,532.10647 55.068552,531.78646 C 57.948525,531.41313 60.828522,530.93313 63.708552,530.34646 L 63.788552,530.42646 C 63.681853,531.81313 63.628519,533.22647 63.628552,534.66646 C 63.628519,536.05313 63.601853,537.43979 63.548552,538.82646 L 63.468552,538.98646 C 58.935191,538.77313 54.401862,538.66646 49.868552,538.66646 C 45.388538,538.66646 40.855209,538.61313 36.268552,538.50646 L 36.188552,538.42646 C 36.135214,538.26646 36.108547,537.97313 36.108552,537.54646 C 36.108547,537.17313 36.135214,536.8798 36.188552,536.66646 C 36.188547,536.45313 36.16188,536.26646 36.108552,536.10646 C 36.108547,535.94646 36.108547,535.7598 36.108552,535.54646 C 36.108547,534.05313 36.32188,532.58647 36.748552,531.14646 C 37.175213,529.65314 37.788545,528.29314 38.588552,527.06646 C 39.441877,525.78647 40.428543,524.66647 41.548552,523.70646 C 42.721874,522.74648 44.028539,521.97314 45.468552,521.38646 C 46.375203,520.85314 47.335202,520.26648 48.348552,519.62646 C 49.4152,518.93315 50.028533,517.97315 50.188552,516.74646 L 50.268552,515.94646" style="font-size: 80px; font-style: normal; font-variant: normal; font-weight: normal; font-stretch: normal; text-align: start; line-height: 125%; text-anchor: start; fill: rgb(128, 0, 0); fill-opacity: 1; stroke: none; stroke-width: 1px; stroke-linecap: butt; stroke-linejoin: miter; stroke-opacity: 1; font-family: Airmole Stripe;"/>
      <path id="text5361" d="M 52.506521,441.79112 C 52.506503,442.80224 52.350947,443.74206 52.039854,444.61056 C 51.728726,445.47909 51.30743,446.23094 50.775965,446.86612 C 50.244468,447.50131 49.654654,448.09761 49.006521,448.65501 C 48.358359,449.19946 47.677804,449.71798 46.964854,450.21056 C 46.251879,450.6902 45.577806,451.15687 44.942632,451.61056 C 44.307437,452.06427 43.711141,452.57631 43.153743,453.14667 C 42.60929,453.70409 42.200957,454.27445 41.928743,454.85778 L 52.428743,454.85778 L 52.428743,459.25223 L 35.550965,459.25223 C 35.680594,456.97075 36.14726,455.15594 36.950965,453.80778 C 37.754666,452.44668 39.200034,451.0402 41.287076,449.58834 C 43.17966,448.26613 44.553733,447.21613 45.409298,446.43834 C 46.264842,445.66057 46.841694,444.94761 47.139854,444.29945 C 47.450952,443.65132 47.606508,442.84761 47.606521,441.88834 C 47.606508,440.64391 47.295397,439.67169 46.673187,438.97167 C 46.050954,438.25873 45.195399,437.90225 44.106521,437.90223 C 42.991697,437.90225 42.12318,438.28466 41.500965,439.04945 C 40.891699,439.81428 40.58707,440.88373 40.587076,442.25778 L 40.587076,443.07445 L 35.900965,443.07445 C 35.875038,442.81521 35.862075,442.53002 35.862076,442.21889 C 35.862075,439.58743 36.581519,437.54577 38.02041,436.09389 C 39.459293,434.64207 41.462069,433.91614 44.028743,433.91612 C 46.634286,433.91614 48.695395,434.6291 50.212076,436.05501 C 51.741689,437.46799 52.506503,439.38003 52.506521,441.79112" style="font-size: 35px; font-style: normal; font-variant: normal; font-weight: bold; font-stretch: normal; text-align: start; line-height: 125%; text-anchor: start; fill: rgb(170, 0, 0); fill-opacity: 1; stroke: none; stroke-width: 1px; stroke-linecap: butt; stroke-linejoin: miter; stroke-opacity: 1; font-family: AlMothnna;"/>
      <path sodipodi:nodetypes="ccccc" id="path5468" d="M 23.987082,434.8109 C 26.487082,441.6859 29.612082,444.8109 36.487082,447.3109 C 29.612082,449.8109 26.487082,452.9359 23.987082,459.8109 C 21.487082,452.9359 18.362082,449.8109 11.487082,447.3109 C 18.362082,444.8109 21.487082,441.6859 23.987082,434.8109 z" style="fill: rgb(212, 0, 0); fill-opacity: 1; stroke: none; stroke-width: 0.354331; stroke-linecap: round; stroke-linejoin: round; stroke-miterlimit: 4; stroke-dasharray: 1.41732, 1.41732; stroke-dashoffset: 0pt; stroke-opacity: 1;"/>
      <path sodipodi:nodetypes="ccccc" id="path5726" d="M 34.42855,480.36219 C 35.92855,484.48719 37.80355,486.36219 41.92855,487.86219 C 37.80355,489.36219 35.92855,491.23719 34.42855,495.36219 C 32.92855,491.23719 31.05355,489.36219 26.92855,487.86219 C 31.05355,486.36219 32.92855,484.48719 34.42855,480.36219 z" style="fill: rgb(212, 0, 0); fill-opacity: 1; stroke: none; stroke-width: 0.354331; stroke-linecap: round; stroke-linejoin: round; stroke-miterlimit: 4; stroke-dasharray: 1.41732, 1.41732; stroke-dashoffset: 0pt; stroke-opacity: 1;"/>
      <path sodipodi:nodetypes="ccccc" id="path5728" d="M 66.42855,528.36219 C 67.92855,532.48719 69.80355,534.36219 73.92855,535.86219 C 69.80355,537.36219 67.92855,539.23719 66.42855,543.36219 C 64.92855,539.23719 63.05355,537.36219 58.92855,535.86219 C 63.05355,534.36219 64.92855,532.48719 66.42855,528.36219 z" style="fill: rgb(212, 0, 0); fill-opacity: 1; stroke: none; stroke-width: 0.354331; stroke-linecap: round; stroke-linejoin: round; stroke-miterlimit: 4; stroke-dasharray: 1.41732, 1.41732; stroke-dashoffset: 0pt; stroke-opacity: 1;"/>
    </g>
  </g>
</svg>