<?xml version="1.0" encoding="UTF-8" standalone="no"?>
<!-- Created with Inkscape (http://www.inkscape.org/) -->
<svg xmlns:dc="http://purl.org/dc/elements/1.1/" xmlns:cc="http://creativecommons.org/ns#" xmlns:rdf="http://www.w3.org/1999/02/22-rdf-syntax-ns#" xmlns:svg="http://www.w3.org/2000/svg" xmlns="http://www.w3.org/2000/svg" xmlns:sodipodi="http://sodipodi.sourceforge.net/DTD/sodipodi-0.dtd" xmlns:inkscape="http://www.inkscape.org/namespaces/inkscape" width="90" height="135" id="svg16720" sodipodi:version="0.32" inkscape:version="0.46" version="1.0" sodipodi:docname="diamond_q.svg" inkscape:output_extension="org.inkscape.output.svg.inkscape">
  <defs id="defs16722">
    <inkscape:perspective sodipodi:type="inkscape:persp3d" inkscape:vp_x="0 : 526.18109 : 1" inkscape:vp_y="0 : 1000 : 0" inkscape:vp_z="744.09448 : 526.18109 : 1" inkscape:persp3d-origin="372.04724 : 350.78739 : 1" id="perspective16728"/>
  </defs>
  <sodipodi:namedview id="base" pagecolor="#ffffff" bordercolor="#666666" borderopacity="1.0" gridtolerance="10000" guidetolerance="10" objecttolerance="10" inkscape:pageopacity="0.0" inkscape:pageshadow="2" inkscape:zoom="1.4" inkscape:cx="1.1905278" inkscape:cy="112.32681" inkscape:document-units="px" inkscape:current-layer="layer1" showgrid="false" inkscape:window-width="641" inkscape:window-height="719" inkscape:window-x="611" inkscape:window-y="47"/>
  <metadata id="metadata16725">
    <rdf:RDF>
      <cc:Work rdf:about="">
        <dc:format>image/svg+xml</dc:format>
        <dc:type rdf:resource="http://purl.org/dc/dcmitype/StillImage"/>
      </cc:Work>
    </rdf:RDF>
  </metadata>
  <g inkscape:label="Layer 1" inkscape:groupmode="layer" id="layer1" transform="translate(-117.857, -330.576)">
    <g transform="translate(-846.912, -96.2857)" id="g15435">
      <g transform="translate(943.912, 416.929)" id="g4780">
        <rect style="fill: rgb(0, 0, 0); fill-opacity: 1; stroke: none; stroke-width: 3; stroke-linecap: butt; stroke-linejoin: round; stroke-miterlimit: 4; stroke-dasharray: none; stroke-opacity: 1;" id="rect4782" width="90" height="135" x="20.85714" y="9.9336166" ry="14.04"/>
        <rect style="fill: rgb(242, 242, 242); fill-opacity: 1; stroke: none; stroke-width: 3; stroke-linecap: butt; stroke-linejoin: round; stroke-miterlimit: 4; stroke-dasharray: none; stroke-opacity: 1;" id="rect4784" width="80" height="125" x="25.85714" y="14.933617" ry="13"/>
      </g>
      <path id="text5401" d="M 1008.0895,433.98622 C 1010.5525,433.98625 1012.7238,434.57606 1014.6034,435.75567 C 1016.496,436.93532 1017.9349,438.52976 1018.9201,440.539 C 1019.9052,442.54828 1020.3978,444.79735 1020.3979,447.28622 C 1020.3978,448.99734 1020.145,450.66956 1019.6395,452.30289 C 1019.1339,453.93623 1018.4534,455.27789 1017.5979,456.32789 L 1020.3979,458.99178 L 1017.734,461.81122 L 1014.7006,458.99178 C 1012.7821,460.14548 1010.5784,460.72233 1008.0895,460.72233 C 1005.6395,460.72233 1003.4747,460.14548 1001.5951,458.99178 C 999.7284,457.83807 998.29599,456.25011 997.29785,454.22789 C 996.2997,452.20567 995.80063,449.91771 995.80063,447.364 C 995.80063,444.81031 996.2997,442.52235 997.29785,440.50011 C 998.29599,438.47791 999.7284,436.88995 1001.5951,435.73622 C 1003.4747,434.56958 1005.6395,433.98625 1008.0895,433.98622 M 1011.1034,450.20289 L 1013.9812,452.92511 C 1014.733,451.40845 1015.1089,449.56771 1015.109,447.40289 C 1015.1089,444.68068 1014.4738,442.50939 1013.2034,440.889 C 1011.933,439.26865 1010.2284,438.45846 1008.0895,438.45844 C 1005.9765,438.45846 1004.2784,439.27513 1002.9951,440.90844 C 1001.7117,442.52883 1001.0701,444.68068 1001.0701,447.364 C 1001.0701,450.03438 1001.7117,452.17975 1002.9951,453.80011 C 1004.2784,455.42048 1005.9701,456.23067 1008.0701,456.23067 C 1009.2627,456.23067 1010.2867,456.01678 1011.1423,455.589 L 1008.4395,453.02233 L 1011.1034,450.20289" style="font-size: 35px; font-style: normal; font-variant: normal; font-weight: bold; font-stretch: normal; text-align: start; line-height: 125%; text-anchor: start; fill: rgb(170, 0, 0); fill-opacity: 1; stroke: none; stroke-width: 1px; stroke-linecap: butt; stroke-linejoin: miter; stroke-opacity: 1; font-family: AlMothnna;"/>
      <path sodipodi:nodetypes="ccccc" id="path5488" d="M 983.32764,434.8109 C 985.82764,441.6859 988.95264,444.8109 995.82764,447.3109 C 988.95264,449.8109 985.82764,452.9359 983.32764,459.8109 C 980.82764,452.9359 977.70264,449.8109 970.82763,447.3109 C 977.70264,444.8109 980.82764,441.6859 983.32764,434.8109 z" style="fill: rgb(212, 0, 0); fill-opacity: 1; stroke: none; stroke-width: 0.354331; stroke-linecap: round; stroke-linejoin: round; stroke-miterlimit: 4; stroke-dasharray: 1.41732, 1.41732; stroke-dashoffset: 0pt; stroke-opacity: 1;"/>
      <path sodipodi:nodetypes="ccccc" id="path5836" d="M 1009.7691,462.36219 C 1014.7691,476.11219 1021.0191,482.36219 1034.7691,487.36219 C 1021.0191,492.36219 1014.7691,498.61219 1009.7691,512.36219 C 1004.7691,498.61219 998.51914,492.36219 984.76919,487.36219 C 998.51914,482.36219 1004.7691,476.11219 1009.7691,462.36219 z" style="fill: rgb(212, 0, 0); fill-opacity: 1; stroke: none; stroke-width: 0.354331; stroke-linecap: round; stroke-linejoin: round; stroke-miterlimit: 4; stroke-dasharray: 1.41732, 1.41732; stroke-dashoffset: 0pt; stroke-opacity: 1;"/>
      <path id="text4840" d="M 1032.169,499.30643 C 1028.7023,499.73313 1025.2623,500.42647 1021.849,501.38643 C 1018.489,502.29313 1015.1557,503.38646 1011.849,504.66643 C 1008.5957,505.89313 1005.369,507.25313 1002.169,508.74643 C 999.02234,510.23979 995.95567,511.75979 992.96902,513.30643 C 992.54234,513.51979 991.98234,513.83979 991.28902,514.26643 C 990.59568,514.63979 989.87568,515.03978 989.12902,515.46643 C 988.43568,515.83978 987.74235,516.18645 987.04902,516.50643 C 986.40902,516.82645 985.84902,516.98645 985.36902,516.98643 L 985.44902,516.98643 C 985.39568,516.98645 985.34235,517.01312 985.28902,517.06643 C 985.28902,517.06645 985.26235,517.06645 985.20902,517.06643 L 985.12902,516.98643 C 985.02235,516.39978 984.94235,515.78645 984.88902,515.14643 C 984.83568,514.50645 984.80902,513.89312 984.80902,513.30643 L 984.56902,512.82643 C 991.55568,508.61312 998.94234,505.06646 1006.729,502.18643 C 1014.5157,499.30647 1022.569,497.3598 1030.889,496.34643 L 1030.969,496.42643 C 1031.129,496.85314 1031.3423,497.2798 1031.609,497.70643 C 1031.8756,498.13313 1032.089,498.58647 1032.249,499.06643 L 1032.169,499.14643 L 1032.169,499.30643 M 1008.729,541.46643 C 1005.7423,541.30643 1002.9423,540.55976 1000.329,539.22643 C 997.71567,537.8931 995.39567,536.18643 993.36902,534.10643 C 991.34234,531.9731 989.63568,529.59977 988.24902,526.98643 C 986.86235,524.31978 985.90235,521.57311 985.36902,518.74643 L 985.52902,518.74643 C 987.39568,517.41312 989.31568,516.26645 991.28902,515.30643 C 993.26234,514.34645 995.26234,513.43979 997.28902,512.58643 C 999.31567,511.73312 1001.3423,510.93312 1003.369,510.18643 C 1005.449,509.38646 1007.529,508.50646 1009.609,507.54643 L 1009.689,507.78643 C 1009.5823,512.85312 1009.449,517.99978 1009.289,523.22643 C 1009.1823,528.4531 1009.3157,533.70643 1009.689,538.98643 L 1008.969,541.22643 L 1008.729,541.46643 M 1009.689,482.66643 L 1010.089,482.66643 C 1012.2223,482.66648 1014.2757,482.98648 1016.249,483.62643 C 1018.2223,484.21315 1020.0623,485.06648 1021.769,486.18643 C 1023.4756,487.25315 1025.049,488.53314 1026.489,490.02643 C 1027.929,491.46647 1029.1823,493.03981 1030.249,494.74643 C 1030.249,494.7998 1030.2223,494.82647 1030.169,494.82643 C 1030.0623,494.82647 1029.9556,494.7998 1029.849,494.74643 C 1022.1156,495.86647 1014.3823,497.8398 1006.649,500.66643 C 998.969,503.4398 991.74234,507.03979 984.96902,511.46643 L 984.56902,511.22643 C 984.56902,507.75979 985.18235,504.34646 986.40902,500.98643 C 987.68901,497.57314 989.44901,494.53314 991.68902,491.86643 C 993.92901,489.19981 996.56901,487.03981 999.60902,485.38643 C 1002.7023,483.67982 1006.089,482.79982 1009.769,482.74643 L 1009.689,482.66643 M 1010.969,541.38643 C 1010.8623,535.5731 1010.649,529.86644 1010.329,524.26643 C 1010.0623,518.66645 1009.849,513.09312 1009.689,507.54643 L 1009.769,507.46643 C 1013.5557,506.02646 1017.289,504.61313 1020.969,503.22643 C 1024.649,501.78646 1028.5423,500.82647 1032.649,500.34643 L 1032.729,500.42643 C 1033.4223,502.29313 1033.9556,504.21313 1034.329,506.18643 C 1034.7556,508.10646 1034.969,510.07979 1034.969,512.10643 C 1034.969,514.82645 1034.6223,517.54645 1033.929,520.26643 C 1033.2356,522.93311 1032.2223,525.46644 1030.889,527.86643 C 1029.609,530.2131 1028.009,532.34643 1026.089,534.26643 C 1024.169,536.18643 1022.009,537.78643 1019.609,539.06643 C 1020.8356,539.54643 1022.0623,539.99976 1023.289,540.42643 C 1024.569,540.79976 1025.8223,541.19976 1027.049,541.62643 L 1027.129,541.70643 C 1026.7023,542.98642 1026.3023,544.26642 1025.929,545.54643 C 1025.609,546.82642 1025.2356,548.07975 1024.809,549.30643 L 1024.729,549.38643 C 1022.9156,548.63975 1021.129,547.86642 1019.369,547.06643 C 1017.609,546.31975 1015.8223,545.59975 1014.009,544.90643 L 1013.929,544.82643 C 1014.1957,544.13309 1014.4357,543.41309 1014.649,542.66643 C 1014.8623,541.97309 1015.1023,541.27976 1015.369,540.58643 C 1014.6223,540.85309 1013.849,541.01309 1013.049,541.06643 C 1012.3023,541.11976 1011.5557,541.19976 1010.809,541.30643 L 1010.729,541.22643 L 1010.969,541.38643" style="font-size: 80px; font-style: normal; font-variant: normal; font-weight: normal; font-stretch: normal; text-align: start; line-height: 125%; text-anchor: start; fill: rgb(128, 0, 0); fill-opacity: 1; stroke: none; stroke-width: 1px; stroke-linecap: butt; stroke-linejoin: miter; stroke-opacity: 1; font-family: Airmole Stripe;"/>
    </g>
  </g>
</svg>