<?xml version="1.0" encoding="UTF-8" standalone="no"?>
<!-- Created with Inkscape (http://www.inkscape.org/) -->
<svg xmlns:dc="http://purl.org/dc/elements/1.1/" xmlns:cc="http://creativecommons.org/ns#" xmlns:rdf="http://www.w3.org/1999/02/22-rdf-syntax-ns#" xmlns:svg="http://www.w3.org/2000/svg" xmlns="http://www.w3.org/2000/svg" xmlns:sodipodi="http://sodipodi.sourceforge.net/DTD/sodipodi-0.dtd" xmlns:inkscape="http://www.inkscape.org/namespaces/inkscape" width="90" height="135" id="svg16720" sodipodi:version="0.32" inkscape:version="0.46" version="1.0" sodipodi:docname="diamond_7.svg" inkscape:output_extension="org.inkscape.output.svg.inkscape">
  <defs id="defs16722">
    <inkscape:perspective sodipodi:type="inkscape:persp3d" inkscape:vp_x="0 : 526.18109 : 1" inkscape:vp_y="0 : 1000 : 0" inkscape:vp_z="744.09448 : 526.18109 : 1" inkscape:persp3d-origin="372.04724 : 350.78739 : 1" id="perspective16728"/>
  </defs>
  <sodipodi:namedview id="base" pagecolor="#ffffff" bordercolor="#666666" borderopacity="1.0" gridtolerance="10000" guidetolerance="10" objecttolerance="10" inkscape:pageopacity="0.0" inkscape:pageshadow="2" inkscape:zoom="1.4" inkscape:cx="1.1905278" inkscape:cy="112.32681" inkscape:document-units="px" inkscape:current-layer="layer1" showgrid="false" inkscape:window-width="641" inkscape:window-height="719" inkscape:window-x="611" inkscape:window-y="47"/>
  <metadata id="metadata16725">
    <rdf:RDF>
      <cc:Work rdf:about="">
        <dc:format>image/svg+xml</dc:format>
        <dc:type rdf:resource="http://purl.org/dc/dcmitype/StillImage"/>
      </cc:Work>
    </rdf:RDF>
  </metadata>
  <g inkscape:label="Layer 1" inkscape:groupmode="layer" id="layer1" transform="translate(-117.857, -330.576)">
    <g transform="translate(-367.242, -96.2857)" id="g14658">
      <g transform="translate(464.242, 416.929)" id="g4750">
        <rect style="fill: rgb(0, 0, 0); fill-opacity: 1; stroke: none; stroke-width: 3; stroke-linecap: butt; stroke-linejoin: round; stroke-miterlimit: 4; stroke-dasharray: none; stroke-opacity: 1;" id="rect4752" width="90" height="135" x="20.85714" y="9.9336166" ry="14.04"/>
        <rect style="fill: rgb(242, 242, 242); fill-opacity: 1; stroke: none; stroke-width: 3; stroke-linecap: butt; stroke-linejoin: round; stroke-miterlimit: 4; stroke-dasharray: none; stroke-opacity: 1;" id="rect4754" width="80" height="125" x="25.85714" y="14.933617" ry="13"/>
      </g>
      <path id="text4820" d="M 547.77881,497.30643 C 547.51211,498.05314 547.27211,498.82647 547.05881,499.62643 C 546.89877,500.37314 546.68544,501.1198 546.41881,501.86643 L 546.57881,501.86643 C 542.04544,503.73313 537.59212,505.65313 533.21881,507.62643 C 528.84546,509.54646 524.6588,511.89313 520.65881,514.66643 C 519.27213,514.71979 517.91214,514.77312 516.57881,514.82643 C 515.24547,514.87979 513.88547,514.93312 512.49881,514.98643 L 512.65881,514.82643 C 515.2188,512.79979 517.91214,510.95979 520.73881,509.30643 C 523.6188,507.65313 526.55213,506.13313 529.53881,504.74643 C 532.52545,503.30647 535.53878,501.97314 538.57881,500.74643 C 541.61878,499.51981 544.65878,498.34647 547.69881,497.22643 L 547.77881,497.30643 M 517.37881,538.50643 C 517.8588,534.66644 518.47213,530.82644 519.21881,526.98643 C 519.96547,523.09312 520.95213,519.30645 522.17881,515.62643 C 525.69879,513.06646 529.45879,510.87979 533.45881,509.06643 C 537.51212,507.1998 541.61878,505.41313 545.77881,503.70643 L 545.77881,503.78643 C 543.91211,509.7598 541.96544,515.73312 539.93881,521.70643 C 537.91212,527.62644 535.69878,533.41311 533.29881,539.06643 L 533.29881,539.14643 C 530.57879,538.9331 527.93879,538.82643 525.37881,538.82643 C 522.8188,538.82643 520.1788,538.71977 517.45881,538.50643 L 517.37881,538.50643 M 508.41881,483.46643 C 515.56547,483.35982 522.76546,483.19982 530.01881,482.98643 C 537.32545,482.77316 544.63211,482.66649 551.93881,482.66643 L 552.01881,482.74643 C 551.37877,484.93315 550.76544,487.09315 550.17881,489.22643 C 549.5921,491.35981 548.97877,493.51981 548.33881,495.70643 L 548.09881,495.70643 C 544.73878,496.93314 541.37878,498.18647 538.01881,499.46643 C 534.65879,500.69314 531.35212,502.0798 528.09881,503.62643 C 524.8988,505.1198 521.75213,506.82647 518.65881,508.74643 C 515.56547,510.61313 512.63214,512.74646 509.85881,515.14643 L 509.45881,515.14643 L 508.25881,515.30643 C 508.31215,513.91979 508.33881,512.55979 508.33881,511.22643 C 508.33881,509.89313 508.33881,508.5598 508.33881,507.22643 C 508.33881,503.70647 508.31215,500.23981 508.25881,496.82643 C 508.20548,493.35981 508.17881,489.86648 508.17881,486.34643 L 508.25881,483.78643 L 508.41881,483.46643" style="font-size: 80px; font-style: normal; font-variant: normal; font-weight: normal; font-stretch: normal; text-align: start; line-height: 125%; text-anchor: start; fill: rgb(128, 0, 0); fill-opacity: 1; stroke: none; stroke-width: 1px; stroke-linecap: butt; stroke-linejoin: miter; stroke-opacity: 1; font-family: Airmole Stripe;"/>
      <path id="text5381" d="M 530.10803,435.83589 L 530.10803,439.70533 C 527.16542,443.2572 525.0006,446.65998 523.61358,449.91367 C 522.2395,453.16738 521.44227,456.75163 521.22191,460.66644 L 516.30247,460.66644 C 516.62654,458.03496 517.03487,455.80534 517.52747,453.97755 C 518.02006,452.14978 518.69413,450.33497 519.54969,448.53311 C 520.02931,447.44423 520.86542,445.99238 522.05803,444.17755 C 523.26357,442.36276 524.24875,441.04702 525.01358,440.23033 L 512.66636,440.23033 L 512.66636,435.83589 L 530.10803,435.83589" style="font-size: 35px; font-style: normal; font-variant: normal; font-weight: bold; font-stretch: normal; text-align: start; line-height: 125%; text-anchor: start; fill: rgb(170, 0, 0); fill-opacity: 1; stroke: none; stroke-width: 1px; stroke-linecap: butt; stroke-linejoin: miter; stroke-opacity: 1; font-family: AlMothnna;"/>
      <path sodipodi:nodetypes="ccccc" id="path5478" d="M 503.65734,434.8109 C 506.15734,441.6859 509.28234,444.8109 516.15734,447.3109 C 509.28234,449.8109 506.15734,452.9359 503.65734,459.8109 C 501.15734,452.9359 498.03234,449.8109 491.15734,447.3109 C 498.03234,444.8109 501.15734,441.6859 503.65734,434.8109 z" style="fill: rgb(212, 0, 0); fill-opacity: 1; stroke: none; stroke-width: 0.354331; stroke-linecap: round; stroke-linejoin: round; stroke-miterlimit: 4; stroke-dasharray: 1.41732, 1.41732; stroke-dashoffset: 0pt; stroke-opacity: 1;"/>
      <path sodipodi:nodetypes="ccccc" id="path5766" d="M 511.42855,477.36219 C 512.92855,481.48719 514.80355,483.36219 518.92855,484.86219 C 514.80355,486.36219 512.92855,488.23719 511.42855,492.36219 C 509.92855,488.23719 508.05355,486.36219 503.92855,484.86219 C 508.05355,483.36219 509.92855,481.48719 511.42855,477.36219 z" style="fill: rgb(212, 0, 0); fill-opacity: 1; stroke: none; stroke-width: 0.354331; stroke-linecap: round; stroke-linejoin: round; stroke-miterlimit: 4; stroke-dasharray: 1.41732, 1.41732; stroke-dashoffset: 0pt; stroke-opacity: 1;"/>
      <path sodipodi:nodetypes="ccccc" id="path5768" d="M 509.42855,504.36219 C 510.92855,508.48719 512.80355,510.36219 516.92855,511.86219 C 512.80355,513.36219 510.92855,515.23719 509.42855,519.36219 C 507.92855,515.23719 506.05355,513.36219 501.92855,511.86219 C 506.05355,510.36219 507.92855,508.48719 509.42855,504.36219 z" style="fill: rgb(212, 0, 0); fill-opacity: 1; stroke: none; stroke-width: 0.354331; stroke-linecap: round; stroke-linejoin: round; stroke-miterlimit: 4; stroke-dasharray: 1.41732, 1.41732; stroke-dashoffset: 0pt; stroke-opacity: 1;"/>
      <path sodipodi:nodetypes="ccccc" id="path5770" d="M 536.42855,531.36219 C 537.92855,535.48719 539.80355,537.36219 543.92855,538.86219 C 539.80355,540.36219 537.92855,542.23719 536.42855,546.36219 C 534.92855,542.23719 533.05355,540.36219 528.92855,538.86219 C 533.05355,537.36219 534.92855,535.48719 536.42855,531.36219 z" style="fill: rgb(212, 0, 0); fill-opacity: 1; stroke: none; stroke-width: 0.354331; stroke-linecap: round; stroke-linejoin: round; stroke-miterlimit: 4; stroke-dasharray: 1.41732, 1.41732; stroke-dashoffset: 0pt; stroke-opacity: 1;"/>
      <path sodipodi:nodetypes="ccccc" id="path5772" d="M 516.42855,528.36219 C 517.92855,532.48719 519.80355,534.36219 523.92855,535.86219 C 519.80355,537.36219 517.92855,539.23719 516.42855,543.36219 C 514.92855,539.23719 513.05355,537.36219 508.92855,535.86219 C 513.05355,534.36219 514.92855,532.48719 516.42855,528.36219 z" style="fill: rgb(212, 0, 0); fill-opacity: 1; stroke: none; stroke-width: 0.354331; stroke-linecap: round; stroke-linejoin: round; stroke-miterlimit: 4; stroke-dasharray: 1.41732, 1.41732; stroke-dashoffset: 0pt; stroke-opacity: 1;"/>
      <path sodipodi:nodetypes="ccccc" id="path5774" d="M 546.42855,505.36219 C 547.92855,509.48719 549.80355,511.36219 553.92855,512.86219 C 549.80355,514.36219 547.92855,516.23719 546.42855,520.36219 C 544.92855,516.23719 543.05355,514.36219 538.92855,512.86219 C 543.05355,511.36219 544.92855,509.48719 546.42855,505.36219 z" style="fill: rgb(212, 0, 0); fill-opacity: 1; stroke: none; stroke-width: 0.354331; stroke-linecap: round; stroke-linejoin: round; stroke-miterlimit: 4; stroke-dasharray: 1.41732, 1.41732; stroke-dashoffset: 0pt; stroke-opacity: 1;"/>
      <path sodipodi:nodetypes="ccccc" id="path5776" d="M 553.42855,474.36219 C 554.92855,478.48719 556.80355,480.36219 560.92855,481.86219 C 556.80355,483.36219 554.92855,485.23719 553.42855,489.36219 C 551.92855,485.23719 550.05355,483.36219 545.92855,481.86219 C 550.05355,480.36219 551.92855,478.48719 553.42855,474.36219 z" style="fill: rgb(212, 0, 0); fill-opacity: 1; stroke: none; stroke-width: 0.354331; stroke-linecap: round; stroke-linejoin: round; stroke-miterlimit: 4; stroke-dasharray: 1.41732, 1.41732; stroke-dashoffset: 0pt; stroke-opacity: 1;"/>
      <path sodipodi:nodetypes="ccccc" id="path5778" d="M 531.42855,469.36219 C 532.92855,473.48719 534.80355,475.36219 538.92855,476.86219 C 534.80355,478.36219 532.92855,480.23719 531.42855,484.36219 C 529.92855,480.23719 528.05355,478.36219 523.92855,476.86219 C 528.05355,475.36219 529.92855,473.48719 531.42855,469.36219 z" style="fill: rgb(212, 0, 0); fill-opacity: 1; stroke: none; stroke-width: 0.354331; stroke-linecap: round; stroke-linejoin: round; stroke-miterlimit: 4; stroke-dasharray: 1.41732, 1.41732; stroke-dashoffset: 0pt; stroke-opacity: 1;"/>
    </g>
  </g>
</svg>