<?xml version="1.0" encoding="UTF-8" standalone="no"?>
<!-- Created with Inkscape (http://www.inkscape.org/) -->
<svg xmlns:dc="http://purl.org/dc/elements/1.1/" xmlns:cc="http://creativecommons.org/ns#" xmlns:rdf="http://www.w3.org/1999/02/22-rdf-syntax-ns#" xmlns:svg="http://www.w3.org/2000/svg" xmlns="http://www.w3.org/2000/svg" xmlns:sodipodi="http://sodipodi.sourceforge.net/DTD/sodipodi-0.dtd" xmlns:inkscape="http://www.inkscape.org/namespaces/inkscape" width="90" height="135" id="svg16720" sodipodi:version="0.32" inkscape:version="0.46" version="1.0" sodipodi:docname="diamond_8.svg" inkscape:output_extension="org.inkscape.output.svg.inkscape">
  <defs id="defs16722">
    <inkscape:perspective sodipodi:type="inkscape:persp3d" inkscape:vp_x="0 : 526.18109 : 1" inkscape:vp_y="0 : 1000 : 0" inkscape:vp_z="744.09448 : 526.18109 : 1" inkscape:persp3d-origin="372.04724 : 350.78739 : 1" id="perspective16728"/>
  </defs>
  <sodipodi:namedview id="base" pagecolor="#ffffff" bordercolor="#666666" borderopacity="1.0" gridtolerance="10000" guidetolerance="10" objecttolerance="10" inkscape:pageopacity="0.0" inkscape:pageshadow="2" inkscape:zoom="1.4" inkscape:cx="1.1905278" inkscape:cy="112.32681" inkscape:document-units="px" inkscape:current-layer="layer1" showgrid="false" inkscape:window-width="641" inkscape:window-height="719" inkscape:window-x="611" inkscape:window-y="47"/>
  <metadata id="metadata16725">
    <rdf:RDF>
      <cc:Work rdf:about="">
        <dc:format>image/svg+xml</dc:format>
        <dc:type rdf:resource="http://purl.org/dc/dcmitype/StillImage"/>
      </cc:Work>
    </rdf:RDF>
  </metadata>
  <g inkscape:label="Layer 1" inkscape:groupmode="layer" id="layer1" transform="translate(-117.857, -330.576)">
    <g transform="translate(-463.176, -96.2857)" id="g14691">
      <g transform="translate(560.176, 416.929)" id="g4756">
        <rect style="fill: rgb(0, 0, 0); fill-opacity: 1; stroke: none; stroke-width: 3; stroke-linecap: butt; stroke-linejoin: round; stroke-miterlimit: 4; stroke-dasharray: none; stroke-opacity: 1;" id="rect4758" width="90" height="135" x="20.85714" y="9.9336166" ry="14.04"/>
        <rect style="fill: rgb(242, 242, 242); fill-opacity: 1; stroke: none; stroke-width: 3; stroke-linecap: butt; stroke-linejoin: round; stroke-miterlimit: 4; stroke-dasharray: none; stroke-opacity: 1;" id="rect4760" width="80" height="125" x="25.85714" y="14.933617" ry="13"/>
      </g>
      <path id="text4824" d="M 648.59284,496.82644 L 649.47284,499.30644 C 645.47279,501.17314 641.52613,502.90647 637.63284,504.50644 C 633.7928,506.05314 629.97947,507.78647 626.19284,509.70644 L 626.11284,509.62644 C 626.11281,509.14647 626.08614,508.66647 626.03284,508.18644 C 626.03281,507.70647 626.03281,507.22647 626.03284,506.74644 L 626.11284,505.94644 C 629.84614,504.18647 633.49947,502.50648 637.07284,500.90644 C 640.69946,499.25315 644.51279,497.86648 648.51284,496.74644 L 648.59284,496.82644 M 625.95284,506.18644 C 625.84614,506.77314 625.81948,507.38647 625.87284,508.02644 C 625.92614,508.66647 625.89948,509.2798 625.79284,509.86644 L 625.71284,509.78644 C 619.31282,513.09313 613.60616,517.30646 608.59284,522.42644 L 608.43284,522.42644 C 607.84616,521.89312 607.28616,521.33312 606.75284,520.74644 C 606.27283,520.10646 605.8195,519.46646 605.39284,518.82644 L 605.31284,518.74644 C 608.51283,516.02646 611.89949,513.70646 615.47284,511.78644 C 619.04615,509.86647 622.51281,507.97314 625.87284,506.10644 L 625.95284,506.18644 L 625.95284,506.18644 M 612.11284,532.02644 C 612.11282,530.95978 612.32616,529.97311 612.75284,529.06644 C 613.23282,528.10645 613.84616,527.27978 614.59284,526.58644 C 612.77949,525.78645 611.12616,524.74645 609.63284,523.46644 L 609.63284,523.30644 C 611.97949,520.85312 614.51282,518.69313 617.23284,516.82644 C 619.95282,514.90646 622.77948,513.14646 625.71284,511.54644 L 625.95284,511.38644 C 625.68614,516.45313 625.49948,521.46646 625.39284,526.42644 C 625.28614,531.38645 625.12615,536.29311 624.91284,541.14644 L 624.83284,541.22644 C 623.49948,541.1731 622.11281,540.9331 620.67284,540.50644 C 619.23282,540.1331 617.89949,539.5731 616.67284,538.82644 C 615.44615,538.07977 614.40616,537.14644 613.55284,536.02644 C 612.69949,534.90644 612.21949,533.57311 612.11284,532.02644 M 627.23284,541.14644 C 627.07281,536.13311 626.88614,531.17311 626.67284,526.26644 C 626.45948,521.30646 626.29948,516.31979 626.19284,511.30644 L 626.27284,511.38644 C 630.11281,509.30647 634.08614,507.33314 638.19284,505.46644 C 642.29946,503.54647 646.21946,501.97314 649.95284,500.74644 L 650.03284,500.82644 C 650.19279,501.57314 650.32612,502.31981 650.43284,503.06644 C 650.53945,503.81314 650.59279,504.55981 650.59284,505.30644 L 650.59284,506.58644 C 650.59279,508.77314 650.24612,510.8798 649.55284,512.90644 C 648.91279,514.8798 648.00612,516.74646 646.83284,518.50644 C 645.71279,520.26646 644.32613,521.83979 642.67284,523.22644 C 641.0728,524.61312 639.3128,525.75979 637.39284,526.66644 C 638.13947,527.35978 638.7528,528.15978 639.23284,529.06644 C 639.76613,529.97311 640.0328,530.93311 640.03284,531.94644 C 639.92613,533.49311 639.44613,534.85311 638.59284,536.02644 C 637.7928,537.14644 636.7528,538.07977 635.47284,538.82644 C 634.24614,539.5731 632.9128,540.1331 631.47284,540.50644 C 630.03281,540.9331 628.64614,541.1731 627.31284,541.22644 L 627.23284,541.14644 L 627.23284,541.14644 M 625.95284,504.02644 C 622.11281,505.89314 618.43282,507.94647 614.91284,510.18644 C 611.44616,512.42647 608.16616,514.98646 605.07284,517.86644 L 604.91284,517.86644 C 602.6195,514.18646 601.47284,510.21313 601.47284,505.94644 L 601.47284,505.70644 C 601.47284,502.55981 602.1395,499.59981 603.47284,496.82644 C 604.8595,493.99982 606.64616,491.54649 608.83284,489.46644 C 611.07283,487.38649 613.60616,485.73316 616.43284,484.50644 C 619.31282,483.27983 622.24615,482.6665 625.23284,482.66644 L 625.87284,482.66644 C 628.11281,482.71983 630.35281,483.03983 632.59284,483.62644 C 634.8328,484.21316 636.9128,485.06649 638.83284,486.18644 C 640.80613,487.25316 642.56613,488.58649 644.11284,490.18644 C 645.71279,491.78649 646.99279,493.62648 647.95284,495.70644 L 647.87284,495.86644 C 644.08613,496.93315 640.3528,498.15981 636.67284,499.54644 C 633.04614,500.93314 629.49947,502.42648 626.03284,504.02644 L 625.95284,504.02644" style="font-size: 80px; font-style: normal; font-variant: normal; font-weight: normal; font-stretch: normal; text-align: start; line-height: 125%; text-anchor: start; fill: rgb(128, 0, 0); fill-opacity: 1; stroke: none; stroke-width: 1px; stroke-linecap: butt; stroke-linejoin: miter; stroke-opacity: 1; font-family: Airmole Stripe;"/>
      <path id="text5385" d="M 628.51863,441.12756 C 628.51861,442.03499 628.35657,442.83869 628.03251,443.53867 C 627.72139,444.22573 627.34546,444.76369 626.90474,445.15256 C 626.47694,445.5285 625.94546,445.89147 625.31029,446.24145 C 626.7362,447.00628 627.76676,447.89424 628.40196,448.90534 C 629.05009,449.91646 629.37416,451.15442 629.37418,452.61923 C 629.37416,454.96553 628.55102,456.87757 626.90474,458.35534 C 625.27139,459.82016 623.15843,460.55256 620.56585,460.55256 C 617.97325,460.55256 615.85381,459.82016 614.20751,458.35534 C 612.57418,456.87757 611.75751,454.96553 611.75751,452.61923 C 611.75751,451.14146 612.07511,449.9035 612.71029,448.90534 C 613.34547,447.89424 614.37603,447.00628 615.80196,446.24145 C 614.67418,445.64517 613.85751,444.95165 613.35196,444.1609 C 612.8464,443.35721 612.59362,442.36554 612.59363,441.1859 C 612.59362,439.22851 613.34547,437.61462 614.84918,436.34423 C 616.35288,435.06092 618.25843,434.41925 620.56585,434.41923 C 622.87324,434.41925 624.77232,435.05444 626.26307,436.32479 C 627.76676,437.59518 628.51861,439.1961 628.51863,441.12756 M 620.58529,438.3859 C 619.49639,438.38592 618.60843,438.68407 617.9214,439.28034 C 617.24732,439.87666 616.91029,440.64795 616.91029,441.59423 C 616.91029,442.55351 617.2538,443.33776 617.94085,443.94701 C 618.62788,444.55628 619.50936,444.86091 620.58529,444.8609 C 621.66121,444.86091 622.54269,444.56276 623.22974,443.96645 C 623.92972,443.35721 624.27972,442.57943 624.27974,441.63312 C 624.27972,440.66092 623.9362,439.87666 623.24918,439.28034 C 622.5751,438.68407 621.68713,438.38592 620.58529,438.3859 M 620.5464,448.20534 C 619.36676,448.20535 618.42047,448.58128 617.70751,449.33312 C 617.00751,450.07202 616.65751,451.07016 616.65751,452.32756 C 616.65751,453.55905 617.00751,454.53775 617.70751,455.26367 C 618.42047,455.9896 619.36676,456.35257 620.5464,456.35256 C 621.72602,456.35257 622.67232,455.99609 623.38529,455.28312 C 624.1112,454.5572 624.47417,453.59794 624.47418,452.40534 C 624.47417,451.10905 624.11769,450.08498 623.40474,449.33312 C 622.70472,448.58128 621.75195,448.20535 620.5464,448.20534" style="font-size: 35px; font-style: normal; font-variant: normal; font-weight: bold; font-stretch: normal; text-align: start; line-height: 125%; text-anchor: start; fill: rgb(170, 0, 0); fill-opacity: 1; stroke: none; stroke-width: 1px; stroke-linecap: butt; stroke-linejoin: miter; stroke-opacity: 1; font-family: AlMothnna;"/>
      <path sodipodi:nodetypes="ccccc" id="path5480" d="M 599.59139,434.8109 C 602.09139,441.6859 605.21639,444.8109 612.09139,447.3109 C 605.21639,449.8109 602.09139,452.9359 599.59139,459.8109 C 597.09139,452.9359 593.96639,449.8109 587.09139,447.3109 C 593.96639,444.8109 597.09139,441.6859 599.59139,434.8109 z" style="fill: rgb(212, 0, 0); fill-opacity: 1; stroke: none; stroke-width: 0.354331; stroke-linecap: round; stroke-linejoin: round; stroke-miterlimit: 4; stroke-dasharray: 1.41732, 1.41732; stroke-dashoffset: 0pt; stroke-opacity: 1;"/>
      <path sodipodi:nodetypes="ccccc" id="path5780" d="M 625.42855,495.36219 C 626.92855,499.48719 628.80355,501.36219 632.92855,502.86219 C 628.80355,504.36219 626.92855,506.23719 625.42855,510.36219 C 623.92855,506.23719 622.05355,504.36219 617.92855,502.86219 C 622.05355,501.36219 623.92855,499.48719 625.42855,495.36219 z" style="fill: rgb(212, 0, 0); fill-opacity: 1; stroke: none; stroke-width: 0.354331; stroke-linecap: round; stroke-linejoin: round; stroke-miterlimit: 4; stroke-dasharray: 1.41732, 1.41732; stroke-dashoffset: 0pt; stroke-opacity: 1;"/>
      <path sodipodi:nodetypes="ccccc" id="path5820" d="M 640.42855,527.36219 C 641.92855,531.48719 643.80355,533.36219 647.92855,534.86219 C 643.80355,536.36219 641.92855,538.23719 640.42855,542.36219 C 638.92855,538.23719 637.05355,536.36219 632.92855,534.86219 C 637.05355,533.36219 638.92855,531.48719 640.42855,527.36219 z" style="fill: rgb(212, 0, 0); fill-opacity: 1; stroke: none; stroke-width: 0.354331; stroke-linecap: round; stroke-linejoin: round; stroke-miterlimit: 4; stroke-dasharray: 1.41732, 1.41732; stroke-dashoffset: 0pt; stroke-opacity: 1;"/>
      <path sodipodi:nodetypes="ccccc" id="path5822" d="M 614.42855,530.36219 C 615.92855,534.48719 617.80355,536.36219 621.92855,537.86219 C 617.80355,539.36219 615.92855,541.23719 614.42855,545.36219 C 612.92855,541.23719 611.05355,539.36219 606.92855,537.86219 C 611.05355,536.36219 612.92855,534.48719 614.42855,530.36219 z" style="fill: rgb(212, 0, 0); fill-opacity: 1; stroke: none; stroke-width: 0.354331; stroke-linecap: round; stroke-linejoin: round; stroke-miterlimit: 4; stroke-dasharray: 1.41732, 1.41732; stroke-dashoffset: 0pt; stroke-opacity: 1;"/>
      <path sodipodi:nodetypes="ccccc" id="path5824" d="M 650.42855,509.36219 C 651.92855,513.48719 653.80355,515.36219 657.92855,516.86219 C 653.80355,518.36219 651.92855,520.23719 650.42855,524.36219 C 648.92855,520.23719 647.05355,518.36219 642.92855,516.86219 C 647.05355,515.36219 648.92855,513.48719 650.42855,509.36219 z" style="fill: rgb(212, 0, 0); fill-opacity: 1; stroke: none; stroke-width: 0.354331; stroke-linecap: round; stroke-linejoin: round; stroke-miterlimit: 4; stroke-dasharray: 1.41732, 1.41732; stroke-dashoffset: 0pt; stroke-opacity: 1;"/>
      <path sodipodi:nodetypes="ccccc" id="path5826" d="M 608.42855,512.36219 C 609.92855,516.48719 611.80355,518.36219 615.92855,519.86219 C 611.80355,521.36219 609.92855,523.23719 608.42855,527.36219 C 606.92855,523.23719 605.05355,521.36219 600.92855,519.86219 C 605.05355,518.36219 606.92855,516.48719 608.42855,512.36219 z" style="fill: rgb(212, 0, 0); fill-opacity: 1; stroke: none; stroke-width: 0.354331; stroke-linecap: round; stroke-linejoin: round; stroke-miterlimit: 4; stroke-dasharray: 1.41732, 1.41732; stroke-dashoffset: 0pt; stroke-opacity: 1;"/>
      <path sodipodi:nodetypes="ccccc" id="path5828" d="M 606.42855,486.36219 C 607.92855,490.48719 609.80355,492.36219 613.92855,493.86219 C 609.80355,495.36219 607.92855,497.23719 606.42855,501.36219 C 604.92855,497.23719 603.05355,495.36219 598.92855,493.86219 C 603.05355,492.36219 604.92855,490.48719 606.42855,486.36219 z" style="fill: rgb(212, 0, 0); fill-opacity: 1; stroke: none; stroke-width: 0.354331; stroke-linecap: round; stroke-linejoin: round; stroke-miterlimit: 4; stroke-dasharray: 1.41732, 1.41732; stroke-dashoffset: 0pt; stroke-opacity: 1;"/>
      <path sodipodi:nodetypes="ccccc" id="path5830" d="M 649.42855,483.36219 C 650.92855,487.48719 652.80355,489.36219 656.92855,490.86219 C 652.80355,492.36219 650.92855,494.23719 649.42855,498.36219 C 647.92855,494.23719 646.05355,492.36219 641.92855,490.86219 C 646.05355,489.36219 647.92855,487.48719 649.42855,483.36219 z" style="fill: rgb(212, 0, 0); fill-opacity: 1; stroke: none; stroke-width: 0.354331; stroke-linecap: round; stroke-linejoin: round; stroke-miterlimit: 4; stroke-dasharray: 1.41732, 1.41732; stroke-dashoffset: 0pt; stroke-opacity: 1;"/>
      <path sodipodi:nodetypes="ccccc" id="path5832" d="M 627.42855,474.36219 C 628.92855,478.48719 630.80355,480.36219 634.92855,481.86219 C 630.80355,483.36219 628.92855,485.23719 627.42855,489.36219 C 625.92855,485.23719 624.05355,483.36219 619.92855,481.86219 C 624.05355,480.36219 625.92855,478.48719 627.42855,474.36219 z" style="fill: rgb(212, 0, 0); fill-opacity: 1; stroke: none; stroke-width: 0.354331; stroke-linecap: round; stroke-linejoin: round; stroke-miterlimit: 4; stroke-dasharray: 1.41732, 1.41732; stroke-dashoffset: 0pt; stroke-opacity: 1;"/>
    </g>
  </g>
</svg>