<?xml version="1.0" encoding="UTF-8" standalone="no"?>
<!-- Created with Inkscape (http://www.inkscape.org/) -->
<svg xmlns:dc="http://purl.org/dc/elements/1.1/" xmlns:cc="http://creativecommons.org/ns#" xmlns:rdf="http://www.w3.org/1999/02/22-rdf-syntax-ns#" xmlns:svg="http://www.w3.org/2000/svg" xmlns="http://www.w3.org/2000/svg" xmlns:sodipodi="http://sodipodi.sourceforge.net/DTD/sodipodi-0.dtd" xmlns:inkscape="http://www.inkscape.org/namespaces/inkscape" width="90" height="135" id="svg16720" sodipodi:version="0.32" inkscape:version="0.46" version="1.0" sodipodi:docname="diamond_6.svg" inkscape:output_extension="org.inkscape.output.svg.inkscape">
  <defs id="defs16722">
    <inkscape:perspective sodipodi:type="inkscape:persp3d" inkscape:vp_x="0 : 526.18109 : 1" inkscape:vp_y="0 : 1000 : 0" inkscape:vp_z="744.09448 : 526.18109 : 1" inkscape:persp3d-origin="372.04724 : 350.78739 : 1" id="perspective16728"/>
  </defs>
  <sodipodi:namedview id="base" pagecolor="#ffffff" bordercolor="#666666" borderopacity="1.0" gridtolerance="10000" guidetolerance="10" objecttolerance="10" inkscape:pageopacity="0.0" inkscape:pageshadow="2" inkscape:zoom="1.4" inkscape:cx="1.1905278" inkscape:cy="112.32681" inkscape:document-units="px" inkscape:current-layer="layer1" showgrid="false" inkscape:window-width="641" inkscape:window-height="719" inkscape:window-x="611" inkscape:window-y="47"/>
  <metadata id="metadata16725">
    <rdf:RDF>
      <cc:Work rdf:about="">
        <dc:format>image/svg+xml</dc:format>
        <dc:type rdf:resource="http://purl.org/dc/dcmitype/StillImage"/>
      </cc:Work>
    </rdf:RDF>
  </metadata>
  <g inkscape:label="Layer 1" inkscape:groupmode="layer" id="layer1" transform="translate(-117.857, -330.576)">
    <g transform="translate(-271.308, -96.2857)" id="g14627">
      <g transform="translate(368.308, 416.929)" id="g4744">
        <rect style="fill: rgb(0, 0, 0); fill-opacity: 1; stroke: none; stroke-width: 3; stroke-linecap: butt; stroke-linejoin: round; stroke-miterlimit: 4; stroke-dasharray: none; stroke-opacity: 1;" id="rect4746" width="90" height="135" x="20.85714" y="9.9336166" ry="14.04"/>
        <rect style="fill: rgb(242, 242, 242); fill-opacity: 1; stroke: none; stroke-width: 3; stroke-linecap: butt; stroke-linejoin: round; stroke-miterlimit: 4; stroke-dasharray: none; stroke-opacity: 1;" id="rect4748" width="80" height="125" x="25.85714" y="14.933617" ry="13"/>
      </g>
      <path id="text4852" d="M 449.84476,508.98642 C 449.95139,509.25312 450.08472,509.46646 450.24476,509.62642 C 450.40472,509.78645 450.59139,509.97312 450.80476,510.18642 L 450.80476,510.34642 C 447.71139,511.67979 444.64473,513.09312 441.60476,514.58642 C 438.61807,516.07978 435.7114,517.70645 432.88476,519.46642 C 430.05807,521.17311 427.31141,523.06644 424.64476,525.14642 C 422.03142,527.1731 419.55142,529.4131 417.20476,531.86642 L 417.04476,531.78642 C 416.77809,531.2531 416.53809,530.71977 416.32476,530.18642 C 416.16475,529.59977 415.95142,529.03977 415.68476,528.50642 L 416.00476,528.42642 C 418.19142,526.13311 420.59142,523.99977 423.20476,522.02642 C 425.87141,520.05311 428.64474,518.26645 431.52476,516.66642 C 434.40474,515.06645 437.36473,513.62645 440.40476,512.34642 C 443.49806,511.06645 446.61806,509.94645 449.76476,508.98642 L 449.84476,508.98642 L 449.84476,508.98642 M 446.24476,506.02642 C 446.67139,506.29312 447.07139,506.55979 447.44476,506.82642 C 447.81806,507.09312 448.19139,507.38646 448.56476,507.70642 L 448.40476,508.10642 C 442.53806,509.97312 436.72473,512.42645 430.96476,515.46642 C 425.25808,518.45311 420.05808,522.21311 415.36476,526.74642 L 415.20476,526.66642 C 414.83142,525.54644 414.56476,524.31977 414.40476,522.98642 C 414.29809,521.65311 414.24476,520.39978 414.24476,519.22642 L 414.24476,518.42642 C 414.24476,514.95978 414.72476,511.57312 415.68476,508.26642 C 416.69809,504.90646 418.03142,501.70646 419.68476,498.66642 C 421.39142,495.62647 423.31141,492.77314 425.44476,490.10642 C 427.63141,487.38648 429.92474,484.90648 432.32476,482.66642 L 432.48476,482.74642 C 434.1914,484.82648 436.05807,486.77314 438.08476,488.58642 C 440.1114,490.34647 442.13806,492.07981 444.16476,493.78642 C 444.16473,493.8398 444.13806,493.89314 444.08476,493.94642 C 444.08473,493.94647 444.08473,493.9998 444.08476,494.10642 C 441.89806,495.06647 439.73806,496.26647 437.60476,497.70642 C 435.52474,499.14647 433.57807,500.7998 431.76476,502.66642 C 430.00474,504.47979 428.48474,506.50646 427.20476,508.74642 C 425.97808,510.93312 425.17808,513.27978 424.80476,515.78642 C 425.28475,514.39978 425.81808,512.98645 426.40476,511.54642 C 426.99141,510.10645 427.73808,508.79979 428.64476,507.62642 C 429.60474,506.45312 430.72474,505.49313 432.00476,504.74642 C 433.33807,503.99979 434.96474,503.62646 436.88476,503.62642 L 437.36476,503.62642 C 440.56473,503.73313 443.52473,504.53313 446.24476,506.02642 M 434.72476,542.58642 C 431.31141,542.53309 428.11141,541.73309 425.12476,540.18642 C 422.13808,538.58643 419.71142,536.26643 417.84476,533.22642 L 417.84476,533.06642 C 422.69808,528.2131 428.00474,524.10644 433.76476,520.74642 C 439.52473,517.38645 445.49806,514.31978 451.68476,511.54642 L 451.76476,511.78642 L 451.76476,511.70642 C 452.56472,513.03978 453.15138,514.47978 453.52476,516.02642 C 453.89805,517.57311 454.08472,519.17311 454.08476,520.82642 L 454.08476,521.70642 C 454.08472,524.26644 453.60472,526.79977 452.64476,529.30642 C 451.73805,531.8131 450.45805,534.0531 448.80476,536.02642 C 447.20472,537.99976 445.25806,539.59976 442.96476,540.82642 C 440.72473,541.99976 438.2714,542.58642 435.60476,542.58642 L 434.80476,542.58642 L 434.72476,542.58642" style="font-size: 80px; font-style: normal; font-variant: normal; font-weight: normal; font-stretch: normal; text-align: start; line-height: 125%; text-anchor: start; fill: rgb(128, 0, 0); fill-opacity: 1; stroke: none; stroke-width: 1px; stroke-linecap: butt; stroke-linejoin: miter; stroke-opacity: 1; font-family: Airmole Stripe;"/>
      <path id="text5377" d="M 420.80185,447.95256 C 420.80185,438.93036 423.85462,434.41925 429.96018,434.41923 C 430.24536,434.41925 430.52406,434.43222 430.79629,434.45812 C 431.08147,434.47111 431.45739,434.52296 431.92407,434.61367 C 432.40369,434.70444 432.84443,434.82759 433.24629,434.98312 C 433.6611,435.1387 434.10184,435.37203 434.56852,435.68312 C 435.04813,435.99425 435.46295,436.3637 435.81296,436.79145 C 436.16294,437.20629 436.48702,437.74425 436.78518,438.40534 C 437.08331,439.05351 437.29072,439.77943 437.40741,440.58312 L 432.87685,440.58312 C 432.55276,439.7924 432.15739,439.22851 431.69074,438.89145 C 431.22406,438.55444 430.60184,438.38592 429.82407,438.3859 C 428.83888,438.38592 428.00925,438.69703 427.33518,439.31923 C 426.67407,439.94147 426.23332,440.80999 426.01296,441.92479 C 425.89629,442.45628 425.82499,442.87758 425.79907,443.18867 C 425.77314,443.4998 425.74073,444.30999 425.70185,445.61923 C 426.46666,444.81554 427.21851,444.25165 427.95741,443.92756 C 428.70925,443.59054 429.60369,443.42202 430.64074,443.42201 C 432.76665,443.42202 434.49721,444.16739 435.83241,445.65812 C 437.16757,447.14887 437.83517,449.08035 437.83518,451.45256 C 437.83517,454.14886 437.07035,456.3396 435.54074,458.02479 C 434.01109,459.70997 432.0148,460.55256 429.55185,460.55256 C 428.07406,460.55256 426.71944,460.22849 425.48796,459.58034 C 424.25648,458.93219 423.28425,458.03127 422.57129,456.87756 C 421.94907,455.89238 421.49537,454.69979 421.21018,453.29979 C 420.93796,451.89979 420.80185,450.11739 420.80185,447.95256 M 429.43518,447.25256 C 428.3074,447.25258 427.38703,447.68035 426.67407,448.5359 C 425.97407,449.39146 425.62407,450.49979 425.62407,451.8609 C 425.62407,453.18312 425.97407,454.26553 426.67407,455.10812 C 427.37406,455.93775 428.28147,456.35257 429.39629,456.35256 C 430.48517,456.35257 431.3861,455.92479 432.09907,455.06923 C 432.82499,454.20072 433.18795,453.10535 433.18796,451.78312 C 433.18795,450.40905 432.84443,449.31368 432.15741,448.49701 C 431.48332,447.66739 430.57591,447.25258 429.43518,447.25256" style="font-size: 35px; font-style: normal; font-variant: normal; font-weight: bold; font-stretch: normal; text-align: start; line-height: 125%; text-anchor: start; fill: rgb(170, 0, 0); fill-opacity: 1; stroke: none; stroke-width: 1px; stroke-linecap: butt; stroke-linejoin: miter; stroke-opacity: 1; font-family: AlMothnna;"/>
      <path sodipodi:nodetypes="ccccc" id="path5476" d="M 407.72327,434.8109 C 410.22327,441.6859 413.34827,444.8109 420.22327,447.3109 C 413.34827,449.8109 410.22327,452.9359 407.72327,459.8109 C 405.22327,452.9359 402.09827,449.8109 395.22327,447.3109 C 402.09827,444.8109 405.22327,441.6859 407.72327,434.8109 z" style="fill: rgb(212, 0, 0); fill-opacity: 1; stroke: none; stroke-width: 0.354331; stroke-linecap: round; stroke-linejoin: round; stroke-miterlimit: 4; stroke-dasharray: 1.41732, 1.41732; stroke-dashoffset: 0pt; stroke-opacity: 1;"/>
      <path sodipodi:nodetypes="ccccc" id="path5754" d="M 432.42855,474.36219 C 433.92855,478.48719 435.80355,480.36219 439.92855,481.86219 C 435.80355,483.36219 433.92855,485.23719 432.42855,489.36219 C 430.92855,485.23719 429.05355,483.36219 424.92855,481.86219 C 429.05355,480.36219 430.92855,478.48719 432.42855,474.36219 z" style="fill: rgb(212, 0, 0); fill-opacity: 1; stroke: none; stroke-width: 0.354331; stroke-linecap: round; stroke-linejoin: round; stroke-miterlimit: 4; stroke-dasharray: 1.41732, 1.41732; stroke-dashoffset: 0pt; stroke-opacity: 1;"/>
      <path sodipodi:nodetypes="ccccc" id="path5756" d="M 436.42855,513.36219 C 437.92855,517.48719 439.80355,519.36219 443.92855,520.86219 C 439.80355,522.36219 437.92855,524.23719 436.42855,528.36219 C 434.92855,524.23719 433.05355,522.36219 428.92855,520.86219 C 433.05355,519.36219 434.92855,517.48719 436.42855,513.36219 z" style="fill: rgb(212, 0, 0); fill-opacity: 1; stroke: none; stroke-width: 0.354331; stroke-linecap: round; stroke-linejoin: round; stroke-miterlimit: 4; stroke-dasharray: 1.41732, 1.41732; stroke-dashoffset: 0pt; stroke-opacity: 1;"/>
      <path sodipodi:nodetypes="ccccc" id="path5758" d="M 414.42855,505.36219 C 415.92855,509.48719 417.80355,511.36219 421.92855,512.86219 C 417.80355,514.36219 415.92855,516.23719 414.42855,520.36219 C 412.92855,516.23719 411.05355,514.36219 406.92855,512.86219 C 411.05355,511.36219 412.92855,509.48719 414.42855,505.36219 z" style="fill: rgb(212, 0, 0); fill-opacity: 1; stroke: none; stroke-width: 0.354331; stroke-linecap: round; stroke-linejoin: round; stroke-miterlimit: 4; stroke-dasharray: 1.41732, 1.41732; stroke-dashoffset: 0pt; stroke-opacity: 1;"/>
      <path sodipodi:nodetypes="ccccc" id="path5760" d="M 422.42855,529.36219 C 423.92855,533.48719 425.80355,535.36219 429.92855,536.86219 C 425.80355,538.36219 423.92855,540.23719 422.42855,544.36219 C 420.92855,540.23719 419.05355,538.36219 414.92855,536.86219 C 419.05355,535.36219 420.92855,533.48719 422.42855,529.36219 z" style="fill: rgb(212, 0, 0); fill-opacity: 1; stroke: none; stroke-width: 0.354331; stroke-linecap: round; stroke-linejoin: round; stroke-miterlimit: 4; stroke-dasharray: 1.41732, 1.41732; stroke-dashoffset: 0pt; stroke-opacity: 1;"/>
      <path sodipodi:nodetypes="ccccc" id="path5762" d="M 453.42855,529.36219 C 454.92855,533.48719 456.80355,535.36219 460.92855,536.86219 C 456.80355,538.36219 454.92855,540.23719 453.42855,544.36219 C 451.92855,540.23719 450.05355,538.36219 445.92855,536.86219 C 450.05355,535.36219 451.92855,533.48719 453.42855,529.36219 z" style="fill: rgb(212, 0, 0); fill-opacity: 1; stroke: none; stroke-width: 0.354331; stroke-linecap: round; stroke-linejoin: round; stroke-miterlimit: 4; stroke-dasharray: 1.41732, 1.41732; stroke-dashoffset: 0pt; stroke-opacity: 1;"/>
      <path sodipodi:nodetypes="ccccc" id="path5764" d="M 450.42855,499.36219 C 451.92855,503.48719 453.80355,505.36219 457.92855,506.86219 C 453.80355,508.36219 451.92855,510.23719 450.42855,514.36219 C 448.92855,510.23719 447.05355,508.36219 442.92855,506.86219 C 447.05355,505.36219 448.92855,503.48719 450.42855,499.36219 z" style="fill: rgb(212, 0, 0); fill-opacity: 1; stroke: none; stroke-width: 0.354331; stroke-linecap: round; stroke-linejoin: round; stroke-miterlimit: 4; stroke-dasharray: 1.41732, 1.41732; stroke-dashoffset: 0pt; stroke-opacity: 1;"/>
    </g>
  </g>
</svg>