<?xml version="1.0" encoding="UTF-8" standalone="no"?>
<!-- Created with Inkscape (http://www.inkscape.org/) -->
<svg xmlns:dc="http://purl.org/dc/elements/1.1/" xmlns:cc="http://creativecommons.org/ns#" xmlns:rdf="http://www.w3.org/1999/02/22-rdf-syntax-ns#" xmlns:svg="http://www.w3.org/2000/svg" xmlns="http://www.w3.org/2000/svg" xmlns:sodipodi="http://sodipodi.sourceforge.net/DTD/sodipodi-0.dtd" xmlns:inkscape="http://www.inkscape.org/namespaces/inkscape" width="90" height="135" id="svg16720" sodipodi:version="0.32" inkscape:version="0.46" version="1.0" sodipodi:docname="diamond_9.svg" inkscape:output_extension="org.inkscape.output.svg.inkscape">
  <defs id="defs16722">
    <inkscape:perspective sodipodi:type="inkscape:persp3d" inkscape:vp_x="0 : 526.18109 : 1" inkscape:vp_y="0 : 1000 : 0" inkscape:vp_z="744.09448 : 526.18109 : 1" inkscape:persp3d-origin="372.04724 : 350.78739 : 1" id="perspective16728"/>
  </defs>
  <sodipodi:namedview id="base" pagecolor="#ffffff" bordercolor="#666666" borderopacity="1.0" gridtolerance="10000" guidetolerance="10" objecttolerance="10" inkscape:pageopacity="0.0" inkscape:pageshadow="2" inkscape:zoom="1.4" inkscape:cx="1.1905278" inkscape:cy="112.32681" inkscape:document-units="px" inkscape:current-layer="layer1" showgrid="false" inkscape:window-width="641" inkscape:window-height="719" inkscape:window-x="611" inkscape:window-y="47"/>
  <metadata id="metadata16725">
    <rdf:RDF>
      <cc:Work rdf:about="">
        <dc:format>image/svg+xml</dc:format>
        <dc:type rdf:resource="http://purl.org/dc/dcmitype/StillImage"/>
      </cc:Work>
    </rdf:RDF>
  </metadata>
  <g inkscape:label="Layer 1" inkscape:groupmode="layer" id="layer1" transform="translate(-117.857, -330.576)">
    <g transform="translate(-559.11, -96.2857)" id="g14726">
      <g transform="translate(656.11, 416.929)" id="g4762">
        <rect style="fill: rgb(0, 0, 0); fill-opacity: 1; stroke: none; stroke-width: 3; stroke-linecap: butt; stroke-linejoin: round; stroke-miterlimit: 4; stroke-dasharray: none; stroke-opacity: 1;" id="rect4764" width="90" height="135" x="20.85714" y="9.9336166" ry="14.04"/>
        <rect style="fill: rgb(242, 242, 242); fill-opacity: 1; stroke: none; stroke-width: 3; stroke-linecap: butt; stroke-linejoin: round; stroke-miterlimit: 4; stroke-dasharray: none; stroke-opacity: 1;" id="rect4766" width="80" height="125" x="25.85714" y="14.933617" ry="13"/>
      </g>
      <path id="text4828" d="M 740.32687,495.46645 L 740.64687,496.42645 C 740.70016,496.74649 740.83349,497.09316 741.04687,497.46645 L 741.12687,497.86645 C 737.8735,499.14649 734.64683,500.50649 731.44687,501.94645 C 728.30017,503.33315 725.20684,504.85315 722.16687,506.50645 C 719.12685,508.15982 716.19352,509.97315 713.36687,511.94645 C 710.54019,513.91981 707.87353,516.10648 705.36687,518.50645 L 705.20687,518.50645 C 704.83353,518.07981 704.51353,517.62647 704.24687,517.14645 C 704.03353,516.66647 703.79353,516.18647 703.52687,515.70645 L 703.84687,515.86645 C 708.96686,511.17315 714.64685,507.09315 720.88687,503.62645 C 727.12684,500.15982 733.58017,497.41316 740.24687,495.38645 L 740.32687,495.46645 M 721.76687,482.74645 C 723.58018,482.85317 725.39351,483.17317 727.20687,483.70645 C 729.07351,484.18651 730.80684,484.90651 732.40687,485.86645 C 734.00683,486.77317 735.42017,487.91984 736.64687,489.30645 C 737.92683,490.69317 738.94016,492.2665 739.68687,494.02645 L 739.92687,494.02645 C 733.1535,496.42649 726.62018,499.22649 720.32687,502.42645 C 714.08685,505.57315 708.30019,509.51981 702.96687,514.26645 C 702.7002,514.26648 702.48687,513.97314 702.32687,513.38645 C 702.16687,512.74648 702.03353,512.05315 701.92687,511.30645 C 701.8202,510.50648 701.7402,509.75981 701.68687,509.06645 C 701.63353,508.31982 701.60687,507.83982 701.60687,507.62645 L 701.60687,506.02645 C 701.60687,503.19982 702.0602,500.39982 702.96687,497.62645 C 703.92686,494.79983 705.2602,492.29317 706.96687,490.10645 C 708.67353,487.8665 710.72686,486.07984 713.12687,484.74645 C 715.52685,483.35984 718.19352,482.66651 721.12687,482.66645 L 721.68687,482.66645 L 721.76687,482.74645 M 725.12687,524.26645 C 724.22018,524.58647 723.28685,524.8798 722.32687,525.14645 C 721.42018,525.3598 720.48685,525.46647 719.52687,525.46645 L 719.12687,525.46645 C 716.67352,525.41313 714.27352,524.90647 711.92687,523.94645 C 709.63353,522.93313 707.66019,521.46647 706.00687,519.54645 L 705.76687,519.14645 C 711.15352,514.87981 716.83352,511.11981 722.80687,507.86645 C 728.78017,504.55982 734.96683,501.54649 741.36687,498.82645 L 741.44687,498.90645 C 741.60683,500.18649 741.76683,501.43982 741.92687,502.66645 C 742.08683,503.89315 742.22016,505.17315 742.32687,506.50645 C 742.22016,510.02648 741.68683,513.43981 740.72687,516.74645 C 739.76683,519.9998 738.48683,523.14647 736.88687,526.18645 C 735.28683,529.22646 733.3935,532.13313 731.20687,534.90645 C 729.07351,537.62645 726.75351,540.18645 724.24687,542.58645 L 724.08687,542.58645 C 723.02018,541.62645 722.00685,540.58645 721.04687,539.46645 C 720.14018,538.34645 719.10018,537.33312 717.92687,536.42645 L 718.08687,536.26645 C 721.44685,532.42646 724.27351,528.26646 726.56687,523.78645 C 728.86017,519.25314 730.56684,514.47981 731.68687,509.46645 C 730.94017,512.07981 729.98017,514.61314 728.80687,517.06645 C 727.68684,519.5198 726.48684,521.9198 725.20687,524.26645 L 725.12687,524.26645" style="font-size: 80px; font-style: normal; font-variant: normal; font-weight: normal; font-stretch: normal; text-align: start; line-height: 125%; text-anchor: start; fill: rgb(128, 0, 0); fill-opacity: 1; stroke: none; stroke-width: 1px; stroke-linecap: butt; stroke-linejoin: miter; stroke-opacity: 1; font-family: Airmole Stripe;"/>
      <path id="text5389" d="M 725.44798,446.76091 C 725.44797,448.39425 725.34426,449.88499 725.13687,451.23313 C 724.92945,452.56832 724.65723,453.70258 724.32021,454.63591 C 723.98315,455.56924 723.56834,456.39887 723.07576,457.1248 C 722.58315,457.83776 722.07112,458.40813 721.53965,458.83591 C 721.02112,459.25072 720.44427,459.58776 719.80909,459.84702 C 719.18686,460.11924 718.59705,460.30072 718.03965,460.39146 C 717.48223,460.49517 716.8989,460.54702 716.28965,460.54702 C 714.88964,460.54702 713.61927,460.26183 712.47854,459.69146 C 711.33779,459.12109 710.43039,458.33035 709.75632,457.31924 C 709.0952,456.30813 708.7452,455.17387 708.70632,453.91646 L 713.45076,453.91646 C 713.50261,454.65536 713.80075,455.24517 714.34521,455.68591 C 714.88964,456.12665 715.58964,456.34702 716.44521,456.34702 C 719.18038,456.34702 720.54797,453.99425 720.54798,449.28868 C 720.53501,449.30166 720.41834,449.43777 720.19798,449.69702 C 719.9776,449.94332 719.80908,450.12481 719.69243,450.24146 C 719.58871,450.34518 719.38779,450.51369 719.08965,450.74702 C 718.79149,450.98036 718.49982,451.15536 718.21465,451.27202 C 717.94242,451.37573 717.58594,451.47943 717.14521,451.58313 C 716.71742,451.68684 716.26371,451.73869 715.78409,451.73868 C 713.58038,451.73869 711.7915,450.94147 710.41743,449.34702 C 709.04335,447.75259 708.35632,445.67851 708.35632,443.1248 C 708.35632,440.53222 709.12761,438.42574 710.67021,436.80535 C 712.22576,435.18501 714.24149,434.37482 716.71743,434.3748 C 717.26186,434.37482 717.79334,434.42019 718.31187,434.51091 C 718.83038,434.58871 719.3813,434.75075 719.96465,434.99702 C 720.56093,435.24334 721.11186,435.56093 721.61743,435.9498 C 722.13593,436.32575 722.635,436.83778 723.11465,437.48591 C 723.59426,438.12111 724.0026,438.86 724.33965,439.70257 C 724.67667,440.54519 724.94241,441.56926 725.13687,442.7748 C 725.34426,443.98037 725.44797,445.30907 725.44798,446.76091 M 716.58132,438.36091 C 715.50538,438.36093 714.64335,438.78871 713.99521,439.64424 C 713.34705,440.48685 713.02298,441.62111 713.02298,443.04702 C 713.02298,444.47296 713.34705,445.60074 713.99521,446.43035 C 714.65631,447.25999 715.55075,447.67481 716.67854,447.6748 C 717.79334,447.67481 718.70075,447.25999 719.40076,446.43035 C 720.10075,445.58777 720.45075,444.48592 720.45076,443.1248 C 720.45075,441.66 720.10075,440.49982 719.40076,439.64424 C 718.70075,438.78871 717.76094,438.36093 716.58132,438.36091" style="font-size: 35px; font-style: normal; font-variant: normal; font-weight: bold; font-stretch: normal; text-align: start; line-height: 125%; text-anchor: start; fill: rgb(170, 0, 0); fill-opacity: 1; stroke: none; stroke-width: 1px; stroke-linecap: butt; stroke-linejoin: miter; stroke-opacity: 1; font-family: AlMothnna;"/>
      <path sodipodi:nodetypes="ccccc" id="path5482" d="M 695.5254,434.8109 C 698.0254,441.6859 701.1504,444.8109 708.0254,447.3109 C 701.1504,449.8109 698.0254,452.9359 695.5254,459.8109 C 693.0254,452.9359 689.9004,449.8109 683.0254,447.3109 C 689.9004,444.8109 693.0254,441.6859 695.5254,434.8109 z" style="fill: rgb(212, 0, 0); fill-opacity: 1; stroke: none; stroke-width: 0.354331; stroke-linecap: round; stroke-linejoin: round; stroke-miterlimit: 4; stroke-dasharray: 1.41732, 1.41732; stroke-dashoffset: 0pt; stroke-opacity: 1;"/>
      <path sodipodi:nodetypes="ccccc" id="path5782" d="M 724.42855,493.36219 C 725.92855,497.48719 727.80355,499.36219 731.92855,500.86219 C 727.80355,502.36219 725.92855,504.23719 724.42855,508.36219 C 722.92855,504.23719 721.05355,502.36219 716.92855,500.86219 C 721.05355,499.36219 722.92855,497.48719 724.42855,493.36219 z" style="fill: rgb(212, 0, 0); fill-opacity: 1; stroke: none; stroke-width: 0.354331; stroke-linecap: round; stroke-linejoin: round; stroke-miterlimit: 4; stroke-dasharray: 1.41732, 1.41732; stroke-dashoffset: 0pt; stroke-opacity: 1;"/>
      <path sodipodi:nodetypes="ccccc" id="path5804" d="M 728.42855,531.36219 C 729.92855,535.48719 731.80355,537.36219 735.92855,538.86219 C 731.80355,540.36219 729.92855,542.23719 728.42855,546.36219 C 726.92855,542.23719 725.05355,540.36219 720.92855,538.86219 C 725.05355,537.36219 726.92855,535.48719 728.42855,531.36219 z" style="fill: rgb(212, 0, 0); fill-opacity: 1; stroke: none; stroke-width: 0.354331; stroke-linecap: round; stroke-linejoin: round; stroke-miterlimit: 4; stroke-dasharray: 1.41732, 1.41732; stroke-dashoffset: 0pt; stroke-opacity: 1;"/>
      <path sodipodi:nodetypes="ccccc" id="path5806" d="M 719.42855,517.36219 C 720.92855,521.48719 722.80355,523.36219 726.92855,524.86219 C 722.80355,526.36219 720.92855,528.23719 719.42855,532.36219 C 717.92855,528.23719 716.05355,526.36219 711.92855,524.86219 C 716.05355,523.36219 717.92855,521.48719 719.42855,517.36219 z" style="fill: rgb(212, 0, 0); fill-opacity: 1; stroke: none; stroke-width: 0.354331; stroke-linecap: round; stroke-linejoin: round; stroke-miterlimit: 4; stroke-dasharray: 1.41732, 1.41732; stroke-dashoffset: 0pt; stroke-opacity: 1;"/>
      <path sodipodi:nodetypes="ccccc" id="path5808" d="M 701.42855,503.36219 C 702.92855,507.48719 704.80355,509.36219 708.92855,510.86219 C 704.80355,512.36219 702.92855,514.23719 701.42855,518.36219 C 699.92855,514.23719 698.05355,512.36219 693.92855,510.86219 C 698.05355,509.36219 699.92855,507.48719 701.42855,503.36219 z" style="fill: rgb(212, 0, 0); fill-opacity: 1; stroke: none; stroke-width: 0.354331; stroke-linecap: round; stroke-linejoin: round; stroke-miterlimit: 4; stroke-dasharray: 1.41732, 1.41732; stroke-dashoffset: 0pt; stroke-opacity: 1;"/>
      <path sodipodi:nodetypes="ccccc" id="path5810" d="M 707.42855,482.36219 C 708.92855,486.48719 710.80355,488.36219 714.92855,489.86219 C 710.80355,491.36219 708.92855,493.23719 707.42855,497.36219 C 705.92855,493.23719 704.05355,491.36219 699.92855,489.86219 C 704.05355,488.36219 705.92855,486.48719 707.42855,482.36219 z" style="fill: rgb(212, 0, 0); fill-opacity: 1; stroke: none; stroke-width: 0.354331; stroke-linecap: round; stroke-linejoin: round; stroke-miterlimit: 4; stroke-dasharray: 1.41732, 1.41732; stroke-dashoffset: 0pt; stroke-opacity: 1;"/>
      <path sodipodi:nodetypes="ccccc" id="path5812" d="M 735.42855,477.36219 C 736.92855,481.48719 738.80355,483.36219 742.92855,484.86219 C 738.80355,486.36219 736.92855,488.23719 735.42855,492.36219 C 733.92855,488.23719 732.05355,486.36219 727.92855,484.86219 C 732.05355,483.36219 733.92855,481.48719 735.42855,477.36219 z" style="fill: rgb(212, 0, 0); fill-opacity: 1; stroke: none; stroke-width: 0.354331; stroke-linecap: round; stroke-linejoin: round; stroke-miterlimit: 4; stroke-dasharray: 1.41732, 1.41732; stroke-dashoffset: 0pt; stroke-opacity: 1;"/>
      <path sodipodi:nodetypes="ccccc" id="path5814" d="M 743.42855,494.36219 C 744.92855,498.48719 746.80355,500.36219 750.92855,501.86219 C 746.80355,503.36219 744.92855,505.23719 743.42855,509.36219 C 741.92855,505.23719 740.05355,503.36219 735.92855,501.86219 C 740.05355,500.36219 741.92855,498.48719 743.42855,494.36219 z" style="fill: rgb(212, 0, 0); fill-opacity: 1; stroke: none; stroke-width: 0.354331; stroke-linecap: round; stroke-linejoin: round; stroke-miterlimit: 4; stroke-dasharray: 1.41732, 1.41732; stroke-dashoffset: 0pt; stroke-opacity: 1;"/>
      <path sodipodi:nodetypes="ccccc" id="path5816" d="M 742.42855,520.36219 C 743.92855,524.48719 745.80355,526.36219 749.92855,527.86219 C 745.80355,529.36219 743.92855,531.23719 742.42855,535.36219 C 740.92855,531.23719 739.05355,529.36219 734.92855,527.86219 C 739.05355,526.36219 740.92855,524.48719 742.42855,520.36219 z" style="fill: rgb(212, 0, 0); fill-opacity: 1; stroke: none; stroke-width: 0.354331; stroke-linecap: round; stroke-linejoin: round; stroke-miterlimit: 4; stroke-dasharray: 1.41732, 1.41732; stroke-dashoffset: 0pt; stroke-opacity: 1;"/>
      <path sodipodi:nodetypes="ccccc" id="path5818" d="M 722.42855,469.36219 C 723.92855,473.48719 725.80355,475.36219 729.92855,476.86219 C 725.80355,478.36219 723.92855,480.23719 722.42855,484.36219 C 720.92855,480.23719 719.05355,478.36219 714.92855,476.86219 C 719.05355,475.36219 720.92855,473.48719 722.42855,469.36219 z" style="fill: rgb(212, 0, 0); fill-opacity: 1; stroke: none; stroke-width: 0.354331; stroke-linecap: round; stroke-linejoin: round; stroke-miterlimit: 4; stroke-dasharray: 1.41732, 1.41732; stroke-dashoffset: 0pt; stroke-opacity: 1;"/>
    </g>
  </g>
</svg>