<?xml version="1.0" encoding="UTF-8" standalone="no"?>
<!-- Created with Inkscape (http://www.inkscape.org/) -->
<svg xmlns:dc="http://purl.org/dc/elements/1.1/" xmlns:cc="http://creativecommons.org/ns#" xmlns:rdf="http://www.w3.org/1999/02/22-rdf-syntax-ns#" xmlns:svg="http://www.w3.org/2000/svg" xmlns="http://www.w3.org/2000/svg" xmlns:sodipodi="http://sodipodi.sourceforge.net/DTD/sodipodi-0.dtd" xmlns:inkscape="http://www.inkscape.org/namespaces/inkscape" width="90" height="135" id="svg16720" sodipodi:version="0.32" inkscape:version="0.46" version="1.0" sodipodi:docname="diamond_4.svg" inkscape:output_extension="org.inkscape.output.svg.inkscape">
  <defs id="defs16722">
    <inkscape:perspective sodipodi:type="inkscape:persp3d" inkscape:vp_x="0 : 526.18109 : 1" inkscape:vp_y="0 : 1000 : 0" inkscape:vp_z="744.09448 : 526.18109 : 1" inkscape:persp3d-origin="372.04724 : 350.78739 : 1" id="perspective16728"/>
  </defs>
  <sodipodi:namedview id="base" pagecolor="#ffffff" bordercolor="#666666" borderopacity="1.0" gridtolerance="10000" guidetolerance="10" objecttolerance="10" inkscape:pageopacity="0.0" inkscape:pageshadow="2" inkscape:zoom="1.4" inkscape:cx="1.1905278" inkscape:cy="112.32681" inkscape:document-units="px" inkscape:current-layer="layer1" showgrid="false" inkscape:window-width="641" inkscape:window-height="719" inkscape:window-x="611" inkscape:window-y="47"/>
  <metadata id="metadata16725">
    <rdf:RDF>
      <cc:Work rdf:about="">
        <dc:format>image/svg+xml</dc:format>
        <dc:type rdf:resource="http://purl.org/dc/dcmitype/StillImage"/>
      </cc:Work>
    </rdf:RDF>
  </metadata>
  <g inkscape:label="Layer 1" inkscape:groupmode="layer" id="layer1" transform="translate(-117.857, -330.576)">
    <g transform="translate(-79.4396, -96.2857)" id="g14571">
      <g transform="translate(176.44, 416.929)" id="g4732">
        <rect style="fill: rgb(0, 0, 0); fill-opacity: 1; stroke: none; stroke-width: 3; stroke-linecap: butt; stroke-linejoin: round; stroke-miterlimit: 4; stroke-dasharray: none; stroke-opacity: 1;" id="rect4734" width="90" height="135" x="20.85714" y="9.9336166" ry="14.04"/>
        <rect style="fill: rgb(242, 242, 242); fill-opacity: 1; stroke: none; stroke-width: 3; stroke-linecap: butt; stroke-linejoin: round; stroke-miterlimit: 4; stroke-dasharray: none; stroke-opacity: 1;" id="rect4736" width="80" height="125" x="25.85714" y="14.933617" ry="13"/>
      </g>
      <path id="text4812" d="M 222.93667,517.94646 C 225.65666,515.65315 228.45666,513.51982 231.33667,511.54646 C 234.26998,509.51982 237.36331,507.65316 240.61667,505.94646 L 240.69667,506.02646 C 240.69664,506.66649 240.72331,507.33316 240.77667,508.02646 C 240.88331,508.66649 240.96331,509.30649 241.01667,509.94646 L 240.85667,510.02646 C 237.70998,511.57315 234.72332,513.27982 231.89667,515.14646 C 229.06999,516.95982 226.29666,519.06648 223.57667,521.46646 L 223.41667,521.38646 C 223.31,520.79981 223.20333,520.23981 223.09667,519.70646 C 222.99,519.17315 222.88333,518.61315 222.77667,518.02646 L 222.93667,517.94646 M 263.25667,495.46646 C 263.09662,496.31984 262.96329,497.17317 262.85667,498.02646 C 262.80329,498.87983 262.72329,499.73317 262.61667,500.58646 L 262.45667,500.58646 C 259.04329,502.13316 255.6033,503.6265 252.13667,505.06646 C 248.66997,506.50649 245.17664,508.05316 241.65667,509.70646 L 241.57667,509.62646 L 241.65667,505.30646 C 245.17664,503.43983 248.7233,501.67983 252.29667,500.02646 C 255.86996,498.37317 259.49663,496.8265 263.17667,495.38646 L 263.25667,495.46646 M 263.73667,491.22646 C 263.73662,491.65317 263.68329,492.07984 263.57667,492.50646 C 263.46996,492.93317 263.41662,493.35984 263.41667,493.78646 L 263.33667,493.70646 C 259.65663,495.09317 256.0033,496.63984 252.37667,498.34646 C 248.8033,499.99983 245.22997,501.73316 241.65667,503.54646 L 241.57667,501.70646 C 241.57664,500.31983 241.57664,498.95983 241.57667,497.62646 C 241.62998,496.23984 241.65664,494.85317 241.65667,493.46646 L 241.65667,491.70646 C 245.01664,491.54651 248.34997,491.41317 251.65667,491.30646 C 254.9633,491.19984 258.21663,491.14651 261.41667,491.14646 L 263.73667,491.22646 L 263.73667,491.22646 M 217.89667,483.46646 C 221.41666,483.30652 224.85666,483.17318 228.21667,483.06646 C 231.62999,482.95985 235.09665,482.85318 238.61667,482.74646 L 238.85667,482.66646 C 239.12331,486.29318 239.36331,489.86651 239.57667,493.38646 C 239.84331,496.85317 240.16331,500.4265 240.53667,504.10646 L 240.45667,504.02646 C 237.25665,505.83983 234.16332,507.75982 231.17667,509.78646 C 228.24332,511.81315 225.41666,513.97315 222.69667,516.26646 L 222.53667,516.18646 C 221.52333,510.69315 220.61666,505.27983 219.81667,499.94646 C 219.07,494.61317 218.40333,489.11984 217.81667,483.46646 L 217.89667,483.38646 L 217.89667,483.46646 M 224.61667,526.66646 C 224.45666,526.07981 224.32333,525.51981 224.21667,524.98646 C 224.16333,524.39981 224.02999,523.81314 223.81667,523.22646 L 223.73667,523.14646 C 226.34999,520.79981 229.09666,518.66648 231.97667,516.74646 C 234.90998,514.82648 237.94998,513.09315 241.09667,511.54646 L 241.17667,511.62646 C 241.22998,512.37315 241.28331,513.11982 241.33667,513.86646 C 241.38998,514.55982 241.46998,515.27982 241.57667,516.02646 L 241.65667,511.22646 C 245.01664,509.57316 248.4033,508.05316 251.81667,506.66646 C 255.2833,505.27983 258.77663,503.81316 262.29667,502.26646 L 262.37667,502.34646 C 262.05662,504.21316 261.78996,506.10649 261.57667,508.02646 C 261.36329,509.94649 261.09662,511.83982 260.77667,513.70646 C 261.78996,513.65315 262.77662,513.59982 263.73667,513.54646 C 264.69662,513.43982 265.68329,513.35982 266.69667,513.30646 L 266.77667,513.38646 L 266.69667,524.50646 C 265.52329,524.55981 264.37662,524.61314 263.25667,524.66646 C 262.13662,524.71981 260.98996,524.74647 259.81667,524.74646 C 259.49663,526.98647 259.22996,529.17314 259.01667,531.30646 C 258.80329,533.4398 258.56329,535.62646 258.29667,537.86646 C 255.73663,538.13313 253.2033,538.34646 250.69667,538.50646 C 248.2433,538.66646 245.73664,538.85313 243.17667,539.06646 L 243.01667,538.98646 C 242.80331,536.7998 242.56331,534.6398 242.29667,532.50646 C 242.02998,530.3198 241.73664,528.13314 241.41667,525.94646 C 238.69665,526.05314 235.92332,526.18647 233.09667,526.34646 C 230.32332,526.50647 227.52332,526.63981 224.69667,526.74646 L 224.61667,526.66646 L 224.61667,526.66646" style="font-size: 80px; font-style: normal; font-variant: normal; font-weight: normal; font-stretch: normal; text-align: start; line-height: 125%; text-anchor: start; fill: rgb(128, 0, 0); fill-opacity: 1; stroke: none; stroke-width: 1px; stroke-linecap: butt; stroke-linejoin: miter; stroke-opacity: 1; font-family: Airmole Stripe;"/>
      <path id="text5369" d="M 243.98441,451.09978 L 243.98441,455.16367 L 241.37886,455.16367 L 241.37886,460.66644 L 236.47886,460.66644 L 236.47886,455.16367 L 226.54275,455.16367 L 226.54275,451.06089 L 235.60386,435.83589 L 241.37886,435.83589 L 241.37886,451.09978 L 243.98441,451.09978 M 236.47886,451.09978 L 236.47886,440.50255 L 230.00386,451.09978 L 236.47886,451.09978" style="font-size: 35px; font-style: normal; font-variant: normal; font-weight: bold; font-stretch: normal; text-align: start; line-height: 125%; text-anchor: start; fill: rgb(170, 0, 0); fill-opacity: 1; stroke: none; stroke-width: 1px; stroke-linecap: butt; stroke-linejoin: miter; stroke-opacity: 1; font-family: AlMothnna;"/>
      <path sodipodi:nodetypes="ccccc" id="path5472" d="M 215.85519,434.8109 C 218.35519,441.6859 221.48019,444.8109 228.35519,447.3109 C 221.48019,449.8109 218.35519,452.9359 215.85519,459.8109 C 213.35519,452.9359 210.23019,449.8109 203.35519,447.3109 C 210.23019,444.8109 213.35519,441.6859 215.85519,434.8109 z" style="fill: rgb(212, 0, 0); fill-opacity: 1; stroke: none; stroke-width: 0.354331; stroke-linecap: round; stroke-linejoin: round; stroke-miterlimit: 4; stroke-dasharray: 1.41732, 1.41732; stroke-dashoffset: 0pt; stroke-opacity: 1;"/>
      <path sodipodi:nodetypes="ccccc" id="path5736" d="M 219.42855,474.36219 C 220.92855,478.48719 222.80355,480.36219 226.92855,481.86219 C 222.80355,483.36219 220.92855,485.23719 219.42855,489.36219 C 217.92855,485.23719 216.05355,483.36219 211.92855,481.86219 C 216.05355,480.36219 217.92855,478.48719 219.42855,474.36219 z" style="fill: rgb(212, 0, 0); fill-opacity: 1; stroke: none; stroke-width: 0.354331; stroke-linecap: round; stroke-linejoin: round; stroke-miterlimit: 4; stroke-dasharray: 1.41732, 1.41732; stroke-dashoffset: 0pt; stroke-opacity: 1;"/>
      <path sodipodi:nodetypes="ccccc" id="path5738" d="M 227.42855,517.36219 C 228.92855,521.48719 230.80355,523.36219 234.92855,524.86219 C 230.80355,526.36219 228.92855,528.23719 227.42855,532.36219 C 225.92855,528.23719 224.05355,526.36219 219.92855,524.86219 C 224.05355,523.36219 225.92855,521.48719 227.42855,517.36219 z" style="fill: rgb(212, 0, 0); fill-opacity: 1; stroke: none; stroke-width: 0.354331; stroke-linecap: round; stroke-linejoin: round; stroke-miterlimit: 4; stroke-dasharray: 1.41732, 1.41732; stroke-dashoffset: 0pt; stroke-opacity: 1;"/>
      <path sodipodi:nodetypes="ccccc" id="path5740" d="M 261.42855,530.36219 C 262.92855,534.48719 264.80355,536.36219 268.92855,537.86219 C 264.80355,539.36219 262.92855,541.23719 261.42855,545.36219 C 259.92855,541.23719 258.05355,539.36219 253.92855,537.86219 C 258.05355,536.36219 259.92855,534.48719 261.42855,530.36219 z" style="fill: rgb(212, 0, 0); fill-opacity: 1; stroke: none; stroke-width: 0.354331; stroke-linecap: round; stroke-linejoin: round; stroke-miterlimit: 4; stroke-dasharray: 1.41732, 1.41732; stroke-dashoffset: 0pt; stroke-opacity: 1;"/>
      <path sodipodi:nodetypes="ccccc" id="path5742" d="M 266.42855,484.36219 C 267.92855,488.48719 269.80355,490.36219 273.92855,491.86219 C 269.80355,493.36219 267.92855,495.23719 266.42855,499.36219 C 264.92855,495.23719 263.05355,493.36219 258.92855,491.86219 C 263.05355,490.36219 264.92855,488.48719 266.42855,484.36219 z" style="fill: rgb(212, 0, 0); fill-opacity: 1; stroke: none; stroke-width: 0.354331; stroke-linecap: round; stroke-linejoin: round; stroke-miterlimit: 4; stroke-dasharray: 1.41732, 1.41732; stroke-dashoffset: 0pt; stroke-opacity: 1;"/>
    </g>
  </g>
</svg>