<?xml version="1.0" encoding="UTF-8" standalone="no"?>
<!-- Created with Inkscape (http://www.inkscape.org/) -->
<svg xmlns:dc="http://purl.org/dc/elements/1.1/" xmlns:cc="http://creativecommons.org/ns#" xmlns:rdf="http://www.w3.org/1999/02/22-rdf-syntax-ns#" xmlns:svg="http://www.w3.org/2000/svg" xmlns="http://www.w3.org/2000/svg" xmlns:sodipodi="http://sodipodi.sourceforge.net/DTD/sodipodi-0.dtd" xmlns:inkscape="http://www.inkscape.org/namespaces/inkscape" width="90" height="135" id="svg16720" sodipodi:version="0.32" inkscape:version="0.46" version="1.0" sodipodi:docname="diamond_5.svg" inkscape:output_extension="org.inkscape.output.svg.inkscape">
  <defs id="defs16722">
    <inkscape:perspective sodipodi:type="inkscape:persp3d" inkscape:vp_x="0 : 526.18109 : 1" inkscape:vp_y="0 : 1000 : 0" inkscape:vp_z="744.09448 : 526.18109 : 1" inkscape:persp3d-origin="372.04724 : 350.78739 : 1" id="perspective16728"/>
  </defs>
  <sodipodi:namedview id="base" pagecolor="#ffffff" bordercolor="#666666" borderopacity="1.0" gridtolerance="10000" guidetolerance="10" objecttolerance="10" inkscape:pageopacity="0.0" inkscape:pageshadow="2" inkscape:zoom="1.4" inkscape:cx="1.1905278" inkscape:cy="112.32681" inkscape:document-units="px" inkscape:current-layer="layer1" showgrid="false" inkscape:window-width="641" inkscape:window-height="719" inkscape:window-x="611" inkscape:window-y="47"/>
  <metadata id="metadata16725">
    <rdf:RDF>
      <cc:Work rdf:about="">
        <dc:format>image/svg+xml</dc:format>
        <dc:type rdf:resource="http://purl.org/dc/dcmitype/StillImage"/>
      </cc:Work>
    </rdf:RDF>
  </metadata>
  <g inkscape:label="Layer 1" inkscape:groupmode="layer" id="layer1" transform="translate(-117.857, -330.576)">
    <g transform="translate(-175.374, -96.2857)" id="g14598">
      <g transform="translate(272.374, 416.929)" id="g4738">
        <rect style="fill: rgb(0, 0, 0); fill-opacity: 1; stroke: none; stroke-width: 3; stroke-linecap: butt; stroke-linejoin: round; stroke-miterlimit: 4; stroke-dasharray: none; stroke-opacity: 1;" id="rect4740" width="90" height="135" x="20.85714" y="9.9336166" ry="14.04"/>
        <rect style="fill: rgb(242, 242, 242); fill-opacity: 1; stroke: none; stroke-width: 3; stroke-linecap: butt; stroke-linejoin: round; stroke-miterlimit: 4; stroke-dasharray: none; stroke-opacity: 1;" id="rect4742" width="80" height="125" x="25.85714" y="14.933617" ry="13"/>
      </g>
      <path id="text4816" d="M 359.99072,492.50642 L 359.91072,492.98642 C 359.80401,493.57313 359.72401,494.18646 359.67072,494.82642 C 359.67068,495.46646 359.64401,496.10646 359.59072,496.74642 L 359.43072,496.90642 C 355.96401,498.23979 352.47068,499.59979 348.95072,500.98642 C 345.48402,502.37312 342.04403,503.86645 338.63072,505.46642 C 335.2707,507.06645 331.93737,508.82645 328.63072,510.74642 C 325.37738,512.66644 322.28405,514.82644 319.35072,517.22642 L 319.19072,517.14642 C 318.97738,516.45311 318.81738,515.67977 318.71072,514.82642 C 318.60405,513.91977 318.55072,513.09311 318.55072,512.34642 L 318.23072,512.02642 C 324.41738,507.11978 331.08404,503.06645 338.23072,499.86642 C 345.37736,496.61312 352.60402,494.13313 359.91072,492.42642 L 359.99072,492.50642 M 316.15072,483.78642 C 322.76405,483.89314 329.40404,483.73314 336.07072,483.30642 C 342.79069,482.87981 349.56402,482.71981 356.39072,482.82642 L 360.55072,482.90642 C 360.44401,484.2398 360.36401,485.57314 360.31072,486.90642 C 360.31068,488.18647 360.25734,489.49313 360.15072,490.82642 L 360.31072,491.30642 C 352.52402,493.01313 345.13736,495.46646 338.15072,498.66642 C 331.16404,501.86645 324.60405,505.83978 318.47072,510.58642 L 318.39072,510.50642 C 317.80405,505.97312 317.32405,501.51979 316.95072,497.14642 C 316.57739,492.77313 316.23072,488.3998 315.91072,484.02642 L 315.99072,483.94642 L 316.15072,483.78642 M 320.63072,525.14642 C 320.41738,524.07976 320.23072,523.06643 320.07072,522.10642 C 319.96405,521.14643 319.77738,520.1331 319.51072,519.06642 L 319.91072,518.90642 C 325.51071,514.15977 331.72404,510.13311 338.55072,506.82642 C 345.37736,503.46645 352.31068,500.61312 359.35072,498.26642 L 359.43072,498.34642 C 359.16401,500.79979 358.84401,503.22645 358.47072,505.62642 C 358.15068,508.02645 357.83068,510.42644 357.51072,512.82642 L 357.59072,512.82642 C 354.07068,512.61311 350.55069,512.37311 347.03072,512.10642 C 343.51069,511.78644 339.9907,511.49311 336.47072,511.22642 L 336.47072,511.86642 C 336.4707,512.39978 336.44403,512.90644 336.39072,513.38642 C 336.3907,513.86644 336.3907,514.37311 336.39072,514.90642 L 336.39072,515.54642 C 336.81737,515.43977 337.21737,515.35977 337.59072,515.30642 C 337.96403,515.19977 338.36403,515.14644 338.79072,515.14642 C 340.5507,515.14644 342.44403,515.38644 344.47072,515.86642 C 346.49736,516.34644 348.36402,517.0931 350.07072,518.10642 C 351.83068,519.11977 353.27068,520.42643 354.39072,522.02642 C 355.56401,523.5731 356.15068,525.4131 356.15072,527.54642 C 356.15068,530.05309 355.59068,532.15976 354.47072,533.86642 C 353.40402,535.51975 352.01735,536.85308 350.31072,537.86642 C 348.65735,538.87975 346.79069,539.59975 344.71072,540.02642 C 342.68403,540.50641 340.7107,540.74641 338.79072,540.74642 C 335.7507,540.74641 332.76404,540.34641 329.83072,539.54642 C 326.95071,538.79975 324.25738,537.57308 321.75072,535.86642 L 321.75072,535.78642 C 322.17738,534.61309 322.63071,533.46642 323.11072,532.34642 C 323.59071,531.22642 324.04405,530.07976 324.47072,528.90642 L 324.55072,528.82642 C 326.41738,529.57309 328.33738,530.26642 330.31072,530.90642 C 332.33737,531.54642 334.36404,531.89309 336.39072,531.94642 L 336.79072,531.94642 C 337.96403,531.94642 339.08403,531.62642 340.15072,530.98642 C 341.21736,530.34642 341.77736,529.35976 341.83072,528.02642 L 341.83072,527.70642 C 341.56403,526.69309 341.08403,525.94643 340.39072,525.46642 C 339.69736,524.9331 338.89736,524.55976 337.99072,524.34642 C 337.08403,524.1331 336.12403,524.02643 335.11072,524.02642 C 334.1507,523.9731 333.2707,523.91976 332.47072,523.86642 C 328.57737,523.86643 324.65738,524.31976 320.71072,525.22642 L 320.63072,525.14642" style="font-size: 80px; font-style: normal; font-variant: normal; font-weight: normal; font-stretch: normal; text-align: start; line-height: 125%; text-anchor: start; fill: rgb(128, 0, 0); fill-opacity: 1; stroke: none; stroke-width: 1px; stroke-linecap: butt; stroke-linejoin: miter; stroke-opacity: 1; font-family: Airmole Stripe;"/>
      <path id="text5373" d="M 340.62247,434.92479 L 340.62247,439.31923 L 330.3558,439.31923 L 329.55858,444.49145 C 330.88079,443.49332 332.3132,442.99425 333.8558,442.99423 C 336.13727,442.99425 337.99745,443.79147 339.43636,445.3859 C 340.87523,446.96739 341.59467,449.0285 341.59469,451.56923 C 341.59467,454.23961 340.76504,456.40442 339.1058,458.06367 C 337.45949,459.72293 335.30116,460.55256 332.6308,460.55256 C 330.21968,460.55256 328.26228,459.88497 326.75858,458.54979 C 325.25487,457.20164 324.4771,455.43868 324.42525,453.2609 L 329.28636,453.2609 C 329.32524,454.27201 329.63635,455.04331 330.21969,455.57479 C 330.80302,456.09331 331.62616,456.35257 332.68914,456.35256 C 333.92061,456.35257 334.89283,455.93775 335.6058,455.10812 C 336.33171,454.27849 336.69468,453.13775 336.69469,451.6859 C 336.69468,450.16924 336.3382,448.98961 335.62525,448.14701 C 334.91227,447.30443 333.93357,446.88313 332.68914,446.88312 C 331.10765,446.88313 330.06413,447.51183 329.55858,448.76923 L 325.12525,448.76923 L 327.34191,434.92479 L 340.62247,434.92479" style="font-size: 35px; font-style: normal; font-variant: normal; font-weight: bold; font-stretch: normal; text-align: start; line-height: 125%; text-anchor: start; fill: rgb(170, 0, 0); fill-opacity: 1; stroke: none; stroke-width: 1px; stroke-linecap: butt; stroke-linejoin: miter; stroke-opacity: 1; font-family: AlMothnna;"/>
      <path sodipodi:nodetypes="ccccc" id="path5474" d="M 311.78922,434.8109 C 314.28922,441.6859 317.41422,444.8109 324.28922,447.3109 C 317.41422,449.8109 314.28922,452.9359 311.78922,459.8109 C 309.28922,452.9359 306.16422,449.8109 299.28922,447.3109 C 306.16422,444.8109 309.28922,441.6859 311.78922,434.8109 z" style="fill: rgb(212, 0, 0); fill-opacity: 1; stroke: none; stroke-width: 0.354331; stroke-linecap: round; stroke-linejoin: round; stroke-miterlimit: 4; stroke-dasharray: 1.41732, 1.41732; stroke-dashoffset: 0pt; stroke-opacity: 1;"/>
      <path sodipodi:nodetypes="ccccc" id="path5744" d="M 317.42855,475.36219 C 318.92855,479.48719 320.80355,481.36219 324.92855,482.86219 C 320.80355,484.36219 318.92855,486.23719 317.42855,490.36219 C 315.92855,486.23719 314.05355,484.36219 309.92855,482.86219 C 314.05355,481.36219 315.92855,479.48719 317.42855,475.36219 z" style="fill: rgb(212, 0, 0); fill-opacity: 1; stroke: none; stroke-width: 0.354331; stroke-linecap: round; stroke-linejoin: round; stroke-miterlimit: 4; stroke-dasharray: 1.41732, 1.41732; stroke-dashoffset: 0pt; stroke-opacity: 1;"/>
      <path sodipodi:nodetypes="ccccc" id="path5746" d="M 363.42855,475.36219 C 364.92855,479.48719 366.80355,481.36219 370.92855,482.86219 C 366.80355,484.36219 364.92855,486.23719 363.42855,490.36219 C 361.92855,486.23719 360.05355,484.36219 355.92855,482.86219 C 360.05355,481.36219 361.92855,479.48719 363.42855,475.36219 z" style="fill: rgb(212, 0, 0); fill-opacity: 1; stroke: none; stroke-width: 0.354331; stroke-linecap: round; stroke-linejoin: round; stroke-miterlimit: 4; stroke-dasharray: 1.41732, 1.41732; stroke-dashoffset: 0pt; stroke-opacity: 1;"/>
      <path sodipodi:nodetypes="ccccc" id="path5748" d="M 358.42855,501.36219 C 359.92855,505.48719 361.80355,507.36219 365.92855,508.86219 C 361.80355,510.36219 359.92855,512.23719 358.42855,516.36219 C 356.92855,512.23719 355.05355,510.36219 350.92855,508.86219 C 355.05355,507.36219 356.92855,505.48719 358.42855,501.36219 z" style="fill: rgb(212, 0, 0); fill-opacity: 1; stroke: none; stroke-width: 0.354331; stroke-linecap: round; stroke-linejoin: round; stroke-miterlimit: 4; stroke-dasharray: 1.41732, 1.41732; stroke-dashoffset: 0pt; stroke-opacity: 1;"/>
      <path sodipodi:nodetypes="ccccc" id="path5750" d="M 348.42855,532.36219 C 349.92855,536.48719 351.80355,538.36219 355.92855,539.86219 C 351.80355,541.36219 349.92855,543.23719 348.42855,547.36219 C 346.92855,543.23719 345.05355,541.36219 340.92855,539.86219 C 345.05355,538.36219 346.92855,536.48719 348.42855,532.36219 z" style="fill: rgb(212, 0, 0); fill-opacity: 1; stroke: none; stroke-width: 0.354331; stroke-linecap: round; stroke-linejoin: round; stroke-miterlimit: 4; stroke-dasharray: 1.41732, 1.41732; stroke-dashoffset: 0pt; stroke-opacity: 1;"/>
      <path sodipodi:nodetypes="ccccc" id="path5752" d="M 321.42855,511.36219 C 322.92855,515.48719 324.80355,517.36219 328.92855,518.86219 C 324.80355,520.36219 322.92855,522.23719 321.42855,526.36219 C 319.92855,522.23719 318.05355,520.36219 313.92855,518.86219 C 318.05355,517.36219 319.92855,515.48719 321.42855,511.36219 z" style="fill: rgb(212, 0, 0); fill-opacity: 1; stroke: none; stroke-width: 0.354331; stroke-linecap: round; stroke-linejoin: round; stroke-miterlimit: 4; stroke-dasharray: 1.41732, 1.41732; stroke-dashoffset: 0pt; stroke-opacity: 1;"/>
    </g>
  </g>
</svg>