<?xml version="1.0" encoding="UTF-8" standalone="no"?>
<!-- Created with Inkscape (http://www.inkscape.org/) -->
<svg xmlns:dc="http://purl.org/dc/elements/1.1/" xmlns:cc="http://creativecommons.org/ns#" xmlns:rdf="http://www.w3.org/1999/02/22-rdf-syntax-ns#" xmlns:svg="http://www.w3.org/2000/svg" xmlns="http://www.w3.org/2000/svg" xmlns:sodipodi="http://sodipodi.sourceforge.net/DTD/sodipodi-0.dtd" xmlns:inkscape="http://www.inkscape.org/namespaces/inkscape" width="90" height="135" id="svg16720" sodipodi:version="0.32" inkscape:version="0.46" version="1.0" sodipodi:docname="diamond_a.svg" inkscape:output_extension="org.inkscape.output.svg.inkscape">
  <defs id="defs16722">
    <inkscape:perspective sodipodi:type="inkscape:persp3d" inkscape:vp_x="0 : 526.18109 : 1" inkscape:vp_y="0 : 1000 : 0" inkscape:vp_z="744.09448 : 526.18109 : 1" inkscape:persp3d-origin="372.04724 : 350.78739 : 1" id="perspective16728"/>
  </defs>
  <sodipodi:namedview id="base" pagecolor="#ffffff" bordercolor="#666666" borderopacity="1.0" gridtolerance="10000" guidetolerance="10" objecttolerance="10" inkscape:pageopacity="0.0" inkscape:pageshadow="2" inkscape:zoom="1.4" inkscape:cx="1.1905278" inkscape:cy="112.32681" inkscape:document-units="px" inkscape:current-layer="layer1" showgrid="false" inkscape:window-width="641" inkscape:window-height="719" inkscape:window-x="611" inkscape:window-y="47"/>
  <metadata id="metadata16725">
    <rdf:RDF>
      <cc:Work rdf:about="">
        <dc:format>image/svg+xml</dc:format>
        <dc:type rdf:resource="http://purl.org/dc/dcmitype/StillImage"/>
      </cc:Work>
    </rdf:RDF>
  </metadata>
  <g inkscape:label="Layer 1" inkscape:groupmode="layer" id="layer1" transform="translate(-117.857, -330.576)">
    <g transform="translate(-1038.78, -96.2857)" id="g15395">
      <g transform="translate(1135.78, 416.929)" id="g4792">
        <rect style="fill: rgb(0, 0, 0); fill-opacity: 1; stroke: none; stroke-width: 3; stroke-linecap: butt; stroke-linejoin: round; stroke-miterlimit: 4; stroke-dasharray: none; stroke-opacity: 1;" id="rect4794" width="90" height="135" x="20.85714" y="9.9336166" ry="14.04"/>
        <rect style="fill: rgb(242, 242, 242); fill-opacity: 1; stroke: none; stroke-width: 3; stroke-linecap: butt; stroke-linejoin: round; stroke-miterlimit: 4; stroke-dasharray: none; stroke-opacity: 1;" id="rect4796" width="80" height="125" x="25.85714" y="14.933617" ry="13"/>
      </g>
      <path id="text5409" d="M 1201.442,455.53311 L 1191.8753,455.53311 L 1190.1642,460.66644 L 1184.817,460.66644 L 1193.8975,435.13589 L 1199.6725,435.13589 L 1208.5003,460.66644 L 1203.1336,460.66644 L 1201.442,455.53311 M 1200.0031,451.13867 L 1196.6975,441.16367 L 1193.3531,451.13867 L 1200.0031,451.13867" style="font-size: 35px; font-style: normal; font-variant: normal; font-weight: bold; font-stretch: normal; text-align: start; line-height: 125%; text-anchor: start; fill: rgb(170, 0, 0); fill-opacity: 1; stroke: none; stroke-width: 1px; stroke-linecap: butt; stroke-linejoin: miter; stroke-opacity: 1; font-family: AlMothnna;"/>
      <path sodipodi:nodetypes="ccccc" id="path5492" d="M 1175.1957,434.8109 C 1177.6957,441.6859 1180.8207,444.8109 1187.6957,447.3109 C 1180.8207,449.8109 1177.6957,452.9359 1175.1957,459.8109 C 1172.6957,452.9359 1169.5707,449.8109 1162.6957,447.3109 C 1169.5707,444.8109 1172.6957,441.6859 1175.1957,434.8109 z" style="fill: rgb(212, 0, 0); fill-opacity: 1; stroke: none; stroke-width: 0.354331; stroke-linecap: round; stroke-linejoin: round; stroke-miterlimit: 4; stroke-dasharray: 1.41732, 1.41732; stroke-dashoffset: 0pt; stroke-opacity: 1;"/>
      <path sodipodi:nodetypes="ccccc" id="path5840" d="M 1201.6372,462.36219 C 1206.6372,476.11219 1212.8872,482.36219 1226.6372,487.36219 C 1212.8872,492.36219 1206.6372,498.61219 1201.6372,512.36219 C 1196.6372,498.61219 1190.3872,492.36219 1176.6372,487.36219 C 1190.3872,482.36219 1196.6372,476.11219 1201.6372,462.36219 z" style="fill: rgb(212, 0, 0); fill-opacity: 1; stroke: none; stroke-width: 0.354331; stroke-linecap: round; stroke-linejoin: round; stroke-miterlimit: 4; stroke-dasharray: 1.41732, 1.41732; stroke-dashoffset: 0pt; stroke-opacity: 1;"/>
      <path id="text4848" d="M 1212.1572,505.54644 C 1212.4239,506.39981 1212.7439,507.22647 1213.1172,508.02644 C 1213.4905,508.82647 1213.8372,509.62647 1214.1572,510.42644 L 1214.0772,510.58644 C 1209.2239,510.74647 1204.4772,511.4398 1199.8372,512.66644 C 1195.1972,513.8398 1190.8239,515.89313 1186.7172,518.82644 L 1186.5572,518.74644 C 1186.9306,517.9998 1187.2239,517.25313 1187.4372,516.50644 C 1187.7039,515.7598 1187.9706,514.98647 1188.2372,514.18644 C 1192.0772,512.1598 1195.9705,510.42647 1199.9172,508.98644 C 1203.8639,507.49314 1207.9172,506.31981 1212.0772,505.46644 L 1212.1572,505.54644 L 1212.1572,505.54644 M 1202.2372,482.66644 C 1203.8372,486.3465 1205.4372,489.91983 1207.0372,493.38644 C 1208.6372,496.85315 1210.1572,500.42648 1211.5972,504.10644 L 1211.5172,504.10644 C 1207.6772,504.85314 1203.9172,505.89314 1200.2372,507.22644 C 1196.6105,508.55981 1193.0372,510.10647 1189.5172,511.86644 L 1189.1972,511.94644 C 1191.4372,506.98647 1193.5972,502.07981 1195.6772,497.22644 C 1197.7572,492.31982 1199.9172,487.49316 1202.1572,482.74644 L 1202.2372,482.66644 M 1177.7572,541.62644 C 1179.1439,538.26644 1180.4506,534.85311 1181.6772,531.38644 C 1182.9572,527.91979 1184.3172,524.47979 1185.7572,521.06644 C 1187.6772,519.62646 1189.7839,518.34646 1192.0772,517.22644 C 1194.4239,516.05313 1196.8505,515.06647 1199.3572,514.26644 C 1201.8639,513.46647 1204.3972,512.85314 1206.9572,512.42644 C 1209.5705,511.9998 1212.1305,511.78647 1214.6372,511.78644 L 1214.5572,511.62644 C 1216.5839,516.85313 1218.4505,522.05313 1220.1572,527.22644 C 1221.9172,532.39978 1223.7038,537.57311 1225.5172,542.74644 L 1225.2772,542.90644 C 1221.8639,543.06644 1218.3972,543.14644 1214.8772,543.14644 C 1211.3572,543.14644 1207.7839,543.17311 1204.1572,543.22644 L 1204.0772,543.14644 C 1203.5972,541.43977 1203.1439,539.73311 1202.7172,538.02644 C 1202.2905,536.26645 1201.8372,534.53311 1201.3572,532.82644 L 1199.1972,541.94644 L 1199.2772,541.78644 L 1177.7572,541.78644 L 1177.7572,541.62644" style="font-size: 80px; font-style: normal; font-variant: normal; font-weight: normal; font-stretch: normal; text-align: start; line-height: 125%; text-anchor: start; fill: rgb(128, 0, 0); fill-opacity: 1; stroke: none; stroke-width: 1px; stroke-linecap: butt; stroke-linejoin: miter; stroke-opacity: 1; font-family: Airmole Stripe;"/>
    </g>
  </g>
</svg>