<?xml version="1.0" encoding="UTF-8" standalone="no"?>
<!-- Created with Inkscape (http://www.inkscape.org/) -->
<svg xmlns:dc="http://purl.org/dc/elements/1.1/" xmlns:cc="http://creativecommons.org/ns#" xmlns:rdf="http://www.w3.org/1999/02/22-rdf-syntax-ns#" xmlns:svg="http://www.w3.org/2000/svg" xmlns="http://www.w3.org/2000/svg" xmlns:sodipodi="http://sodipodi.sourceforge.net/DTD/sodipodi-0.dtd" xmlns:inkscape="http://www.inkscape.org/namespaces/inkscape" width="90" height="135" id="svg16720" sodipodi:version="0.32" inkscape:version="0.46" version="1.0" sodipodi:docname="diamond_3.svg" inkscape:output_extension="org.inkscape.output.svg.inkscape">
  <defs id="defs16722">
    <inkscape:perspective sodipodi:type="inkscape:persp3d" inkscape:vp_x="0 : 526.18109 : 1" inkscape:vp_y="0 : 1000 : 0" inkscape:vp_z="744.09448 : 526.18109 : 1" inkscape:persp3d-origin="372.04724 : 350.78739 : 1" id="perspective16728"/>
  </defs>
  <sodipodi:namedview id="base" pagecolor="#ffffff" bordercolor="#666666" borderopacity="1.0" gridtolerance="10000" guidetolerance="10" objecttolerance="10" inkscape:pageopacity="0.0" inkscape:pageshadow="2" inkscape:zoom="1.4" inkscape:cx="1.1905278" inkscape:cy="112.32681" inkscape:document-units="px" inkscape:current-layer="layer1" showgrid="false" inkscape:window-width="641" inkscape:window-height="719" inkscape:window-x="611" inkscape:window-y="47"/>
  <metadata id="metadata16725">
    <rdf:RDF>
      <cc:Work rdf:about="">
        <dc:format>image/svg+xml</dc:format>
        <dc:type rdf:resource="http://purl.org/dc/dcmitype/StillImage"/>
      </cc:Work>
    </rdf:RDF>
  </metadata>
  <g inkscape:label="Layer 1" inkscape:groupmode="layer" id="layer1" transform="translate(-117.857, -330.576)">
    <g transform="translate(16.4945, -96.2857)" id="g14546">
      <g transform="translate(80.5055, 416.929)" id="g4726">
        <rect style="fill: rgb(0, 0, 0); fill-opacity: 1; stroke: none; stroke-width: 3; stroke-linecap: butt; stroke-linejoin: round; stroke-miterlimit: 4; stroke-dasharray: none; stroke-opacity: 1;" id="rect4728" width="90" height="135" x="20.85714" y="9.9336166" ry="14.04"/>
        <rect style="fill: rgb(242, 242, 242); fill-opacity: 1; stroke: none; stroke-width: 3; stroke-linecap: butt; stroke-linejoin: round; stroke-miterlimit: 4; stroke-dasharray: none; stroke-opacity: 1;" id="rect4730" width="80" height="125" x="25.85714" y="14.933617" ry="13"/>
      </g>
      <path id="text4808" d="M 161.32262,491.22642 C 161.74925,491.97314 162.12259,492.7198 162.44262,493.46642 C 162.76258,494.21313 163.05592,494.9598 163.32262,495.70642 L 163.16262,495.62642 C 158.20259,498.0798 153.34926,500.77313 148.60262,503.70642 C 143.85594,506.58646 139.42927,509.97312 135.32262,513.86642 L 134.92262,513.94642 L 133.16262,514.34642 C 133.05595,513.75978 132.92261,513.22645 132.76262,512.74642 C 132.60262,512.26645 132.46928,511.73312 132.36262,511.14642 L 132.28262,511.14642 C 136.44261,506.82646 140.97594,503.01313 145.88262,499.70642 C 150.78926,496.3998 155.90926,493.54647 161.24262,491.14642 L 161.32262,491.22642 M 159.24262,488.18642 C 159.34926,488.45314 159.53592,488.74647 159.80262,489.06642 C 160.06925,489.33314 160.30925,489.57314 160.52262,489.78642 L 160.68262,489.94642 C 155.18926,492.34647 150.01593,495.1198 145.16262,498.26642 C 140.36261,501.35979 136.01595,505.09312 132.12262,509.46642 L 132.04262,509.46642 C 131.29595,506.37312 130.57595,503.30646 129.88262,500.26642 C 129.18929,497.22647 128.46929,494.18647 127.72262,491.14642 L 127.72262,491.06642 C 129.58928,488.29314 132.06928,486.21314 135.16262,484.82642 C 138.30928,483.38648 141.50927,482.66648 144.76262,482.66642 L 145.00262,482.66642 C 147.5626,482.71981 150.09593,483.17315 152.60262,484.02642 C 155.16259,484.87981 157.37592,486.23981 159.24262,488.10642 L 159.24262,488.18642 M 135.32262,524.98642 C 135.26928,524.13311 135.21595,523.30644 135.16262,522.50642 C 135.10928,521.70644 135.05595,520.87977 135.00262,520.02642 L 135.08262,519.94642 C 135.72261,520.05311 136.36261,520.10644 137.00262,520.10642 C 137.64261,520.10644 138.28261,520.13311 138.92262,520.18642 C 139.45594,520.18644 140.04261,520.15978 140.68262,520.10642 C 141.32261,520.05311 141.93594,519.94644 142.52262,519.78642 C 143.10927,519.62644 143.6426,519.38644 144.12262,519.06642 C 144.6026,518.69311 144.9226,518.18644 145.08262,517.54642 C 144.9226,516.74645 144.57594,516.10645 144.04262,515.62642 C 143.50927,515.14645 142.89594,514.77311 142.20262,514.50642 C 141.56261,514.18645 140.84261,513.97312 140.04262,513.86642 C 139.29594,513.70645 138.57594,513.62645 137.88262,513.62642 L 137.64262,513.46642 C 141.64261,509.83979 145.82927,506.77312 150.20262,504.26642 C 154.57593,501.75979 159.10926,499.3598 163.80262,497.06642 L 163.88262,497.14642 C 164.30925,498.37313 164.60258,499.65313 164.76262,500.98642 C 164.92258,502.26646 165.00258,503.57313 165.00262,504.90642 C 164.94925,507.03979 164.65592,509.11979 164.12262,511.14642 C 163.64258,513.17312 162.89592,515.03978 161.88262,516.74642 C 160.86925,518.39978 159.58925,519.83978 158.04262,521.06642 C 156.54926,522.23977 154.76259,523.09311 152.68262,523.62642 C 153.74926,524.3731 154.62926,525.30644 155.32262,526.42642 C 156.01593,527.4931 156.36259,528.66643 156.36262,529.94642 C 156.25592,531.54643 155.80259,532.98643 155.00262,534.26642 C 154.25593,535.54643 153.26926,536.63976 152.04262,537.54642 C 150.81593,538.39976 149.45593,539.03976 147.96262,539.46642 C 146.5226,539.94642 145.0826,540.18642 143.64262,540.18642 L 143.48262,540.18642 C 140.01594,540.07976 136.81594,539.14642 133.88262,537.38642 L 133.80262,537.30642 C 134.06928,536.07976 134.28261,534.87976 134.44262,533.70642 C 134.60261,532.5331 134.81595,531.3331 135.08262,530.10642 L 135.16262,530.02642 C 135.90928,530.18643 136.62928,530.31977 137.32262,530.42642 C 138.06928,530.5331 138.81594,530.58643 139.56262,530.58642 C 140.46927,530.58643 141.45594,530.47977 142.52262,530.26642 C 143.58927,529.99977 144.2826,529.35977 144.60262,528.34642 C 144.22927,527.54643 143.66927,526.95977 142.92262,526.58642 C 142.22927,526.15977 141.45594,525.83977 140.60262,525.62642 C 139.74927,525.4131 138.86928,525.30644 137.96262,525.30642 C 137.05594,525.2531 136.20261,525.1731 135.40262,525.06642 L 135.32262,524.98642 L 135.32262,524.98642" style="font-size: 80px; font-style: normal; font-variant: normal; font-weight: normal; font-stretch: normal; text-align: start; line-height: 125%; text-anchor: start; fill: rgb(128, 0, 0); fill-opacity: 1; stroke: none; stroke-width: 1px; stroke-linecap: butt; stroke-linejoin: miter; stroke-opacity: 1; font-family: Airmole Stripe;"/>
      <path id="text5365" d="M 130.71337,442.33312 C 130.71336,441.0498 130.89485,439.92203 131.25781,438.94979 C 131.62077,437.96462 132.07447,437.19333 132.61892,436.6359 C 133.16336,436.07851 133.81151,435.62481 134.56337,435.27479 C 135.32817,434.92481 136.04114,434.69796 136.70225,434.59423 C 137.36336,434.47759 138.05039,434.41925 138.76337,434.41923 C 141.17447,434.41925 143.09298,435.02851 144.51892,436.24701 C 145.94483,437.46555 146.65779,439.11184 146.65781,441.1859 C 146.65779,442.31369 146.39853,443.29888 145.88003,444.14145 C 145.37446,444.9711 144.54483,445.74239 143.39114,446.45534 C 144.79113,447.14239 145.8152,447.9785 146.46337,448.96367 C 147.12446,449.94887 147.45501,451.16739 147.45503,452.61923 C 147.45501,455.03035 146.66427,456.95534 145.08281,458.39423 C 143.51428,459.83312 141.4078,460.55256 138.76337,460.55256 C 136.22262,460.55256 134.2004,459.82664 132.6967,458.37479 C 131.19299,456.92294 130.43466,454.95905 130.4217,452.48312 L 135.18559,452.48312 C 135.32817,455.06275 136.55317,456.35257 138.86059,456.35256 C 139.9365,456.35257 140.81798,456.00257 141.50503,455.30256 C 142.20502,454.58961 142.55502,453.69516 142.55503,452.61923 C 142.55502,451.71183 142.30872,450.92109 141.81614,450.24701 C 141.3365,449.57294 140.68187,449.12572 139.85225,448.90534 C 139.17817,448.73683 138.22539,448.65257 136.99392,448.65256 L 136.99392,445.3859 L 137.4217,445.3859 C 140.31243,445.38591 141.7578,444.13499 141.75781,441.63312 C 141.7578,440.5961 141.48558,439.79888 140.94114,439.24145 C 140.40965,438.6711 139.6578,438.38592 138.68559,438.3859 C 137.38928,438.38592 136.50132,438.7424 136.0217,439.45534 C 135.55503,440.16832 135.30225,441.26369 135.26337,442.74145 L 130.71337,442.74145 L 130.71337,442.33312" style="font-size: 35px; font-style: normal; font-variant: normal; font-weight: bold; font-stretch: normal; text-align: start; line-height: 125%; text-anchor: start; fill: rgb(170, 0, 0); fill-opacity: 1; stroke: none; stroke-width: 1px; stroke-linecap: butt; stroke-linejoin: miter; stroke-opacity: 1; font-family: AlMothnna;"/>
      <path sodipodi:nodetypes="ccccc" id="path5470" d="M 119.92113,434.8109 C 122.42113,441.6859 125.54613,444.8109 132.42113,447.3109 C 125.54613,449.8109 122.42113,452.9359 119.92113,459.8109 C 117.42113,452.9359 114.29613,449.8109 107.42113,447.3109 C 114.29613,444.8109 117.42113,441.6859 119.92113,434.8109 z" style="fill: rgb(212, 0, 0); fill-opacity: 1; stroke: none; stroke-width: 0.354331; stroke-linecap: round; stroke-linejoin: round; stroke-miterlimit: 4; stroke-dasharray: 1.41732, 1.41732; stroke-dashoffset: 0pt; stroke-opacity: 1;"/>
      <path sodipodi:nodetypes="ccccc" id="path5730" d="M 139.42855,476.36219 C 140.92855,480.48719 142.80355,482.36219 146.92855,483.86219 C 142.80355,485.36219 140.92855,487.23719 139.42855,491.36219 C 137.92855,487.23719 136.05355,485.36219 131.92855,483.86219 C 136.05355,482.36219 137.92855,480.48719 139.42855,476.36219 z" style="fill: rgb(212, 0, 0); fill-opacity: 1; stroke: none; stroke-width: 0.354331; stroke-linecap: round; stroke-linejoin: round; stroke-miterlimit: 4; stroke-dasharray: 1.41732, 1.41732; stroke-dashoffset: 0pt; stroke-opacity: 1;"/>
      <path sodipodi:nodetypes="ccccc" id="path5732" d="M 164.42855,510.36219 C 165.92855,514.48719 167.80355,516.36219 171.92855,517.86219 C 167.80355,519.36219 165.92855,521.23719 164.42855,525.36219 C 162.92855,521.23719 161.05355,519.36219 156.92855,517.86219 C 161.05355,516.36219 162.92855,514.48719 164.42855,510.36219 z" style="fill: rgb(212, 0, 0); fill-opacity: 1; stroke: none; stroke-width: 0.354331; stroke-linecap: round; stroke-linejoin: round; stroke-miterlimit: 4; stroke-dasharray: 1.41732, 1.41732; stroke-dashoffset: 0pt; stroke-opacity: 1;"/>
      <path sodipodi:nodetypes="ccccc" id="path5734" d="M 133.42855,530.36219 C 134.92855,534.48719 136.80355,536.36219 140.92855,537.86219 C 136.80355,539.36219 134.92855,541.23719 133.42855,545.36219 C 131.92855,541.23719 130.05355,539.36219 125.92855,537.86219 C 130.05355,536.36219 131.92855,534.48719 133.42855,530.36219 z" style="fill: rgb(212, 0, 0); fill-opacity: 1; stroke: none; stroke-width: 0.354331; stroke-linecap: round; stroke-linejoin: round; stroke-miterlimit: 4; stroke-dasharray: 1.41732, 1.41732; stroke-dashoffset: 0pt; stroke-opacity: 1;"/>
    </g>
  </g>
</svg>