<?xml version="1.0" encoding="UTF-8" standalone="no"?>
<!-- Created with Inkscape (http://www.inkscape.org/) -->
<svg xmlns:dc="http://purl.org/dc/elements/1.1/" xmlns:cc="http://creativecommons.org/ns#" xmlns:rdf="http://www.w3.org/1999/02/22-rdf-syntax-ns#" xmlns:svg="http://www.w3.org/2000/svg" xmlns="http://www.w3.org/2000/svg" xmlns:sodipodi="http://sodipodi.sourceforge.net/DTD/sodipodi-0.dtd" xmlns:inkscape="http://www.inkscape.org/namespaces/inkscape" width="90" height="135" id="svg16720" sodipodi:version="0.32" inkscape:version="0.46" version="1.0" sodipodi:docname="diamond_j.svg" inkscape:output_extension="org.inkscape.output.svg.inkscape">
  <defs id="defs16722">
    <inkscape:perspective sodipodi:type="inkscape:persp3d" inkscape:vp_x="0 : 526.18109 : 1" inkscape:vp_y="0 : 1000 : 0" inkscape:vp_z="744.09448 : 526.18109 : 1" inkscape:persp3d-origin="372.04724 : 350.78739 : 1" id="perspective16728"/>
  </defs>
  <sodipodi:namedview id="base" pagecolor="#ffffff" bordercolor="#666666" borderopacity="1.0" gridtolerance="10000" guidetolerance="10" objecttolerance="10" inkscape:pageopacity="0.0" inkscape:pageshadow="2" inkscape:zoom="1.4" inkscape:cx="1.1905278" inkscape:cy="112.32681" inkscape:document-units="px" inkscape:current-layer="layer1" showgrid="false" inkscape:window-width="641" inkscape:window-height="719" inkscape:window-x="611" inkscape:window-y="47"/>
  <metadata id="metadata16725">
    <rdf:RDF>
      <cc:Work rdf:about="">
        <dc:format>image/svg+xml</dc:format>
        <dc:type rdf:resource="http://purl.org/dc/dcmitype/StillImage"/>
      </cc:Work>
    </rdf:RDF>
  </metadata>
  <g inkscape:label="Layer 1" inkscape:groupmode="layer" id="layer1" transform="translate(-117.857, -330.576)">
    <g transform="translate(-750.978, -96.2857)" id="g15455">
      <g transform="translate(847.978, 416.929)" id="g4774">
        <rect style="fill: rgb(0, 0, 0); fill-opacity: 1; stroke: none; stroke-width: 3; stroke-linecap: butt; stroke-linejoin: round; stroke-miterlimit: 4; stroke-dasharray: none; stroke-opacity: 1;" id="rect4776" width="90" height="135" x="20.85714" y="9.9336166" ry="14.04"/>
        <rect style="fill: rgb(242, 242, 242); fill-opacity: 1; stroke: none; stroke-width: 3; stroke-linecap: butt; stroke-linejoin: round; stroke-miterlimit: 4; stroke-dasharray: none; stroke-opacity: 1;" id="rect4778" width="80" height="125" x="25.85714" y="14.933617" ry="13"/>
      </g>
      <path id="text5397" d="M 903.88601,460.55256 C 903.13415,460.55256 902.40822,460.48127 901.70823,460.33867 C 901.00822,460.20904 900.29526,459.96923 899.56934,459.61923 C 898.84341,459.25627 898.21471,458.79608 897.68323,458.23867 C 897.16471,457.66831 896.73693,456.92294 896.39989,456.00256 C 896.06286,455.0822 895.89434,454.02572 895.89434,452.83312 L 895.89434,450.30534 L 901.14434,450.30534 L 901.14434,452.75534 C 901.14433,453.92201 901.3647,454.7646 901.80545,455.28312 C 902.24618,455.80164 902.96563,456.0609 903.96378,456.0609 C 904.88414,456.0609 905.59062,455.80812 906.08323,455.30256 C 906.57581,454.79701 906.8221,454.06461 906.82212,453.10534 L 906.82212,434.22479 L 912.07212,434.22479 L 912.07212,453.10534 C 912.0721,455.49053 911.35914,457.33127 909.93323,458.62756 C 908.50729,459.9109 906.49155,460.55256 903.88601,460.55256" style="font-size: 35px; font-style: normal; font-variant: normal; font-weight: bold; font-stretch: normal; text-align: start; line-height: 125%; text-anchor: start; fill: rgb(170, 0, 0); fill-opacity: 1; stroke: none; stroke-width: 1px; stroke-linecap: butt; stroke-linejoin: miter; stroke-opacity: 1; font-family: AlMothnna;"/>
      <path sodipodi:nodetypes="ccccc" id="path5486" d="M 887.39356,434.8109 C 889.89356,441.6859 893.01856,444.8109 899.89356,447.3109 C 893.01856,449.8109 889.89356,452.9359 887.39356,459.8109 C 884.89356,452.9359 881.76856,449.8109 874.89356,447.3109 C 881.76856,444.8109 884.89356,441.6859 887.39356,434.8109 z" style="fill: rgb(212, 0, 0); fill-opacity: 1; stroke: none; stroke-width: 0.354331; stroke-linecap: round; stroke-linejoin: round; stroke-miterlimit: 4; stroke-dasharray: 1.41732, 1.41732; stroke-dashoffset: 0pt; stroke-opacity: 1;"/>
      <path sodipodi:nodetypes="ccccc" id="path5834" d="M 913.83515,462.36219 C 918.83515,476.11219 925.08515,482.36219 938.83515,487.36219 C 925.08515,492.36219 918.83515,498.61219 913.83515,512.36219 C 908.83515,498.61219 902.58515,492.36219 888.83515,487.36219 C 902.58515,482.36219 908.83515,476.11219 913.83515,462.36219 z" style="fill: rgb(212, 0, 0); fill-opacity: 1; stroke: none; stroke-width: 0.354331; stroke-linecap: round; stroke-linejoin: round; stroke-miterlimit: 4; stroke-dasharray: 1.41732, 1.41732; stroke-dashoffset: 0pt; stroke-opacity: 1;"/>
      <path id="text4836" d="M 927.87504,496.50644 C 927.76835,497.14648 927.68835,497.86648 927.63504,498.66644 C 927.58168,499.41315 927.55501,500.13315 927.55504,500.82644 L 927.39504,500.82644 C 923.92835,501.62648 920.51502,502.79981 917.15504,504.34644 C 913.84836,505.83981 910.56836,507.41314 907.31504,509.06644 L 907.23504,508.98644 C 907.1817,508.29314 907.12837,507.62647 907.07504,506.98644 C 907.07503,506.34647 907.04837,505.67981 906.99504,504.98644 L 907.07504,504.82644 C 910.27503,503.06648 913.63503,501.49314 917.15504,500.10644 C 920.67502,498.71981 924.22168,497.49315 927.79504,496.42644 L 927.87504,496.50644 M 906.67504,483.78644 C 910.24836,483.6265 913.87503,483.43983 917.55504,483.22644 C 921.23502,482.95983 924.94168,482.77316 928.67504,482.66644 L 928.83504,482.74644 C 928.72835,484.77316 928.59501,486.79983 928.43504,488.82644 C 928.27501,490.79982 928.14168,492.79982 928.03504,494.82644 L 927.87504,494.98644 C 924.19502,495.78648 920.59502,496.93315 917.07504,498.42644 C 913.55503,499.86648 910.19503,501.43981 906.99504,503.14644 L 906.91504,503.06644 C 906.8617,499.86648 906.7817,496.69315 906.67504,493.54644 C 906.56837,490.34649 906.48837,487.14649 906.43504,483.94644 L 906.51504,483.86644 L 906.67504,483.78644 M 907.31504,510.50644 L 907.39504,510.58644 C 910.59503,508.8798 913.87503,507.35981 917.23504,506.02644 C 920.64835,504.69314 924.03502,503.49314 927.39504,502.42644 L 927.47504,502.50644 C 927.42168,505.65314 927.20835,508.7998 926.83504,511.94644 C 926.46168,515.0398 926.14168,518.10646 925.87504,521.14644 C 925.60835,523.97312 924.99502,526.74645 924.03504,529.46644 C 923.07502,532.18645 921.74169,534.66644 920.03504,536.90644 C 918.38169,539.14644 916.35503,541.01311 913.95504,542.50644 C 911.60836,543.99977 908.91503,544.87977 905.87504,545.14644 L 905.71504,545.06644 C 904.59504,542.66644 903.44837,540.26644 902.27504,537.86644 C 901.10171,535.46644 899.95504,533.03978 898.83504,530.58644 L 899.07504,530.58644 C 900.30171,530.58645 901.44837,530.34645 902.51504,529.86644 C 903.5817,529.38645 904.51504,528.71978 905.31504,527.86644 C 906.11504,527.01312 906.72837,526.05312 907.15504,524.98644 C 907.63503,523.91979 907.87503,522.77312 907.87504,521.54644 C 907.87503,521.38646 907.84837,521.22646 907.79504,521.06644 C 907.79503,520.90646 907.79503,520.74646 907.79504,520.58644 L 907.79504,519.38644 L 907.31504,510.50644" style="font-size: 80px; font-style: normal; font-variant: normal; font-weight: normal; font-stretch: normal; text-align: start; line-height: 125%; text-anchor: start; fill: rgb(128, 0, 0); fill-opacity: 1; stroke: none; stroke-width: 1px; stroke-linecap: butt; stroke-linejoin: miter; stroke-opacity: 1; font-family: Airmole Stripe;"/>
    </g>
  </g>
</svg>