<?xml version="1.0" encoding="UTF-8" standalone="no"?>
<!-- Created with Inkscape (http://www.inkscape.org/) -->
<svg xmlns:dc="http://purl.org/dc/elements/1.1/" xmlns:cc="http://creativecommons.org/ns#" xmlns:rdf="http://www.w3.org/1999/02/22-rdf-syntax-ns#" xmlns:svg="http://www.w3.org/2000/svg" xmlns="http://www.w3.org/2000/svg" xmlns:sodipodi="http://sodipodi.sourceforge.net/DTD/sodipodi-0.dtd" xmlns:inkscape="http://www.inkscape.org/namespaces/inkscape" width="90" height="135" id="svg10595" sodipodi:version="0.32" inkscape:version="0.46" version="1.0" sodipodi:docname="spade_5.svg" inkscape:output_extension="org.inkscape.output.svg.inkscape">
  <defs id="defs10597">
    <inkscape:perspective sodipodi:type="inkscape:persp3d" inkscape:vp_x="0 : 526.18109 : 1" inkscape:vp_y="0 : 1000 : 0" inkscape:vp_z="744.09448 : 526.18109 : 1" inkscape:persp3d-origin="372.04724 : 350.78739 : 1" id="perspective10603"/>
  </defs>
  <sodipodi:namedview id="base" pagecolor="#ffffff" bordercolor="#666666" borderopacity="1.0" gridtolerance="10000" guidetolerance="10" objecttolerance="10" inkscape:pageopacity="0.0" inkscape:pageshadow="2" inkscape:zoom="1" inkscape:cx="126" inkscape:cy="58" inkscape:document-units="px" inkscape:current-layer="layer1" showgrid="false" inkscape:window-width="1429" inkscape:window-height="823" inkscape:window-x="5" inkscape:window-y="47"/>
  <metadata id="metadata10600">
    <rdf:RDF>
      <cc:Work rdf:about="">
        <dc:format>image/svg+xml</dc:format>
        <dc:type rdf:resource="http://purl.org/dc/dcmitype/StillImage"/>
      </cc:Work>
    </rdf:RDF>
  </metadata>
  <g inkscape:label="Layer 1" inkscape:groupmode="layer" id="layer1" transform="translate(-88.5714, -105.362)">
    <g id="g12272">
      <path id="rect4328" d="M 102.61143,105.36219 L 164.53143,105.36219 C 172.30959,105.36219 178.57143,111.62403 178.57143,119.40219 L 178.57143,226.32219 C 178.57143,234.10035 172.30959,240.36219 164.53143,240.36219 L 102.61143,240.36219 C 94.833266,240.36219 88.571426,234.10035 88.571426,226.32219 L 88.571426,119.40219 C 88.571426,111.62403 94.833266,105.36219 102.61143,105.36219 z" style="fill: rgb(0, 0, 0); fill-opacity: 1; stroke: none; stroke-width: 3; stroke-linecap: butt; stroke-linejoin: round; stroke-miterlimit: 4; stroke-opacity: 1;"/>
      <path id="rect4330" d="M 106.57143,110.36219 L 160.57143,110.36219 C 167.77343,110.36219 173.57143,116.16019 173.57143,123.36219 L 173.57143,222.36219 C 173.57143,229.56419 167.77343,235.36219 160.57143,235.36219 L 106.57143,235.36219 C 99.369426,235.36219 93.571426,229.56419 93.571426,222.36219 L 93.571426,123.36219 C 93.571426,116.16019 99.369426,110.36219 106.57143,110.36219 z" style="fill: rgb(242, 242, 242); fill-opacity: 1; stroke: none; stroke-width: 3; stroke-linecap: butt; stroke-linejoin: round; stroke-miterlimit: 4; stroke-opacity: 1;"/>
      <path id="text4404" d="M 155.33141,171.00646 L 155.25141,171.48646 C 155.1447,172.07317 155.0647,172.68651 155.01141,173.32646 C 155.01137,173.96651 154.9847,174.6065 154.93141,175.24646 L 154.77141,175.40646 C 151.3047,176.73984 147.81137,178.09983 144.29141,179.48646 C 140.82472,180.87316 137.38472,182.3665 133.97141,183.96646 C 130.61139,185.56649 127.27806,187.32649 123.97141,189.24646 C 120.71807,191.16649 117.62474,193.32649 114.69141,195.72646 L 114.53141,195.64646 C 114.31808,194.95315 114.15808,194.17982 114.05141,193.32646 C 113.94474,192.41982 113.89141,191.59315 113.89141,190.84646 L 113.57141,190.52646 C 119.75807,185.61983 126.42473,181.5665 133.57141,178.36646 C 140.71805,175.11317 147.94471,172.63317 155.25141,170.92646 L 155.33141,171.00646 M 111.49141,162.28646 C 118.10474,162.39318 124.74473,162.23318 131.41141,161.80646 C 138.13138,161.37985 144.90471,161.21985 151.73141,161.32646 L 155.89141,161.40646 C 155.7847,162.73985 155.7047,164.07318 155.65141,165.40646 C 155.65137,166.68651 155.59803,167.99318 155.49141,169.32646 L 155.65141,169.80646 C 147.86471,171.51317 140.47805,173.96651 133.49141,177.16646 C 126.50473,180.3665 119.94474,184.33983 113.81141,189.08646 L 113.73141,189.00646 C 113.14474,184.47316 112.66474,180.01983 112.29141,175.64646 C 111.91808,171.27317 111.57141,166.89985 111.25141,162.52646 L 111.33141,162.44646 L 111.49141,162.28646 M 115.97141,203.64646 C 115.75807,202.57981 115.57141,201.56648 115.41141,200.60646 C 115.30474,199.64648 115.11807,198.63315 114.85141,197.56646 L 115.25141,197.40646 C 120.8514,192.65982 127.06473,188.63316 133.89141,185.32646 C 140.71805,181.9665 147.65138,179.11317 154.69141,176.76646 L 154.77141,176.84646 C 154.5047,179.29983 154.1847,181.7265 153.81141,184.12646 C 153.49137,186.52649 153.17137,188.92649 152.85141,191.32646 L 152.93141,191.32646 C 149.41137,191.11315 145.89138,190.87315 142.37141,190.60646 C 138.85138,190.28649 135.33139,189.99316 131.81141,189.72646 L 131.81141,190.36646 C 131.81139,190.89982 131.78472,191.40649 131.73141,191.88646 C 131.73139,192.36649 131.73139,192.87315 131.73141,193.40646 L 131.73141,194.04646 C 132.15806,193.93982 132.55806,193.85982 132.93141,193.80646 C 133.30472,193.69982 133.70472,193.64649 134.13141,193.64646 C 135.89139,193.64649 137.78472,193.88649 139.81141,194.36646 C 141.83805,194.84648 143.70471,195.59315 145.41141,196.60646 C 147.17138,197.61981 148.61137,198.92648 149.73141,200.52646 C 150.90471,202.07314 151.49137,203.91314 151.49141,206.04646 C 151.49137,208.55314 150.93137,210.6598 149.81141,212.36646 C 148.74471,214.0198 147.35804,215.35313 145.65141,216.36646 C 143.99805,217.3798 142.13138,218.09979 140.05141,218.52646 C 138.02472,219.00646 136.05139,219.24646 134.13141,219.24646 C 131.09139,219.24646 128.10473,218.84646 125.17141,218.04646 C 122.2914,217.2998 119.59807,216.07313 117.09141,214.36646 L 117.09141,214.28646 C 117.51807,213.11313 117.9714,211.96647 118.45141,210.84646 C 118.9314,209.72647 119.38474,208.5798 119.81141,207.40646 L 119.89141,207.32646 C 121.75807,208.07314 123.67807,208.76647 125.65141,209.40646 C 127.67806,210.04647 129.70473,210.39314 131.73141,210.44646 L 132.13141,210.44646 C 133.30472,210.44647 134.42472,210.12647 135.49141,209.48646 C 136.55805,208.84647 137.11805,207.8598 137.17141,206.52646 L 137.17141,206.20646 C 136.90472,205.19314 136.42472,204.44647 135.73141,203.96646 C 135.03805,203.43314 134.23806,203.05981 133.33141,202.84646 C 132.42472,202.63314 131.46472,202.52648 130.45141,202.52646 C 129.49139,202.47314 128.61139,202.41981 127.81141,202.36646 C 123.91807,202.36648 119.99807,202.81981 116.05141,203.72646 L 115.97141,203.64646" style="font-size: 80px; font-style: normal; font-variant: normal; font-weight: normal; font-stretch: normal; text-align: start; line-height: 125%; text-anchor: start; fill: rgb(51, 51, 51); fill-opacity: 1; stroke: none; stroke-width: 1px; stroke-linecap: butt; stroke-linejoin: miter; stroke-opacity: 1; font-family: Airmole Stripe;"/>
      <path sodipodi:nodetypes="ccsscssccc" id="path4905" d="M 101.21328,137.82648 C 105.72038,136.82491 106.20528,134.1851 106.54532,129.33039 C 105.76215,130.62737 104.33828,131.5845 102.01407,131.57648 C 98.19377,131.56332 95.63482,129.34161 96.54532,124.54523 C 97.46328,119.7095 104.33828,117.8345 107.46328,112.82648 C 110.58828,117.8345 117.46328,119.7095 118.38125,124.54523 C 119.29175,129.34162 116.83827,131.56295 112.9125,131.57648 C 110.58828,131.5845 109.16442,130.62737 108.38125,129.33039 C 108.72129,134.1851 109.20619,136.82491 113.71328,137.82648 C 110.58828,137.82648 104.33828,137.82648 101.21328,137.82648 z" style="fill: rgb(0, 0, 0); fill-opacity: 1; stroke: none; stroke-width: 0.354331; stroke-linecap: round; stroke-linejoin: round; stroke-miterlimit: 4; stroke-dasharray: 1.41732, 1.41732; stroke-dashoffset: 0pt; stroke-opacity: 1;"/>
      <path sodipodi:nodetypes="ccsscssccc" id="path5049" d="M 109.58907,167.82648 C 112.29332,167.22554 112.58426,165.64165 112.78829,162.72883 C 112.31839,163.50701 111.46407,164.08129 110.06954,164.07648 C 107.77736,164.06858 106.24199,162.73556 106.78829,159.85773 C 107.33907,156.95629 111.46407,155.8313 113.33907,152.82648 C 115.21407,155.8313 119.33907,156.95629 119.88985,159.85773 C 120.43615,162.73556 118.96406,164.06836 116.6086,164.07648 C 115.21407,164.08129 114.35975,163.50701 113.88985,162.72883 C 114.09387,165.64165 114.38481,167.22554 117.08907,167.82648 C 115.21407,167.82648 111.46407,167.82648 109.58907,167.82648 z" style="fill: rgb(0, 0, 0); fill-opacity: 1; stroke: none; stroke-width: 0.354331; stroke-linecap: round; stroke-linejoin: round; stroke-miterlimit: 4; stroke-dasharray: 1.41732, 1.41732; stroke-dashoffset: 0pt; stroke-opacity: 1;"/>
      <path sodipodi:nodetypes="ccsscssccc" id="path5051" d="M 154.58907,167.82648 C 157.29332,167.22554 157.58426,165.64165 157.78829,162.72883 C 157.31839,163.50701 156.46407,164.08129 155.06954,164.07648 C 152.77736,164.06858 151.24199,162.73556 151.78829,159.85773 C 152.33907,156.95629 156.46407,155.8313 158.33907,152.82648 C 160.21407,155.8313 164.33907,156.95629 164.88985,159.85773 C 165.43615,162.73556 163.96406,164.06836 161.6086,164.07648 C 160.21407,164.08129 159.35975,163.50701 158.88985,162.72883 C 159.09387,165.64165 159.38481,167.22554 162.08907,167.82648 C 160.21407,167.82648 156.46407,167.82648 154.58907,167.82648 z" style="fill: rgb(0, 0, 0); fill-opacity: 1; stroke: none; stroke-width: 0.354331; stroke-linecap: round; stroke-linejoin: round; stroke-miterlimit: 4; stroke-dasharray: 1.41732, 1.41732; stroke-dashoffset: 0pt; stroke-opacity: 1;"/>
      <path sodipodi:nodetypes="ccsscssccc" id="path5053" d="M 149.58907,195.82648 C 152.29332,195.22554 152.58426,193.64165 152.78829,190.72883 C 152.31839,191.50701 151.46407,192.08129 150.06954,192.07648 C 147.77736,192.06858 146.24199,190.73556 146.78829,187.85773 C 147.33907,184.95629 151.46407,183.8313 153.33907,180.82648 C 155.21407,183.8313 159.33907,184.95629 159.88985,187.85773 C 160.43615,190.73556 158.96406,192.06836 156.6086,192.07648 C 155.21407,192.08129 154.35975,191.50701 153.88985,190.72883 C 154.09387,193.64165 154.38481,195.22554 157.08907,195.82648 C 155.21407,195.82648 151.46407,195.82648 149.58907,195.82648 z" style="fill: rgb(0, 0, 0); fill-opacity: 1; stroke: none; stroke-width: 0.354331; stroke-linecap: round; stroke-linejoin: round; stroke-miterlimit: 4; stroke-dasharray: 1.41732, 1.41732; stroke-dashoffset: 0pt; stroke-opacity: 1;"/>
      <path sodipodi:nodetypes="ccsscssccc" id="path5055" d="M 112.58907,206.82648 C 115.29332,206.22554 115.58426,204.64165 115.78829,201.72883 C 115.31839,202.50701 114.46407,203.08129 113.06954,203.07648 C 110.77736,203.06858 109.24199,201.73556 109.78829,198.85773 C 110.33907,195.95629 114.46407,194.8313 116.33907,191.82648 C 118.21407,194.8313 122.33907,195.95629 122.88985,198.85773 C 123.43615,201.73556 121.96406,203.06836 119.6086,203.07648 C 118.21407,203.08129 117.35975,202.50701 116.88985,201.72883 C 117.09387,204.64165 117.38481,206.22554 120.08907,206.82648 C 118.21407,206.82648 114.46407,206.82648 112.58907,206.82648 z" style="fill: rgb(0, 0, 0); fill-opacity: 1; stroke: none; stroke-width: 0.354331; stroke-linecap: round; stroke-linejoin: round; stroke-miterlimit: 4; stroke-dasharray: 1.41732, 1.41732; stroke-dashoffset: 0pt; stroke-opacity: 1;"/>
      <path sodipodi:nodetypes="ccsscssccc" id="path5057" d="M 142.58907,221.82648 C 145.29332,221.22554 145.58426,219.64165 145.78829,216.72883 C 145.31839,217.50701 144.46407,218.08129 143.06954,218.07648 C 140.77736,218.06858 139.24199,216.73556 139.78829,213.85773 C 140.33907,210.95629 144.46407,209.8313 146.33907,206.82648 C 148.21407,209.8313 152.33907,210.95629 152.88985,213.85773 C 153.43615,216.73556 151.96406,218.06836 149.6086,218.07648 C 148.21407,218.08129 147.35975,217.50701 146.88985,216.72883 C 147.09387,219.64165 147.38481,221.22554 150.08907,221.82648 C 148.21407,221.82648 144.46407,221.82648 142.58907,221.82648 z" style="fill: rgb(0, 0, 0); fill-opacity: 1; stroke: none; stroke-width: 0.354331; stroke-linecap: round; stroke-linejoin: round; stroke-miterlimit: 4; stroke-dasharray: 1.41732, 1.41732; stroke-dashoffset: 0pt; stroke-opacity: 1;"/>
      <path id="text5217" d="M 136.5311,111.66944 L 136.5311,116.06389 L 126.26443,116.06389 L 125.46721,121.23611 C 126.78942,120.23798 128.22183,119.73891 129.76443,119.73889 C 132.0459,119.73891 133.90608,120.53613 135.34499,122.13056 C 136.78386,123.71205 137.5033,125.77316 137.50332,128.31389 C 137.5033,130.98426 136.67367,133.14908 135.01443,134.80833 C 133.36812,136.46759 131.20979,137.29722 128.53943,137.29722 C 126.12831,137.29722 124.17091,136.62963 122.66721,135.29444 C 121.1635,133.9463 120.38573,132.18334 120.33388,130.00556 L 125.19499,130.00556 C 125.23387,131.01667 125.54498,131.78797 126.12832,132.31944 C 126.71165,132.83797 127.53479,133.09723 128.59777,133.09722 C 129.82924,133.09723 130.80146,132.68241 131.51443,131.85278 C 132.24035,131.02315 132.60331,129.88241 132.60332,128.43056 C 132.60331,126.9139 132.24683,125.73427 131.53388,124.89167 C 130.8209,124.04909 129.8422,123.62779 128.59777,123.62778 C 127.01628,123.62779 125.97276,124.25649 125.46721,125.51389 L 121.03388,125.51389 L 123.25054,111.66944 L 136.5311,111.66944" style="font-size: 35px; font-style: normal; font-variant: normal; font-weight: bold; font-stretch: normal; text-align: start; line-height: 125%; text-anchor: start; fill: rgb(0, 0, 0); fill-opacity: 1; stroke: none; stroke-width: 1px; stroke-linecap: butt; stroke-linejoin: miter; stroke-opacity: 1; font-family: AlMothnna;"/>
    </g>
  </g>
</svg>