<?xml version="1.0" encoding="UTF-8" standalone="no"?>
<!-- Created with Inkscape (http://www.inkscape.org/) -->
<svg xmlns:dc="http://purl.org/dc/elements/1.1/" xmlns:cc="http://creativecommons.org/ns#" xmlns:rdf="http://www.w3.org/1999/02/22-rdf-syntax-ns#" xmlns:svg="http://www.w3.org/2000/svg" xmlns="http://www.w3.org/2000/svg" xmlns:sodipodi="http://sodipodi.sourceforge.net/DTD/sodipodi-0.dtd" xmlns:inkscape="http://www.inkscape.org/namespaces/inkscape" width="90" height="135" id="svg16720" sodipodi:version="0.32" inkscape:version="0.46" version="1.0" sodipodi:docname="spade_6.svg" inkscape:output_extension="org.inkscape.output.svg.inkscape">
  <defs id="defs16722">
    <inkscape:perspective sodipodi:type="inkscape:persp3d" inkscape:vp_x="0 : 526.18109 : 1" inkscape:vp_y="0 : 1000 : 0" inkscape:vp_z="744.09448 : 526.18109 : 1" inkscape:persp3d-origin="372.04724 : 350.78739 : 1" id="perspective16728"/>
  </defs>
  <sodipodi:namedview id="base" pagecolor="#ffffff" bordercolor="#666666" borderopacity="1.0" gridtolerance="10000" guidetolerance="10" objecttolerance="10" inkscape:pageopacity="0.0" inkscape:pageshadow="2" inkscape:zoom="1.4" inkscape:cx="90.833385" inkscape:cy="112.32681" inkscape:document-units="px" inkscape:current-layer="layer1" showgrid="false" inkscape:window-width="641" inkscape:window-height="719" inkscape:window-x="619" inkscape:window-y="47"/>
  <metadata id="metadata16725">
    <rdf:RDF>
      <cc:Work rdf:about="">
        <dc:format>image/svg+xml</dc:format>
        <dc:type rdf:resource="http://purl.org/dc/dcmitype/StillImage"/>
      </cc:Work>
    </rdf:RDF>
  </metadata>
  <g inkscape:label="Layer 1" inkscape:groupmode="layer" id="layer1" transform="translate(-117.857, -330.576)">
    <g transform="translate(-271.736, 323.679)" id="g13772">
      <rect ry="14.04" y="6.8978996" x="389.59341" height="135" width="90" id="rect4334" style="fill: rgb(0, 0, 0); fill-opacity: 1; stroke: none; stroke-width: 3; stroke-linecap: butt; stroke-linejoin: round; stroke-miterlimit: 4; stroke-dasharray: none; stroke-opacity: 1;"/>
      <rect ry="13" y="11.8979" x="394.59341" height="125" width="80" id="rect4336" style="fill: rgb(242, 242, 242); fill-opacity: 1; stroke: none; stroke-width: 3; stroke-linecap: butt; stroke-linejoin: round; stroke-miterlimit: 4; stroke-dasharray: none; stroke-opacity: 1;"/>
      <path id="text4444" d="M 450.27335,89.022167 C 450.37998,89.288866 450.51331,89.502199 450.67335,89.662167 C 450.83331,89.822198 451.01998,90.008865 451.23335,90.222167 L 451.23335,90.382167 C 448.13998,91.71553 445.07332,93.128862 442.03335,94.622167 C 439.04665,96.115525 436.13999,97.74219 433.31335,99.502167 C 430.48666,101.20885 427.74,103.10219 425.07335,105.18217 C 422.46,107.20885 419.98001,109.44885 417.63335,111.90217 L 417.47335,111.82217 C 417.20668,111.28884 416.96668,110.75551 416.75335,110.22217 C 416.59334,109.63551 416.38001,109.07551 416.11335,108.54217 L 416.43335,108.46217 C 418.62001,106.16885 421.02001,104.03552 423.63335,102.06217 C 426.3,100.08885 429.07333,98.30219 431.95335,96.702167 C 434.83333,95.102193 437.79332,93.662195 440.83335,92.382167 C 443.92665,91.102197 447.04665,89.982198 450.19335,89.022167 L 450.27335,89.022167 L 450.27335,89.022167 M 446.67335,86.062167 C 447.09998,86.328869 447.49998,86.595535 447.87335,86.862167 C 448.24665,87.128868 448.61998,87.422201 448.99335,87.742167 L 448.83335,88.142167 C 442.96665,90.008865 437.15332,92.462196 431.39335,95.502167 C 425.68667,98.488856 420.48667,102.24885 415.79335,106.78217 L 415.63335,106.70217 C 415.26001,105.58218 414.99335,104.35552 414.83335,103.02217 C 414.72668,101.68885 414.67335,100.43552 414.67335,99.262167 L 414.67335,98.462167 C 414.67335,94.995527 415.15335,91.608863 416.11335,88.302167 C 417.12668,84.942203 418.46001,81.742206 420.11335,78.702167 C 421.82001,75.662213 423.74,72.808882 425.87335,70.142167 C 428.06,67.422221 430.35333,64.942223 432.75335,62.702167 L 432.91335,62.782167 C 434.61999,64.862223 436.48666,66.808888 438.51335,68.622167 C 440.53999,70.382218 442.56665,72.115549 444.59335,73.822167 C 444.59332,73.875548 444.56665,73.928881 444.51335,73.982167 C 444.51332,73.982214 444.51332,74.035548 444.51335,74.142167 C 442.32665,75.102213 440.16665,76.302212 438.03335,77.742167 C 435.95332,79.182209 434.00666,80.835541 432.19335,82.702167 C 430.43333,84.515537 428.91333,86.542202 427.63335,88.782167 C 426.40667,90.968864 425.60667,93.315528 425.23335,95.822167 C 425.71333,94.435527 426.24667,93.022195 426.83335,91.582167 C 427.42,90.142198 428.16667,88.835533 429.07335,87.662167 C 430.03333,86.488868 431.15333,85.528869 432.43335,84.782167 C 433.76666,84.035538 435.39332,83.662205 437.31335,83.662167 L 437.79335,83.662167 C 440.99332,83.768871 443.95332,84.56887 446.67335,86.062167 M 435.15335,122.62217 C 431.74,122.56883 428.54,121.76883 425.55335,120.22217 C 422.56667,118.62217 420.14001,116.30217 418.27335,113.26217 L 418.27335,113.10217 C 423.12667,108.24885 428.43333,104.14218 434.19335,100.78217 C 439.95332,97.422191 445.92665,94.355527 452.11335,91.582167 L 452.19335,91.822167 L 452.19335,91.742167 C 452.99331,93.075528 453.57997,94.515527 453.95335,96.062167 C 454.32664,97.608857 454.51331,99.208856 454.51335,100.86217 L 454.51335,101.74217 C 454.51331,104.30218 454.03331,106.83551 453.07335,109.34217 C 452.16664,111.84884 450.88664,114.08884 449.23335,116.06217 C 447.63331,118.0355 445.68665,119.6355 443.39335,120.86217 C 441.15332,122.0355 438.69999,122.62217 436.03335,122.62217 L 435.23335,122.62217 L 435.15335,122.62217" style="font-size: 80px; font-style: normal; font-variant: normal; font-weight: normal; font-stretch: normal; text-align: start; line-height: 125%; text-anchor: start; fill: rgb(51, 51, 51); fill-opacity: 1; stroke: none; stroke-width: 1px; stroke-linecap: butt; stroke-linejoin: miter; stroke-opacity: 1; font-family: Airmole Stripe;"/>
      <path sodipodi:nodetypes="ccsscssccc" id="path4907" d="M 402.28727,39.362194 C 406.79437,38.360619 407.27927,35.720812 407.61931,30.866101 C 406.83614,32.163082 405.41227,33.120207 403.08806,33.112194 C 399.26776,33.099025 396.70881,30.877319 397.61931,26.080944 C 398.53727,21.245207 405.41227,19.370207 408.53727,14.362194 C 411.66227,19.370207 418.53727,21.245207 419.45524,26.080944 C 420.36574,30.877326 417.91226,33.098662 413.98649,33.112194 C 411.66227,33.120207 410.23841,32.163082 409.45524,30.866101 C 409.79528,35.720812 410.28018,38.360619 414.78727,39.362194 C 411.66227,39.362194 405.41227,39.362194 402.28727,39.362194 z" style="fill: rgb(0, 0, 0); fill-opacity: 1; stroke: none; stroke-width: 0.354331; stroke-linecap: round; stroke-linejoin: round; stroke-miterlimit: 4; stroke-dasharray: 1.41732, 1.41732; stroke-dashoffset: 0pt; stroke-opacity: 1;"/>
      <path sodipodi:nodetypes="ccsscssccc" id="path5059" d="M 427.67697,68.362194 C 430.38122,67.761254 430.67216,66.177364 430.87619,63.264544 C 430.40629,64.042724 429.55197,64.617004 428.15744,64.612194 C 425.86526,64.604294 424.32989,63.271274 424.87619,60.393444 C 425.42697,57.492004 429.55197,56.367006 431.42697,53.362194 C 433.30197,56.367006 437.42697,57.492004 437.97775,60.393444 C 438.52405,63.271274 437.05196,64.604074 434.6965,64.612194 C 433.30197,64.617004 432.44765,64.042724 431.97775,63.264544 C 432.18177,66.177364 432.47271,67.761254 435.17697,68.362194 C 433.30197,68.362194 429.55197,68.362194 427.67697,68.362194 z" style="fill: rgb(0, 0, 0); fill-opacity: 1; stroke: none; stroke-width: 0.354331; stroke-linecap: round; stroke-linejoin: round; stroke-miterlimit: 4; stroke-dasharray: 1.41732, 1.41732; stroke-dashoffset: 0pt; stroke-opacity: 1;"/>
      <path sodipodi:nodetypes="ccsscssccc" id="path5061" d="M 410.67697,116.36219 C 413.38122,115.76125 413.67216,114.17736 413.87619,111.26454 C 413.40629,112.04272 412.55197,112.617 411.15744,112.61219 C 408.86526,112.60429 407.32989,111.27127 407.87619,108.39344 C 408.42697,105.492 412.55197,104.36701 414.42697,101.36219 C 416.30197,104.36701 420.42697,105.492 420.97775,108.39344 C 421.52405,111.27127 420.05196,112.60407 417.6965,112.61219 C 416.30197,112.617 415.44765,112.04272 414.97775,111.26454 C 415.18177,114.17736 415.47271,115.76125 418.17697,116.36219 C 416.30197,116.36219 412.55197,116.36219 410.67697,116.36219 z" style="fill: rgb(0, 0, 0); fill-opacity: 1; stroke: none; stroke-width: 0.354331; stroke-linecap: round; stroke-linejoin: round; stroke-miterlimit: 4; stroke-dasharray: 1.41732, 1.41732; stroke-dashoffset: 0pt; stroke-opacity: 1;"/>
      <path sodipodi:nodetypes="ccsscssccc" id="path5063" d="M 449.67697,124.36219 C 452.38122,123.76125 452.67216,122.17736 452.87619,119.26454 C 452.40629,120.04272 451.55197,120.617 450.15744,120.61219 C 447.86526,120.60429 446.32989,119.27127 446.87619,116.39344 C 447.42697,113.492 451.55197,112.36701 453.42697,109.36219 C 455.30197,112.36701 459.42697,113.492 459.97775,116.39344 C 460.52405,119.27127 459.05196,120.60407 456.6965,120.61219 C 455.30197,120.617 454.44765,120.04272 453.97775,119.26454 C 454.18177,122.17736 454.47271,123.76125 457.17697,124.36219 C 455.30197,124.36219 451.55197,124.36219 449.67697,124.36219 z" style="fill: rgb(0, 0, 0); fill-opacity: 1; stroke: none; stroke-width: 0.354331; stroke-linecap: round; stroke-linejoin: round; stroke-miterlimit: 4; stroke-dasharray: 1.41732, 1.41732; stroke-dashoffset: 0pt; stroke-opacity: 1;"/>
      <path sodipodi:nodetypes="ccsscssccc" id="path5065" d="M 446.67697,96.36219 C 449.38122,95.76125 449.67216,94.17736 449.87619,91.26454 C 449.40629,92.04272 448.55197,92.617 447.15744,92.61219 C 444.86526,92.60429 443.32989,91.27127 443.87619,88.39344 C 444.42697,85.492 448.55197,84.36701 450.42697,81.36219 C 452.30197,84.36701 456.42697,85.492 456.97775,88.39344 C 457.52405,91.27127 456.05196,92.60407 453.6965,92.61219 C 452.30197,92.617 451.44765,92.04272 450.97775,91.26454 C 451.18177,94.17736 451.47271,95.76125 454.17697,96.36219 C 452.30197,96.36219 448.55197,96.36219 446.67697,96.36219 z" style="fill: rgb(0, 0, 0); fill-opacity: 1; stroke: none; stroke-width: 0.354331; stroke-linecap: round; stroke-linejoin: round; stroke-miterlimit: 4; stroke-dasharray: 1.41732, 1.41732; stroke-dashoffset: 0pt; stroke-opacity: 1;"/>
      <path sodipodi:nodetypes="ccsscssccc" id="path5067" d="M 431.67697,116.36219 C 434.38122,115.76125 434.67216,114.17736 434.87619,111.26454 C 434.40629,112.04272 433.55197,112.617 432.15744,112.61219 C 429.86526,112.60429 428.32989,111.27127 428.87619,108.39344 C 429.42697,105.492 433.55197,104.36701 435.42697,101.36219 C 437.30197,104.36701 441.42697,105.492 441.97775,108.39344 C 442.52405,111.27127 441.05196,112.60407 438.6965,112.61219 C 437.30197,112.617 436.44765,112.04272 435.97775,111.26454 C 436.18177,114.17736 436.47271,115.76125 439.17697,116.36219 C 437.30197,116.36219 433.55197,116.36219 431.67697,116.36219 z" style="fill: rgb(0, 0, 0); fill-opacity: 1; stroke: none; stroke-width: 0.354331; stroke-linecap: round; stroke-linejoin: round; stroke-miterlimit: 4; stroke-dasharray: 1.41732, 1.41732; stroke-dashoffset: 0pt; stroke-opacity: 1;"/>
      <path sodipodi:nodetypes="ccsscssccc" id="path5069" d="M 412.67697,90.362194 C 415.38122,89.761254 415.67216,88.177364 415.87619,85.264544 C 415.40629,86.042724 414.55197,86.617004 413.15744,86.612194 C 410.86526,86.604294 409.32989,85.271274 409.87619,82.393444 C 410.42697,79.492004 414.55197,78.367006 416.42697,75.362194 C 418.30197,78.367006 422.42697,79.492004 422.97775,82.393444 C 423.52405,85.271274 422.05196,86.604074 419.6965,86.612194 C 418.30197,86.617004 417.44765,86.042724 416.97775,85.264544 C 417.18177,88.177364 417.47271,89.761254 420.17697,90.362194 C 418.30197,90.362194 414.55197,90.362194 412.67697,90.362194 z" style="fill: rgb(0, 0, 0); fill-opacity: 1; stroke: none; stroke-width: 0.354331; stroke-linecap: round; stroke-linejoin: round; stroke-miterlimit: 4; stroke-dasharray: 1.41732, 1.41732; stroke-dashoffset: 0pt; stroke-opacity: 1;"/>
      <path id="text5221" d="M 421.79837,26.232935 C 421.79837,17.210734 424.85114,12.699627 430.9567,12.699602 C 431.24188,12.699627 431.52058,12.71259 431.79282,12.738491 C 432.07799,12.751479 432.45391,12.803331 432.92059,12.894047 C 433.40021,12.984812 433.84095,13.10796 434.24282,13.263491 C 434.65762,13.419071 435.09836,13.652404 435.56504,13.963491 C 436.04465,14.274626 436.45947,14.64407 436.80948,15.071824 C 437.15947,15.486662 437.48354,16.024624 437.7817,16.685713 C 438.07984,17.333882 438.28724,18.059807 438.40393,18.863491 L 433.87337,18.863491 C 433.54928,18.07277 433.15391,17.508882 432.68726,17.171824 C 432.22058,16.834808 431.59836,16.66629 430.82059,16.666269 C 429.8354,16.66629 429.00577,16.977401 428.3317,17.599602 C 427.67059,18.221844 427.22985,19.090362 427.00948,20.205158 C 426.89281,20.736656 426.82151,21.157952 426.79559,21.469047 C 426.76966,21.780174 426.73725,22.590358 426.69837,23.899602 C 427.46318,23.095913 428.21503,22.532025 428.95393,22.207935 C 429.70577,21.870915 430.60021,21.702396 431.63726,21.70238 C 433.76317,21.702396 435.49373,22.447766 436.82893,23.938491 C 438.16409,25.429244 438.83169,27.360724 438.8317,29.732935 C 438.83169,32.429237 438.06687,34.619976 436.53726,36.305158 C 435.00762,37.990343 433.01132,38.832935 430.54837,38.832935 C 429.07058,38.832935 427.71596,38.508861 426.48448,37.860713 C 425.253,37.212566 424.28077,36.311641 423.56782,35.157935 C 422.94559,34.172754 422.49189,32.980163 422.2067,31.580158 C 421.93448,30.180165 421.79837,28.39776 421.79837,26.232935 M 430.4317,25.532935 C 429.30392,25.532948 428.38355,25.960725 427.67059,26.816269 C 426.97059,27.671835 426.62059,28.780167 426.62059,30.141269 C 426.62059,31.463498 426.97059,32.545904 427.67059,33.388491 C 428.37059,34.218124 429.27799,34.632939 430.39282,34.632935 C 431.48169,34.632939 432.38262,34.205161 433.09559,33.349602 C 433.82151,32.481089 434.18447,31.38572 434.18448,30.063491 C 434.18447,28.689426 433.84095,27.594057 433.15393,26.77738 C 432.47984,25.947762 431.57243,25.532948 430.4317,25.532935" style="font-size: 35px; font-style: normal; font-variant: normal; font-weight: bold; font-stretch: normal; text-align: start; line-height: 125%; text-anchor: start; fill: rgb(0, 0, 0); fill-opacity: 1; stroke: none; stroke-width: 1px; stroke-linecap: butt; stroke-linejoin: miter; stroke-opacity: 1; font-family: AlMothnna;"/>
    </g>
  </g>
</svg>