<?xml version="1.0" encoding="UTF-8" standalone="no"?>
<!-- Created with Inkscape (http://www.inkscape.org/) -->
<svg xmlns:dc="http://purl.org/dc/elements/1.1/" xmlns:cc="http://creativecommons.org/ns#" xmlns:rdf="http://www.w3.org/1999/02/22-rdf-syntax-ns#" xmlns:svg="http://www.w3.org/2000/svg" xmlns="http://www.w3.org/2000/svg" xmlns:sodipodi="http://sodipodi.sourceforge.net/DTD/sodipodi-0.dtd" xmlns:inkscape="http://www.inkscape.org/namespaces/inkscape" width="90" height="135" id="svg16720" sodipodi:version="0.32" inkscape:version="0.46" version="1.0" sodipodi:docname="spade_9.svg" inkscape:output_extension="org.inkscape.output.svg.inkscape">
  <defs id="defs16722">
    <inkscape:perspective sodipodi:type="inkscape:persp3d" inkscape:vp_x="0 : 526.18109 : 1" inkscape:vp_y="0 : 1000 : 0" inkscape:vp_z="744.09448 : 526.18109 : 1" inkscape:persp3d-origin="372.04724 : 350.78739 : 1" id="perspective16728"/>
  </defs>
  <sodipodi:namedview id="base" pagecolor="#ffffff" bordercolor="#666666" borderopacity="1.0" gridtolerance="10000" guidetolerance="10" objecttolerance="10" inkscape:pageopacity="0.0" inkscape:pageshadow="2" inkscape:zoom="1.4" inkscape:cx="1.1905278" inkscape:cy="112.32681" inkscape:document-units="px" inkscape:current-layer="layer1" showgrid="false" inkscape:window-width="641" inkscape:window-height="719" inkscape:window-x="97" inkscape:window-y="47"/>
  <metadata id="metadata16725">
    <rdf:RDF>
      <cc:Work rdf:about="">
        <dc:format>image/svg+xml</dc:format>
        <dc:type rdf:resource="http://purl.org/dc/dcmitype/StillImage"/>
      </cc:Work>
    </rdf:RDF>
  </metadata>
  <g inkscape:label="Layer 1" inkscape:groupmode="layer" id="layer1" transform="translate(-117.857, -330.576)">
    <g transform="translate(-559.538, 323.679)" id="g13870">
      <g transform="translate(656.538, -3.03572)" id="g4350">
        <rect style="fill: rgb(0, 0, 0); fill-opacity: 1; stroke: none; stroke-width: 3; stroke-linecap: butt; stroke-linejoin: round; stroke-miterlimit: 4; stroke-dasharray: none; stroke-opacity: 1;" id="rect4352" width="90" height="135" x="20.85714" y="9.9336166" ry="14.04"/>
        <rect style="fill: rgb(242, 242, 242); fill-opacity: 1; stroke: none; stroke-width: 3; stroke-linecap: butt; stroke-linejoin: round; stroke-miterlimit: 4; stroke-dasharray: none; stroke-opacity: 1;" id="rect4354" width="80" height="125" x="25.85714" y="14.933617" ry="13"/>
      </g>
      <path id="text4416" d="M 740.75546,75.502179 L 741.07546,76.462179 C 741.12875,76.782223 741.26208,77.128889 741.47546,77.502179 L 741.55546,77.902179 C 738.30209,79.18222 735.07542,80.542219 731.87546,81.982179 C 728.72876,83.368883 725.63543,84.888881 722.59546,86.542179 C 719.55544,88.195545 716.62211,90.008876 713.79546,91.982179 C 710.96878,93.955539 708.30212,96.142204 705.79546,98.542179 L 705.63546,98.542179 C 705.26212,98.115535 704.94212,97.662202 704.67546,97.182179 C 704.46212,96.702203 704.22212,96.222203 703.95546,95.742179 L 704.27546,95.902179 C 709.39545,91.208875 715.07544,87.128879 721.31546,83.662179 C 727.55543,80.195553 734.00876,77.448889 740.67546,75.422179 L 740.75546,75.502179 M 722.19546,62.782179 C 724.00877,62.888903 725.8221,63.208903 727.63546,63.742179 C 729.50209,64.222235 731.23543,64.942235 732.83546,65.902179 C 734.43542,66.8089 735.84876,67.955565 737.07546,69.342179 C 738.35542,70.728896 739.36875,72.302227 740.11546,74.062179 L 740.35546,74.062179 C 733.58209,76.462223 727.04876,79.26222 720.75546,82.462179 C 714.51544,85.608881 708.72878,89.555543 703.39546,94.302179 C 703.12879,94.302205 702.91545,94.008872 702.75546,93.422179 C 702.59546,92.782207 702.46212,92.088874 702.35546,91.342179 C 702.24879,90.542209 702.16879,89.795543 702.11546,89.102179 C 702.06212,88.355545 702.03546,87.875545 702.03546,87.662179 L 702.03546,86.062179 C 702.03546,83.23555 702.48879,80.435553 703.39546,77.662179 C 704.35545,74.835558 705.68879,72.328894 707.39546,70.142179 C 709.10212,67.902232 711.15545,66.115567 713.55546,64.782179 C 715.95544,63.39557 718.62211,62.702237 721.55546,62.702179 L 722.11546,62.702179 L 722.19546,62.782179 M 725.55546,104.30218 C 724.64877,104.6222 723.71543,104.91553 722.75546,105.18218 C 721.84877,105.39553 720.91544,105.50219 719.95546,105.50218 L 719.55546,105.50218 C 717.10211,105.44886 714.70211,104.94219 712.35546,103.98218 C 710.06211,102.96886 708.08878,101.5022 706.43546,99.582179 L 706.19546,99.182179 C 711.58211,94.915538 717.26211,91.155542 723.23546,87.902179 C 729.20876,84.595548 735.39542,81.582218 741.79546,78.862179 L 741.87546,78.942179 C 742.03542,80.222219 742.19542,81.475552 742.35546,82.702179 C 742.51542,83.928882 742.64875,85.208881 742.75546,86.542179 C 742.64875,90.06221 742.11542,93.47554 741.15546,96.782179 C 740.19542,100.03553 738.91542,103.1822 737.31546,106.22218 C 735.71542,109.26219 733.82209,112.16885 731.63546,114.94218 C 729.50209,117.66218 727.1821,120.22218 724.67546,122.62218 L 724.51546,122.62218 C 723.44877,121.66218 722.43544,120.62218 721.47546,119.50218 C 720.56877,118.38218 719.52877,117.36885 718.35546,116.46218 L 718.51546,116.30218 C 721.87544,112.46219 724.7021,108.30219 726.99546,103.82218 C 729.28876,99.288867 730.99543,94.515538 732.11546,89.502179 C 731.36876,92.115541 730.40876,94.648872 729.23546,97.102179 C 728.11543,99.555533 726.91543,101.95553 725.63546,104.30218 L 725.55546,104.30218" style="font-size: 80px; font-style: normal; font-variant: normal; font-weight: normal; font-stretch: normal; text-align: start; line-height: 125%; text-anchor: start; fill: rgb(51, 51, 51); fill-opacity: 1; stroke: none; stroke-width: 1px; stroke-linecap: butt; stroke-linejoin: miter; stroke-opacity: 1; font-family: Airmole Stripe;"/>
      <path sodipodi:nodetypes="ccsscssccc" id="path4913" d="M 690.24549,39.362194 C 694.75259,38.360619 695.23749,35.720812 695.57753,30.866101 C 694.79436,32.163082 693.37049,33.120207 691.04628,33.112194 C 687.22598,33.099025 684.66703,30.877319 685.57753,26.080944 C 686.49549,21.245207 693.37049,19.370207 696.49549,14.362194 C 699.62049,19.370207 706.49549,21.245207 707.41346,26.080944 C 708.32396,30.877326 705.87048,33.098662 701.94471,33.112194 C 699.62049,33.120207 698.19663,32.163082 697.41346,30.866101 C 697.7535,35.720812 698.2384,38.360619 702.74549,39.362194 C 699.62049,39.362194 693.37049,39.362194 690.24549,39.362194 z" style="fill: rgb(0, 0, 0); fill-opacity: 1; stroke: none; stroke-width: 0.354331; stroke-linecap: round; stroke-linejoin: round; stroke-miterlimit: 4; stroke-dasharray: 1.41732, 1.41732; stroke-dashoffset: 0pt; stroke-opacity: 1;"/>
      <path sodipodi:nodetypes="ccsscssccc" id="path5101" d="M 723.5054,68.008641 C 726.20965,67.407701 726.50059,65.823811 726.70462,62.910991 C 726.23472,63.689171 725.3804,64.263451 723.98587,64.258641 C 721.69369,64.250741 720.15832,62.917721 720.70462,60.039891 C 721.2554,57.138451 725.3804,56.013453 727.2554,53.008641 C 729.1304,56.013453 733.2554,57.138451 733.80618,60.039891 C 734.35248,62.917721 732.88039,64.250521 730.52493,64.258641 C 729.1304,64.263451 728.27608,63.689171 727.80618,62.910991 C 728.0102,65.823811 728.30114,67.407701 731.0054,68.008641 C 729.1304,68.008641 725.3804,68.008641 723.5054,68.008641 z" style="fill: rgb(0, 0, 0); fill-opacity: 1; stroke: none; stroke-width: 0.354331; stroke-linecap: round; stroke-linejoin: round; stroke-miterlimit: 4; stroke-dasharray: 1.41732, 1.41732; stroke-dashoffset: 0pt; stroke-opacity: 1;"/>
      <path sodipodi:nodetypes="ccsscssccc" id="path5103" d="M 704.73763,73.594427 C 707.44188,72.993487 707.73282,71.409597 707.93685,68.496777 C 707.46695,69.274957 706.61263,69.849237 705.2181,69.844427 C 702.92592,69.836527 701.39055,68.503507 701.93685,65.625677 C 702.48763,62.724237 706.61263,61.599239 708.48763,58.594427 C 710.36263,61.599239 714.48763,62.724237 715.03841,65.625677 C 715.58471,68.503507 714.11262,69.836307 711.75716,69.844427 C 710.36263,69.849237 709.50831,69.274957 709.03841,68.496777 C 709.24243,71.409597 709.53337,72.993487 712.23763,73.594427 C 710.36263,73.594427 706.61263,73.594427 704.73763,73.594427 z" style="fill: rgb(0, 0, 0); fill-opacity: 1; stroke: none; stroke-width: 0.354331; stroke-linecap: round; stroke-linejoin: round; stroke-miterlimit: 4; stroke-dasharray: 1.41732, 1.41732; stroke-dashoffset: 0pt; stroke-opacity: 1;"/>
      <path sodipodi:nodetypes="ccsscssccc" id="path5105" d="M 696.55565,92.422854 C 699.2599,91.821914 699.55084,90.238024 699.75487,87.325204 C 699.28497,88.103384 698.43065,88.677664 697.03612,88.672854 C 694.74394,88.664954 693.20857,87.331934 693.75487,84.454104 C 694.30565,81.552664 698.43065,80.427666 700.30565,77.422854 C 702.18065,80.427666 706.30565,81.552664 706.85643,84.454104 C 707.40273,87.331934 705.93064,88.664734 703.57518,88.672854 C 702.18065,88.677664 701.32633,88.103384 700.85643,87.325204 C 701.06045,90.238024 701.35139,91.821914 704.05565,92.422854 C 702.18065,92.422854 698.43065,92.422854 696.55565,92.422854 z" style="fill: rgb(0, 0, 0); fill-opacity: 1; stroke: none; stroke-width: 0.354331; stroke-linecap: round; stroke-linejoin: round; stroke-miterlimit: 4; stroke-dasharray: 1.41732, 1.41732; stroke-dashoffset: 0pt; stroke-opacity: 1;"/>
      <path sodipodi:nodetypes="ccsscssccc" id="path5107" d="M 716.67697,92.36219 C 719.38122,91.76125 719.67216,90.17736 719.87619,87.26454 C 719.40629,88.04272 718.55197,88.617 717.15744,88.61219 C 714.86526,88.60429 713.32989,87.27127 713.87619,84.393444 C 714.42697,81.492004 718.55197,80.367006 720.42697,77.362194 C 722.30197,80.367006 726.42697,81.492004 726.97775,84.393444 C 727.52405,87.27127 726.05196,88.60407 723.6965,88.61219 C 722.30197,88.617 721.44765,88.04272 720.97775,87.26454 C 721.18177,90.17736 721.47271,91.76125 724.17697,92.36219 C 722.30197,92.36219 718.55197,92.36219 716.67697,92.36219 z" style="fill: rgb(0, 0, 0); fill-opacity: 1; stroke: none; stroke-width: 0.354331; stroke-linecap: round; stroke-linejoin: round; stroke-miterlimit: 4; stroke-dasharray: 1.41732, 1.41732; stroke-dashoffset: 0pt; stroke-opacity: 1;"/>
      <path sodipodi:nodetypes="ccsscssccc" id="path5109" d="M 716.44474,127.60483 C 719.14899,127.00389 719.43993,125.42 719.64396,122.50718 C 719.17406,123.28536 718.31974,123.85964 716.92521,123.85483 C 714.63303,123.84693 713.09766,122.51391 713.64396,119.63608 C 714.19474,116.73464 718.31974,115.60965 720.19474,112.60483 C 722.06974,115.60965 726.19474,116.73464 726.74552,119.63608 C 727.29182,122.51391 725.81973,123.84671 723.46427,123.85483 C 722.06974,123.85964 721.21542,123.28536 720.74552,122.50718 C 720.94954,125.42 721.24048,127.00389 723.94474,127.60483 C 722.06974,127.60483 718.31974,127.60483 716.44474,127.60483 z" style="fill: rgb(0, 0, 0); fill-opacity: 1; stroke: none; stroke-width: 0.354331; stroke-linecap: round; stroke-linejoin: round; stroke-miterlimit: 4; stroke-dasharray: 1.41732, 1.41732; stroke-dashoffset: 0pt; stroke-opacity: 1;"/>
      <path sodipodi:nodetypes="ccsscssccc" id="path5111" d="M 709.16047,110.29113 C 711.86472,109.69019 712.15566,108.1063 712.35969,105.19348 C 711.88979,105.97166 711.03547,106.54594 709.64094,106.54113 C 707.34876,106.53323 705.81339,105.20021 706.35969,102.32238 C 706.91047,99.420932 711.03547,98.295942 712.91047,95.291122 C 714.78547,98.295942 718.91047,99.420932 719.46125,102.32238 C 720.00755,105.20021 718.53546,106.53301 716.18,106.54113 C 714.78547,106.54594 713.93115,105.97166 713.46125,105.19348 C 713.66527,108.1063 713.95621,109.69019 716.66047,110.29113 C 714.78547,110.29113 711.03547,110.29113 709.16047,110.29113 z" style="fill: rgb(0, 0, 0); fill-opacity: 1; stroke: none; stroke-width: 0.354331; stroke-linecap: round; stroke-linejoin: round; stroke-miterlimit: 4; stroke-dasharray: 1.41732, 1.41732; stroke-dashoffset: 0pt; stroke-opacity: 1;"/>
      <path sodipodi:nodetypes="ccsscssccc" id="path5113" d="M 740.9092,98.544175 C 743.61345,97.943235 743.90439,96.359345 744.10842,93.446525 C 743.63852,94.224705 742.7842,94.798985 741.38967,94.794175 C 739.09749,94.786275 737.56212,93.453255 738.10842,90.575425 C 738.6592,87.673985 742.7842,86.548987 744.6592,83.544175 C 746.5342,86.548987 750.6592,87.673985 751.20998,90.575425 C 751.75628,93.453255 750.28419,94.786055 747.92873,94.794175 C 746.5342,94.798985 745.67988,94.224705 745.20998,93.446525 C 745.414,96.359345 745.70494,97.943235 748.4092,98.544175 C 746.5342,98.544175 742.7842,98.544175 740.9092,98.544175 z" style="fill: rgb(0, 0, 0); fill-opacity: 1; stroke: none; stroke-width: 0.354331; stroke-linecap: round; stroke-linejoin: round; stroke-miterlimit: 4; stroke-dasharray: 1.41732, 1.41732; stroke-dashoffset: 0pt; stroke-opacity: 1;"/>
      <path sodipodi:nodetypes="ccsscssccc" id="path5115" d="M 738.2125,79.483514 C 740.91675,78.882574 741.20769,77.298684 741.41172,74.385864 C 740.94182,75.164044 740.0875,75.738324 738.69297,75.733514 C 736.40079,75.725614 734.86542,74.392594 735.41172,71.514764 C 735.9625,68.613324 740.0875,67.488326 741.9625,64.483514 C 743.8375,67.488326 747.9625,68.613324 748.51328,71.514764 C 749.05958,74.392594 747.58749,75.725394 745.23203,75.733514 C 743.8375,75.738324 742.98318,75.164044 742.51328,74.385864 C 742.7173,77.298684 743.00824,78.882574 745.7125,79.483514 C 743.8375,79.483514 740.0875,79.483514 738.2125,79.483514 z" style="fill: rgb(0, 0, 0); fill-opacity: 1; stroke: none; stroke-width: 0.354331; stroke-linecap: round; stroke-linejoin: round; stroke-miterlimit: 4; stroke-dasharray: 1.41732, 1.41732; stroke-dashoffset: 0pt; stroke-opacity: 1;"/>
      <path sodipodi:nodetypes="ccsscssccc" id="path5117" d="M 733.5054,117.52335 C 736.20965,116.92241 736.50059,115.33852 736.70462,112.4257 C 736.23472,113.20388 735.3804,113.77816 733.98587,113.77335 C 731.69369,113.76545 730.15832,112.43243 730.70462,109.5546 C 731.2554,106.65316 735.3804,105.52817 737.2554,102.52335 C 739.1304,105.52817 743.2554,106.65316 743.80618,109.5546 C 744.35248,112.43243 742.88039,113.76523 740.52493,113.77335 C 739.1304,113.77816 738.27608,113.20388 737.80618,112.4257 C 738.0102,115.33852 738.30114,116.92241 741.0054,117.52335 C 739.1304,117.52335 735.3804,117.52335 733.5054,117.52335 z" style="fill: rgb(0, 0, 0); fill-opacity: 1; stroke: none; stroke-width: 0.354331; stroke-linecap: round; stroke-linejoin: round; stroke-miterlimit: 4; stroke-dasharray: 1.41732, 1.41732; stroke-dashoffset: 0pt; stroke-opacity: 1;"/>
      <path id="text5233" d="M 727.85875,25.041268 C 727.85873,26.674613 727.75503,28.165352 727.54764,29.51349 C 727.34021,30.848683 727.06799,31.982941 726.73097,32.916268 C 726.39392,33.849606 725.9791,34.679234 725.48653,35.405157 C 724.99392,36.118122 724.48188,36.688492 723.95042,37.116268 C 723.43188,37.531083 722.85503,37.86812 722.21986,38.127379 C 721.59763,38.399601 721.00781,38.581082 720.45042,38.671824 C 719.893,38.775527 719.30967,38.827378 718.70042,38.827379 C 717.30041,38.827378 716.03004,38.542194 714.88931,37.971824 C 713.74856,37.401454 712.84115,36.610714 712.16708,35.599601 C 711.50597,34.588494 711.15597,33.454236 711.11708,32.196824 L 715.86153,32.196824 C 715.91337,32.935718 716.21152,33.525532 716.75597,33.966268 C 717.30041,34.407012 718.00041,34.627383 718.85597,34.627379 C 721.59115,34.627383 722.95874,32.274607 722.95875,27.569046 C 722.94577,27.582019 722.82911,27.71813 722.60875,27.977379 C 722.38837,28.223685 722.21985,28.405167 722.10319,28.521824 C 721.99948,28.625537 721.79855,28.794055 721.50042,29.027379 C 721.20226,29.260721 720.91059,29.435721 720.62542,29.552379 C 720.35318,29.656091 719.9967,29.759795 719.55597,29.86349 C 719.12818,29.967202 718.67448,30.019054 718.19486,30.019046 C 715.99115,30.019054 714.20226,29.221832 712.82819,27.627379 C 711.45412,26.032947 710.76708,23.958875 710.76708,21.405157 C 710.76708,18.812584 711.53838,16.706104 713.08097,15.085713 C 714.63652,13.465367 716.65226,12.655182 719.12819,12.655157 C 719.67263,12.655182 720.20411,12.700553 720.72264,12.791268 C 721.24115,12.869071 721.79207,13.031108 722.37542,13.277379 C 722.9717,13.5237 723.52262,13.841292 724.02819,14.230157 C 724.5467,14.606106 725.04577,15.118143 725.52542,15.766268 C 726.00503,16.401475 726.41336,17.140363 726.75042,17.982935 C 727.08744,18.825547 727.35318,19.84962 727.54764,21.055157 C 727.75503,22.260728 727.85873,23.589431 727.85875,25.041268 M 718.99208,16.641268 C 717.91615,16.64129 717.05411,17.069067 716.40597,17.924601 C 715.75782,18.767213 715.43374,19.901471 715.43375,21.327379 C 715.43374,22.75332 715.75782,23.881097 716.40597,24.710713 C 717.06708,25.540355 717.96152,25.955169 719.08931,25.955157 C 720.20411,25.955169 721.11152,25.540355 721.81153,24.710713 C 722.51151,23.868134 722.86151,22.766283 722.86153,21.405157 C 722.86151,19.94036 722.51151,18.780176 721.81153,17.924601 C 721.11152,17.069067 720.1717,16.64129 718.99208,16.641268" style="font-size: 35px; font-style: normal; font-variant: normal; font-weight: bold; font-stretch: normal; text-align: start; line-height: 125%; text-anchor: start; fill: rgb(0, 0, 0); fill-opacity: 1; stroke: none; stroke-width: 1px; stroke-linecap: butt; stroke-linejoin: miter; stroke-opacity: 1; font-family: AlMothnna;"/>
    </g>
  </g>
</svg>