<?xml version="1.0" encoding="UTF-8" standalone="no"?>
<!-- Created with Inkscape (http://www.inkscape.org/) -->
<svg xmlns:dc="http://purl.org/dc/elements/1.1/" xmlns:cc="http://creativecommons.org/ns#" xmlns:rdf="http://www.w3.org/1999/02/22-rdf-syntax-ns#" xmlns:svg="http://www.w3.org/2000/svg" xmlns="http://www.w3.org/2000/svg" xmlns:sodipodi="http://sodipodi.sourceforge.net/DTD/sodipodi-0.dtd" xmlns:inkscape="http://www.inkscape.org/namespaces/inkscape" width="90" height="135" id="svg10595" sodipodi:version="0.32" inkscape:version="0.46" version="1.0" sodipodi:docname="spade_4.svg" inkscape:output_extension="org.inkscape.output.svg.inkscape">
  <defs id="defs10597">
    <inkscape:perspective sodipodi:type="inkscape:persp3d" inkscape:vp_x="0 : 526.18109 : 1" inkscape:vp_y="0 : 1000 : 0" inkscape:vp_z="744.09448 : 526.18109 : 1" inkscape:persp3d-origin="372.04724 : 350.78739 : 1" id="perspective10603"/>
  </defs>
  <sodipodi:namedview id="base" pagecolor="#ffffff" bordercolor="#666666" borderopacity="1.0" gridtolerance="10000" guidetolerance="10" objecttolerance="10" inkscape:pageopacity="0.0" inkscape:pageshadow="2" inkscape:zoom="1" inkscape:cx="126" inkscape:cy="58" inkscape:document-units="px" inkscape:current-layer="layer1" showgrid="false" inkscape:window-width="641" inkscape:window-height="719" inkscape:window-x="307" inkscape:window-y="47"/>
  <metadata id="metadata10600">
    <rdf:RDF>
      <cc:Work rdf:about="">
        <dc:format>image/svg+xml</dc:format>
        <dc:type rdf:resource="http://purl.org/dc/dcmitype/StillImage"/>
      </cc:Work>
    </rdf:RDF>
  </metadata>
  <g inkscape:label="Layer 1" inkscape:groupmode="layer" id="layer1" transform="translate(-101.571, -84.8622)">
    <g transform="translate(-96.1538, 77.9643)" id="g10705">
      <g transform="translate(176.868, -3.03572)" id="g4320">
        <rect style="fill: rgb(0, 0, 0); fill-opacity: 1; stroke: none; stroke-width: 3; stroke-linecap: butt; stroke-linejoin: round; stroke-miterlimit: 4; stroke-dasharray: none; stroke-opacity: 1;" id="rect4322" width="90" height="135" x="20.85714" y="9.9336166" ry="14.04"/>
        <rect style="fill: rgb(242, 242, 242); fill-opacity: 1; stroke: none; stroke-width: 3; stroke-linecap: butt; stroke-linejoin: round; stroke-miterlimit: 4; stroke-dasharray: none; stroke-opacity: 1;" id="rect4324" width="80" height="125" x="25.85714" y="14.933617" ry="13"/>
      </g>
      <text sodipodi:linespacing="125%" id="text4400" y="118.782" x="218.325" style="font-size: 80px; font-style: normal; font-variant: normal; font-weight: normal; font-stretch: normal; text-align: start; line-height: 125%; text-anchor: start; fill: rgb(51, 51, 51); fill-opacity: 1; stroke: none; stroke-width: 1px; stroke-linecap: butt; stroke-linejoin: miter; stroke-opacity: 1; font-family: Airmole Stripe;" xml:space="preserve"><tspan y="118.782" x="218.325" id="tspan4402" sodipodi:role="line">4</tspan></text>
      <path sodipodi:nodetypes="ccsscssccc" id="path4903" d="M 210.31513,39.362194 C 214.82223,38.360619 215.30713,35.720812 215.64717,30.866101 C 214.864,32.163082 213.44013,33.120207 211.11592,33.112194 C 207.29562,33.099025 204.73667,30.877319 205.64717,26.080944 C 206.56513,21.245207 213.44013,19.370207 216.56513,14.362194 C 219.69013,19.370207 226.56513,21.245207 227.4831,26.080944 C 228.3936,30.877326 225.94012,33.098662 222.01435,33.112194 C 219.69013,33.120207 218.26627,32.163082 217.4831,30.866101 C 217.82314,35.720812 218.30804,38.360619 222.81513,39.362194 C 219.69013,39.362194 213.44013,39.362194 210.31513,39.362194 z" style="fill: rgb(0, 0, 0); fill-opacity: 1; stroke: none; stroke-width: 0.354331; stroke-linecap: round; stroke-linejoin: round; stroke-miterlimit: 4; stroke-dasharray: 1.41732, 1.41732; stroke-dashoffset: 0pt; stroke-opacity: 1;"/>
      <path sodipodi:nodetypes="ccsscssccc" id="path5041" d="M 214.67697,69.362194 C 217.38122,68.761254 217.67216,67.177364 217.87619,64.264544 C 217.40629,65.042724 216.55197,65.617004 215.15744,65.612194 C 212.86526,65.604294 211.32989,64.271274 211.87619,61.393444 C 212.42697,58.492004 216.55197,57.367006 218.42697,54.362194 C 220.30197,57.367006 224.42697,58.492004 224.97775,61.393444 C 225.52405,64.271274 224.05196,65.604074 221.6965,65.612194 C 220.30197,65.617004 219.44765,65.042724 218.97775,64.264544 C 219.18177,67.177364 219.47271,68.761254 222.17697,69.362194 C 220.30197,69.362194 216.55197,69.362194 214.67697,69.362194 z" style="fill: rgb(0, 0, 0); fill-opacity: 1; stroke: none; stroke-width: 0.354331; stroke-linecap: round; stroke-linejoin: round; stroke-miterlimit: 4; stroke-dasharray: 1.41732, 1.41732; stroke-dashoffset: 0pt; stroke-opacity: 1;"/>
      <path sodipodi:nodetypes="ccsscssccc" id="path5043" d="M 261.67697,77.362194 C 264.38122,76.761254 264.67216,75.177364 264.87619,72.264544 C 264.40629,73.042724 263.55197,73.617004 262.15744,73.612194 C 259.86526,73.604294 258.32989,72.271274 258.87619,69.393444 C 259.42697,66.492004 263.55197,65.367006 265.42697,62.362194 C 267.30197,65.367006 271.42697,66.492004 271.97775,69.393444 C 272.52405,72.271274 271.05196,73.604074 268.6965,73.612194 C 267.30197,73.617004 266.44765,73.042724 265.97775,72.264544 C 266.18177,75.177364 266.47271,76.761254 269.17697,77.362194 C 267.30197,77.362194 263.55197,77.362194 261.67697,77.362194 z" style="fill: rgb(0, 0, 0); fill-opacity: 1; stroke: none; stroke-width: 0.354331; stroke-linecap: round; stroke-linejoin: round; stroke-miterlimit: 4; stroke-dasharray: 1.41732, 1.41732; stroke-dashoffset: 0pt; stroke-opacity: 1;"/>
      <path sodipodi:nodetypes="ccsscssccc" id="path5045" d="M 254.67697,124.36219 C 257.38122,123.76125 257.67216,122.17736 257.87619,119.26454 C 257.40629,120.04272 256.55197,120.617 255.15744,120.61219 C 252.86526,120.60429 251.32989,119.27127 251.87619,116.39344 C 252.42697,113.492 256.55197,112.36701 258.42697,109.36219 C 260.30197,112.36701 264.42697,113.492 264.97775,116.39344 C 265.52405,119.27127 264.05196,120.60407 261.6965,120.61219 C 260.30197,120.617 259.44765,120.04272 258.97775,119.26454 C 259.18177,122.17736 259.47271,123.76125 262.17697,124.36219 C 260.30197,124.36219 256.55197,124.36219 254.67697,124.36219 z" style="fill: rgb(0, 0, 0); fill-opacity: 1; stroke: none; stroke-width: 0.354331; stroke-linecap: round; stroke-linejoin: round; stroke-miterlimit: 4; stroke-dasharray: 1.41732, 1.41732; stroke-dashoffset: 0pt; stroke-opacity: 1;"/>
      <path sodipodi:nodetypes="ccsscssccc" id="path5047" d="M 221.67697,111.36219 C 224.38122,110.76125 224.67216,109.17736 224.87619,106.26454 C 224.40629,107.04272 223.55197,107.617 222.15744,107.61219 C 219.86526,107.60429 218.32989,106.27127 218.87619,103.39344 C 219.42697,100.492 223.55197,99.367006 225.42697,96.362194 C 227.30197,99.367006 231.42697,100.492 231.97775,103.39344 C 232.52405,106.27127 231.05196,107.60407 228.6965,107.61219 C 227.30197,107.617 226.44765,107.04272 225.97775,106.26454 C 226.18177,109.17736 226.47271,110.76125 229.17697,111.36219 C 227.30197,111.36219 223.55197,111.36219 221.67697,111.36219 z" style="fill: rgb(0, 0, 0); fill-opacity: 1; stroke: none; stroke-width: 0.354331; stroke-linecap: round; stroke-linejoin: round; stroke-miterlimit: 4; stroke-dasharray: 1.41732, 1.41732; stroke-dashoffset: 0pt; stroke-opacity: 1;"/>
      <text sodipodi:linespacing="125%" id="text5213" y="38.9468" x="228.117" style="font-size: 35px; font-style: normal; font-variant: normal; font-weight: bold; font-stretch: normal; text-align: start; line-height: 125%; text-anchor: start; fill: rgb(0, 0, 0); fill-opacity: 1; stroke: none; stroke-width: 1px; stroke-linecap: butt; stroke-linejoin: miter; stroke-opacity: 1; font-family: AlMothnna;" xml:space="preserve"><tspan y="38.9468" x="228.117" id="tspan5215" sodipodi:role="line">4</tspan></text>
    </g>
  </g>
</svg>