<?xml version="1.0" encoding="UTF-8" standalone="no"?>
<!-- Created with Inkscape (http://www.inkscape.org/) -->
<svg xmlns:dc="http://purl.org/dc/elements/1.1/" xmlns:cc="http://creativecommons.org/ns#" xmlns:rdf="http://www.w3.org/1999/02/22-rdf-syntax-ns#" xmlns:svg="http://www.w3.org/2000/svg" xmlns="http://www.w3.org/2000/svg" xmlns:sodipodi="http://sodipodi.sourceforge.net/DTD/sodipodi-0.dtd" xmlns:inkscape="http://www.inkscape.org/namespaces/inkscape" width="90" height="135" id="svg16720" sodipodi:version="0.32" inkscape:version="0.46" version="1.0" sodipodi:docname="spade_k.svg" inkscape:output_extension="org.inkscape.output.svg.inkscape">
  <defs id="defs16722">
    <inkscape:perspective sodipodi:type="inkscape:persp3d" inkscape:vp_x="0 : 526.18109 : 1" inkscape:vp_y="0 : 1000 : 0" inkscape:vp_z="744.09448 : 526.18109 : 1" inkscape:persp3d-origin="372.04724 : 350.78739 : 1" id="perspective16728"/>
  </defs>
  <sodipodi:namedview id="base" pagecolor="#ffffff" bordercolor="#666666" borderopacity="1.0" gridtolerance="10000" guidetolerance="10" objecttolerance="10" inkscape:pageopacity="0.0" inkscape:pageshadow="2" inkscape:zoom="1.4" inkscape:cx="1.1905278" inkscape:cy="112.32681" inkscape:document-units="px" inkscape:current-layer="layer1" showgrid="false" inkscape:window-width="641" inkscape:window-height="719" inkscape:window-x="97" inkscape:window-y="47"/>
  <metadata id="metadata16725">
    <rdf:RDF>
      <cc:Work rdf:about="">
        <dc:format>image/svg+xml</dc:format>
        <dc:type rdf:resource="http://purl.org/dc/dcmitype/StillImage"/>
      </cc:Work>
    </rdf:RDF>
  </metadata>
  <g inkscape:label="Layer 1" inkscape:groupmode="layer" id="layer1" transform="translate(-117.857, -330.576)">
    <g transform="translate(-943.275, 323.679)" id="g15807">
      <g transform="translate(1040.27, -3.03572)" id="g4374">
        <rect style="fill: rgb(0, 0, 0); fill-opacity: 1; stroke: none; stroke-width: 3; stroke-linecap: butt; stroke-linejoin: round; stroke-miterlimit: 4; stroke-dasharray: none; stroke-opacity: 1;" id="rect4376" width="90" height="135" x="20.85714" y="9.9336166" ry="14.04"/>
        <rect style="fill: rgb(242, 242, 242); fill-opacity: 1; stroke: none; stroke-width: 3; stroke-linecap: butt; stroke-linejoin: round; stroke-miterlimit: 4; stroke-dasharray: none; stroke-opacity: 1;" id="rect4378" width="80" height="125" x="25.85714" y="14.933617" ry="13"/>
      </g>
      <path sodipodi:nodetypes="ccsscssccc" id="path4921" d="M 1074.1898,39.362194 C 1078.6969,38.360619 1079.1818,35.720812 1079.5218,30.866101 C 1078.7387,32.163082 1077.3148,33.120207 1074.9906,33.112194 C 1071.1703,33.099025 1068.6114,30.877319 1069.5218,26.080944 C 1070.4398,21.245207 1077.3148,19.370207 1080.4398,14.362194 C 1083.5648,19.370207 1090.4398,21.245207 1091.3578,26.080944 C 1092.2683,30.877326 1089.8148,33.098662 1085.889,33.112194 C 1083.5648,33.120207 1082.141,32.163082 1081.3578,30.866101 C 1081.6978,35.720812 1082.1827,38.360619 1086.6898,39.362194 C 1083.5648,39.362194 1077.3148,39.362194 1074.1898,39.362194 z" style="fill: rgb(0, 0, 0); fill-opacity: 1; stroke: none; stroke-width: 0.354331; stroke-linecap: round; stroke-linejoin: round; stroke-miterlimit: 4; stroke-dasharray: 1.41732, 1.41732; stroke-dashoffset: 0pt; stroke-opacity: 1;"/>
      <path sodipodi:nodetypes="ccsscssccc" id="path5147" d="M 1093.6265,93.56727 C 1102.6408,91.564137 1103.6105,86.284501 1104.2906,76.575114 C 1102.7242,79.169049 1099.8765,81.083309 1095.2282,81.067276 C 1087.5875,81.040942 1082.4695,76.597548 1084.2905,67.004778 C 1086.1265,57.333308 1099.8765,53.583313 1106.1266,43.56727 C 1112.3766,53.583313 1126.1266,57.333308 1127.9626,67.004778 C 1129.7836,76.597548 1124.8766,81.040209 1117.025,81.067276 C 1112.3766,81.083309 1109.529,79.169049 1107.9626,76.575114 C 1108.6426,86.284501 1109.6123,91.564137 1118.6266,93.56727 C 1112.3766,93.56727 1099.8765,93.56727 1093.6265,93.56727 z" style="fill: rgb(0, 0, 0); fill-opacity: 1; stroke: none; stroke-width: 0.354331; stroke-linecap: round; stroke-linejoin: round; stroke-miterlimit: 4; stroke-dasharray: 1.41732, 1.41732; stroke-dashoffset: 0pt; stroke-opacity: 1;"/>
      <path id="text4432" d="M 1115.9317,79.982167 C 1115.985,80.248873 1116.0116,80.515539 1116.0117,80.782167 C 1116.065,80.995539 1116.1183,81.235538 1116.1717,81.502167 L 1116.2517,81.342167 C 1110.8116,83.36887 1105.4516,85.422201 1100.1717,87.502167 C 1094.945,89.582197 1089.9583,92.142194 1085.2117,95.182167 L 1085.0517,95.102167 C 1084.945,94.462192 1084.9183,93.822192 1084.9717,93.182167 C 1085.025,92.542194 1084.9983,91.902194 1084.8917,91.262167 L 1084.8917,91.182167 C 1089.905,88.248865 1095.105,85.448867 1100.4917,82.782167 C 1105.9316,80.062206 1111.5316,77.768875 1117.2917,75.902167 C 1117.2916,75.955544 1117.2916,75.98221 1117.2917,75.982167 C 1117.345,75.98221 1117.3716,76.008877 1117.3717,76.062167 C 1117.105,76.488876 1116.8116,76.915543 1116.4917,77.342167 C 1116.225,77.715542 1115.9583,78.115541 1115.6917,78.542167 L 1115.9317,79.982167 M 1083.5317,63.902167 C 1087.2117,63.848889 1090.9183,63.688889 1094.6517,63.422167 C 1098.385,63.155556 1102.1183,62.942223 1105.8517,62.782167 L 1106.0117,62.782167 C 1105.745,65.235554 1105.5316,67.635552 1105.3717,69.982167 C 1105.2116,72.275547 1104.9983,74.622212 1104.7317,77.022167 C 1105.3716,74.622212 1106.0383,72.248881 1106.7317,69.902167 C 1107.4783,67.555552 1108.145,65.182221 1108.7317,62.782167 L 1108.8117,62.702167 C 1111.585,62.80889 1114.3316,62.96889 1117.0517,63.182167 C 1119.7716,63.395556 1122.4916,63.608889 1125.2117,63.822167 C 1124.145,65.582221 1123.0516,67.315552 1121.9317,69.022167 C 1120.8116,70.675549 1119.7983,72.382214 1118.8917,74.142167 C 1112.9183,75.795544 1107.0783,77.928875 1101.3717,80.542167 C 1095.665,83.102203 1090.1983,86.2222 1084.9717,89.902167 L 1084.5717,89.742167 L 1084.5717,88.142167 C 1084.5717,84.195535 1084.465,80.222206 1084.2517,76.222167 C 1084.0917,72.222214 1083.8783,68.195551 1083.6117,64.142167 L 1083.6917,64.062167 L 1083.5317,63.902167 M 1086.4917,119.58217 C 1086.1183,115.84884 1085.8783,112.11551 1085.7717,108.38217 C 1085.7183,104.59551 1085.505,100.78219 1085.1317,96.942167 L 1084.9717,96.702167 C 1087.3717,95.155524 1089.8517,93.742193 1092.4117,92.462167 C 1094.9717,91.182195 1097.5583,90.008863 1100.1717,88.942167 C 1102.8383,87.875532 1105.5316,86.862199 1108.2517,85.902167 C 1110.9716,84.888868 1113.6916,83.902202 1116.4117,82.942167 L 1116.4917,83.022167 C 1117.7716,88.888864 1119.4516,94.568858 1121.5317,100.06217 C 1123.6116,105.50218 1126.0116,110.78218 1128.7317,115.90217 L 1128.5717,115.98217 C 1125.3716,116.72884 1122.145,117.44884 1118.8917,118.14217 C 1115.6916,118.78217 1112.465,119.4755 1109.2117,120.22217 C 1107.4516,118.08883 1106.065,115.7955 1105.0517,113.34217 C 1104.0383,110.83551 1103.185,108.27551 1102.4917,105.66217 C 1102.3316,107.84885 1102.145,110.00884 1101.9317,112.14217 C 1101.7716,114.27551 1101.6383,116.4355 1101.5317,118.62217 L 1101.4517,118.78217 C 1098.945,118.94217 1096.4383,119.12883 1093.9317,119.34217 C 1091.4783,119.50217 1088.9983,119.6355 1086.4917,119.74217 L 1086.4117,119.66217 L 1086.4917,119.58217" style="font-size: 80px; font-style: normal; font-variant: normal; font-weight: normal; font-stretch: normal; text-align: start; line-height: 125%; text-anchor: start; fill: rgb(51, 51, 51); fill-opacity: 1; stroke: none; stroke-width: 1px; stroke-linecap: butt; stroke-linejoin: miter; stroke-opacity: 1; font-family: Airmole Stripe;"/>
      <path id="text5249" d="M 1097.993,30.410712 L 1097.993,38.946823 L 1092.743,38.946823 L 1092.743,13.416268 L 1097.993,13.416268 L 1097.993,24.616268 L 1107.9874,13.416268 L 1114.1707,13.416268 L 1103.9624,24.441268 L 1115.2596,38.946823 L 1108.9791,38.946823 L 1100.618,27.669045 L 1097.993,30.410712" style="font-size: 35px; font-style: normal; font-variant: normal; font-weight: bold; font-stretch: normal; text-align: start; line-height: 125%; text-anchor: start; fill: rgb(0, 0, 0); fill-opacity: 1; stroke: none; stroke-width: 1px; stroke-linecap: butt; stroke-linejoin: miter; stroke-opacity: 1; font-family: AlMothnna;"/>
    </g>
  </g>
</svg>