<?xml version="1.0" encoding="UTF-8" standalone="no"?>
<!-- Created with Inkscape (http://www.inkscape.org/) -->
<svg xmlns:dc="http://purl.org/dc/elements/1.1/" xmlns:cc="http://creativecommons.org/ns#" xmlns:rdf="http://www.w3.org/1999/02/22-rdf-syntax-ns#" xmlns:svg="http://www.w3.org/2000/svg" xmlns="http://www.w3.org/2000/svg" xmlns:sodipodi="http://sodipodi.sourceforge.net/DTD/sodipodi-0.dtd" xmlns:inkscape="http://www.inkscape.org/namespaces/inkscape" width="90" height="135" id="svg10595" sodipodi:version="0.32" inkscape:version="0.46" version="1.0" sodipodi:docname="spade_2.svg" inkscape:output_extension="org.inkscape.output.svg.inkscape">
  <defs id="defs10597">
    <inkscape:perspective sodipodi:type="inkscape:persp3d" inkscape:vp_x="0 : 526.18109 : 1" inkscape:vp_y="0 : 1000 : 0" inkscape:vp_z="744.09448 : 526.18109 : 1" inkscape:persp3d-origin="372.04724 : 350.78739 : 1" id="perspective10603"/>
  </defs>
  <sodipodi:namedview id="base" pagecolor="#ffffff" bordercolor="#666666" borderopacity="1.0" gridtolerance="10000" guidetolerance="10" objecttolerance="10" inkscape:pageopacity="0.0" inkscape:pageshadow="2" inkscape:zoom="1" inkscape:cx="126" inkscape:cy="58" inkscape:document-units="px" inkscape:current-layer="layer1" showgrid="false" inkscape:window-width="946" inkscape:window-height="719" inkscape:window-x="312" inkscape:window-y="70"/>
  <metadata id="metadata10600">
    <rdf:RDF>
      <cc:Work rdf:about="">
        <dc:format>image/svg+xml</dc:format>
        <dc:type rdf:resource="http://purl.org/dc/dcmitype/StillImage"/>
      </cc:Work>
    </rdf:RDF>
  </metadata>
  <g inkscape:label="Layer 1" inkscape:groupmode="layer" id="layer1" transform="translate(-103.571, -84.8622)">
    <g id="g12396">
      <g id="g12384">
        <g id="g12373">
          <g id="g12363">
            <g id="g12354">
              <path id="rect4233" d="M 117.61143,84.862183 L 179.53143,84.862183 C 187.30959,84.862183 193.57143,91.124023 193.57143,98.902183 L 193.57143,205.82218 C 193.57143,213.60034 187.30959,219.86218 179.53143,219.86218 L 117.61143,219.86218 C 109.83327,219.86218 103.57143,213.60034 103.57143,205.82218 L 103.57143,98.902183 C 103.57143,91.124023 109.83327,84.862183 117.61143,84.862183 z" style="fill: rgb(0, 0, 0); fill-opacity: 1; stroke: none; stroke-width: 3; stroke-linecap: butt; stroke-linejoin: round; stroke-miterlimit: 4; stroke-opacity: 1;"/>
              <path id="rect4248" d="M 121.57143,89.862183 L 175.57143,89.862183 C 182.77343,89.862183 188.57143,95.660183 188.57143,102.86218 L 188.57143,201.86218 C 188.57143,209.06418 182.77343,214.86218 175.57143,214.86218 L 121.57143,214.86218 C 114.36943,214.86218 108.57143,209.06418 108.57143,201.86218 L 108.57143,102.86218 C 108.57143,95.660183 114.36943,89.862183 121.57143,89.862183 z" style="fill: rgb(242, 242, 242); fill-opacity: 1; stroke: none; stroke-width: 3; stroke-linecap: butt; stroke-linejoin: round; stroke-miterlimit: 4; stroke-opacity: 1;"/>
              <path id="text4392" d="M 136.33143,171.54646 C 136.11809,171.06649 135.95809,170.58649 135.85143,170.10646 C 135.79809,169.62649 135.69142,169.14649 135.53143,168.66646 L 135.53143,168.34646 C 139.42475,164.23983 143.58475,160.5065 148.01143,157.14646 C 152.43807,153.73317 157.18473,150.69317 162.25143,148.02646 L 162.33143,148.02646 C 163.02473,148.93317 163.58473,149.89317 164.01143,150.90646 C 164.49139,151.8665 164.94473,152.87984 165.37143,153.94646 L 165.45143,153.94646 C 161.4514,156.3465 157.5314,158.79983 153.69143,161.30646 C 149.85141,163.81316 146.14475,166.55982 142.57143,169.54646 L 141.53143,169.46646 C 140.57142,169.46649 139.63809,169.65315 138.73143,170.02646 C 137.87809,170.34649 137.13142,170.87982 136.49143,171.62646 L 136.33143,171.54646 L 136.33143,171.54646 M 129.93143,148.58646 C 132.33143,146.23984 134.97142,144.34651 137.85143,142.90646 C 140.78475,141.41318 143.93141,140.66652 147.29143,140.66646 C 150.06474,140.66652 152.62474,141.19985 154.97143,142.26646 C 157.31807,143.33318 159.4514,144.85318 161.37143,146.82646 C 161.3714,146.87984 161.34473,146.90651 161.29143,146.90646 C 161.2914,146.90651 161.2914,146.93318 161.29143,146.98646 C 156.27807,149.43984 151.55807,152.3465 147.13143,155.70646 C 142.75808,159.0665 138.75809,162.79983 135.13143,166.90646 L 134.97143,166.74646 C 134.06476,163.70649 133.23809,160.71983 132.49143,157.78646 C 131.74476,154.79984 130.91809,151.7865 130.01143,148.74646 L 129.93143,148.58646 M 148.41143,173.94646 L 148.41143,173.78646 C 148.41141,172.77315 148.01141,171.94648 147.21143,171.30646 C 146.46475,170.66649 145.63808,170.21315 144.73143,169.94646 L 144.73143,169.78646 C 148.09141,167.17316 151.53141,164.63983 155.05143,162.18646 C 158.62473,159.73316 162.1714,157.3865 165.69143,155.14646 L 165.85143,155.22646 C 166.27806,156.5065 166.59806,157.8665 166.81143,159.30646 C 167.07806,160.7465 167.21139,162.10649 167.21143,163.38646 L 167.21143,163.54646 C 167.21139,165.89316 166.81139,168.21316 166.01143,170.50646 C 165.26473,172.74648 164.19806,174.82648 162.81143,176.74646 C 161.42473,178.66648 159.7714,180.37314 157.85143,181.86646 C 155.9314,183.30647 153.82474,184.37314 151.53143,185.06646 C 150.89141,185.2798 150.17141,185.49314 149.37143,185.70646 C 148.62474,185.86647 147.87808,186.10647 147.13143,186.42646 C 146.43808,186.74647 145.82475,187.17314 145.29143,187.70646 C 144.81141,188.18647 144.54475,188.85313 144.49143,189.70646 C 144.49141,189.86647 144.49141,190.02647 144.49143,190.18646 C 144.54475,190.34647 144.57141,190.4798 144.57143,190.58646 C 147.45141,190.37313 150.33141,190.10647 153.21143,189.78646 C 156.0914,189.41313 158.9714,188.93313 161.85143,188.34646 L 161.93143,188.42646 C 161.82473,189.81313 161.7714,191.22647 161.77143,192.66646 C 161.7714,194.05313 161.74473,195.43979 161.69143,196.82646 L 161.61143,196.98646 C 157.07807,196.77313 152.54474,196.66646 148.01143,196.66646 C 143.53142,196.66646 138.99809,196.61313 134.41143,196.50646 L 134.33143,196.42646 C 134.27809,196.26646 134.25142,195.97313 134.25143,195.54646 C 134.25142,195.17313 134.27809,194.8798 134.33143,194.66646 C 134.33142,194.45313 134.30476,194.26646 134.25143,194.10646 C 134.25142,193.94646 134.25142,193.7598 134.25143,193.54646 C 134.25142,192.05313 134.46476,190.58647 134.89143,189.14646 C 135.31809,187.65314 135.93142,186.29314 136.73143,185.06646 C 137.58475,183.78647 138.57142,182.66647 139.69143,181.70646 C 140.86475,180.74648 142.17142,179.97314 143.61143,179.38646 C 144.51808,178.85314 145.47808,178.26648 146.49143,177.62646 C 147.55808,176.93315 148.17141,175.97315 148.33143,174.74646 L 148.41143,173.94646" style="font-size: 80px; font-style: normal; font-variant: normal; font-weight: normal; font-stretch: normal; text-align: start; line-height: 125%; text-anchor: start; fill: rgb(51, 51, 51); fill-opacity: 1; stroke: none; stroke-width: 1px; stroke-linecap: butt; stroke-linejoin: miter; stroke-opacity: 1; font-family: Airmole Stripe;"/>
              <path sodipodi:nodetypes="ccsscssccc" id="path3295" d="M 116.05727,117.32648 C 120.56436,116.32491 121.04926,113.6851 121.3893,108.83039 C 120.60613,110.12737 119.18227,111.08449 116.85805,111.07648 C 113.03775,111.06331 110.4788,108.84161 111.3893,104.04523 C 112.30727,99.209493 119.18227,97.334493 122.30727,92.32648 C 125.43227,97.334493 132.30727,99.209493 133.22523,104.04523 C 134.13573,108.84161 131.68225,111.06295 127.75648,111.07648 C 125.43227,111.08449 124.0084,110.12737 123.22523,108.83039 C 123.56527,113.6851 124.05017,116.32491 128.55727,117.32648 C 125.43227,117.32648 119.18227,117.32648 116.05727,117.32648 z" style="fill: rgb(0, 0, 0); fill-opacity: 1; stroke: none; stroke-width: 0.354331; stroke-linecap: round; stroke-linejoin: round; stroke-miterlimit: 4; stroke-dasharray: 1.41732, 1.41732; stroke-dashoffset: 0pt; stroke-opacity: 1;"/>
              <path sodipodi:nodetypes="ccsscssccc" id="path4925" d="M 125.9492,157.32648 C 128.65346,156.72554 128.9444,155.14165 129.14842,152.22883 C 128.67852,153.00701 127.8242,153.58129 126.42967,153.57648 C 124.13749,153.56858 122.60212,152.23556 123.14842,149.35773 C 123.6992,146.45629 127.8242,145.33129 129.6992,142.32648 C 131.5742,145.33129 135.6992,146.45629 136.24998,149.35773 C 136.79628,152.23556 135.32419,153.56836 132.96873,153.57648 C 131.5742,153.58129 130.71988,153.00701 130.24998,152.22883 C 130.45401,155.14165 130.74495,156.72554 133.4492,157.32648 C 131.5742,157.32648 127.8242,157.32648 125.9492,157.32648 z" style="fill: rgb(0, 0, 0); fill-opacity: 1; stroke: none; stroke-width: 0.354331; stroke-linecap: round; stroke-linejoin: round; stroke-miterlimit: 4; stroke-dasharray: 1.41732, 1.41732; stroke-dashoffset: 0pt; stroke-opacity: 1;"/>
              <path sodipodi:nodetypes="ccsscssccc" id="path5033" d="M 159.39126,204.32648 C 162.09551,203.72554 162.38645,202.14165 162.59048,199.22883 C 162.12058,200.00701 161.26626,200.58129 159.87173,200.57648 C 157.57955,200.56858 156.04418,199.23556 156.59048,196.35773 C 157.14126,193.45629 161.26626,192.3313 163.14126,189.32648 C 165.01626,192.3313 169.14126,193.45629 169.69204,196.35773 C 170.23834,199.23556 168.76625,200.56836 166.41079,200.57648 C 165.01626,200.58129 164.16194,200.00701 163.69204,199.22883 C 163.89606,202.14165 164.187,203.72554 166.89126,204.32648 C 165.01626,204.32648 161.26626,204.32648 159.39126,204.32648 z" style="fill: rgb(0, 0, 0); fill-opacity: 1; stroke: none; stroke-width: 0.354331; stroke-linecap: round; stroke-linejoin: round; stroke-miterlimit: 4; stroke-dasharray: 1.41732, 1.41732; stroke-dashoffset: 0pt; stroke-opacity: 1;"/>
              <path id="text5205" d="M 151.21733,99.449999 C 151.21731,100.46113 151.06176,101.40094 150.75067,102.26944 C 150.43954,103.13798 150.01824,103.88983 149.48678,104.525 C 148.95528,105.1602 148.36547,105.75649 147.71733,106.31389 C 147.06917,106.85834 146.38862,107.37686 145.67567,107.86944 C 144.96269,108.34908 144.28862,108.81575 143.65344,109.26944 C 143.01825,109.72315 142.42195,110.23519 141.86455,110.80555 C 141.3201,111.36297 140.91177,111.93334 140.63955,112.51667 L 151.13955,112.51667 L 151.13955,116.91111 L 134.26178,116.91111 C 134.39141,114.62963 134.85807,112.81482 135.66178,111.46667 C 136.46548,110.10556 137.91085,108.69908 139.99789,107.24722 C 141.89047,105.92501 143.26454,104.87501 144.12011,104.09722 C 144.97565,103.31946 145.55251,102.60649 145.85067,101.95833 C 146.16176,101.3102 146.31732,100.5065 146.31733,99.547221 C 146.31732,98.302795 146.00621,97.330574 145.384,96.630554 C 144.76177,95.917612 143.90621,95.561131 142.81733,95.56111 C 141.70251,95.561131 140.83399,95.943538 140.21178,96.708332 C 139.60251,97.473166 139.29788,98.54261 139.29789,99.916665 L 139.29789,100.73333 L 134.61178,100.73333 C 134.58585,100.47409 134.57289,100.1889 134.57289,99.877777 C 134.57289,97.246315 135.29233,95.20465 136.73122,93.752777 C 138.17011,92.300949 140.17288,91.575024 142.73955,91.574999 C 145.3451,91.575024 147.40621,92.287986 148.92289,93.713888 C 150.4525,95.126872 151.21731,97.038908 151.21733,99.449999" style="font-size: 35px; font-style: normal; font-variant: normal; font-weight: bold; font-stretch: normal; text-align: start; line-height: 125%; text-anchor: start; fill: rgb(0, 0, 0); fill-opacity: 1; stroke: none; stroke-width: 1px; stroke-linecap: butt; stroke-linejoin: miter; stroke-opacity: 1; font-family: AlMothnna;"/>
            </g>
          </g>
        </g>
      </g>
    </g>
  </g>
</svg>