<?xml version="1.0" encoding="UTF-8" standalone="no"?>
<!-- Created with Inkscape (http://www.inkscape.org/) -->
<svg xmlns:dc="http://purl.org/dc/elements/1.1/" xmlns:cc="http://creativecommons.org/ns#" xmlns:rdf="http://www.w3.org/1999/02/22-rdf-syntax-ns#" xmlns:svg="http://www.w3.org/2000/svg" xmlns="http://www.w3.org/2000/svg" xmlns:sodipodi="http://sodipodi.sourceforge.net/DTD/sodipodi-0.dtd" xmlns:inkscape="http://www.inkscape.org/namespaces/inkscape" width="90" height="135" id="svg16720" sodipodi:version="0.32" inkscape:version="0.46" version="1.0" sodipodi:docname="spade_7.svg" inkscape:output_extension="org.inkscape.output.svg.inkscape">
  <defs id="defs16722">
    <inkscape:perspective sodipodi:type="inkscape:persp3d" inkscape:vp_x="0 : 526.18109 : 1" inkscape:vp_y="0 : 1000 : 0" inkscape:vp_z="744.09448 : 526.18109 : 1" inkscape:persp3d-origin="372.04724 : 350.78739 : 1" id="perspective16728"/>
  </defs>
  <sodipodi:namedview id="base" pagecolor="#ffffff" bordercolor="#666666" borderopacity="1.0" gridtolerance="10000" guidetolerance="10" objecttolerance="10" inkscape:pageopacity="0.0" inkscape:pageshadow="2" inkscape:zoom="1.4" inkscape:cx="1.1905278" inkscape:cy="112.32681" inkscape:document-units="px" inkscape:current-layer="layer1" showgrid="false" inkscape:window-width="641" inkscape:window-height="719" inkscape:window-x="619" inkscape:window-y="47"/>
  <metadata id="metadata16725">
    <rdf:RDF>
      <cc:Work rdf:about="">
        <dc:format>image/svg+xml</dc:format>
        <dc:type rdf:resource="http://purl.org/dc/dcmitype/StillImage"/>
      </cc:Work>
    </rdf:RDF>
  </metadata>
  <g inkscape:label="Layer 1" inkscape:groupmode="layer" id="layer1" transform="translate(-117.857, -330.576)">
    <g transform="translate(-367.67, 323.679)" id="g13802">
      <g transform="translate(464.67, -3.03572)" id="g4338">
        <rect style="fill: rgb(0, 0, 0); fill-opacity: 1; stroke: none; stroke-width: 3; stroke-linecap: butt; stroke-linejoin: round; stroke-miterlimit: 4; stroke-dasharray: none; stroke-opacity: 1;" id="rect4340" width="90" height="135" x="20.85714" y="9.9336166" ry="14.04"/>
        <rect style="fill: rgb(242, 242, 242); fill-opacity: 1; stroke: none; stroke-width: 3; stroke-linecap: butt; stroke-linejoin: round; stroke-miterlimit: 4; stroke-dasharray: none; stroke-opacity: 1;" id="rect4342" width="80" height="125" x="25.85714" y="14.933617" ry="13"/>
      </g>
      <path id="text4408" d="M 548.2074,77.342177 C 547.94069,78.088884 547.7007,78.862217 547.4874,79.662177 C 547.32736,80.408882 547.11403,81.155548 546.8474,81.902177 L 547.0074,81.902177 C 542.47403,83.768879 538.0207,85.688877 533.6474,87.662177 C 529.27405,89.582206 525.08738,91.92887 521.0874,94.702177 C 519.70072,94.755534 518.34072,94.808868 517.0074,94.862177 C 515.67406,94.915534 514.31406,94.968867 512.9274,95.022177 L 513.0874,94.862177 C 515.64739,92.835536 518.34072,90.995538 521.1674,89.342177 C 524.04739,87.688875 526.98072,86.168876 529.9674,84.782177 C 532.95404,83.342212 535.96737,82.00888 539.0074,80.782177 C 542.04737,79.55555 545.08736,78.382217 548.1274,77.262177 L 548.2074,77.342177 M 517.8074,118.54218 C 518.28739,114.70218 518.90072,110.86218 519.6474,107.02218 C 520.39406,103.12886 521.38072,99.342196 522.6074,95.662177 C 526.12738,93.102203 529.88738,90.915538 533.8874,89.102177 C 537.9407,87.235542 542.04737,85.448877 546.2074,83.742177 L 546.2074,83.822177 C 544.3407,89.795539 542.39403,95.768867 540.3674,101.74218 C 538.3407,107.66219 536.12737,113.44885 533.7274,119.10218 L 533.7274,119.18218 C 531.00738,118.96884 528.36738,118.86218 525.8074,118.86218 C 523.24739,118.86218 520.60739,118.75551 517.8874,118.54218 L 517.8074,118.54218 M 508.8474,63.502177 C 515.99406,63.395566 523.19405,63.235566 530.4474,63.022177 C 537.75404,62.8089 545.0607,62.702233 552.3674,62.702177 L 552.4474,62.782177 C 551.80736,64.968897 551.19402,67.128895 550.6074,69.262177 C 550.02069,71.395558 549.40736,73.555556 548.7674,75.742177 L 548.5274,75.742177 C 545.16736,76.968885 541.80737,78.222218 538.4474,79.502177 C 535.08737,80.728882 531.78071,82.115547 528.5274,83.662177 C 525.32738,85.155544 522.18072,86.862209 519.0874,88.782177 C 515.99406,90.648872 513.06073,92.782203 510.2874,95.182177 L 509.8874,95.182177 L 508.6874,95.342177 C 508.74073,93.955535 508.7674,92.595536 508.7674,91.262177 C 508.7674,89.928872 508.7674,88.59554 508.7674,87.262177 C 508.7674,83.742212 508.74073,80.275549 508.6874,76.862177 C 508.63407,73.395556 508.6074,69.902226 508.6074,66.382177 L 508.6874,63.822177 L 508.8474,63.502177" style="font-size: 80px; font-style: normal; font-variant: normal; font-weight: normal; font-stretch: normal; text-align: start; line-height: 125%; text-anchor: start; fill: rgb(51, 51, 51); fill-opacity: 1; stroke: none; stroke-width: 1px; stroke-linecap: butt; stroke-linejoin: miter; stroke-opacity: 1; font-family: Airmole Stripe;"/>
      <path sodipodi:nodetypes="ccsscssccc" id="path4909" d="M 498.27335,39.362194 C 502.78045,38.360619 503.26535,35.720812 503.60539,30.866101 C 502.82222,32.163082 501.39835,33.120207 499.07414,33.112194 C 495.25384,33.099025 492.69489,30.877319 493.60539,26.080944 C 494.52335,21.245207 501.39835,19.370207 504.52335,14.362194 C 507.64835,19.370207 514.52335,21.245207 515.44132,26.080944 C 516.35182,30.877326 513.89834,33.098662 509.97257,33.112194 C 507.64835,33.120207 506.22449,32.163082 505.44132,30.866101 C 505.78136,35.720812 506.26626,38.360619 510.77335,39.362194 C 507.64835,39.362194 501.39835,39.362194 498.27335,39.362194 z" style="fill: rgb(0, 0, 0); fill-opacity: 1; stroke: none; stroke-width: 0.354331; stroke-linecap: round; stroke-linejoin: round; stroke-miterlimit: 4; stroke-dasharray: 1.41732, 1.41732; stroke-dashoffset: 0pt; stroke-opacity: 1;"/>
      <path sodipodi:nodetypes="ccsscssccc" id="path5071" d="M 506.67697,71.362194 C 509.38122,70.761254 509.67216,69.177364 509.87619,66.264544 C 509.40629,67.042724 508.55197,67.617004 507.15744,67.612194 C 504.86526,67.604294 503.32989,66.271274 503.87619,63.393444 C 504.42697,60.492004 508.55197,59.367006 510.42697,56.362194 C 512.30197,59.367006 516.42697,60.492004 516.97775,63.393444 C 517.52405,66.271274 516.05196,67.604074 513.6965,67.612194 C 512.30197,67.617004 511.44765,67.042724 510.97775,66.264544 C 511.18177,69.177364 511.47271,70.761254 514.17697,71.362194 C 512.30197,71.362194 508.55197,71.362194 506.67697,71.362194 z" style="fill: rgb(0, 0, 0); fill-opacity: 1; stroke: none; stroke-width: 0.354331; stroke-linecap: round; stroke-linejoin: round; stroke-miterlimit: 4; stroke-dasharray: 1.41732, 1.41732; stroke-dashoffset: 0pt; stroke-opacity: 1;"/>
      <path sodipodi:nodetypes="ccsscssccc" id="path5073" d="M 551.67697,70.362194 C 554.38122,69.761254 554.67216,68.177364 554.87619,65.264544 C 554.40629,66.042724 553.55197,66.617004 552.15744,66.612194 C 549.86526,66.604294 548.32989,65.271274 548.87619,62.393444 C 549.42697,59.492004 553.55197,58.367006 555.42697,55.362194 C 557.30197,58.367006 561.42697,59.492004 561.97775,62.393444 C 562.52405,65.271274 561.05196,66.604074 558.6965,66.612194 C 557.30197,66.617004 556.44765,66.042724 555.97775,65.264544 C 556.18177,68.177364 556.47271,69.761254 559.17697,70.362194 C 557.30197,70.362194 553.55197,70.362194 551.67697,70.362194 z" style="fill: rgb(0, 0, 0); fill-opacity: 1; stroke: none; stroke-width: 0.354331; stroke-linecap: round; stroke-linejoin: round; stroke-miterlimit: 4; stroke-dasharray: 1.41732, 1.41732; stroke-dashoffset: 0pt; stroke-opacity: 1;"/>
      <path sodipodi:nodetypes="ccsscssccc" id="path5075" d="M 534.67697,126.36219 C 537.38122,125.76125 537.67216,124.17736 537.87619,121.26454 C 537.40629,122.04272 536.55197,122.617 535.15744,122.61219 C 532.86526,122.60429 531.32989,121.27127 531.87619,118.39344 C 532.42697,115.492 536.55197,114.36701 538.42697,111.36219 C 540.30197,114.36701 544.42697,115.492 544.97775,118.39344 C 545.52405,121.27127 544.05196,122.60407 541.6965,122.61219 C 540.30197,122.617 539.44765,122.04272 538.97775,121.26454 C 539.18177,124.17736 539.47271,125.76125 542.17697,126.36219 C 540.30197,126.36219 536.55197,126.36219 534.67697,126.36219 z" style="fill: rgb(0, 0, 0); fill-opacity: 1; stroke: none; stroke-width: 0.354331; stroke-linecap: round; stroke-linejoin: round; stroke-miterlimit: 4; stroke-dasharray: 1.41732, 1.41732; stroke-dashoffset: 0pt; stroke-opacity: 1;"/>
      <path sodipodi:nodetypes="ccsscssccc" id="path5077" d="M 513.67697,127.36219 C 516.38122,126.76125 516.67216,125.17736 516.87619,122.26454 C 516.40629,123.04272 515.55197,123.617 514.15744,123.61219 C 511.86526,123.60429 510.32989,122.27127 510.87619,119.39344 C 511.42697,116.492 515.55197,115.36701 517.42697,112.36219 C 519.30197,115.36701 523.42697,116.492 523.97775,119.39344 C 524.52405,122.27127 523.05196,123.60407 520.6965,123.61219 C 519.30197,123.617 518.44765,123.04272 517.97775,122.26454 C 518.18177,125.17736 518.47271,126.76125 521.17697,127.36219 C 519.30197,127.36219 515.55197,127.36219 513.67697,127.36219 z" style="fill: rgb(0, 0, 0); fill-opacity: 1; stroke: none; stroke-width: 0.354331; stroke-linecap: round; stroke-linejoin: round; stroke-miterlimit: 4; stroke-dasharray: 1.41732, 1.41732; stroke-dashoffset: 0pt; stroke-opacity: 1;"/>
      <path sodipodi:nodetypes="ccsscssccc" id="path5079" d="M 542.67697,98.362194 C 545.38122,97.761254 545.67216,96.177364 545.87619,93.264544 C 545.40629,94.042724 544.55197,94.617004 543.15744,94.612194 C 540.86526,94.604294 539.32989,93.271274 539.87619,90.393444 C 540.42697,87.492004 544.55197,86.367006 546.42697,83.362194 C 548.30197,86.367006 552.42697,87.492004 552.97775,90.393444 C 553.52405,93.271274 552.05196,94.604074 549.6965,94.612194 C 548.30197,94.617004 547.44765,94.042724 546.97775,93.264544 C 547.18177,96.177364 547.47271,97.761254 550.17697,98.362194 C 548.30197,98.362194 544.55197,98.362194 542.67697,98.362194 z" style="fill: rgb(0, 0, 0); fill-opacity: 1; stroke: none; stroke-width: 0.354331; stroke-linecap: round; stroke-linejoin: round; stroke-miterlimit: 4; stroke-dasharray: 1.41732, 1.41732; stroke-dashoffset: 0pt; stroke-opacity: 1;"/>
      <path sodipodi:nodetypes="ccsscssccc" id="path5081" d="M 527.67697,66.36219 C 530.38122,65.76125 530.67216,64.17736 530.87619,61.264544 C 530.40629,62.042724 529.55197,62.617004 528.15744,62.612194 C 525.86526,62.604294 524.32989,61.271274 524.87619,58.393444 C 525.42697,55.492004 529.55197,54.367006 531.42697,51.362194 C 533.30197,54.367006 537.42697,55.492004 537.97775,58.393444 C 538.52405,61.271274 537.05196,62.604074 534.6965,62.612194 C 533.30197,62.617004 532.44765,62.042724 531.97775,61.264544 C 532.18177,64.17736 532.47271,65.76125 535.17697,66.36219 C 533.30197,66.36219 529.55197,66.36219 527.67697,66.36219 z" style="fill: rgb(0, 0, 0); fill-opacity: 1; stroke: none; stroke-width: 0.354331; stroke-linecap: round; stroke-linejoin: round; stroke-miterlimit: 4; stroke-dasharray: 1.41732, 1.41732; stroke-dashoffset: 0pt; stroke-opacity: 1;"/>
      <path sodipodi:nodetypes="ccsscssccc" id="path5083" d="M 501.67697,100.36219 C 504.38122,99.761254 504.67216,98.177364 504.87619,95.264544 C 504.40629,96.042724 503.55197,96.617004 502.15744,96.612194 C 499.86526,96.604294 498.32989,95.271274 498.87619,92.393444 C 499.42697,89.492004 503.55197,88.367006 505.42697,85.362194 C 507.30197,88.367006 511.42697,89.492004 511.97775,92.393444 C 512.52405,95.271274 511.05196,96.604074 508.6965,96.612194 C 507.30197,96.617004 506.44765,96.042724 505.97775,95.264544 C 506.18177,98.177364 506.47271,99.761254 509.17697,100.36219 C 507.30197,100.36219 503.55197,100.36219 501.67697,100.36219 z" style="fill: rgb(0, 0, 0); fill-opacity: 1; stroke: none; stroke-width: 0.354331; stroke-linecap: round; stroke-linejoin: round; stroke-miterlimit: 4; stroke-dasharray: 1.41732, 1.41732; stroke-dashoffset: 0pt; stroke-opacity: 1;"/>
      <path id="text5225" d="M 535.34722,14.116268 L 535.34722,17.985712 C 532.40461,21.537581 530.2398,24.940356 528.85278,28.194045 C 527.47869,31.447757 526.68147,35.032012 526.46111,38.946823 L 521.54167,38.946823 C 521.86574,36.315344 522.27407,34.085717 522.76667,32.257934 C 523.25925,30.430165 523.93333,28.615352 524.78889,26.81349 C 525.26851,25.724614 526.10462,24.272764 527.29722,22.457934 C 528.50277,20.643138 529.48795,19.327398 530.25278,18.510712 L 517.90556,18.510712 L 517.90556,14.116268 L 535.34722,14.116268" style="font-size: 35px; font-style: normal; font-variant: normal; font-weight: bold; font-stretch: normal; text-align: start; line-height: 125%; text-anchor: start; fill: rgb(0, 0, 0); fill-opacity: 1; stroke: none; stroke-width: 1px; stroke-linecap: butt; stroke-linejoin: miter; stroke-opacity: 1; font-family: AlMothnna;"/>
    </g>
  </g>
</svg>