<?xml version="1.0" encoding="UTF-8" standalone="no"?>
<!-- Created with Inkscape (http://www.inkscape.org/) -->
<svg xmlns:dc="http://purl.org/dc/elements/1.1/" xmlns:cc="http://creativecommons.org/ns#" xmlns:rdf="http://www.w3.org/1999/02/22-rdf-syntax-ns#" xmlns:svg="http://www.w3.org/2000/svg" xmlns="http://www.w3.org/2000/svg" xmlns:sodipodi="http://sodipodi.sourceforge.net/DTD/sodipodi-0.dtd" xmlns:inkscape="http://www.inkscape.org/namespaces/inkscape" width="90" height="135" id="svg16720" sodipodi:version="0.32" inkscape:version="0.46" version="1.0" sodipodi:docname="spade_a.svg" inkscape:output_extension="org.inkscape.output.svg.inkscape">
  <defs id="defs16722">
    <inkscape:perspective sodipodi:type="inkscape:persp3d" inkscape:vp_x="0 : 526.18109 : 1" inkscape:vp_y="0 : 1000 : 0" inkscape:vp_z="744.09448 : 526.18109 : 1" inkscape:persp3d-origin="372.04724 : 350.78739 : 1" id="perspective16728"/>
  </defs>
  <sodipodi:namedview id="base" pagecolor="#ffffff" bordercolor="#666666" borderopacity="1.0" gridtolerance="10000" guidetolerance="10" objecttolerance="10" inkscape:pageopacity="0.0" inkscape:pageshadow="2" inkscape:zoom="1.4" inkscape:cx="1.1905278" inkscape:cy="112.32681" inkscape:document-units="px" inkscape:current-layer="layer1" showgrid="false" inkscape:window-width="641" inkscape:window-height="719" inkscape:window-x="97" inkscape:window-y="47"/>
  <metadata id="metadata16725">
    <rdf:RDF>
      <cc:Work rdf:about="">
        <dc:format>image/svg+xml</dc:format>
        <dc:type rdf:resource="http://purl.org/dc/dcmitype/StillImage"/>
      </cc:Work>
    </rdf:RDF>
  </metadata>
  <g inkscape:label="Layer 1" inkscape:groupmode="layer" id="layer1" transform="translate(-117.857, -330.576)">
    <g transform="translate(-1039.21, 323.679)" id="g15827">
      <g transform="translate(1136.21, -3.03572)" id="g4380">
        <rect style="fill: rgb(0, 0, 0); fill-opacity: 1; stroke: none; stroke-width: 3; stroke-linecap: butt; stroke-linejoin: round; stroke-miterlimit: 4; stroke-dasharray: none; stroke-opacity: 1;" id="rect4382" width="90" height="135" x="20.85714" y="9.9336166" ry="14.04"/>
        <rect style="fill: rgb(242, 242, 242); fill-opacity: 1; stroke: none; stroke-width: 3; stroke-linecap: butt; stroke-linejoin: round; stroke-miterlimit: 4; stroke-dasharray: none; stroke-opacity: 1;" id="rect4384" width="80" height="125" x="25.85714" y="14.933617" ry="13"/>
      </g>
      <path sodipodi:nodetypes="ccsscssccc" id="path4923" d="M 1170.1759,39.362194 C 1174.683,38.360619 1175.1679,35.720812 1175.5079,30.866101 C 1174.7248,32.163082 1173.3009,33.120207 1170.9767,33.112194 C 1167.1564,33.099025 1164.5975,30.877319 1165.5079,26.080944 C 1166.4259,21.245207 1173.3009,19.370207 1176.4259,14.362194 C 1179.5509,19.370207 1186.4259,21.245207 1187.3439,26.080944 C 1188.2544,30.877326 1185.8009,33.098662 1181.8751,33.112194 C 1179.5509,33.120207 1178.1271,32.163082 1177.3439,30.866101 C 1177.6839,35.720812 1178.1688,38.360619 1182.6759,39.362194 C 1179.5509,39.362194 1173.3009,39.362194 1170.1759,39.362194 z" style="fill: rgb(0, 0, 0); fill-opacity: 1; stroke: none; stroke-width: 0.354331; stroke-linecap: round; stroke-linejoin: round; stroke-miterlimit: 4; stroke-dasharray: 1.41732, 1.41732; stroke-dashoffset: 0pt; stroke-opacity: 1;"/>
      <path sodipodi:nodetypes="ccsscssccc" id="path5145" d="M 1189.5605,93.56727 C 1198.5748,91.564137 1199.5445,86.284501 1200.2246,76.575114 C 1198.6582,79.169049 1195.8105,81.083309 1191.1622,81.067276 C 1183.5215,81.040942 1178.4035,76.597548 1180.2245,67.004778 C 1182.0605,57.333308 1195.8105,53.583313 1202.0606,43.56727 C 1208.3106,53.583313 1222.0606,57.333308 1223.8966,67.004778 C 1225.7176,76.597548 1220.8106,81.040209 1212.959,81.067276 C 1208.3106,81.083309 1205.463,79.169049 1203.8966,76.575114 C 1204.5766,86.284501 1205.5463,91.564137 1214.5606,93.56727 C 1208.3106,93.56727 1195.8105,93.56727 1189.5605,93.56727 z" style="fill: rgb(0, 0, 0); fill-opacity: 1; stroke: none; stroke-width: 0.354331; stroke-linecap: round; stroke-linejoin: round; stroke-miterlimit: 4; stroke-dasharray: 1.41732, 1.41732; stroke-dashoffset: 0pt; stroke-opacity: 1;"/>
      <path id="text4436" d="M 1212.5858,85.582177 C 1212.8524,86.435545 1213.1724,87.262211 1213.5458,88.062177 C 1213.9191,88.862209 1214.2658,89.662208 1214.5858,90.462177 L 1214.5058,90.622177 C 1209.6525,90.782207 1204.9058,91.47554 1200.2658,92.702177 C 1195.6258,93.875537 1191.2525,95.928869 1187.1458,98.862177 L 1186.9858,98.782177 C 1187.3591,98.035533 1187.6525,97.288867 1187.8658,96.542177 C 1188.1325,95.795535 1188.3991,95.022203 1188.6658,94.222177 C 1192.5058,92.195539 1196.3991,90.462207 1200.3458,89.022177 C 1204.2925,87.528877 1208.3458,86.355545 1212.5058,85.502177 L 1212.5858,85.582177 L 1212.5858,85.582177 M 1202.6658,62.702177 C 1204.2658,66.382231 1205.8658,69.955561 1207.4658,73.422177 C 1209.0658,76.888888 1210.5858,80.462217 1212.0258,84.142177 L 1211.9458,84.142177 C 1208.1058,84.88888 1204.3458,85.928879 1200.6658,87.262177 C 1197.0391,88.595543 1193.4658,90.142208 1189.9458,91.902177 L 1189.6258,91.982177 C 1191.8658,87.022211 1194.0258,82.115549 1196.1058,77.262177 C 1198.1858,72.355559 1200.3458,67.528897 1202.5858,62.782177 L 1202.6658,62.702177 M 1178.1858,121.66218 C 1179.5725,118.30218 1180.8791,114.88885 1182.1058,111.42218 C 1183.3858,107.95552 1184.7458,104.51553 1186.1858,101.10218 C 1188.1058,99.662198 1190.2125,98.382199 1192.5058,97.262177 C 1194.8525,96.088868 1197.2791,95.102203 1199.7858,94.302177 C 1202.2925,93.502204 1204.8258,92.888872 1207.3858,92.462177 C 1209.9991,92.035539 1212.5591,91.822206 1215.0658,91.822177 L 1214.9858,91.662177 C 1217.0124,96.888868 1218.8791,102.08886 1220.5858,107.26218 C 1222.3458,112.43552 1224.1324,117.60885 1225.9458,122.78218 L 1225.7058,122.94218 C 1222.2924,123.10217 1218.8258,123.18217 1215.3058,123.18218 C 1211.7858,123.18217 1208.2125,123.20884 1204.5858,123.26218 L 1204.5058,123.18218 C 1204.0258,121.47551 1203.5725,119.76884 1203.1458,118.06218 C 1202.7191,116.30218 1202.2658,114.56885 1201.7858,112.86218 L 1199.6258,121.98218 L 1199.7058,121.82218 L 1178.1858,121.82218 L 1178.1858,121.66218" style="font-size: 80px; font-style: normal; font-variant: normal; font-weight: normal; font-stretch: normal; text-align: start; line-height: 125%; text-anchor: start; fill: rgb(51, 51, 51); fill-opacity: 1; stroke: none; stroke-width: 1px; stroke-linecap: butt; stroke-linejoin: miter; stroke-opacity: 1; font-family: Airmole Stripe;"/>
      <path id="text5253" d="M 1202.4385,33.81349 L 1192.8719,33.81349 L 1191.1608,38.946823 L 1185.8135,38.946823 L 1194.8941,13.416268 L 1200.6691,13.416268 L 1209.4969,38.946823 L 1204.1302,38.946823 L 1202.4385,33.81349 M 1200.9997,29.419045 L 1197.6941,19.444045 L 1194.3497,29.419045 L 1200.9997,29.419045" style="font-size: 35px; font-style: normal; font-variant: normal; font-weight: bold; font-stretch: normal; text-align: start; line-height: 125%; text-anchor: start; fill: rgb(0, 0, 0); fill-opacity: 1; stroke: none; stroke-width: 1px; stroke-linecap: butt; stroke-linejoin: miter; stroke-opacity: 1; font-family: AlMothnna;"/>
    </g>
  </g>
</svg>