<?xml version="1.0" encoding="UTF-8" standalone="no"?>
<!-- Created with Inkscape (http://www.inkscape.org/) -->
<svg xmlns:dc="http://purl.org/dc/elements/1.1/" xmlns:cc="http://creativecommons.org/ns#" xmlns:rdf="http://www.w3.org/1999/02/22-rdf-syntax-ns#" xmlns:svg="http://www.w3.org/2000/svg" xmlns="http://www.w3.org/2000/svg" xmlns:sodipodi="http://sodipodi.sourceforge.net/DTD/sodipodi-0.dtd" xmlns:inkscape="http://www.inkscape.org/namespaces/inkscape" width="90" height="135" id="svg16720" sodipodi:version="0.32" inkscape:version="0.46" version="1.0" sodipodi:docname="spade_8.svg" inkscape:output_extension="org.inkscape.output.svg.inkscape">
  <defs id="defs16722">
    <inkscape:perspective sodipodi:type="inkscape:persp3d" inkscape:vp_x="0 : 526.18109 : 1" inkscape:vp_y="0 : 1000 : 0" inkscape:vp_z="744.09448 : 526.18109 : 1" inkscape:persp3d-origin="372.04724 : 350.78739 : 1" id="perspective16728"/>
  </defs>
  <sodipodi:namedview id="base" pagecolor="#ffffff" bordercolor="#666666" borderopacity="1.0" gridtolerance="10000" guidetolerance="10" objecttolerance="10" inkscape:pageopacity="0.0" inkscape:pageshadow="2" inkscape:zoom="1.4" inkscape:cx="1.1905278" inkscape:cy="112.32681" inkscape:document-units="px" inkscape:current-layer="layer1" showgrid="false" inkscape:window-width="641" inkscape:window-height="719" inkscape:window-x="619" inkscape:window-y="47"/>
  <metadata id="metadata16725">
    <rdf:RDF>
      <cc:Work rdf:about="">
        <dc:format>image/svg+xml</dc:format>
        <dc:type rdf:resource="http://purl.org/dc/dcmitype/StillImage"/>
      </cc:Work>
    </rdf:RDF>
  </metadata>
  <g inkscape:label="Layer 1" inkscape:groupmode="layer" id="layer1" transform="translate(-117.857, -330.576)">
    <g transform="translate(-463.604, 323.679)" id="g13835">
      <g transform="translate(560.604, -3.03572)" id="g4344">
        <rect style="fill: rgb(0, 0, 0); fill-opacity: 1; stroke: none; stroke-width: 3; stroke-linecap: butt; stroke-linejoin: round; stroke-miterlimit: 4; stroke-dasharray: none; stroke-opacity: 1;" id="rect4346" width="90" height="135" x="20.85714" y="9.9336166" ry="14.04"/>
        <rect style="fill: rgb(242, 242, 242); fill-opacity: 1; stroke: none; stroke-width: 3; stroke-linecap: butt; stroke-linejoin: round; stroke-miterlimit: 4; stroke-dasharray: none; stroke-opacity: 1;" id="rect4348" width="80" height="125" x="25.85714" y="14.933617" ry="13"/>
      </g>
      <path id="text4412" d="M 649.02143,76.862166 L 649.90143,79.342166 C 645.90138,81.208872 641.95472,82.942203 638.06143,84.542166 C 634.22139,86.088867 630.40806,87.822198 626.62143,89.742166 L 626.54143,89.662166 C 626.5414,89.182197 626.51473,88.702198 626.46143,88.222166 C 626.4614,87.742199 626.4614,87.262199 626.46143,86.782166 L 626.54143,85.982166 C 630.27473,84.222202 633.92806,82.542204 637.50143,80.942166 C 641.12805,79.288874 644.94138,77.902208 648.94143,76.782166 L 649.02143,76.862166 M 626.38143,86.222166 C 626.27473,86.808866 626.24807,87.422199 626.30143,88.062166 C 626.35473,88.702198 626.32807,89.31553 626.22143,89.902166 L 626.14143,89.822166 C 619.74141,93.12886 614.03475,97.342189 609.02143,102.46217 L 608.86143,102.46217 C 608.27475,101.92885 607.71475,101.36885 607.18143,100.78217 C 606.70142,100.14219 606.24809,99.502187 605.82143,98.862166 L 605.74143,98.782166 C 608.94142,96.06219 612.32808,93.742193 615.90143,91.822166 C 619.47474,89.902196 622.9414,88.008865 626.30143,86.142166 L 626.38143,86.222166 L 626.38143,86.222166 M 612.54143,112.06217 C 612.54141,110.99551 612.75475,110.00884 613.18143,109.10217 C 613.66141,108.14218 614.27475,107.31551 615.02143,106.62217 C 613.20808,105.82218 611.55475,104.78218 610.06143,103.50217 L 610.06143,103.34217 C 612.40808,100.88885 614.94141,98.728854 617.66143,96.862166 C 620.38141,94.942191 623.20807,93.182193 626.14143,91.582166 L 626.38143,91.422166 C 626.11473,96.488856 625.92807,101.50218 625.82143,106.46217 C 625.71473,111.42217 625.55473,116.32884 625.34143,121.18217 L 625.26143,121.26217 C 623.92807,121.20883 622.5414,120.96883 621.10143,120.54217 C 619.66141,120.16883 618.32807,119.60883 617.10143,118.86217 C 615.87474,118.1155 614.83474,117.18217 613.98143,116.06217 C 613.12808,114.94217 612.64808,113.60884 612.54143,112.06217 M 627.66143,121.18217 C 627.5014,116.16884 627.31473,111.20884 627.10143,106.30217 C 626.88807,101.34218 626.72807,96.355523 626.62143,91.342166 L 626.70143,91.422166 C 630.5414,89.342197 634.51473,87.368866 638.62143,85.502166 C 642.72805,83.582203 646.64805,82.008871 650.38143,80.782166 L 650.46143,80.862166 C 650.62138,81.608871 650.75471,82.355537 650.86143,83.102166 C 650.96804,83.848869 651.02138,84.595535 651.02143,85.342166 L 651.02143,86.622166 C 651.02138,88.808864 650.67471,90.915529 649.98143,92.942166 C 649.34138,94.915525 648.43471,96.782189 647.26143,98.542166 C 646.14138,100.30219 644.75471,101.87552 643.10143,103.26217 C 641.50138,104.64885 639.74139,105.79551 637.82143,106.70217 C 638.56805,107.39551 639.18139,108.19551 639.66143,109.10217 C 640.19472,110.00884 640.46139,110.96884 640.46143,111.98217 C 640.35472,113.52884 639.87472,114.88884 639.02143,116.06217 C 638.22139,117.18217 637.18139,118.1155 635.90143,118.86217 C 634.67472,119.60883 633.34139,120.16883 631.90143,120.54217 C 630.4614,120.96883 629.07473,121.20883 627.74143,121.26217 L 627.66143,121.18217 L 627.66143,121.18217 M 626.38143,84.062166 C 622.5414,85.928867 618.86141,87.982198 615.34143,90.222166 C 611.87475,92.462194 608.59475,95.022191 605.50143,97.902166 L 605.34143,97.902166 C 603.04809,94.222192 601.90142,90.248863 601.90143,85.982166 L 601.90143,85.742166 C 601.90142,82.595537 602.56809,79.63554 603.90143,76.862166 C 605.28809,74.035546 607.07475,71.582215 609.26143,69.502166 C 611.50141,67.422219 614.03475,65.768887 616.86143,64.542166 C 619.74141,63.315556 622.67474,62.702224 625.66143,62.702166 L 626.30143,62.702166 C 628.5414,62.755557 630.7814,63.075557 633.02143,63.662166 C 635.26139,64.248889 637.34139,65.102221 639.26143,66.222166 C 641.23472,67.288886 642.99472,68.622218 644.54143,70.222166 C 646.14138,71.822214 647.42138,73.662213 648.38143,75.742166 L 648.30143,75.902166 C 644.51472,76.968876 640.78139,78.195541 637.10143,79.582166 C 633.47473,80.968872 629.92806,82.462204 626.46143,84.062166 L 626.38143,84.062166" style="font-size: 80px; font-style: normal; font-variant: normal; font-weight: normal; font-stretch: normal; text-align: start; line-height: 125%; text-anchor: start; fill: rgb(51, 51, 51); fill-opacity: 1; stroke: none; stroke-width: 1px; stroke-linecap: butt; stroke-linejoin: miter; stroke-opacity: 1; font-family: Airmole Stripe;"/>
      <path sodipodi:nodetypes="ccsscssccc" id="path4911" d="M 594.25941,39.362194 C 598.76651,38.360619 599.25141,35.720812 599.59145,30.866101 C 598.80828,32.163082 597.38441,33.120207 595.0602,33.112194 C 591.2399,33.099025 588.68095,30.877319 589.59145,26.080944 C 590.50941,21.245207 597.38441,19.370207 600.50941,14.362194 C 603.63441,19.370207 610.50941,21.245207 611.42738,26.080944 C 612.33788,30.877326 609.8844,33.098662 605.95863,33.112194 C 603.63441,33.120207 602.21055,32.163082 601.42738,30.866101 C 601.76742,35.720812 602.25232,38.360619 606.75941,39.362194 C 603.63441,39.362194 597.38441,39.362194 594.25941,39.362194 z" style="fill: rgb(0, 0, 0); fill-opacity: 1; stroke: none; stroke-width: 0.354331; stroke-linecap: round; stroke-linejoin: round; stroke-miterlimit: 4; stroke-dasharray: 1.41732, 1.41732; stroke-dashoffset: 0pt; stroke-opacity: 1;"/>
      <path sodipodi:nodetypes="ccsscssccc" id="path5085" d="M 621.67697,68.362194 C 624.38122,67.761254 624.67216,66.177364 624.87619,63.264544 C 624.40629,64.042724 623.55197,64.617004 622.15744,64.612194 C 619.86526,64.604294 618.32989,63.271274 618.87619,60.393444 C 619.42697,57.492004 623.55197,56.367006 625.42697,53.362194 C 627.30197,56.367006 631.42697,57.492004 631.97775,60.393444 C 632.52405,63.271274 631.05196,64.604074 628.6965,64.612194 C 627.30197,64.617004 626.44765,64.042724 625.97775,63.264544 C 626.18177,66.177364 626.47271,67.761254 629.17697,68.362194 C 627.30197,68.362194 623.55197,68.362194 621.67697,68.362194 z" style="fill: rgb(0, 0, 0); fill-opacity: 1; stroke: none; stroke-width: 0.354331; stroke-linecap: round; stroke-linejoin: round; stroke-miterlimit: 4; stroke-dasharray: 1.41732, 1.41732; stroke-dashoffset: 0pt; stroke-opacity: 1;"/>
      <path sodipodi:nodetypes="ccsscssccc" id="path5087" d="M 601.67697,79.362194 C 604.38122,78.761254 604.67216,77.177364 604.87619,74.264544 C 604.40629,75.042724 603.55197,75.617004 602.15744,75.612194 C 599.86526,75.604294 598.32989,74.271274 598.87619,71.393444 C 599.42697,68.492004 603.55197,67.367006 605.42697,64.362194 C 607.30197,67.367006 611.42697,68.492004 611.97775,71.393444 C 612.52405,74.271274 611.05196,75.604074 608.6965,75.612194 C 607.30197,75.617004 606.44765,75.042724 605.97775,74.264544 C 606.18177,77.177364 606.47271,78.761254 609.17697,79.362194 C 607.30197,79.362194 603.55197,79.362194 601.67697,79.362194 z" style="fill: rgb(0, 0, 0); fill-opacity: 1; stroke: none; stroke-width: 0.354331; stroke-linecap: round; stroke-linejoin: round; stroke-miterlimit: 4; stroke-dasharray: 1.41732, 1.41732; stroke-dashoffset: 0pt; stroke-opacity: 1;"/>
      <path sodipodi:nodetypes="ccsscssccc" id="path5089" d="M 598.67697,99.362194 C 601.38122,98.761254 601.67216,97.177364 601.87619,94.264544 C 601.40629,95.042724 600.55197,95.617004 599.15744,95.612194 C 596.86526,95.604294 595.32989,94.271274 595.87619,91.393444 C 596.42697,88.492004 600.55197,87.367006 602.42697,84.362194 C 604.30197,87.367006 608.42697,88.492004 608.97775,91.393444 C 609.52405,94.271274 608.05196,95.604074 605.6965,95.612194 C 604.30197,95.617004 603.44765,95.042724 602.97775,94.264544 C 603.18177,97.177364 603.47271,98.761254 606.17697,99.362194 C 604.30197,99.362194 600.55197,99.362194 598.67697,99.362194 z" style="fill: rgb(0, 0, 0); fill-opacity: 1; stroke: none; stroke-width: 0.354331; stroke-linecap: round; stroke-linejoin: round; stroke-miterlimit: 4; stroke-dasharray: 1.41732, 1.41732; stroke-dashoffset: 0pt; stroke-opacity: 1;"/>
      <path sodipodi:nodetypes="ccsscssccc" id="path5091" d="M 610.67697,126.36219 C 613.38122,125.76125 613.67216,124.17736 613.87619,121.26454 C 613.40629,122.04272 612.55197,122.617 611.15744,122.61219 C 608.86526,122.60429 607.32989,121.27127 607.87619,118.39344 C 608.42697,115.492 612.55197,114.36701 614.42697,111.36219 C 616.30197,114.36701 620.42697,115.492 620.97775,118.39344 C 621.52405,121.27127 620.05196,122.60407 617.6965,122.61219 C 616.30197,122.617 615.44765,122.04272 614.97775,121.26454 C 615.18177,124.17736 615.47271,125.76125 618.17697,126.36219 C 616.30197,126.36219 612.55197,126.36219 610.67697,126.36219 z" style="fill: rgb(0, 0, 0); fill-opacity: 1; stroke: none; stroke-width: 0.354331; stroke-linecap: round; stroke-linejoin: round; stroke-miterlimit: 4; stroke-dasharray: 1.41732, 1.41732; stroke-dashoffset: 0pt; stroke-opacity: 1;"/>
      <path sodipodi:nodetypes="ccsscssccc" id="path5093" d="M 641.67697,76.362194 C 644.38122,75.761254 644.67216,74.177364 644.87619,71.264544 C 644.40629,72.042724 643.55197,72.617004 642.15744,72.612194 C 639.86526,72.604294 638.32989,71.271274 638.87619,68.393444 C 639.42697,65.492004 643.55197,64.367006 645.42697,61.362194 C 647.30197,64.367006 651.42697,65.492004 651.97775,68.393444 C 652.52405,71.271274 651.05196,72.604074 648.6965,72.612194 C 647.30197,72.617004 646.44765,72.042724 645.97775,71.264544 C 646.18177,74.177364 646.47271,75.761254 649.17697,76.362194 C 647.30197,76.362194 643.55197,76.362194 641.67697,76.362194 z" style="fill: rgb(0, 0, 0); fill-opacity: 1; stroke: none; stroke-width: 0.354331; stroke-linecap: round; stroke-linejoin: round; stroke-miterlimit: 4; stroke-dasharray: 1.41732, 1.41732; stroke-dashoffset: 0pt; stroke-opacity: 1;"/>
      <path sodipodi:nodetypes="ccsscssccc" id="path5095" d="M 646.67697,97.362194 C 649.38122,96.761254 649.67216,95.177364 649.87619,92.264544 C 649.40629,93.042724 648.55197,93.617004 647.15744,93.612194 C 644.86526,93.604294 643.32989,92.271274 643.87619,89.393444 C 644.42697,86.492004 648.55197,85.367006 650.42697,82.362194 C 652.30197,85.367006 656.42697,86.492004 656.97775,89.393444 C 657.52405,92.271274 656.05196,93.604074 653.6965,93.612194 C 652.30197,93.617004 651.44765,93.042724 650.97775,92.264544 C 651.18177,95.177364 651.47271,96.761254 654.17697,97.362194 C 652.30197,97.362194 648.55197,97.362194 646.67697,97.362194 z" style="fill: rgb(0, 0, 0); fill-opacity: 1; stroke: none; stroke-width: 0.354331; stroke-linecap: round; stroke-linejoin: round; stroke-miterlimit: 4; stroke-dasharray: 1.41732, 1.41732; stroke-dashoffset: 0pt; stroke-opacity: 1;"/>
      <path sodipodi:nodetypes="ccsscssccc" id="path5097" d="M 622.67697,96.36219 C 625.38122,95.76125 625.67216,94.17736 625.87619,91.26454 C 625.40629,92.04272 624.55197,92.617 623.15744,92.61219 C 620.86526,92.60429 619.32989,91.27127 619.87619,88.39344 C 620.42697,85.492004 624.55197,84.367006 626.42697,81.362194 C 628.30197,84.367006 632.42697,85.492004 632.97775,88.39344 C 633.52405,91.27127 632.05196,92.60407 629.6965,92.61219 C 628.30197,92.617 627.44765,92.04272 626.97775,91.26454 C 627.18177,94.17736 627.47271,95.76125 630.17697,96.36219 C 628.30197,96.36219 624.55197,96.36219 622.67697,96.36219 z" style="fill: rgb(0, 0, 0); fill-opacity: 1; stroke: none; stroke-width: 0.354331; stroke-linecap: round; stroke-linejoin: round; stroke-miterlimit: 4; stroke-dasharray: 1.41732, 1.41732; stroke-dashoffset: 0pt; stroke-opacity: 1;"/>
      <path sodipodi:nodetypes="ccsscssccc" id="path5099" d="M 635.67697,126.36219 C 638.38122,125.76125 638.67216,124.17736 638.87619,121.26454 C 638.40629,122.04272 637.55197,122.617 636.15744,122.61219 C 633.86526,122.60429 632.32989,121.27127 632.87619,118.39344 C 633.42697,115.492 637.55197,114.36701 639.42697,111.36219 C 641.30197,114.36701 645.42697,115.492 645.97775,118.39344 C 646.52405,121.27127 645.05196,122.60407 642.6965,122.61219 C 641.30197,122.617 640.44765,122.04272 639.97775,121.26454 C 640.18177,124.17736 640.47271,125.76125 643.17697,126.36219 C 641.30197,126.36219 637.55197,126.36219 635.67697,126.36219 z" style="fill: rgb(0, 0, 0); fill-opacity: 1; stroke: none; stroke-width: 0.354331; stroke-linecap: round; stroke-linejoin: round; stroke-miterlimit: 4; stroke-dasharray: 1.41732, 1.41732; stroke-dashoffset: 0pt; stroke-opacity: 1;"/>
      <path id="text5229" d="M 630.92939,19.407935 C 630.92937,20.315361 630.76734,21.119063 630.44328,21.819047 C 630.13215,22.506099 629.75623,23.044062 629.3155,23.432935 C 628.88771,23.808876 628.35623,24.171838 627.72106,24.521824 C 629.14697,25.286652 630.17752,26.174614 630.81273,27.185713 C 631.46086,28.196834 631.78493,29.434796 631.78495,30.899602 C 631.78493,33.245903 630.96178,35.157938 629.3155,36.635713 C 627.68216,38.100528 625.56919,38.832935 622.97661,38.832935 C 620.38401,38.832935 618.26457,38.100528 616.61828,36.635713 C 614.98495,35.157938 614.16828,33.245903 614.16828,30.899602 C 614.16828,29.421833 614.48587,28.183871 615.12106,27.185713 C 615.75624,26.174614 616.7868,25.286652 618.21273,24.521824 C 617.08494,23.925542 616.26828,23.232024 615.76273,22.441269 C 615.25717,21.637581 615.00439,20.645916 615.00439,19.466269 C 615.00439,17.508882 615.75624,15.894995 617.25995,14.624602 C 618.76365,13.341293 620.6692,12.699627 622.97661,12.699602 C 625.28401,12.699627 627.18308,13.334812 628.67384,14.605158 C 630.17752,15.87555 630.92937,17.476474 630.92939,19.407935 M 622.99606,16.666269 C 621.90716,16.66629 621.0192,16.964438 620.33217,17.560713 C 619.65809,18.157029 619.32105,18.928325 619.32106,19.874602 C 619.32105,20.833879 619.66457,21.618137 620.35161,22.22738 C 621.03864,22.836654 621.92012,23.141284 622.99606,23.141269 C 624.07197,23.141284 624.95345,22.843136 625.6405,22.246824 C 626.34049,21.637581 626.69049,20.859804 626.6905,19.913491 C 626.69049,18.941288 626.34697,18.157029 625.65995,17.560713 C 624.98586,16.964438 624.0979,16.66629 622.99606,16.666269 M 622.95717,26.485713 C 621.77753,26.485725 620.83124,26.86165 620.11828,27.613491 C 619.41827,28.35239 619.06828,29.350537 619.06828,30.607935 C 619.06828,31.839423 619.41827,32.818126 620.11828,33.544047 C 620.83124,34.269976 621.77753,34.632939 622.95717,34.632935 C 624.13679,34.632939 625.08308,34.276458 625.79606,33.563491 C 626.52197,32.83757 626.88493,31.878312 626.88495,30.685713 C 626.88493,29.389426 626.52845,28.365352 625.8155,27.613491 C 625.11549,26.86165 624.16271,26.485725 622.95717,26.485713" style="font-size: 35px; font-style: normal; font-variant: normal; font-weight: bold; font-stretch: normal; text-align: start; line-height: 125%; text-anchor: start; fill: rgb(0, 0, 0); fill-opacity: 1; stroke: none; stroke-width: 1px; stroke-linecap: butt; stroke-linejoin: miter; stroke-opacity: 1; font-family: AlMothnna;"/>
    </g>
  </g>
</svg>