<?xml version="1.0" encoding="UTF-8" standalone="no"?>
<!-- Created with Inkscape (http://www.inkscape.org/) -->
<svg xmlns:dc="http://purl.org/dc/elements/1.1/" xmlns:cc="http://creativecommons.org/ns#" xmlns:rdf="http://www.w3.org/1999/02/22-rdf-syntax-ns#" xmlns:svg="http://www.w3.org/2000/svg" xmlns="http://www.w3.org/2000/svg" xmlns:sodipodi="http://sodipodi.sourceforge.net/DTD/sodipodi-0.dtd" xmlns:inkscape="http://www.inkscape.org/namespaces/inkscape" width="90" height="135" id="svg10595" sodipodi:version="0.32" inkscape:version="0.46" version="1.0" sodipodi:docname="spade_3.svg" inkscape:output_extension="org.inkscape.output.svg.inkscape">
  <defs id="defs10597">
    <inkscape:perspective sodipodi:type="inkscape:persp3d" inkscape:vp_x="0 : 526.18109 : 1" inkscape:vp_y="0 : 1000 : 0" inkscape:vp_z="744.09448 : 526.18109 : 1" inkscape:persp3d-origin="372.04724 : 350.78739 : 1" id="perspective10603"/>
  </defs>
  <sodipodi:namedview id="base" pagecolor="#ffffff" bordercolor="#666666" borderopacity="1.0" gridtolerance="10000" guidetolerance="10" objecttolerance="10" inkscape:pageopacity="0.0" inkscape:pageshadow="2" inkscape:zoom="1" inkscape:cx="126" inkscape:cy="58" inkscape:document-units="px" inkscape:current-layer="layer1" showgrid="false" inkscape:window-width="641" inkscape:window-height="719" inkscape:window-x="307" inkscape:window-y="47"/>
  <metadata id="metadata10600">
    <rdf:RDF>
      <cc:Work rdf:about="">
        <dc:format>image/svg+xml</dc:format>
        <dc:type rdf:resource="http://purl.org/dc/dcmitype/StillImage"/>
      </cc:Work>
    </rdf:RDF>
  </metadata>
  <g inkscape:label="Layer 1" inkscape:groupmode="layer" id="layer1" transform="translate(-100.571, -84.3622)">
    <g transform="translate(-1.21976, 77.4643)" id="g10692">
      <g transform="translate(80.9341, -3.03572)" id="g4314">
        <rect style="fill: rgb(0, 0, 0); fill-opacity: 1; stroke: none; stroke-width: 3; stroke-linecap: butt; stroke-linejoin: round; stroke-miterlimit: 4; stroke-dasharray: none; stroke-opacity: 1;" id="rect4316" width="90" height="135" x="20.85714" y="9.9336166" ry="14.04"/>
        <rect style="fill: rgb(242, 242, 242); fill-opacity: 1; stroke: none; stroke-width: 3; stroke-linecap: butt; stroke-linejoin: round; stroke-miterlimit: 4; stroke-dasharray: none; stroke-opacity: 1;" id="rect4318" width="80" height="125" x="25.85714" y="14.933617" ry="13"/>
      </g>
      <text sodipodi:linespacing="125%" id="text4396" y="119.182" x="127.591" style="font-size: 80px; font-style: normal; font-variant: normal; font-weight: normal; font-stretch: normal; text-align: start; line-height: 125%; text-anchor: start; fill: rgb(51, 51, 51); fill-opacity: 1; stroke: none; stroke-width: 1px; stroke-linecap: butt; stroke-linejoin: miter; stroke-opacity: 1; font-family: Airmole Stripe;" xml:space="preserve"><tspan y="119.182" x="127.591" id="tspan4398" sodipodi:role="line">3</tspan></text>
      <path sodipodi:nodetypes="ccsscssccc" id="path4901" d="M 114.32905,39.362194 C 118.83615,38.360619 119.32105,35.720812 119.66109,30.866101 C 118.87792,32.163082 117.45405,33.120207 115.12984,33.112194 C 111.30954,33.099025 108.75059,30.877319 109.66109,26.080944 C 110.57905,21.245207 117.45405,19.370207 120.57905,14.362194 C 123.70405,19.370207 130.57905,21.245207 131.49702,26.080944 C 132.40752,30.877326 129.95404,33.098662 126.02827,33.112194 C 123.70405,33.120207 122.28019,32.163082 121.49702,30.866101 C 121.83706,35.720812 122.32196,38.360619 126.82905,39.362194 C 123.70405,39.362194 117.45405,39.362194 114.32905,39.362194 z" style="fill: rgb(0, 0, 0); fill-opacity: 1; stroke: none; stroke-width: 0.354331; stroke-linecap: round; stroke-linejoin: round; stroke-miterlimit: 4; stroke-dasharray: 1.41732, 1.41732; stroke-dashoffset: 0pt; stroke-opacity: 1;"/>
      <path sodipodi:nodetypes="ccsscssccc" id="path5035" d="M 123.67697,75.362194 C 126.38122,74.761254 126.67216,73.177364 126.87619,70.264544 C 126.40629,71.042724 125.55197,71.617004 124.15744,71.612194 C 121.86526,71.604294 120.32989,70.271274 120.87619,67.393444 C 121.42697,64.492004 125.55197,63.367006 127.42697,60.362194 C 129.30197,63.367006 133.42697,64.492004 133.97775,67.393444 C 134.52405,70.271274 133.05196,71.604074 130.6965,71.612194 C 129.30197,71.617004 128.44765,71.042724 127.97775,70.264544 C 128.18177,73.177364 128.47271,74.761254 131.17697,75.362194 C 129.30197,75.362194 125.55197,75.362194 123.67697,75.362194 z" style="fill: rgb(0, 0, 0); fill-opacity: 1; stroke: none; stroke-width: 0.354331; stroke-linecap: round; stroke-linejoin: round; stroke-miterlimit: 4; stroke-dasharray: 1.41732, 1.41732; stroke-dashoffset: 0pt; stroke-opacity: 1;"/>
      <path sodipodi:nodetypes="ccsscssccc" id="path5037" d="M 160.67697,101.36219 C 163.38122,100.76125 163.67216,99.177364 163.87619,96.264544 C 163.40629,97.042724 162.55197,97.617004 161.15744,97.612194 C 158.86526,97.604294 157.32989,96.271274 157.87619,93.393444 C 158.42697,90.492004 162.55197,89.367006 164.42697,86.362194 C 166.30197,89.367006 170.42697,90.492004 170.97775,93.393444 C 171.52405,96.271274 170.05196,97.604074 167.6965,97.612194 C 166.30197,97.617004 165.44765,97.042724 164.97775,96.264544 C 165.18177,99.177364 165.47271,100.76125 168.17697,101.36219 C 166.30197,101.36219 162.55197,101.36219 160.67697,101.36219 z" style="fill: rgb(0, 0, 0); fill-opacity: 1; stroke: none; stroke-width: 0.354331; stroke-linecap: round; stroke-linejoin: round; stroke-miterlimit: 4; stroke-dasharray: 1.41732, 1.41732; stroke-dashoffset: 0pt; stroke-opacity: 1;"/>
      <path sodipodi:nodetypes="ccsscssccc" id="path5039" d="M 130.67697,124.36219 C 133.38122,123.76125 133.67216,122.17736 133.87619,119.26454 C 133.40629,120.04272 132.55197,120.617 131.15744,120.61219 C 128.86526,120.60429 127.32989,119.27127 127.87619,116.39344 C 128.42697,113.492 132.55197,112.36701 134.42697,109.36219 C 136.30197,112.36701 140.42697,113.492 140.97775,116.39344 C 141.52405,119.27127 140.05196,120.60407 137.6965,120.61219 C 136.30197,120.617 135.44765,120.04272 134.97775,119.26454 C 135.18177,122.17736 135.47271,123.76125 138.17697,124.36219 C 136.30197,124.36219 132.55197,124.36219 130.67697,124.36219 z" style="fill: rgb(0, 0, 0); fill-opacity: 1; stroke: none; stroke-width: 0.354331; stroke-linecap: round; stroke-linejoin: round; stroke-miterlimit: 4; stroke-dasharray: 1.41732, 1.41732; stroke-dashoffset: 0pt; stroke-opacity: 1;"/>
      <text sodipodi:linespacing="125%" id="text5209" y="38.0357" x="131.802" style="font-size: 35px; font-style: normal; font-variant: normal; font-weight: bold; font-stretch: normal; text-align: start; line-height: 125%; text-anchor: start; fill: rgb(0, 0, 0); fill-opacity: 1; stroke: none; stroke-width: 1px; stroke-linecap: butt; stroke-linejoin: miter; stroke-opacity: 1; font-family: AlMothnna;" xml:space="preserve"><tspan y="38.0357" x="131.802" id="tspan5211" sodipodi:role="line">3</tspan></text>
    </g>
  </g>
</svg>