<?xml version="1.0" encoding="UTF-8" standalone="no"?>
<!-- Created with Inkscape (http://www.inkscape.org/) -->
<svg xmlns:dc="http://purl.org/dc/elements/1.1/" xmlns:cc="http://creativecommons.org/ns#" xmlns:rdf="http://www.w3.org/1999/02/22-rdf-syntax-ns#" xmlns:svg="http://www.w3.org/2000/svg" xmlns="http://www.w3.org/2000/svg" xmlns:sodipodi="http://sodipodi.sourceforge.net/DTD/sodipodi-0.dtd" xmlns:inkscape="http://www.inkscape.org/namespaces/inkscape" width="90" height="135" id="svg16720" sodipodi:version="0.32" inkscape:version="0.46" version="1.0" sodipodi:docname="spade_10.svg" inkscape:output_extension="org.inkscape.output.svg.inkscape">
  <defs id="defs16722">
    <inkscape:perspective sodipodi:type="inkscape:persp3d" inkscape:vp_x="0 : 526.18109 : 1" inkscape:vp_y="0 : 1000 : 0" inkscape:vp_z="744.09448 : 526.18109 : 1" inkscape:persp3d-origin="372.04724 : 350.78739 : 1" id="perspective16728"/>
  </defs>
  <sodipodi:namedview id="base" pagecolor="#ffffff" bordercolor="#666666" borderopacity="1.0" gridtolerance="10000" guidetolerance="10" objecttolerance="10" inkscape:pageopacity="0.0" inkscape:pageshadow="2" inkscape:zoom="1.4" inkscape:cx="1.1905278" inkscape:cy="112.32681" inkscape:document-units="px" inkscape:current-layer="layer1" showgrid="false" inkscape:window-width="641" inkscape:window-height="719" inkscape:window-x="97" inkscape:window-y="47"/>
  <metadata id="metadata16725">
    <rdf:RDF>
      <cc:Work rdf:about="">
        <dc:format>image/svg+xml</dc:format>
        <dc:type rdf:resource="http://purl.org/dc/dcmitype/StillImage"/>
      </cc:Work>
    </rdf:RDF>
  </metadata>
  <g inkscape:label="Layer 1" inkscape:groupmode="layer" id="layer1" transform="translate(-117.857, -330.576)">
    <g transform="translate(-655.473, 323.679)" id="g15742">
      <g transform="translate(752.473, -3.03572)" id="g4356">
        <rect style="fill: rgb(0, 0, 0); fill-opacity: 1; stroke: none; stroke-width: 3; stroke-linecap: butt; stroke-linejoin: round; stroke-miterlimit: 4; stroke-dasharray: none; stroke-opacity: 1;" id="rect4358" width="90" height="135" x="20.85714" y="9.9336166" ry="14.04"/>
        <rect style="fill: rgb(242, 242, 242); fill-opacity: 1; stroke: none; stroke-width: 3; stroke-linecap: butt; stroke-linejoin: round; stroke-miterlimit: 4; stroke-dasharray: none; stroke-opacity: 1;" id="rect4360" width="80" height="125" x="25.85714" y="14.933617" ry="13"/>
      </g>
      <path id="text4420" d="M 784.3908,93.42218 C 784.33746,92.622207 784.28413,91.848874 784.2308,91.10218 C 784.23079,90.355543 784.20413,89.58221 784.1508,88.78218 L 784.1508,88.62218 C 787.61746,85.102215 791.35079,82.008884 795.3508,79.34218 C 799.40411,76.622223 803.51077,74.142225 807.6708,71.90218 L 807.7508,71.98218 C 807.6441,73.208893 807.5641,74.462225 807.5108,75.74218 C 807.45744,77.022223 807.37744,78.275555 807.2708,79.50218 L 807.1908,79.74218 C 803.24411,81.608885 799.37744,83.662216 795.5908,85.90218 C 791.85745,88.088878 788.23079,90.622209 784.7108,93.50218 L 784.3908,93.42218 L 784.3908,93.42218 M 783.1108,64.78218 C 787.32412,64.355569 791.51079,64.008902 795.6708,63.74218 C 799.88411,63.475569 804.07077,63.128903 808.2308,62.70218 L 808.3108,62.78218 C 808.25744,64.008902 808.17744,65.262234 808.0708,66.54218 C 807.9641,67.768899 807.91077,68.995564 807.9108,70.22218 C 803.69744,72.568894 799.59078,75.048891 795.5908,77.66218 C 791.59079,80.275553 787.80412,83.288883 784.2308,86.70218 L 784.0708,86.62218 C 783.91079,82.888883 783.75079,79.208887 783.5908,75.58218 C 783.43079,71.955561 783.24413,68.355565 783.0308,64.78218 L 783.1108,64.70218 L 783.1108,64.78218 M 788.7908,119.90218 C 788.36412,115.52885 788.12412,111.10219 788.0708,106.62218 C 788.01746,102.1422 787.83079,97.688869 787.5108,93.26218 L 787.5908,93.10218 C 790.63079,90.862209 793.77745,88.782211 797.0308,86.86218 C 800.33744,84.942215 803.67077,83.07555 807.0308,81.26218 L 806.7908,81.34218 C 806.5241,87.742212 806.17744,94.035539 805.7508,100.22218 C 805.32411,106.35553 804.73744,112.56885 803.9908,118.86218 L 803.9108,119.02218 C 801.35078,119.23551 798.81744,119.44885 796.3108,119.66218 C 793.85745,119.82218 791.37745,119.98218 788.8708,120.14218 L 788.7908,119.90218 M 832.2683,88.54218 C 832.21494,88.755544 832.18827,89.075544 832.1883,89.50218 C 832.18827,89.768877 832.18827,90.06221 832.1883,90.38218 C 832.24161,90.648876 832.26827,90.915542 832.2683,91.18218 C 832.26827,91.608875 832.24161,91.928874 832.1883,92.14218 L 832.1883,92.06218 C 828.82828,94.142205 825.65495,96.462203 822.6683,99.02218 C 819.68162,101.52886 816.88162,104.27553 814.2683,107.26218 L 814.1083,107.18218 C 813.84163,106.75553 813.65496,106.32886 813.5483,105.90218 C 813.44163,105.47553 813.28163,105.04886 813.0683,104.62218 L 812.9883,104.62218 C 815.92162,101.4222 818.98829,98.488868 822.1883,95.82218 C 825.38828,93.15554 828.69494,90.702209 832.1083,88.46218 L 832.2683,88.54218 L 832.2683,88.54218 M 851.0683,78.22218 C 851.22825,78.755554 851.41492,79.288887 851.6283,79.82218 C 851.84159,80.302219 852.00159,80.808885 852.1083,81.34218 L 852.1883,81.26218 C 848.77492,82.862217 845.41493,84.515548 842.1083,86.22218 C 838.8016,87.875545 835.62827,89.74221 832.5883,91.82218 L 832.4283,90.86218 L 832.3483,89.18218 L 832.4283,88.30218 C 835.3616,86.435547 838.37493,84.622215 841.4683,82.86218 C 844.56159,81.102219 847.73492,79.528887 850.9883,78.14218 L 851.0683,78.22218 M 831.5483,120.78218 C 829.68161,120.78218 827.89494,120.43551 826.1883,119.74218 C 824.48161,119.10218 822.90828,118.22218 821.4683,117.10218 C 820.08162,115.98218 818.80162,114.70218 817.6283,113.26218 C 816.50829,111.82219 815.57496,110.32886 814.8283,108.78218 L 814.7483,108.70218 C 817.30829,105.82219 820.00162,103.15553 822.8283,100.70218 C 825.70828,98.195535 828.77494,95.92887 832.0283,93.90218 L 832.3483,93.90218 C 832.24161,98.435535 832.10827,102.91553 831.9483,107.34218 C 831.84161,111.76885 831.68161,116.22218 831.4683,120.70218 L 831.5483,120.78218 M 833.2283,120.62218 C 833.12161,116.08885 833.01494,111.58219 832.9083,107.10218 C 832.85494,102.6222 832.74827,98.115535 832.5883,93.58218 L 832.5883,93.42218 C 835.8416,91.448875 839.09493,89.608877 842.3483,87.90218 C 845.65493,86.195547 849.01492,84.515548 852.4283,82.86218 L 852.5083,82.94218 C 852.88159,84.382215 853.14825,85.84888 853.3083,87.34218 C 853.46825,88.835544 853.57492,90.328876 853.6283,91.82218 L 853.6283,92.70218 C 853.62825,95.795537 853.22825,98.942201 852.4283,102.14218 C 851.62825,105.34219 850.40159,108.27552 848.7483,110.94218 C 847.09493,113.55552 844.98826,115.76885 842.4283,117.58218 C 839.9216,119.34218 836.93494,120.38218 833.4683,120.70218 L 833.3883,120.62218 L 833.2283,120.62218 M 810.8283,91.98218 C 810.82829,88.888877 811.28163,85.635547 812.1883,82.22218 C 813.09496,78.808887 814.45496,75.662224 816.2683,72.78218 C 818.08162,69.90223 820.32162,67.528899 822.9883,65.66218 C 825.70828,63.795569 828.88161,62.862237 832.5083,62.86218 C 834.53494,62.862237 836.4816,63.262236 838.3483,64.06218 C 840.21493,64.808901 841.9216,65.8489 843.4683,67.18218 C 845.01493,68.515564 846.37493,70.035563 847.5483,71.74218 C 848.77492,73.448893 849.76159,75.208891 850.5083,77.02218 L 850.4283,77.10218 C 847.33492,78.382221 844.26826,79.82222 841.2283,81.42218 C 838.2416,82.968883 835.30827,84.622215 832.4283,86.38218 L 832.1883,86.46218 C 828.61494,88.862211 825.17495,91.422208 821.8683,94.14218 C 818.61495,96.862203 815.57496,99.9022 812.7483,103.26218 L 812.5883,103.18218 C 812.10829,101.36886 811.73496,99.528867 811.4683,97.66218 C 811.20163,95.742204 811.06829,93.848872 811.0683,91.98218 L 810.8283,91.98218" style="font-size: 80px; font-style: normal; font-variant: normal; font-weight: normal; font-stretch: normal; text-align: start; line-height: 125%; text-anchor: start; fill: rgb(51, 51, 51); fill-opacity: 1; stroke: none; stroke-width: 1px; stroke-linecap: butt; stroke-linejoin: miter; stroke-opacity: 1; font-family: Airmole Stripe;"/>
      <path sodipodi:nodetypes="ccsscssccc" id="path4915" d="M 786.23157,39.362194 C 790.73867,38.360619 791.22357,35.720812 791.56361,30.866101 C 790.78044,32.163082 789.35657,33.120207 787.03236,33.112194 C 783.21206,33.099025 780.65311,30.877319 781.56361,26.080944 C 782.48157,21.245207 789.35657,19.370207 792.48157,14.362194 C 795.60657,19.370207 802.48157,21.245207 803.39954,26.080944 C 804.31004,30.877326 801.85656,33.098662 797.93079,33.112194 C 795.60657,33.120207 794.18271,32.163082 793.39954,30.866101 C 793.73958,35.720812 794.22448,38.360619 798.73157,39.362194 C 795.60657,39.362194 789.35657,39.362194 786.23157,39.362194 z" style="fill: rgb(0, 0, 0); fill-opacity: 1; stroke: none; stroke-width: 0.354331; stroke-linecap: round; stroke-linejoin: round; stroke-miterlimit: 4; stroke-dasharray: 1.41732, 1.41732; stroke-dashoffset: 0pt; stroke-opacity: 1;"/>
      <path sodipodi:nodetypes="ccsscssccc" id="path5119" d="M 782.55565,68.715747 C 785.2599,68.114807 785.55084,66.530917 785.75487,63.618097 C 785.28497,64.396277 784.43065,64.970557 783.03612,64.965747 C 780.74394,64.957847 779.20857,63.624827 779.75487,60.746997 C 780.30565,57.845557 784.43065,56.720559 786.30565,53.715747 C 788.18065,56.720559 792.30565,57.845557 792.85643,60.746997 C 793.40273,63.624827 791.93064,64.957627 789.57518,64.965747 C 788.18065,64.970557 787.32633,64.396277 786.85643,63.618097 C 787.06045,66.530917 787.35139,68.114807 790.05565,68.715747 C 788.18065,68.715747 784.43065,68.715747 782.55565,68.715747 z" style="fill: rgb(0, 0, 0); fill-opacity: 1; stroke: none; stroke-width: 0.354331; stroke-linecap: round; stroke-linejoin: round; stroke-miterlimit: 4; stroke-dasharray: 1.41732, 1.41732; stroke-dashoffset: 0pt; stroke-opacity: 1;"/>
      <path sodipodi:nodetypes="ccsscssccc" id="path5121" d="M 803.5054,68.069301 C 806.20965,67.468361 806.50059,65.884471 806.70462,62.971651 C 806.23472,63.749831 805.3804,64.324111 803.98587,64.319301 C 801.69369,64.311401 800.15832,62.978381 800.70462,60.100551 C 801.2554,57.199111 805.3804,56.074113 807.2554,53.069301 C 809.1304,56.074113 813.2554,57.199111 813.80618,60.100551 C 814.35248,62.978381 812.88039,64.311181 810.52493,64.319301 C 809.1304,64.324111 808.27608,63.749831 807.80618,62.971651 C 808.0102,65.884471 808.30114,67.468361 811.0054,68.069301 C 809.1304,68.069301 805.3804,68.069301 803.5054,68.069301 z" style="fill: rgb(0, 0, 0); fill-opacity: 1; stroke: none; stroke-width: 0.354331; stroke-linecap: round; stroke-linejoin: round; stroke-miterlimit: 4; stroke-dasharray: 1.41732, 1.41732; stroke-dashoffset: 0pt; stroke-opacity: 1;"/>
      <path sodipodi:nodetypes="ccsscssccc" id="path5123" d="M 828.99068,93.878698 C 831.69493,93.277758 831.98587,91.693868 832.1899,88.781048 C 831.72,89.559228 830.86568,90.133508 829.47115,90.128698 C 827.17897,90.120798 825.6436,88.787778 826.1899,85.909948 C 826.74068,83.008508 830.86568,81.88351 832.74068,78.878698 C 834.61568,81.88351 838.74068,83.008508 839.29146,85.909948 C 839.83776,88.787778 838.36567,90.120578 836.01021,90.128698 C 834.61568,90.133508 833.76136,89.559228 833.29146,88.781048 C 833.49548,91.693868 833.78642,93.277758 836.49068,93.878698 C 834.61568,93.878698 830.86568,93.878698 828.99068,93.878698 z" style="fill: rgb(0, 0, 0); fill-opacity: 1; stroke: none; stroke-width: 0.354331; stroke-linecap: round; stroke-linejoin: round; stroke-miterlimit: 4; stroke-dasharray: 1.41732, 1.41732; stroke-dashoffset: 0pt; stroke-opacity: 1;"/>
      <path sodipodi:nodetypes="ccsscssccc" id="path5125" d="M 842.15184,74.544175 C 844.85609,73.943235 845.14703,72.359345 845.35106,69.446525 C 844.88116,70.224705 844.02684,70.798985 842.63231,70.794175 C 840.34013,70.786275 838.80476,69.453255 839.35106,66.575425 C 839.90184,63.673985 844.02684,62.548987 845.90184,59.544175 C 847.77684,62.548987 851.90184,63.673985 852.45262,66.575425 C 852.99892,69.453255 851.52683,70.786055 849.17137,70.794175 C 847.77684,70.798985 846.92252,70.224705 846.45262,69.446525 C 846.65664,72.359345 846.94758,73.943235 849.65184,74.544175 C 847.77684,74.544175 844.02684,74.544175 842.15184,74.544175 z" style="fill: rgb(0, 0, 0); fill-opacity: 1; stroke: none; stroke-width: 0.354331; stroke-linecap: round; stroke-linejoin: round; stroke-miterlimit: 4; stroke-dasharray: 1.41732, 1.41732; stroke-dashoffset: 0pt; stroke-opacity: 1;"/>
      <path sodipodi:nodetypes="ccsscssccc" id="path5127" d="M 847.67697,99.261689 C 850.38122,98.660749 850.67216,97.076859 850.87619,94.164039 C 850.40629,94.942219 849.55197,95.516499 848.15744,95.511689 C 845.86526,95.503789 844.32989,94.170769 844.87619,91.292939 C 845.42697,88.391499 849.55197,87.266501 851.42697,84.261689 C 853.30197,87.266501 857.42697,88.391499 857.97775,91.292939 C 858.52405,94.170769 857.05196,95.503569 854.6965,95.511689 C 853.30197,95.516499 852.44765,94.942219 851.97775,94.164039 C 852.18177,97.076859 852.47271,98.660749 855.17697,99.261689 C 853.30197,99.261689 849.55197,99.261689 847.67697,99.261689 z" style="fill: rgb(0, 0, 0); fill-opacity: 1; stroke: none; stroke-width: 0.354331; stroke-linecap: round; stroke-linejoin: round; stroke-miterlimit: 4; stroke-dasharray: 1.41732, 1.41732; stroke-dashoffset: 0pt; stroke-opacity: 1;"/>
      <path sodipodi:nodetypes="ccsscssccc" id="path5129" d="M 843.31301,123.90813 C 846.01726,123.30719 846.3082,121.7233 846.51223,118.81048 C 846.04233,119.58866 845.18801,120.16294 843.79348,120.15813 C 841.5013,120.15023 839.96593,118.81721 840.51223,115.93938 C 841.06301,113.03794 845.18801,111.91295 847.06301,108.90814 C 848.93801,111.91295 853.06301,113.03794 853.61379,115.93938 C 854.16009,118.81721 852.688,120.15001 850.33254,120.15813 C 848.93801,120.16294 848.08369,119.58866 847.61379,118.81048 C 847.81781,121.7233 848.10875,123.30719 850.81301,123.90813 C 848.93801,123.90813 845.18801,123.90813 843.31301,123.90813 z" style="fill: rgb(0, 0, 0); fill-opacity: 1; stroke: none; stroke-width: 0.354331; stroke-linecap: round; stroke-linejoin: round; stroke-miterlimit: 4; stroke-dasharray: 1.41732, 1.41732; stroke-dashoffset: 0pt; stroke-opacity: 1;"/>
      <path sodipodi:nodetypes="ccsscssccc" id="path5131" d="M 819.58509,125.30153 C 822.28934,124.70059 822.58028,123.1167 822.78431,120.20388 C 822.31441,120.98206 821.46009,121.55634 820.06556,121.55153 C 817.77338,121.54363 816.23801,120.21061 816.78431,117.33278 C 817.33509,114.43134 821.46009,113.30635 823.33509,110.30153 C 825.21009,113.30635 829.33509,114.43134 829.88587,117.33278 C 830.43217,120.21061 828.96008,121.54341 826.60462,121.55153 C 825.21009,121.55634 824.35577,120.98206 823.88587,120.20388 C 824.08989,123.1167 824.38083,124.70059 827.08509,125.30153 C 825.21009,125.30153 821.46009,125.30153 819.58509,125.30153 z" style="fill: rgb(0, 0, 0); fill-opacity: 1; stroke: none; stroke-width: 0.354331; stroke-linecap: round; stroke-linejoin: round; stroke-miterlimit: 4; stroke-dasharray: 1.41732, 1.41732; stroke-dashoffset: 0pt; stroke-opacity: 1;"/>
      <path sodipodi:nodetypes="ccsscssccc" id="path5133" d="M 818.14144,74.329181 C 820.84569,73.728241 821.13663,72.144351 821.34066,69.231531 C 820.87076,70.009711 820.01644,70.583991 818.62191,70.579181 C 816.32973,70.571281 814.79436,69.238261 815.34066,66.360431 C 815.89144,63.458991 820.01644,62.334001 821.89144,59.329181 C 823.76644,62.334001 827.89144,63.458991 828.44222,66.360431 C 828.98852,69.238261 827.51643,70.571061 825.16097,70.579181 C 823.76644,70.583991 822.91212,70.009711 822.44222,69.231531 C 822.64624,72.144351 822.93718,73.728241 825.64144,74.329181 C 823.76644,74.329181 820.01644,74.329181 818.14144,74.329181 z" style="fill: rgb(0, 0, 0); fill-opacity: 1; stroke: none; stroke-width: 0.354331; stroke-linecap: round; stroke-linejoin: round; stroke-miterlimit: 4; stroke-dasharray: 1.41732, 1.41732; stroke-dashoffset: 0pt; stroke-opacity: 1;"/>
      <path sodipodi:nodetypes="ccsscssccc" id="path5135" d="M 785.71681,126.94798 C 788.42106,126.34704 788.712,124.76315 788.91603,121.85033 C 788.44613,122.62851 787.59181,123.20279 786.19728,123.19798 C 783.9051,123.19008 782.36973,121.85706 782.91603,118.97923 C 783.46681,116.07779 787.59181,114.9528 789.46681,111.94798 C 791.34181,114.9528 795.46681,116.07779 796.01759,118.97923 C 796.56389,121.85706 795.0918,123.18986 792.73634,123.19798 C 791.34181,123.20279 790.48749,122.62851 790.01759,121.85033 C 790.22161,124.76315 790.51255,126.34704 793.21681,126.94798 C 791.34181,126.94798 787.59181,126.94798 785.71681,126.94798 z" style="fill: rgb(0, 0, 0); fill-opacity: 1; stroke: none; stroke-width: 0.354331; stroke-linecap: round; stroke-linejoin: round; stroke-miterlimit: 4; stroke-dasharray: 1.41732, 1.41732; stroke-dashoffset: 0pt; stroke-opacity: 1;"/>
      <path sodipodi:nodetypes="ccsscssccc" id="path5137" d="M 802.78788,125.63605 C 805.49213,125.03511 805.78307,123.45122 805.9871,120.53841 C 805.5172,121.31659 804.66288,121.89087 803.26835,121.88606 C 800.97617,121.87816 799.4408,120.54514 799.9871,117.66731 C 800.53788,114.76587 804.66288,113.64087 806.53788,110.63606 C 808.41288,113.64087 812.53788,114.76587 813.08866,117.66731 C 813.63496,120.54514 812.16287,121.87794 809.80741,121.88606 C 808.41288,121.89087 807.55856,121.31659 807.08866,120.53841 C 807.29268,123.45122 807.58362,125.03511 810.28788,125.63605 C 808.41288,125.63605 804.66288,125.63605 802.78788,125.63605 z" style="fill: rgb(0, 0, 0); fill-opacity: 1; stroke: none; stroke-width: 0.354331; stroke-linecap: round; stroke-linejoin: round; stroke-miterlimit: 4; stroke-dasharray: 1.41732, 1.41732; stroke-dashoffset: 0pt; stroke-opacity: 1;"/>
      <path id="text5237" d="M 807.47125,22.373491 L 802.03125,22.373491 L 802.03125,19.404602 C 805.94236,19.404621 808.26532,18.047585 809.00014,15.333491 L 811.95125,15.333491 L 811.95125,38.035713 L 807.47125,38.035713 L 807.47125,22.373491 M 829.57681,38.124602 C 828.65235,38.551268 827.57976,38.764601 826.35903,38.764602 C 825.13828,38.764601 824.06569,38.557194 823.14125,38.14238 C 822.22866,37.727565 821.48199,37.170529 820.90125,36.471269 C 820.33236,35.772012 819.86422,34.906827 819.49681,33.875713 C 819.14125,32.832755 818.89236,31.748312 818.75014,30.62238 C 818.61977,29.496462 818.55459,28.234242 818.55459,26.835713 C 818.55459,22.497951 819.19459,19.475732 820.47459,17.769047 C 821.16199,16.832771 822.0094,16.115735 823.01681,15.617935 C 824.02421,15.120181 825.13828,14.871292 826.35903,14.871269 C 827.68643,14.871292 828.88347,15.161662 829.95014,15.74238 C 831.02865,16.323142 831.89383,17.152771 832.5457,18.231269 C 833.6242,19.949805 834.16346,22.859432 834.16348,26.960158 C 834.16346,28.32313 834.09235,29.555722 833.95014,30.657935 C 833.81976,31.760164 833.57679,32.82683 833.22125,33.857935 C 832.86568,34.88905 832.39754,35.754234 831.81681,36.453491 C 831.24791,37.152751 830.50124,37.709788 829.57681,38.124602 M 829.68348,26.853491 C 829.68346,25.134985 829.60643,23.712765 829.45237,22.586824 C 829.31013,21.460915 829.08495,20.607582 828.77681,20.026824 C 828.46865,19.43425 828.12495,19.031288 827.7457,18.817935 C 827.37828,18.604622 826.91606,18.497955 826.35903,18.497935 C 825.56495,18.497955 824.93088,18.740918 824.45681,19.226824 C 823.99458,19.712769 823.63903,20.566101 823.39014,21.786824 C 823.1531,23.00758 823.03458,24.684615 823.03459,26.817935 C 823.03458,28.465352 823.10569,29.83424 823.24792,30.924602 C 823.39014,32.003127 823.6094,32.832755 823.9057,33.413491 C 824.21384,33.982384 824.55754,34.379421 824.93681,34.604602 C 825.32791,34.817939 825.80199,34.924605 826.35903,34.924602 C 827.65087,34.924605 828.56347,34.231273 829.09681,32.844602 C 829.26272,32.406089 829.39902,31.617942 829.5057,30.480158 C 829.62421,29.330537 829.68346,28.121649 829.68348,26.853491" style="font-size: 32px; font-style: normal; font-variant: normal; font-weight: bold; font-stretch: normal; text-align: start; line-height: 125%; text-anchor: start; fill: rgb(0, 0, 0); fill-opacity: 1; stroke: none; stroke-width: 1px; stroke-linecap: butt; stroke-linejoin: miter; stroke-opacity: 1; font-family: AlMothnna;"/>
    </g>
  </g>
</svg>