<?xml version="1.0" encoding="UTF-8" standalone="no"?>
<!-- Created with Inkscape (http://www.inkscape.org/) -->
<svg xmlns:dc="http://purl.org/dc/elements/1.1/" xmlns:cc="http://creativecommons.org/ns#" xmlns:rdf="http://www.w3.org/1999/02/22-rdf-syntax-ns#" xmlns:svg="http://www.w3.org/2000/svg" xmlns="http://www.w3.org/2000/svg" xmlns:sodipodi="http://sodipodi.sourceforge.net/DTD/sodipodi-0.dtd" xmlns:inkscape="http://www.inkscape.org/namespaces/inkscape" width="90" height="135" id="svg16720" sodipodi:version="0.32" inkscape:version="0.46" version="1.0" sodipodi:docname="spade_j.svg" inkscape:output_extension="org.inkscape.output.svg.inkscape">
  <defs id="defs16722">
    <inkscape:perspective sodipodi:type="inkscape:persp3d" inkscape:vp_x="0 : 526.18109 : 1" inkscape:vp_y="0 : 1000 : 0" inkscape:vp_z="744.09448 : 526.18109 : 1" inkscape:persp3d-origin="372.04724 : 350.78739 : 1" id="perspective16728"/>
  </defs>
  <sodipodi:namedview id="base" pagecolor="#ffffff" bordercolor="#666666" borderopacity="1.0" gridtolerance="10000" guidetolerance="10" objecttolerance="10" inkscape:pageopacity="0.0" inkscape:pageshadow="2" inkscape:zoom="1.4" inkscape:cx="1.1905278" inkscape:cy="112.32681" inkscape:document-units="px" inkscape:current-layer="layer1" showgrid="false" inkscape:window-width="641" inkscape:window-height="719" inkscape:window-x="97" inkscape:window-y="47"/>
  <metadata id="metadata16725">
    <rdf:RDF>
      <cc:Work rdf:about="">
        <dc:format>image/svg+xml</dc:format>
        <dc:type rdf:resource="http://purl.org/dc/dcmitype/StillImage"/>
      </cc:Work>
    </rdf:RDF>
  </metadata>
  <g inkscape:label="Layer 1" inkscape:groupmode="layer" id="layer1" transform="translate(-117.857, -330.576)">
    <g transform="translate(-751.407, 323.679)" id="g15767">
      <g transform="translate(848.407, -3.03572)" id="g4362">
        <rect style="fill: rgb(0, 0, 0); fill-opacity: 1; stroke: none; stroke-width: 3; stroke-linecap: butt; stroke-linejoin: round; stroke-miterlimit: 4; stroke-dasharray: none; stroke-opacity: 1;" id="rect4364" width="90" height="135" x="20.85714" y="9.9336166" ry="14.04"/>
        <rect style="fill: rgb(242, 242, 242); fill-opacity: 1; stroke: none; stroke-width: 3; stroke-linecap: butt; stroke-linejoin: round; stroke-miterlimit: 4; stroke-dasharray: none; stroke-opacity: 1;" id="rect4366" width="80" height="125" x="25.85714" y="14.933617" ry="13"/>
      </g>
      <path sodipodi:nodetypes="ccsscssccc" id="path4917" d="M 882.21766,39.362194 C 886.72476,38.360619 887.20966,35.720812 887.5497,30.866101 C 886.76653,32.163082 885.34266,33.120207 883.01845,33.112194 C 879.19815,33.099025 876.6392,30.877319 877.5497,26.080944 C 878.46766,21.245207 885.34266,19.370207 888.46766,14.362194 C 891.59266,19.370207 898.46766,21.245207 899.38563,26.080944 C 900.29613,30.877326 897.84265,33.098662 893.91688,33.112194 C 891.59266,33.120207 890.1688,32.163082 889.38563,30.866101 C 889.72567,35.720812 890.21057,38.360619 894.71766,39.362194 C 891.59266,39.362194 885.34266,39.362194 882.21766,39.362194 z" style="fill: rgb(0, 0, 0); fill-opacity: 1; stroke: none; stroke-width: 0.354331; stroke-linecap: round; stroke-linejoin: round; stroke-miterlimit: 4; stroke-dasharray: 1.41732, 1.41732; stroke-dashoffset: 0pt; stroke-opacity: 1;"/>
      <path sodipodi:nodetypes="ccsscssccc" id="path5151" d="M 901.75841,93.56727 C 910.77271,91.564137 911.74241,86.284501 912.42251,76.575114 C 910.85611,79.169049 908.00841,81.083309 903.36011,81.067276 C 895.71941,81.040942 890.60141,76.597548 892.42241,67.004778 C 894.25841,57.333308 908.00841,53.583313 914.25851,43.56727 C 920.50851,53.583313 934.25851,57.333308 936.09451,67.004778 C 937.91551,76.597548 933.00851,81.040209 925.15691,81.067276 C 920.50851,81.083309 917.66091,79.169049 916.09451,76.575114 C 916.77451,86.284501 917.74421,91.564137 926.75851,93.56727 C 920.50851,93.56727 908.00841,93.56727 901.75841,93.56727 z" style="fill: rgb(0, 0, 0); fill-opacity: 1; stroke: none; stroke-width: 0.354331; stroke-linecap: round; stroke-linejoin: round; stroke-miterlimit: 4; stroke-dasharray: 1.41732, 1.41732; stroke-dashoffset: 0pt; stroke-opacity: 1;"/>
      <path id="text4424" d="M 928.30363,76.542177 C 928.19694,77.182219 928.11694,77.902218 928.06363,78.702177 C 928.01027,79.448883 927.9836,80.168882 927.98363,80.862177 L 927.82363,80.862177 C 924.35694,81.662214 920.94361,82.835546 917.58363,84.382177 C 914.27695,85.875543 910.99695,87.448875 907.74363,89.102177 L 907.66363,89.022177 C 907.61029,88.328874 907.55696,87.662208 907.50363,87.022177 C 907.50362,86.382209 907.47696,85.715543 907.42363,85.022177 L 907.50363,84.862177 C 910.70362,83.102213 914.06362,81.528881 917.58363,80.142177 C 921.10361,78.75555 924.65027,77.528885 928.22363,76.462177 L 928.30363,76.542177 M 907.10363,63.822177 C 910.67695,63.662232 914.30362,63.475566 917.98363,63.262177 C 921.66361,62.995566 925.37027,62.8089 929.10363,62.702177 L 929.26363,62.782177 C 929.15694,64.808898 929.0236,66.835562 928.86363,68.862177 C 928.7036,70.835558 928.57027,72.835556 928.46363,74.862177 L 928.30363,75.022177 C 924.62361,75.82222 921.02361,76.968885 917.50363,78.462177 C 913.98362,79.902216 910.62362,81.475548 907.42363,83.182177 L 907.34363,83.102177 C 907.29029,79.902216 907.21029,76.728886 907.10363,73.582177 C 906.99696,70.382225 906.91696,67.182229 906.86363,63.982177 L 906.94363,63.902177 L 907.10363,63.822177 M 907.74363,90.542177 L 907.82363,90.622177 C 911.02362,88.91554 914.30362,87.395542 917.66363,86.062177 C 921.07694,84.728878 924.46361,83.528879 927.82363,82.462177 L 927.90363,82.542177 C 927.85027,85.688877 927.63694,88.83554 927.26363,91.982177 C 926.89027,95.075534 926.57027,98.142198 926.30363,101.18218 C 926.03694,104.00886 925.42361,106.78219 924.46363,109.50218 C 923.50361,112.22218 922.17028,114.70218 920.46363,116.94218 C 918.81028,119.18218 916.78361,121.04884 914.38363,122.54218 C 912.03695,124.03551 909.34362,124.9155 906.30363,125.18218 L 906.14363,125.10218 C 905.02363,122.70217 903.87696,120.30218 902.70363,117.90218 C 901.5303,115.50218 900.38363,113.07552 899.26363,110.62218 L 899.50363,110.62218 C 900.7303,110.62219 901.87696,110.38219 902.94363,109.90218 C 904.01029,109.42219 904.94363,108.75552 905.74363,107.90218 C 906.54362,107.04886 907.15696,106.08886 907.58363,105.02218 C 908.06362,103.95553 908.30362,102.80886 908.30363,101.58218 C 908.30362,101.42219 908.27696,101.26219 908.22363,101.10218 C 908.22362,100.94219 908.22362,100.78219 908.22363,100.62218 L 908.22363,99.422177 L 907.74363,90.542177" style="font-size: 80px; font-style: normal; font-variant: normal; font-weight: normal; font-stretch: normal; text-align: start; line-height: 125%; text-anchor: start; fill: rgb(51, 51, 51); fill-opacity: 1; stroke: none; stroke-width: 1px; stroke-linecap: butt; stroke-linejoin: miter; stroke-opacity: 1; font-family: Airmole Stripe;"/>
      <path id="text5241" d="M 909.1252,38.832935 C 908.37334,38.832935 907.64742,38.761638 906.94742,38.619047 C 906.24742,38.489416 905.53446,38.249602 904.80854,37.899602 C 904.08261,37.53664 903.4539,37.076455 902.92242,36.519047 C 902.4039,35.948678 901.97613,35.203309 901.63909,34.282935 C 901.30205,33.36257 901.13353,32.306089 901.13354,31.113491 L 901.13354,28.585713 L 906.38354,28.585713 L 906.38354,31.035713 C 906.38353,32.202386 906.6039,33.044977 907.04465,33.563491 C 907.48538,34.082013 908.20482,34.341272 909.20298,34.341269 C 910.12334,34.341272 910.82982,34.088495 911.32242,33.582935 C 911.81501,33.077385 912.0613,32.344978 912.06131,31.385713 L 912.06131,12.505158 L 917.31131,12.505158 L 917.31131,31.385713 C 917.3113,33.770903 916.59833,35.611642 915.17242,36.907935 C 913.74648,38.191269 911.73075,38.832935 909.1252,38.832935" style="font-size: 35px; font-style: normal; font-variant: normal; font-weight: bold; font-stretch: normal; text-align: start; line-height: 125%; text-anchor: start; fill: rgb(0, 0, 0); fill-opacity: 1; stroke: none; stroke-width: 1px; stroke-linecap: butt; stroke-linejoin: miter; stroke-opacity: 1; font-family: AlMothnna;"/>
    </g>
  </g>
</svg>