<?xml version="1.0" encoding="UTF-8" standalone="no"?>
<!-- Created with Inkscape (http://www.inkscape.org/) -->
<svg xmlns:dc="http://purl.org/dc/elements/1.1/" xmlns:cc="http://creativecommons.org/ns#" xmlns:rdf="http://www.w3.org/1999/02/22-rdf-syntax-ns#" xmlns:svg="http://www.w3.org/2000/svg" xmlns="http://www.w3.org/2000/svg" xmlns:sodipodi="http://sodipodi.sourceforge.net/DTD/sodipodi-0.dtd" xmlns:inkscape="http://www.inkscape.org/namespaces/inkscape" width="90" height="135" id="svg16720" sodipodi:version="0.32" inkscape:version="0.46" version="1.0" sodipodi:docname="spade_q.svg" inkscape:output_extension="org.inkscape.output.svg.inkscape">
  <defs id="defs16722">
    <inkscape:perspective sodipodi:type="inkscape:persp3d" inkscape:vp_x="0 : 526.18109 : 1" inkscape:vp_y="0 : 1000 : 0" inkscape:vp_z="744.09448 : 526.18109 : 1" inkscape:persp3d-origin="372.04724 : 350.78739 : 1" id="perspective16728"/>
  </defs>
  <sodipodi:namedview id="base" pagecolor="#ffffff" bordercolor="#666666" borderopacity="1.0" gridtolerance="10000" guidetolerance="10" objecttolerance="10" inkscape:pageopacity="0.0" inkscape:pageshadow="2" inkscape:zoom="1.4" inkscape:cx="1.1905278" inkscape:cy="112.32681" inkscape:document-units="px" inkscape:current-layer="layer1" showgrid="false" inkscape:window-width="641" inkscape:window-height="719" inkscape:window-x="97" inkscape:window-y="47"/>
  <metadata id="metadata16725">
    <rdf:RDF>
      <cc:Work rdf:about="">
        <dc:format>image/svg+xml</dc:format>
        <dc:type rdf:resource="http://purl.org/dc/dcmitype/StillImage"/>
      </cc:Work>
    </rdf:RDF>
  </metadata>
  <g inkscape:label="Layer 1" inkscape:groupmode="layer" id="layer1" transform="translate(-117.857, -330.576)">
    <g transform="translate(-847.341, 323.679)" id="g15787">
      <g transform="translate(944.341, -3.03572)" id="g4368">
        <rect style="fill: rgb(0, 0, 0); fill-opacity: 1; stroke: none; stroke-width: 3; stroke-linecap: butt; stroke-linejoin: round; stroke-miterlimit: 4; stroke-dasharray: none; stroke-opacity: 1;" id="rect4370" width="90" height="135" x="20.85714" y="9.9336166" ry="14.04"/>
        <rect style="fill: rgb(242, 242, 242); fill-opacity: 1; stroke: none; stroke-width: 3; stroke-linecap: butt; stroke-linejoin: round; stroke-miterlimit: 4; stroke-dasharray: none; stroke-opacity: 1;" id="rect4372" width="80" height="125" x="25.85714" y="14.933617" ry="13"/>
      </g>
      <path sodipodi:nodetypes="ccsscssccc" id="path4919" d="M 978.20374,39.362194 C 982.71084,38.360619 983.19574,35.720812 983.53578,30.866101 C 982.75261,32.163082 981.32874,33.120207 979.00453,33.112194 C 975.18423,33.099025 972.62528,30.877319 973.53578,26.080944 C 974.45374,21.245207 981.32874,19.370207 984.45374,14.362194 C 987.57874,19.370207 994.45373,21.245207 995.37173,26.080944 C 996.28223,30.877326 993.82873,33.098662 989.90296,33.112194 C 987.57874,33.120207 986.15488,32.163082 985.37171,30.866101 C 985.71175,35.720812 986.19665,38.360619 990.70374,39.362194 C 987.57874,39.362194 981.32874,39.362194 978.20374,39.362194 z" style="fill: rgb(0, 0, 0); fill-opacity: 1; stroke: none; stroke-width: 0.354331; stroke-linecap: round; stroke-linejoin: round; stroke-miterlimit: 4; stroke-dasharray: 1.41732, 1.41732; stroke-dashoffset: 0pt; stroke-opacity: 1;"/>
      <path sodipodi:nodetypes="ccsscssccc" id="path5149" d="M 997.69245,93.567269 C 1006.7068,91.564136 1007.6765,86.2845 1008.3566,76.575113 C 1006.7902,79.169048 1003.9425,81.083308 999.29415,81.067275 C 991.65345,81.040941 986.53545,76.597547 988.35645,67.004777 C 990.19245,57.333307 1003.9425,53.583312 1010.1926,43.567269 C 1016.4426,53.583312 1030.1926,57.333307 1032.0286,67.004777 C 1033.8496,76.597547 1028.9426,81.040208 1021.091,81.067275 C 1016.4426,81.083308 1013.595,79.169048 1012.0286,76.575113 C 1012.7086,86.2845 1013.6783,91.564136 1022.6926,93.567269 C 1016.4426,93.567269 1003.9425,93.567269 997.69245,93.567269 z" style="fill: rgb(0, 0, 0); fill-opacity: 1; stroke: none; stroke-width: 0.354331; stroke-linecap: round; stroke-linejoin: round; stroke-miterlimit: 4; stroke-dasharray: 1.41732, 1.41732; stroke-dashoffset: 0pt; stroke-opacity: 1;"/>
      <path id="text4428" d="M 1032.5976,79.342177 C 1029.1309,79.768885 1025.6909,80.462217 1022.2776,81.422177 C 1018.9176,82.328882 1015.5842,83.422214 1012.2776,84.702177 C 1009.0242,85.928878 1005.7976,87.288877 1002.5976,88.782177 C 999.45093,90.275541 996.38426,91.795539 993.39761,93.342177 C 992.97093,93.555538 992.41093,93.875537 991.71761,94.302177 C 991.02427,94.675536 990.30427,95.075536 989.55761,95.502177 C 988.86427,95.875535 988.17094,96.222202 987.47761,96.542177 C 986.8376,96.862201 986.2776,97.022201 985.79761,97.022177 L 985.87761,97.022177 C 985.82427,97.022201 985.77094,97.048867 985.71761,97.102177 C 985.71761,97.102201 985.69094,97.102201 985.63761,97.102177 L 985.55761,97.022177 C 985.45094,96.435535 985.37094,95.822202 985.31761,95.182177 C 985.26427,94.542203 985.23761,93.92887 985.23761,93.342177 L 984.99761,92.862177 C 991.98427,88.648876 999.37093,85.102213 1007.1576,82.222177 C 1014.9442,79.342218 1022.9976,77.395554 1031.3176,76.382177 L 1031.3976,76.462177 C 1031.5576,76.888888 1031.7709,77.315554 1032.0376,77.742177 C 1032.3042,78.168886 1032.5176,78.622219 1032.6776,79.102177 L 1032.5976,79.182177 L 1032.5976,79.342177 M 1009.1576,121.50218 C 1006.1709,121.34218 1003.3709,120.59551 1000.7576,119.26218 C 998.14426,117.92885 995.82426,116.22218 993.79761,114.14218 C 991.77093,112.00885 990.06427,109.63552 988.67761,107.02218 C 987.29094,104.35553 986.33094,101.60886 985.79761,98.782177 L 985.95761,98.782177 C 987.82427,97.448867 989.74427,96.302201 991.71761,95.342177 C 993.69093,94.382203 995.69093,93.475538 997.71761,92.622177 C 999.74426,91.768873 1001.7709,90.968873 1003.7976,90.222177 C 1005.8776,89.422208 1007.9576,88.542209 1010.0376,87.582177 L 1010.1176,87.822177 C 1010.0109,92.888872 1009.8776,98.035533 1009.7176,103.26218 C 1009.6109,108.48886 1009.7442,113.74218 1010.1176,119.02218 L 1009.3976,121.26218 L 1009.1576,121.50218 M 1010.1176,62.702177 L 1010.5176,62.702177 C 1012.6509,62.702235 1014.7042,63.022235 1016.6776,63.662177 C 1018.6509,64.2489 1020.4909,65.102233 1022.1976,66.222177 C 1023.9042,67.288897 1025.4776,68.568896 1026.9176,70.062177 C 1028.3576,71.502226 1029.6109,73.075558 1030.6776,74.782177 C 1030.6776,74.835556 1030.6509,74.862223 1030.5976,74.862177 C 1030.4909,74.862223 1030.3842,74.835556 1030.2776,74.782177 C 1022.5442,75.902222 1014.8109,77.875553 1007.0776,80.702177 C 999.39759,83.475548 992.17093,87.075544 985.39761,91.502177 L 984.99761,91.262177 C 984.99761,87.795543 985.61094,84.382213 986.83761,81.022177 C 988.1176,77.608887 989.8776,74.56889 992.11761,71.902177 C 994.3576,69.235562 996.99759,67.075564 1000.0376,65.422177 C 1003.1309,63.715567 1006.5176,62.835568 1010.1976,62.782177 L 1010.1176,62.702177 M 1011.3976,121.42218 C 1011.2909,115.60885 1011.0776,109.90219 1010.7576,104.30218 C 1010.4909,98.702199 1010.2776,93.128871 1010.1176,87.582177 L 1010.1976,87.502177 C 1013.9842,86.062212 1017.7176,84.64888 1021.3976,83.262177 C 1025.0776,81.822216 1028.9709,80.862217 1033.0776,80.382177 L 1033.1576,80.462177 C 1033.8509,82.328882 1034.3842,84.24888 1034.7576,86.222177 C 1035.1842,88.14221 1035.3976,90.115541 1035.3976,92.142177 C 1035.3976,94.862203 1035.0509,97.5822 1034.3576,100.30218 C 1033.6642,102.96886 1032.6509,105.50219 1031.3176,107.90218 C 1030.0376,110.24885 1028.4376,112.38219 1026.5176,114.30218 C 1024.5976,116.22218 1022.4376,117.82218 1020.0376,119.10218 C 1021.2642,119.58218 1022.4909,120.03551 1023.7176,120.46218 C 1024.9976,120.83551 1026.2509,121.23551 1027.4776,121.66218 L 1027.5576,121.74218 C 1027.1309,123.02217 1026.7309,124.30217 1026.3576,125.58218 C 1026.0376,126.86217 1025.6642,128.1155 1025.2376,129.34218 L 1025.1576,129.42218 C 1023.3442,128.6755 1021.5576,127.90217 1019.7976,127.10218 C 1018.0376,126.3555 1016.2509,125.63551 1014.4376,124.94218 L 1014.3576,124.86218 C 1014.6242,124.16884 1014.8642,123.44884 1015.0776,122.70218 C 1015.2909,122.00884 1015.5309,121.31551 1015.7976,120.62218 C 1015.0509,120.88884 1014.2776,121.04884 1013.4776,121.10218 C 1012.7309,121.15551 1011.9842,121.23551 1011.2376,121.34218 L 1011.1576,121.26218 L 1011.3976,121.42218" style="font-size: 80px; font-style: normal; font-variant: normal; font-weight: normal; font-stretch: normal; text-align: start; line-height: 125%; text-anchor: start; fill: rgb(51, 51, 51); fill-opacity: 1; stroke: none; stroke-width: 1px; stroke-linecap: butt; stroke-linejoin: miter; stroke-opacity: 1; font-family: Airmole Stripe;"/>
      <path id="text5245" d="M 1007.6719,13.680805 C 1010.1348,13.680831 1012.3061,14.270645 1014.1857,15.450249 C 1016.0783,16.629902 1017.5172,18.224345 1018.5024,20.233583 C 1019.4876,22.242859 1019.9802,24.491931 1019.9802,26.980805 C 1019.9802,28.691927 1019.7274,30.364147 1019.2219,31.997472 C 1018.7163,33.630811 1018.0357,34.972476 1017.1802,36.022472 L 1019.9802,38.68636 L 1017.3163,41.505805 L 1014.283,38.68636 C 1012.3644,39.840064 1010.1607,40.416915 1007.6719,40.416916 C 1005.2218,40.416915 1003.057,39.840064 1001.1774,38.68636 C 999.31074,37.532659 997.87833,35.944697 996.88019,33.922472 C 995.88204,31.900257 995.38296,29.612296 995.38296,27.058583 C 995.38296,24.504894 995.88204,22.216933 996.88019,20.194694 C 997.87833,18.172493 999.31074,16.584532 1001.1774,15.430805 C 1003.057,14.264164 1005.2218,13.680831 1007.6719,13.680805 M 1010.6857,29.897472 L 1013.5635,32.619694 C 1014.3154,31.103036 1014.6913,29.262297 1014.6913,27.097472 C 1014.6913,24.375265 1014.0561,22.20397 1012.7857,20.583583 C 1011.5154,18.963233 1009.8107,18.153049 1007.6719,18.153027 C 1005.5589,18.153049 1003.8607,18.969714 1002.5774,20.603027 C 1001.2941,22.223415 1000.6524,24.375265 1000.6524,27.058583 C 1000.6524,29.728963 1001.2941,31.874331 1002.5774,33.494694 C 1003.8607,35.115069 1005.5524,35.925253 1007.6524,35.925249 C 1008.845,35.925253 1009.8691,35.711364 1010.7246,35.283583 L 1008.0219,32.716916 L 1010.6857,29.897472" style="font-size: 35px; font-style: normal; font-variant: normal; font-weight: bold; font-stretch: normal; text-align: start; line-height: 125%; text-anchor: start; fill: rgb(0, 0, 0); fill-opacity: 1; stroke: none; stroke-width: 1px; stroke-linecap: butt; stroke-linejoin: miter; stroke-opacity: 1; font-family: AlMothnna;"/>
    </g>
  </g>
</svg>