<?xml version="1.0" encoding="UTF-8" standalone="no"?>
<!-- Created with Inkscape (http://www.inkscape.org/) -->
<svg xmlns:dc="http://purl.org/dc/elements/1.1/" xmlns:cc="http://creativecommons.org/ns#" xmlns:rdf="http://www.w3.org/1999/02/22-rdf-syntax-ns#" xmlns:svg="http://www.w3.org/2000/svg" xmlns="http://www.w3.org/2000/svg" xmlns:sodipodi="http://sodipodi.sourceforge.net/DTD/sodipodi-0.dtd" xmlns:inkscape="http://www.inkscape.org/namespaces/inkscape" width="90" height="135" id="svg16720" sodipodi:version="0.32" inkscape:version="0.46" version="1.0" sodipodi:docname="heart_j.svg" inkscape:output_extension="org.inkscape.output.svg.inkscape">
  <defs id="defs16722">
    <inkscape:perspective sodipodi:type="inkscape:persp3d" inkscape:vp_x="0 : 526.18109 : 1" inkscape:vp_y="0 : 1000 : 0" inkscape:vp_z="744.09448 : 526.18109 : 1" inkscape:persp3d-origin="372.04724 : 350.78739 : 1" id="perspective16728"/>
  </defs>
  <sodipodi:namedview id="base" pagecolor="#ffffff" bordercolor="#666666" borderopacity="1.0" gridtolerance="10000" guidetolerance="10" objecttolerance="10" inkscape:pageopacity="0.0" inkscape:pageshadow="2" inkscape:zoom="1.4" inkscape:cx="1.1905278" inkscape:cy="112.32681" inkscape:document-units="px" inkscape:current-layer="layer1" showgrid="false" inkscape:window-width="641" inkscape:window-height="719" inkscape:window-x="611" inkscape:window-y="47"/>
  <metadata id="metadata16725">
    <rdf:RDF>
      <cc:Work rdf:about="">
        <dc:format>image/svg+xml</dc:format>
        <dc:type rdf:resource="http://purl.org/dc/dcmitype/StillImage"/>
      </cc:Work>
    </rdf:RDF>
  </metadata>
  <g inkscape:label="Layer 1" inkscape:groupmode="layer" id="layer1" transform="translate(-117.857, -330.576)">
    <g transform="translate(-750.978, 42.7143)" id="g15543">
      <g transform="translate(847.978, 277.929)" id="g4638">
        <rect style="fill: rgb(0, 0, 0); fill-opacity: 1; stroke: none; stroke-width: 3; stroke-linecap: butt; stroke-linejoin: round; stroke-miterlimit: 4; stroke-dasharray: none; stroke-opacity: 1;" id="rect4640" width="90" height="135" x="20.85714" y="9.9336166" ry="14.04"/>
        <rect style="fill: rgb(242, 242, 242); fill-opacity: 1; stroke: none; stroke-width: 3; stroke-linecap: butt; stroke-linejoin: round; stroke-miterlimit: 4; stroke-dasharray: none; stroke-opacity: 1;" id="rect4642" width="80" height="125" x="25.85714" y="14.933617" ry="13"/>
      </g>
      <path id="text5345" d="M 910.95705,321.95964 C 910.20519,321.95964 909.47927,321.88834 908.77927,321.74575 C 908.07927,321.61612 907.3663,321.3763 906.64038,321.0263 C 905.91445,320.66334 905.28575,320.20316 904.75427,319.64575 C 904.23575,319.07538 903.80797,318.33001 903.47094,317.40964 C 903.1339,316.48927 902.96538,315.43279 902.96538,314.24019 L 902.96538,311.71241 L 908.21538,311.71241 L 908.21538,314.16241 C 908.21538,315.32909 908.43575,316.17168 908.87649,316.69019 C 909.31723,317.20871 910.03667,317.46797 911.03483,317.46797 C 911.95519,317.46797 912.66167,317.2152 913.15427,316.70964 C 913.64685,316.20409 913.89315,315.47168 913.89316,314.51241 L 913.89316,295.63186 L 919.14316,295.63186 L 919.14316,314.51241 C 919.14314,316.8976 918.43018,318.73834 917.00427,320.03464 C 915.57833,321.31797 913.56259,321.95964 910.95705,321.95964" style="font-size: 35px; font-style: normal; font-variant: normal; font-weight: bold; font-stretch: normal; text-align: start; line-height: 125%; text-anchor: start; fill: rgb(170, 0, 0); fill-opacity: 1; stroke: none; stroke-width: 1px; stroke-linecap: butt; stroke-linejoin: miter; stroke-opacity: 1; font-family: AlMothnna;"/>
      <path sodipodi:nodetypes="ccccccc" id="path5460" d="M 888.80778,305.29639 C 889.41418,302.17139 890.62698,299.04639 894.87178,299.04639 C 899.11658,299.04639 902.45178,302.17139 900.93578,308.42139 C 899.41978,314.67139 892.44618,317.79639 888.80778,324.04639 C 885.16937,317.79639 878.19577,314.67139 876.67977,308.42139 C 875.16377,302.17139 878.49897,299.04639 882.74377,299.04639 C 886.98858,299.04639 888.20138,302.17139 888.80778,305.29639 z" style="fill: rgb(212, 0, 0); fill-opacity: 1; stroke: none; stroke-width: 0.354331; stroke-linecap: round; stroke-linejoin: round; stroke-miterlimit: 4; stroke-dasharray: 1.41732, 1.41732; stroke-dashoffset: 0pt; stroke-opacity: 1;"/>
      <path sodipodi:nodetypes="ccccccc" id="path5718" d="M 913.83499,339.86219 C 915.04799,333.61219 917.47359,327.36219 925.96329,327.36219 C 934.45259,327.36219 941.12329,333.61219 938.09129,346.11219 C 935.05929,358.61219 921.11199,364.86219 913.83499,377.36219 C 906.55829,364.86219 892.61099,358.61219 889.57899,346.11219 C 886.54699,333.61219 893.21759,327.36219 901.70699,327.36219 C 910.19659,327.36219 912.62229,333.61219 913.83499,339.86219 z" style="fill: rgb(212, 0, 0); fill-opacity: 1; stroke: none; stroke-width: 0.354331; stroke-linecap: round; stroke-linejoin: round; stroke-miterlimit: 4; stroke-dasharray: 1.41732, 1.41732; stroke-dashoffset: 0pt; stroke-opacity: 1;"/>
      <path id="text4700" d="M 927.87504,357.50647 C 927.76835,358.14651 927.68835,358.86651 927.63504,359.66647 C 927.58168,360.41318 927.55501,361.13318 927.55504,361.82647 L 927.39504,361.82647 C 923.92835,362.62651 920.51502,363.79984 917.15504,365.34647 C 913.84836,366.83984 910.56836,368.41317 907.31504,370.06647 L 907.23504,369.98647 C 907.1817,369.29317 907.12837,368.6265 907.07504,367.98647 C 907.07503,367.3465 907.04837,366.67984 906.99504,365.98647 L 907.07504,365.82647 C 910.27503,364.06651 913.63503,362.49318 917.15504,361.10647 C 920.67502,359.71984 924.22168,358.49318 927.79504,357.42647 L 927.87504,357.50647 M 906.67504,344.78647 C 910.24836,344.62653 913.87503,344.43986 917.55504,344.22647 C 921.23502,343.95986 924.94168,343.77319 928.67504,343.66647 L 928.83504,343.74647 C 928.72835,345.77319 928.59501,347.79986 928.43504,349.82647 C 928.27501,351.79985 928.14168,353.79985 928.03504,355.82647 L 927.87504,355.98647 C 924.19502,356.78651 920.59502,357.93318 917.07504,359.42647 C 913.55503,360.86651 910.19503,362.43984 906.99504,364.14647 L 906.91504,364.06647 C 906.8617,360.86651 906.7817,357.69318 906.67504,354.54647 C 906.56837,351.34652 906.48837,348.14652 906.43504,344.94647 L 906.51504,344.86647 L 906.67504,344.78647 M 907.31504,371.50647 L 907.39504,371.58647 C 910.59503,369.87983 913.87503,368.35984 917.23504,367.02647 C 920.64835,365.69317 924.03502,364.49317 927.39504,363.42647 L 927.47504,363.50647 C 927.42168,366.65317 927.20835,369.79983 926.83504,372.94647 C 926.46168,376.03983 926.14168,379.10649 925.87504,382.14647 C 925.60835,384.97315 924.99502,387.74648 924.03504,390.46647 C 923.07502,393.18648 921.74169,395.66648 920.03504,397.90647 C 918.38169,400.14647 916.35503,402.01314 913.95504,403.50647 C 911.60836,404.9998 908.91503,405.8798 905.87504,406.14647 L 905.71504,406.06647 C 904.59504,403.66647 903.44837,401.26647 902.27504,398.86647 C 901.10171,396.46647 899.95504,394.03981 898.83504,391.58647 L 899.07504,391.58647 C 900.30171,391.58648 901.44837,391.34648 902.51504,390.86647 C 903.5817,390.38648 904.51504,389.71981 905.31504,388.86647 C 906.11504,388.01315 906.72837,387.05315 907.15504,385.98647 C 907.63503,384.91982 907.87503,383.77315 907.87504,382.54647 C 907.87503,382.38649 907.84837,382.22649 907.79504,382.06647 C 907.79503,381.90649 907.79503,381.74649 907.79504,381.58647 L 907.79504,380.38647 L 907.31504,371.50647" style="font-size: 80px; font-style: normal; font-variant: normal; font-weight: normal; font-stretch: normal; text-align: start; line-height: 125%; text-anchor: start; fill: rgb(128, 0, 0); fill-opacity: 1; stroke: none; stroke-width: 1px; stroke-linecap: butt; stroke-linejoin: miter; stroke-opacity: 1; font-family: Airmole Stripe;"/>
    </g>
  </g>
</svg>