<?xml version="1.0" encoding="UTF-8" standalone="no"?>
<!-- Created with Inkscape (http://www.inkscape.org/) -->
<svg xmlns:dc="http://purl.org/dc/elements/1.1/" xmlns:cc="http://creativecommons.org/ns#" xmlns:rdf="http://www.w3.org/1999/02/22-rdf-syntax-ns#" xmlns:svg="http://www.w3.org/2000/svg" xmlns="http://www.w3.org/2000/svg" xmlns:sodipodi="http://sodipodi.sourceforge.net/DTD/sodipodi-0.dtd" xmlns:inkscape="http://www.inkscape.org/namespaces/inkscape" width="90" height="135" id="svg16720" sodipodi:version="0.32" inkscape:version="0.46" version="1.0" sodipodi:docname="heart_a.svg" inkscape:output_extension="org.inkscape.output.svg.inkscape">
  <defs id="defs16722">
    <inkscape:perspective sodipodi:type="inkscape:persp3d" inkscape:vp_x="0 : 526.18109 : 1" inkscape:vp_y="0 : 1000 : 0" inkscape:vp_z="744.09448 : 526.18109 : 1" inkscape:persp3d-origin="372.04724 : 350.78739 : 1" id="perspective16728"/>
  </defs>
  <sodipodi:namedview id="base" pagecolor="#ffffff" bordercolor="#666666" borderopacity="1.0" gridtolerance="10000" guidetolerance="10" objecttolerance="10" inkscape:pageopacity="0.0" inkscape:pageshadow="2" inkscape:zoom="1.4" inkscape:cx="1.1905278" inkscape:cy="112.32681" inkscape:document-units="px" inkscape:current-layer="layer1" showgrid="false" inkscape:window-width="641" inkscape:window-height="719" inkscape:window-x="611" inkscape:window-y="47"/>
  <metadata id="metadata16725">
    <rdf:RDF>
      <cc:Work rdf:about="">
        <dc:format>image/svg+xml</dc:format>
        <dc:type rdf:resource="http://purl.org/dc/dcmitype/StillImage"/>
      </cc:Work>
    </rdf:RDF>
  </metadata>
  <g inkscape:label="Layer 1" inkscape:groupmode="layer" id="layer1" transform="translate(-117.857, -330.576)">
    <g transform="translate(-1038.78, 42.7143)" id="g15603">
      <g transform="translate(1135.78, 277.929)" id="g4656">
        <rect style="fill: rgb(0, 0, 0); fill-opacity: 1; stroke: none; stroke-width: 3; stroke-linecap: butt; stroke-linejoin: round; stroke-miterlimit: 4; stroke-dasharray: none; stroke-opacity: 1;" id="rect4658" width="90" height="135" x="20.85714" y="9.9336166" ry="14.04"/>
        <rect style="fill: rgb(242, 242, 242); fill-opacity: 1; stroke: none; stroke-width: 3; stroke-linecap: butt; stroke-linejoin: round; stroke-miterlimit: 4; stroke-dasharray: none; stroke-opacity: 1;" id="rect4660" width="80" height="125" x="25.85714" y="14.933617" ry="13"/>
      </g>
      <path id="text5357" d="M 1204.2705,316.94018 L 1194.7038,316.94018 L 1192.9927,322.07352 L 1187.6455,322.07352 L 1196.726,296.54296 L 1202.501,296.54296 L 1211.3288,322.07352 L 1205.9621,322.07352 L 1204.2705,316.94018 M 1202.8316,312.54574 L 1199.526,302.57074 L 1196.1816,312.54574 L 1202.8316,312.54574" style="font-size: 35px; font-style: normal; font-variant: normal; font-weight: bold; font-stretch: normal; text-align: start; line-height: 125%; text-anchor: start; fill: rgb(170, 0, 0); fill-opacity: 1; stroke: none; stroke-width: 1px; stroke-linecap: butt; stroke-linejoin: miter; stroke-opacity: 1; font-family: AlMothnna;"/>
      <path sodipodi:nodetypes="ccccccc" id="path5466" d="M 1176.61,305.29639 C 1177.2164,302.17139 1178.4292,299.04639 1182.674,299.04639 C 1186.9188,299.04639 1190.254,302.17139 1188.738,308.42139 C 1187.222,314.67139 1180.2484,317.79639 1176.61,324.04639 C 1172.9716,317.79639 1165.998,314.67139 1164.482,308.42139 C 1162.966,302.17139 1166.3012,299.04639 1170.546,299.04639 C 1174.7908,299.04639 1176.0036,302.17139 1176.61,305.29639 z" style="fill: rgb(212, 0, 0); fill-opacity: 1; stroke: none; stroke-width: 0.354331; stroke-linecap: round; stroke-linejoin: round; stroke-miterlimit: 4; stroke-dasharray: 1.41732, 1.41732; stroke-dashoffset: 0pt; stroke-opacity: 1;"/>
      <path sodipodi:nodetypes="ccccccc" id="path5720" d="M 1201.6371,339.86219 C 1202.8501,333.61219 1205.2757,327.36219 1213.7654,327.36219 C 1222.2547,327.36219 1228.9254,333.61219 1225.8934,346.11219 C 1222.8614,358.61219 1208.9141,364.86219 1201.6371,377.36219 C 1194.3604,364.86219 1180.4131,358.61219 1177.3811,346.11219 C 1174.3491,333.61219 1181.0197,327.36219 1189.5091,327.36219 C 1197.9987,327.36219 1200.4244,333.61219 1201.6371,339.86219 z" style="fill: rgb(212, 0, 0); fill-opacity: 1; stroke: none; stroke-width: 0.354331; stroke-linecap: round; stroke-linejoin: round; stroke-miterlimit: 4; stroke-dasharray: 1.41732, 1.41732; stroke-dashoffset: 0pt; stroke-opacity: 1;"/>
      <path id="text4712" d="M 1212.1572,366.54647 C 1212.4239,367.39984 1212.7439,368.2265 1213.1172,369.02647 C 1213.4905,369.8265 1213.8372,370.6265 1214.1572,371.42647 L 1214.0772,371.58647 C 1209.2239,371.7465 1204.4772,372.43983 1199.8372,373.66647 C 1195.1972,374.83983 1190.8239,376.89316 1186.7172,379.82647 L 1186.5572,379.74647 C 1186.9306,378.99983 1187.2239,378.25316 1187.4372,377.50647 C 1187.7039,376.75983 1187.9706,375.9865 1188.2372,375.18647 C 1192.0772,373.15983 1195.9705,371.4265 1199.9172,369.98647 C 1203.8639,368.49317 1207.9172,367.31984 1212.0772,366.46647 L 1212.1572,366.54647 L 1212.1572,366.54647 M 1202.2372,343.66647 C 1203.8372,347.34653 1205.4372,350.91986 1207.0372,354.38647 C 1208.6372,357.85318 1210.1572,361.42651 1211.5972,365.10647 L 1211.5172,365.10647 C 1207.6772,365.85317 1203.9172,366.89317 1200.2372,368.22647 C 1196.6105,369.55984 1193.0372,371.1065 1189.5172,372.86647 L 1189.1972,372.94647 C 1191.4372,367.98651 1193.5972,363.07984 1195.6772,358.22647 C 1197.7572,353.31985 1199.9172,348.49319 1202.1572,343.74647 L 1202.2372,343.66647 M 1177.7572,402.62647 C 1179.1439,399.26647 1180.4506,395.85314 1181.6772,392.38647 C 1182.9572,388.91982 1184.3172,385.47982 1185.7572,382.06647 C 1187.6772,380.62649 1189.7839,379.34649 1192.0772,378.22647 C 1194.4239,377.05316 1196.8505,376.0665 1199.3572,375.26647 C 1201.8639,374.4665 1204.3972,373.85317 1206.9572,373.42647 C 1209.5705,372.99983 1212.1305,372.7865 1214.6372,372.78647 L 1214.5572,372.62647 C 1216.5839,377.85316 1218.4505,383.05316 1220.1572,388.22647 C 1221.9172,393.39981 1223.7038,398.57314 1225.5172,403.74647 L 1225.2772,403.90647 C 1221.8639,404.06647 1218.3972,404.14647 1214.8772,404.14647 C 1211.3572,404.14647 1207.7839,404.17314 1204.1572,404.22647 L 1204.0772,404.14647 C 1203.5972,402.4398 1203.1439,400.73314 1202.7172,399.02647 C 1202.2905,397.26648 1201.8372,395.53314 1201.3572,393.82647 L 1199.1972,402.94647 L 1199.2772,402.78647 L 1177.7572,402.78647 L 1177.7572,402.62647" style="font-size: 80px; font-style: normal; font-variant: normal; font-weight: normal; font-stretch: normal; text-align: start; line-height: 125%; text-anchor: start; fill: rgb(128, 0, 0); fill-opacity: 1; stroke: none; stroke-width: 1px; stroke-linecap: butt; stroke-linejoin: miter; stroke-opacity: 1; font-family: Airmole Stripe;"/>
    </g>
  </g>
</svg>