<?xml version="1.0" encoding="UTF-8" standalone="no"?>
<!-- Created with Inkscape (http://www.inkscape.org/) -->
<svg xmlns:dc="http://purl.org/dc/elements/1.1/" xmlns:cc="http://creativecommons.org/ns#" xmlns:rdf="http://www.w3.org/1999/02/22-rdf-syntax-ns#" xmlns:svg="http://www.w3.org/2000/svg" xmlns="http://www.w3.org/2000/svg" xmlns:sodipodi="http://sodipodi.sourceforge.net/DTD/sodipodi-0.dtd" xmlns:inkscape="http://www.inkscape.org/namespaces/inkscape" width="90" height="135" id="svg16720" sodipodi:version="0.32" inkscape:version="0.46" version="1.0" sodipodi:docname="heart_10.svg" inkscape:output_extension="org.inkscape.output.svg.inkscape">
  <defs id="defs16722">
    <inkscape:perspective sodipodi:type="inkscape:persp3d" inkscape:vp_x="0 : 526.18109 : 1" inkscape:vp_y="0 : 1000 : 0" inkscape:vp_z="744.09448 : 526.18109 : 1" inkscape:persp3d-origin="372.04724 : 350.78739 : 1" id="perspective16728"/>
  </defs>
  <sodipodi:namedview id="base" pagecolor="#ffffff" bordercolor="#666666" borderopacity="1.0" gridtolerance="10000" guidetolerance="10" objecttolerance="10" inkscape:pageopacity="0.0" inkscape:pageshadow="2" inkscape:zoom="1.4" inkscape:cx="1.1905278" inkscape:cy="112.32681" inkscape:document-units="px" inkscape:current-layer="layer1" showgrid="false" inkscape:window-width="641" inkscape:window-height="719" inkscape:window-x="611" inkscape:window-y="47"/>
  <metadata id="metadata16725">
    <rdf:RDF>
      <cc:Work rdf:about="">
        <dc:format>image/svg+xml</dc:format>
        <dc:type rdf:resource="http://purl.org/dc/dcmitype/StillImage"/>
      </cc:Work>
    </rdf:RDF>
  </metadata>
  <g inkscape:label="Layer 1" inkscape:groupmode="layer" id="layer1" transform="translate(-117.857, -330.576)">
    <g transform="translate(-655.044, 42.7143)" id="g15514">
      <g transform="translate(752.044, 277.929)" id="g4632">
        <rect style="fill: rgb(0, 0, 0); fill-opacity: 1; stroke: none; stroke-width: 3; stroke-linecap: butt; stroke-linejoin: round; stroke-miterlimit: 4; stroke-dasharray: none; stroke-opacity: 1;" id="rect4634" width="90" height="135" x="20.85714" y="9.9336166" ry="14.04"/>
        <rect style="fill: rgb(242, 242, 242); fill-opacity: 1; stroke: none; stroke-width: 3; stroke-linecap: butt; stroke-linejoin: round; stroke-miterlimit: 4; stroke-dasharray: none; stroke-opacity: 1;" id="rect4636" width="80" height="125" x="25.85714" y="14.933617" ry="13"/>
      </g>
      <path id="text4696" d="M 783.96221,374.38645 C 783.90887,373.58648 783.85554,372.81315 783.80221,372.06645 C 783.8022,371.31981 783.77554,370.54648 783.72221,369.74645 L 783.72221,369.58645 C 787.18887,366.06649 790.9222,362.97316 794.92221,360.30645 C 798.97552,357.58649 803.08218,355.1065 807.24221,352.86645 L 807.32221,352.94645 C 807.21551,354.17316 807.13551,355.4265 807.08221,356.70645 C 807.02885,357.98649 806.94885,359.23983 806.84221,360.46645 L 806.76221,360.70645 C 802.81552,362.57316 798.94886,364.62649 795.16221,366.86645 C 791.42886,369.05315 787.8022,371.58648 784.28221,374.46645 L 783.96221,374.38645 L 783.96221,374.38645 M 782.68221,345.74645 C 786.89553,345.31984 791.0822,344.97317 795.24221,344.70645 C 799.45552,344.43984 803.64218,344.09317 807.80221,343.66645 L 807.88221,343.74645 C 807.82885,344.97317 807.74885,346.22651 807.64221,347.50645 C 807.53551,348.73317 807.48218,349.95984 807.48221,351.18645 C 803.26885,353.53317 799.16219,356.01316 795.16221,358.62645 C 791.1622,361.23982 787.37553,364.25315 783.80221,367.66645 L 783.64221,367.58645 C 783.4822,363.85315 783.3222,360.17316 783.16221,356.54645 C 783.0022,352.91983 782.81554,349.31984 782.60221,345.74645 L 782.68221,345.66645 L 782.68221,345.74645 M 788.36221,400.86645 C 787.93553,396.49312 787.69553,392.06646 787.64221,387.58645 C 787.58887,383.10647 787.4022,378.65314 787.08221,374.22645 L 787.16221,374.06645 C 790.2022,371.82648 793.34886,369.74648 796.60221,367.82645 C 799.90885,365.90649 803.24218,364.03982 806.60221,362.22645 L 806.36221,362.30645 C 806.09552,368.70648 805.74885,374.99981 805.32221,381.18645 C 804.89552,387.3198 804.30885,393.53313 803.56221,399.82645 L 803.48221,399.98645 C 800.92219,400.19979 798.38886,400.41312 795.88221,400.62645 C 793.42886,400.78645 790.94886,400.94645 788.44221,401.10645 L 788.36221,400.86645 M 831.83971,369.50645 C 831.78635,369.71982 831.75968,370.03982 831.75971,370.46645 C 831.75968,370.73315 831.75968,371.02648 831.75971,371.34645 C 831.81302,371.61315 831.83968,371.87981 831.83971,372.14645 C 831.83968,372.57315 831.81302,372.89315 831.75971,373.10645 L 831.75971,373.02645 C 828.39969,375.10648 825.22636,377.42647 822.23971,379.98645 C 819.25303,382.49314 816.45303,385.2398 813.83971,388.22645 L 813.67971,388.14645 C 813.41304,387.7198 813.22637,387.29313 813.11971,386.86645 C 813.01304,386.4398 812.85304,386.01313 812.63971,385.58645 L 812.55971,385.58645 C 815.49303,382.38647 818.5597,379.45314 821.75971,376.78645 C 824.95969,374.11981 828.26635,371.66648 831.67971,369.42645 L 831.83971,369.50645 L 831.83971,369.50645 M 850.63971,359.18645 C 850.79967,359.71983 850.98633,360.25316 851.19971,360.78645 C 851.413,361.26649 851.573,361.77316 851.67971,362.30645 L 851.75971,362.22645 C 848.34633,363.82649 844.98634,365.47982 841.67971,367.18645 C 838.37301,368.83982 835.19968,370.70648 832.15971,372.78645 L 831.99971,371.82645 L 831.91971,370.14645 L 831.99971,369.26645 C 834.93301,367.39982 837.94634,365.58649 841.03971,363.82645 C 844.13301,362.06649 847.30634,360.49316 850.55971,359.10645 L 850.63971,359.18645 M 831.11971,401.74645 C 829.25302,401.74645 827.46636,401.39978 825.75971,400.70645 C 824.05303,400.06645 822.47969,399.18645 821.03971,398.06645 C 819.65303,396.94646 818.37303,395.66646 817.19971,394.22645 C 816.0797,392.78646 815.14637,391.29313 814.39971,389.74645 L 814.31971,389.66645 C 816.8797,386.78647 819.57303,384.1198 822.39971,381.66645 C 825.27969,379.15981 828.34635,376.89314 831.59971,374.86645 L 831.91971,374.86645 C 831.81302,379.39981 831.67968,383.8798 831.51971,388.30645 C 831.41302,392.73313 831.25302,397.18645 831.03971,401.66645 L 831.11971,401.74645 M 832.79971,401.58645 C 832.69302,397.05312 832.58635,392.54646 832.47971,388.06645 C 832.42635,383.58647 832.31968,379.07981 832.15971,374.54645 L 832.15971,374.38645 C 835.41301,372.41315 838.66634,370.57315 841.91971,368.86645 C 845.22634,367.15982 848.58633,365.47982 851.99971,363.82645 L 852.07971,363.90645 C 852.453,365.34649 852.71966,366.81315 852.87971,368.30645 C 853.03966,369.79982 853.14633,371.29315 853.19971,372.78645 L 853.19971,373.66645 C 853.19966,376.75981 852.79966,379.90647 851.99971,383.10645 C 851.19967,386.30647 849.973,389.2398 848.31971,391.90645 C 846.66634,394.51979 844.55967,396.73312 841.99971,398.54645 C 839.49301,400.30645 836.50635,401.34645 833.03971,401.66645 L 832.95971,401.58645 L 832.79971,401.58645 M 810.39971,372.94645 C 810.39971,369.85315 810.85304,366.59982 811.75971,363.18645 C 812.66637,359.77316 814.02637,356.6265 815.83971,353.74645 C 817.65303,350.8665 819.89303,348.49317 822.55971,346.62645 C 825.27969,344.75984 828.45302,343.82651 832.07971,343.82645 C 834.10635,343.82651 836.05301,344.22651 837.91971,345.02645 C 839.78634,345.77317 841.49301,346.81317 843.03971,348.14645 C 844.58634,349.47984 845.94634,350.99983 847.11971,352.70645 C 848.34633,354.41316 849.333,356.17316 850.07971,357.98645 L 849.99971,358.06645 C 846.90634,359.34649 843.83967,360.78649 840.79971,362.38645 C 837.81301,363.93315 834.87968,365.58649 831.99971,367.34645 L 831.75971,367.42645 C 828.18635,369.82648 824.74636,372.38648 821.43971,375.10645 C 818.18636,377.82647 815.14637,380.86647 812.31971,384.22645 L 812.15971,384.14645 C 811.6797,382.33314 811.30637,380.49314 811.03971,378.62645 C 810.77304,376.70648 810.63971,374.81314 810.63971,372.94645 L 810.39971,372.94645" style="font-size: 80px; font-style: normal; font-variant: normal; font-weight: normal; font-stretch: normal; text-align: start; line-height: 125%; text-anchor: start; fill: rgb(128, 0, 0); fill-opacity: 1; stroke: none; stroke-width: 1px; stroke-linecap: butt; stroke-linejoin: miter; stroke-opacity: 1; font-family: Airmole Stripe;"/>
      <path id="text5341" d="M 809.3031,305.50019 L 803.8631,305.50019 L 803.8631,302.5313 C 807.77421,302.53132 810.09717,301.17429 810.83199,298.46019 L 813.7831,298.46019 L 813.7831,321.16241 L 809.3031,321.16241 L 809.3031,305.50019 M 831.40866,321.2513 C 830.4842,321.67797 829.41161,321.8913 828.19088,321.8913 C 826.97013,321.8913 825.89754,321.6839 824.9731,321.26908 C 824.06051,320.85427 823.31384,320.29723 822.7331,319.59797 C 822.16421,318.89871 821.69606,318.03353 821.32866,317.00241 C 820.9731,315.95946 820.72421,314.87501 820.58199,313.74908 C 820.45162,312.62316 820.38644,311.36094 820.38644,309.96241 C 820.38644,305.62465 821.02643,302.60243 822.30644,300.89575 C 822.99384,299.95947 823.84125,299.24244 824.84866,298.74464 C 825.85606,298.24688 826.97013,297.99799 828.19088,297.99797 C 829.51828,297.99799 830.71531,298.28836 831.78199,298.86908 C 832.8605,299.44984 833.72568,300.27947 834.37755,301.35797 C 835.45605,303.07651 835.99531,305.98613 835.99532,310.08686 C 835.99531,311.44983 835.9242,312.68242 835.78199,313.78464 C 835.65161,314.88687 835.40864,315.95353 835.0531,316.98464 C 834.69753,318.01575 834.22938,318.88094 833.64866,319.58019 C 833.07976,320.27945 832.33309,320.83649 831.40866,321.2513 M 831.51532,309.98019 C 831.51531,308.26169 831.43828,306.83947 831.28421,305.71353 C 831.14198,304.58762 830.91679,303.73428 830.60866,303.15353 C 830.3005,302.56095 829.9568,302.15799 829.57755,301.94464 C 829.21013,301.73132 828.74791,301.62466 828.19088,301.62464 C 827.3968,301.62466 826.76273,301.86762 826.28866,302.35353 C 825.82643,302.83947 825.47087,303.6928 825.22199,304.91353 C 824.98495,306.13428 824.86643,307.81132 824.86644,309.94464 C 824.86643,311.59205 824.93754,312.96094 825.07977,314.0513 C 825.22199,315.12983 825.44124,315.95946 825.73755,316.54019 C 826.04569,317.10909 826.38939,317.50612 826.76866,317.7313 C 827.15976,317.94464 827.63384,318.05131 828.19088,318.0513 C 829.48272,318.05131 830.39531,317.35797 830.92866,315.9713 C 831.09457,315.53279 831.23087,314.74464 831.33755,313.60686 C 831.45605,312.45724 831.51531,311.24835 831.51532,309.98019" style="font-size: 32px; font-style: normal; font-variant: normal; font-weight: bold; font-stretch: normal; text-align: start; line-height: 125%; text-anchor: start; fill: rgb(170, 0, 0); fill-opacity: 1; stroke: none; stroke-width: 1px; stroke-linecap: butt; stroke-linejoin: miter; stroke-opacity: 1; font-family: AlMothnna;"/>
      <path sodipodi:nodetypes="ccccccc" id="path5458" d="M 792.87372,305.29639 C 793.48012,302.17139 794.69292,299.04639 798.93772,299.04639 C 803.18252,299.04639 806.51773,302.17139 805.00173,308.42139 C 803.48573,314.67139 796.51212,317.79639 792.87372,324.04639 C 789.23532,317.79639 782.26172,314.67139 780.74571,308.42139 C 779.22971,302.17139 782.56492,299.04639 786.80972,299.04639 C 791.05452,299.04639 792.26732,302.17139 792.87372,305.29639 z" style="fill: rgb(212, 0, 0); fill-opacity: 1; stroke: none; stroke-width: 0.354331; stroke-linecap: round; stroke-linejoin: round; stroke-miterlimit: 4; stroke-dasharray: 1.41732, 1.41732; stroke-dashoffset: 0pt; stroke-opacity: 1;"/>
      <path sodipodi:nodetypes="ccccccc" id="path5644" d="M 833.42855,368.11219 C 833.79239,366.23719 834.52007,364.36219 837.06695,364.36219 C 839.61383,364.36219 841.61495,366.23719 840.70535,369.98719 C 839.79575,373.73719 835.61159,375.61219 833.42855,379.36219 C 831.24551,375.61219 827.06135,373.73719 826.15175,369.98719 C 825.24215,366.23719 827.24327,364.36219 829.79015,364.36219 C 832.33703,364.36219 833.06471,366.23719 833.42855,368.11219 z" style="fill: rgb(212, 0, 0); fill-opacity: 1; stroke: none; stroke-width: 0.354331; stroke-linecap: round; stroke-linejoin: round; stroke-miterlimit: 4; stroke-dasharray: 1.41732, 1.41732; stroke-dashoffset: 0pt; stroke-opacity: 1;"/>
      <path sodipodi:nodetypes="ccccccc" id="path5700" d="M 786.42855,340.11219 C 786.79239,338.23719 787.52007,336.36219 790.06695,336.36219 C 792.61383,336.36219 794.61495,338.23719 793.70535,341.98719 C 792.79575,345.73719 788.61159,347.61219 786.42855,351.36219 C 784.24551,347.61219 780.06135,345.73719 779.15175,341.98719 C 778.24215,338.23719 780.24327,336.36219 782.79015,336.36219 C 785.33703,336.36219 786.06471,338.23719 786.42855,340.11219 z" style="fill: rgb(212, 0, 0); fill-opacity: 1; stroke: none; stroke-width: 0.354331; stroke-linecap: round; stroke-linejoin: round; stroke-miterlimit: 4; stroke-dasharray: 1.41732, 1.41732; stroke-dashoffset: 0pt; stroke-opacity: 1;"/>
      <path sodipodi:nodetypes="ccccccc" id="path5702" d="M 805.42855,342.11219 C 805.79239,340.23719 806.52007,338.36219 809.06695,338.36219 C 811.61383,338.36219 813.61495,340.23719 812.70535,343.98719 C 811.79575,347.73719 807.61159,349.61219 805.42855,353.36219 C 803.24551,349.61219 799.06135,347.73719 798.15175,343.98719 C 797.24215,340.23719 799.24327,338.36219 801.79015,338.36219 C 804.33703,338.36219 805.06471,340.23719 805.42855,342.11219 z" style="fill: rgb(212, 0, 0); fill-opacity: 1; stroke: none; stroke-width: 0.354331; stroke-linecap: round; stroke-linejoin: round; stroke-miterlimit: 4; stroke-dasharray: 1.41732, 1.41732; stroke-dashoffset: 0pt; stroke-opacity: 1;"/>
      <path sodipodi:nodetypes="ccccccc" id="path5704" d="M 789.42855,394.11219 C 789.79239,392.23719 790.52007,390.36219 793.06695,390.36219 C 795.61383,390.36219 797.61495,392.23719 796.70535,395.98719 C 795.79575,399.73719 791.61159,401.61219 789.42855,405.36219 C 787.24551,401.61219 783.06135,399.73719 782.15175,395.98719 C 781.24215,392.23719 783.24327,390.36219 785.79015,390.36219 C 788.33703,390.36219 789.06471,392.23719 789.42855,394.11219 z" style="fill: rgb(212, 0, 0); fill-opacity: 1; stroke: none; stroke-width: 0.354331; stroke-linecap: round; stroke-linejoin: round; stroke-miterlimit: 4; stroke-dasharray: 1.41732, 1.41732; stroke-dashoffset: 0pt; stroke-opacity: 1;"/>
      <path sodipodi:nodetypes="ccccccc" id="path5706" d="M 803.42855,394.11219 C 803.79239,392.23719 804.52007,390.36219 807.06695,390.36219 C 809.61383,390.36219 811.61495,392.23719 810.70535,395.98719 C 809.79575,399.73719 805.61159,401.61219 803.42855,405.36219 C 801.24551,401.61219 797.06135,399.73719 796.15175,395.98719 C 795.24215,392.23719 797.24327,390.36219 799.79015,390.36219 C 802.33703,390.36219 803.06471,392.23719 803.42855,394.11219 z" style="fill: rgb(212, 0, 0); fill-opacity: 1; stroke: none; stroke-width: 0.354331; stroke-linecap: round; stroke-linejoin: round; stroke-miterlimit: 4; stroke-dasharray: 1.41732, 1.41732; stroke-dashoffset: 0pt; stroke-opacity: 1;"/>
      <path sodipodi:nodetypes="ccccccc" id="path5708" d="M 823.42855,392.11219 C 823.79239,390.23719 824.52007,388.36219 827.06695,388.36219 C 829.61383,388.36219 831.61495,390.23719 830.70535,393.98719 C 829.79575,397.73719 825.61159,399.61219 823.42855,403.36219 C 821.24551,399.61219 817.06135,397.73719 816.15175,393.98719 C 815.24215,390.23719 817.24327,388.36219 819.79015,388.36219 C 822.33703,388.36219 823.06471,390.23719 823.42855,392.11219 z" style="fill: rgb(212, 0, 0); fill-opacity: 1; stroke: none; stroke-width: 0.354331; stroke-linecap: round; stroke-linejoin: round; stroke-miterlimit: 4; stroke-dasharray: 1.41732, 1.41732; stroke-dashoffset: 0pt; stroke-opacity: 1;"/>
      <path sodipodi:nodetypes="ccccccc" id="path5710" d="M 846.42855,392.11219 C 846.79239,390.23719 847.52007,388.36219 850.06695,388.36219 C 852.61383,388.36219 854.61495,390.23719 853.70535,393.98719 C 852.79575,397.73719 848.61159,399.61219 846.42855,403.36219 C 844.24551,399.61219 840.06135,397.73719 839.15175,393.98719 C 838.24215,390.23719 840.24327,388.36219 842.79015,388.36219 C 845.33703,388.36219 846.06471,390.23719 846.42855,392.11219 z" style="fill: rgb(212, 0, 0); fill-opacity: 1; stroke: none; stroke-width: 0.354331; stroke-linecap: round; stroke-linejoin: round; stroke-miterlimit: 4; stroke-dasharray: 1.41732, 1.41732; stroke-dashoffset: 0pt; stroke-opacity: 1;"/>
      <path sodipodi:nodetypes="ccccccc" id="path5712" d="M 854.42855,364.11219 C 854.79239,362.23719 855.52007,360.36219 858.06695,360.36219 C 860.61383,360.36219 862.61495,362.23719 861.70535,365.98719 C 860.79575,369.73719 856.61159,371.61219 854.42855,375.36219 C 852.24551,371.61219 848.06135,369.73719 847.15175,365.98719 C 846.24215,362.23719 848.24327,360.36219 850.79015,360.36219 C 853.33703,360.36219 854.06471,362.23719 854.42855,364.11219 z" style="fill: rgb(212, 0, 0); fill-opacity: 1; stroke: none; stroke-width: 0.354331; stroke-linecap: round; stroke-linejoin: round; stroke-miterlimit: 4; stroke-dasharray: 1.41732, 1.41732; stroke-dashoffset: 0pt; stroke-opacity: 1;"/>
      <path sodipodi:nodetypes="ccccccc" id="path5714" d="M 845.42855,341.11219 C 845.79239,339.23719 846.52007,337.36219 849.06695,337.36219 C 851.61383,337.36219 853.61495,339.23719 852.70535,342.98719 C 851.79575,346.73719 847.61159,348.61219 845.42855,352.36219 C 843.24551,348.61219 839.06135,346.73719 838.15175,342.98719 C 837.24215,339.23719 839.24327,337.36219 841.79015,337.36219 C 844.33703,337.36219 845.06471,339.23719 845.42855,341.11219 z" style="fill: rgb(212, 0, 0); fill-opacity: 1; stroke: none; stroke-width: 0.354331; stroke-linecap: round; stroke-linejoin: round; stroke-miterlimit: 4; stroke-dasharray: 1.41732, 1.41732; stroke-dashoffset: 0pt; stroke-opacity: 1;"/>
      <path sodipodi:nodetypes="ccccccc" id="path5716" d="M 821.42855,344.11219 C 821.79239,342.23719 822.52007,340.36219 825.06695,340.36219 C 827.61383,340.36219 829.61495,342.23719 828.70535,345.98719 C 827.79575,349.73719 823.61159,351.61219 821.42855,355.36219 C 819.24551,351.61219 815.06135,349.73719 814.15175,345.98719 C 813.24215,342.23719 815.24327,340.36219 817.79015,340.36219 C 820.33703,340.36219 821.06471,342.23719 821.42855,344.11219 z" style="fill: rgb(212, 0, 0); fill-opacity: 1; stroke: none; stroke-width: 0.354331; stroke-linecap: round; stroke-linejoin: round; stroke-miterlimit: 4; stroke-dasharray: 1.41732, 1.41732; stroke-dashoffset: 0pt; stroke-opacity: 1;"/>
    </g>
  </g>
</svg>