<?xml version="1.0" encoding="UTF-8" standalone="no"?>
<!-- Created with Inkscape (http://www.inkscape.org/) -->
<svg xmlns:dc="http://purl.org/dc/elements/1.1/" xmlns:cc="http://creativecommons.org/ns#" xmlns:rdf="http://www.w3.org/1999/02/22-rdf-syntax-ns#" xmlns:svg="http://www.w3.org/2000/svg" xmlns="http://www.w3.org/2000/svg" xmlns:sodipodi="http://sodipodi.sourceforge.net/DTD/sodipodi-0.dtd" xmlns:inkscape="http://www.inkscape.org/namespaces/inkscape" width="90" height="135" id="svg16720" sodipodi:version="0.32" inkscape:version="0.46" version="1.0" sodipodi:docname="heart_9.svg" inkscape:output_extension="org.inkscape.output.svg.inkscape">
  <defs id="defs16722">
    <inkscape:perspective sodipodi:type="inkscape:persp3d" inkscape:vp_x="0 : 526.18109 : 1" inkscape:vp_y="0 : 1000 : 0" inkscape:vp_z="744.09448 : 526.18109 : 1" inkscape:persp3d-origin="372.04724 : 350.78739 : 1" id="perspective16728"/>
  </defs>
  <sodipodi:namedview id="base" pagecolor="#ffffff" bordercolor="#666666" borderopacity="1.0" gridtolerance="10000" guidetolerance="10" objecttolerance="10" inkscape:pageopacity="0.0" inkscape:pageshadow="2" inkscape:zoom="1.4" inkscape:cx="1.1905278" inkscape:cy="112.32681" inkscape:document-units="px" inkscape:current-layer="layer1" showgrid="false" inkscape:window-width="641" inkscape:window-height="719" inkscape:window-x="611" inkscape:window-y="47"/>
  <metadata id="metadata16725">
    <rdf:RDF>
      <cc:Work rdf:about="">
        <dc:format>image/svg+xml</dc:format>
        <dc:type rdf:resource="http://purl.org/dc/dcmitype/StillImage"/>
      </cc:Work>
    </rdf:RDF>
  </metadata>
  <g inkscape:label="Layer 1" inkscape:groupmode="layer" id="layer1" transform="translate(-117.857, -330.576)">
    <g transform="translate(-559.11, 42.7143)" id="g14456">
      <g transform="translate(656.11, 277.929)" id="g4626">
        <rect style="fill: rgb(0, 0, 0); fill-opacity: 1; stroke: none; stroke-width: 3; stroke-linecap: butt; stroke-linejoin: round; stroke-miterlimit: 4; stroke-dasharray: none; stroke-opacity: 1;" id="rect4628" width="90" height="135" x="20.85714" y="9.9336166" ry="14.04"/>
        <rect style="fill: rgb(242, 242, 242); fill-opacity: 1; stroke: none; stroke-width: 3; stroke-linecap: butt; stroke-linejoin: round; stroke-miterlimit: 4; stroke-dasharray: none; stroke-opacity: 1;" id="rect4630" width="80" height="125" x="25.85714" y="14.933617" ry="13"/>
      </g>
      <path id="text4692" d="M 740.32687,356.46645 L 740.64687,357.42645 C 740.70016,357.74649 740.83349,358.09316 741.04687,358.46645 L 741.12687,358.86645 C 737.8735,360.14649 734.64683,361.50649 731.44687,362.94645 C 728.30017,364.33315 725.20684,365.85315 722.16687,367.50645 C 719.12685,369.15982 716.19352,370.97315 713.36687,372.94645 C 710.54019,374.91981 707.87353,377.10648 705.36687,379.50645 L 705.20687,379.50645 C 704.83353,379.07981 704.51353,378.62647 704.24687,378.14645 C 704.03353,377.66647 703.79353,377.18647 703.52687,376.70645 L 703.84687,376.86645 C 708.96686,372.17315 714.64685,368.09315 720.88687,364.62645 C 727.12684,361.15982 733.58017,358.41316 740.24687,356.38645 L 740.32687,356.46645 M 721.76687,343.74645 C 723.58018,343.85317 725.39351,344.17317 727.20687,344.70645 C 729.07351,345.18651 730.80684,345.90651 732.40687,346.86645 C 734.00683,347.77317 735.42017,348.91984 736.64687,350.30645 C 737.92683,351.69317 738.94016,353.2665 739.68687,355.02645 L 739.92687,355.02645 C 733.1535,357.42649 726.62018,360.22649 720.32687,363.42645 C 714.08685,366.57315 708.30019,370.51981 702.96687,375.26645 C 702.7002,375.26648 702.48687,374.97314 702.32687,374.38645 C 702.16687,373.74648 702.03353,373.05315 701.92687,372.30645 C 701.8202,371.50648 701.7402,370.75981 701.68687,370.06645 C 701.63353,369.31982 701.60687,368.83982 701.60687,368.62645 L 701.60687,367.02645 C 701.60687,364.19982 702.0602,361.39982 702.96687,358.62645 C 703.92686,355.79983 705.2602,353.29317 706.96687,351.10645 C 708.67353,348.8665 710.72686,347.07984 713.12687,345.74645 C 715.52685,344.35984 718.19352,343.66651 721.12687,343.66645 L 721.68687,343.66645 L 721.76687,343.74645 M 725.12687,385.26645 C 724.22018,385.58647 723.28685,385.8798 722.32687,386.14645 C 721.42018,386.3598 720.48685,386.46647 719.52687,386.46645 L 719.12687,386.46645 C 716.67352,386.41313 714.27352,385.90647 711.92687,384.94645 C 709.63353,383.93313 707.66019,382.46647 706.00687,380.54645 L 705.76687,380.14645 C 711.15352,375.87981 716.83352,372.11981 722.80687,368.86645 C 728.78017,365.55982 734.96683,362.54649 741.36687,359.82645 L 741.44687,359.90645 C 741.60683,361.18649 741.76683,362.43982 741.92687,363.66645 C 742.08683,364.89315 742.22016,366.17315 742.32687,367.50645 C 742.22016,371.02648 741.68683,374.43981 740.72687,377.74645 C 739.76683,380.9998 738.48683,384.14647 736.88687,387.18645 C 735.28683,390.22646 733.3935,393.13313 731.20687,395.90645 C 729.07351,398.62645 726.75351,401.18645 724.24687,403.58645 L 724.08687,403.58645 C 723.02018,402.62645 722.00685,401.58645 721.04687,400.46645 C 720.14018,399.34645 719.10018,398.33312 717.92687,397.42645 L 718.08687,397.26645 C 721.44685,393.42646 724.27351,389.26646 726.56687,384.78645 C 728.86017,380.25314 730.56684,375.47981 731.68687,370.46645 C 730.94017,373.07981 729.98017,375.61314 728.80687,378.06645 C 727.68684,380.5198 726.48684,382.9198 725.20687,385.26645 L 725.12687,385.26645" style="font-size: 80px; font-style: normal; font-variant: normal; font-weight: normal; font-stretch: normal; text-align: start; line-height: 125%; text-anchor: start; fill: rgb(128, 0, 0); fill-opacity: 1; stroke: none; stroke-width: 1px; stroke-linecap: butt; stroke-linejoin: miter; stroke-opacity: 1; font-family: Airmole Stripe;"/>
      <path id="text5337" d="M 729.6906,308.16798 C 729.69058,309.80133 729.58688,311.29206 729.37949,312.6402 C 729.17206,313.9754 728.89984,315.10965 728.56282,316.04298 C 728.22577,316.97632 727.81095,317.80595 727.31838,318.53187 C 726.82577,319.24483 726.31373,319.8152 725.78226,320.24298 C 725.26373,320.6578 724.68688,320.99483 724.05171,321.25409 C 723.42947,321.52631 722.83966,321.7078 722.28226,321.79854 C 721.72485,321.90224 721.14151,321.95409 720.53226,321.95409 C 719.13226,321.95409 717.86189,321.66891 716.72115,321.09854 C 715.58041,320.52817 714.673,319.73743 713.99893,318.72631 C 713.33782,317.71521 712.98782,316.58095 712.94893,315.32354 L 717.69338,315.32354 C 717.74522,316.06243 718.04337,316.65224 718.58782,317.09298 C 719.13226,317.53373 719.83226,317.7541 720.68782,317.75409 C 723.42299,317.7541 724.79058,315.40132 724.7906,310.69576 C 724.77762,310.70873 724.66096,310.84484 724.4406,311.10409 C 724.22021,311.3504 724.0517,311.53188 723.93504,311.64854 C 723.83133,311.75225 723.6304,311.92077 723.33226,312.15409 C 723.0341,312.38743 722.74244,312.56243 722.45726,312.67909 C 722.18503,312.7828 721.82855,312.88651 721.38782,312.9902 C 720.96003,313.09391 720.50633,313.14577 720.02671,313.14576 C 717.823,313.14577 716.03411,312.34855 714.66004,310.75409 C 713.28597,309.15966 712.59893,307.08559 712.59893,304.53187 C 712.59893,301.9393 713.37023,299.83282 714.91282,298.21243 C 716.46837,296.59208 718.48411,295.7819 720.96004,295.78187 C 721.50448,295.7819 722.03596,295.82727 722.55449,295.91798 C 723.07299,295.99578 723.62392,296.15782 724.20726,296.40409 C 724.80355,296.65041 725.35447,296.96801 725.86004,297.35687 C 726.37855,297.73282 726.87762,298.24486 727.35726,298.89298 C 727.83688,299.52819 728.24521,300.26708 728.58226,301.10965 C 728.91928,301.95226 729.18502,302.97633 729.37949,304.18187 C 729.58688,305.38744 729.69058,306.71614 729.6906,308.16798 M 720.82393,299.76798 C 719.748,299.768 718.88596,300.19578 718.23782,301.05131 C 717.58967,301.89393 717.26559,303.02818 717.2656,304.45409 C 717.26559,305.88003 717.58967,307.00781 718.23782,307.83743 C 718.89892,308.66707 719.79337,309.08188 720.92115,309.08187 C 722.03596,309.08188 722.94336,308.66707 723.64338,307.83743 C 724.34336,306.99485 724.69336,305.893 724.69338,304.53187 C 724.69336,303.06707 724.34336,301.90689 723.64338,301.05131 C 722.94336,300.19578 722.00355,299.768 720.82393,299.76798" style="font-size: 35px; font-style: normal; font-variant: normal; font-weight: bold; font-stretch: normal; text-align: start; line-height: 125%; text-anchor: start; fill: rgb(170, 0, 0); fill-opacity: 1; stroke: none; stroke-width: 1px; stroke-linecap: butt; stroke-linejoin: miter; stroke-opacity: 1; font-family: AlMothnna;"/>
      <path sodipodi:nodetypes="ccccccc" id="path5456" d="M 696.93962,305.29639 C 697.54602,302.17139 698.75882,299.04639 703.00362,299.04639 C 707.24843,299.04639 710.58363,302.17139 709.06763,308.42139 C 707.55163,314.67139 700.57802,317.79639 696.93962,324.04639 C 693.30122,317.79639 686.32762,314.67139 684.81162,308.42139 C 683.29562,302.17139 686.63082,299.04639 690.87562,299.04639 C 695.12042,299.04639 696.33322,302.17139 696.93962,305.29639 z" style="fill: rgb(212, 0, 0); fill-opacity: 1; stroke: none; stroke-width: 0.354331; stroke-linecap: round; stroke-linejoin: round; stroke-miterlimit: 4; stroke-dasharray: 1.41732, 1.41732; stroke-dashoffset: 0pt; stroke-opacity: 1;"/>
      <path sodipodi:nodetypes="ccccccc" id="path5642" d="M 721.42855,358.11219 C 721.79239,356.23719 722.52007,354.36219 725.06695,354.36219 C 727.61383,354.36219 729.61495,356.23719 728.70535,359.98719 C 727.79575,363.73719 723.61159,365.61219 721.42855,369.36219 C 719.24551,365.61219 715.06135,363.73719 714.15175,359.98719 C 713.24215,356.23719 715.24327,354.36219 717.79015,354.36219 C 720.33703,354.36219 721.06471,356.23719 721.42855,358.11219 z" style="fill: rgb(212, 0, 0); fill-opacity: 1; stroke: none; stroke-width: 0.354331; stroke-linecap: round; stroke-linejoin: round; stroke-miterlimit: 4; stroke-dasharray: 1.41732, 1.41732; stroke-dashoffset: 0pt; stroke-opacity: 1;"/>
      <path sodipodi:nodetypes="ccccccc" id="path5684" d="M 723.42855,336.11219 C 723.79239,334.23719 724.52007,332.36219 727.06695,332.36219 C 729.61383,332.36219 731.61495,334.23719 730.70535,337.98719 C 729.79575,341.73719 725.61159,343.61219 723.42855,347.36219 C 721.24551,343.61219 717.06135,341.73719 716.15175,337.98719 C 715.24215,334.23719 717.24327,332.36219 719.79015,332.36219 C 722.33703,332.36219 723.06471,334.23719 723.42855,336.11219 z" style="fill: rgb(212, 0, 0); fill-opacity: 1; stroke: none; stroke-width: 0.354331; stroke-linecap: round; stroke-linejoin: round; stroke-miterlimit: 4; stroke-dasharray: 1.41732, 1.41732; stroke-dashoffset: 0pt; stroke-opacity: 1;"/>
      <path sodipodi:nodetypes="ccccccc" id="path5686" d="M 703.42855,348.11219 C 703.79239,346.23719 704.52007,344.36219 707.06695,344.36219 C 709.61383,344.36219 711.61495,346.23719 710.70535,349.98719 C 709.79575,353.73719 705.61159,355.61219 703.42855,359.36219 C 701.24551,355.61219 697.06135,353.73719 696.15175,349.98719 C 695.24215,346.23719 697.24327,344.36219 699.79015,344.36219 C 702.33703,344.36219 703.06471,346.23719 703.42855,348.11219 z" style="fill: rgb(212, 0, 0); fill-opacity: 1; stroke: none; stroke-width: 0.354331; stroke-linecap: round; stroke-linejoin: round; stroke-miterlimit: 4; stroke-dasharray: 1.41732, 1.41732; stroke-dashoffset: 0pt; stroke-opacity: 1;"/>
      <path sodipodi:nodetypes="ccccccc" id="path5688" d="M 703.42855,369.11219 C 703.79239,367.23719 704.52007,365.36219 707.06695,365.36219 C 709.61383,365.36219 711.61495,367.23719 710.70535,370.98719 C 709.79575,374.73719 705.61159,376.61219 703.42855,380.36219 C 701.24551,376.61219 697.06135,374.73719 696.15175,370.98719 C 695.24215,367.23719 697.24327,365.36219 699.79015,365.36219 C 702.33703,365.36219 703.06471,367.23719 703.42855,369.11219 z" style="fill: rgb(212, 0, 0); fill-opacity: 1; stroke: none; stroke-width: 0.354331; stroke-linecap: round; stroke-linejoin: round; stroke-miterlimit: 4; stroke-dasharray: 1.41732, 1.41732; stroke-dashoffset: 0pt; stroke-opacity: 1;"/>
      <path sodipodi:nodetypes="ccccccc" id="path5690" d="M 718.42855,381.11219 C 718.79239,379.23719 719.52007,377.36219 722.06695,377.36219 C 724.61383,377.36219 726.61495,379.23719 725.70535,382.98719 C 724.79575,386.73719 720.61159,388.61219 718.42855,392.36219 C 716.24551,388.61219 712.06135,386.73719 711.15175,382.98719 C 710.24215,379.23719 712.24327,377.36219 714.79015,377.36219 C 717.33703,377.36219 718.06471,379.23719 718.42855,381.11219 z" style="fill: rgb(212, 0, 0); fill-opacity: 1; stroke: none; stroke-width: 0.354331; stroke-linecap: round; stroke-linejoin: round; stroke-miterlimit: 4; stroke-dasharray: 1.41732, 1.41732; stroke-dashoffset: 0pt; stroke-opacity: 1;"/>
      <path sodipodi:nodetypes="ccccccc" id="path5692" d="M 724.42855,396.11219 C 724.79239,394.23719 725.52007,392.36219 728.06695,392.36219 C 730.61383,392.36219 732.61495,394.23719 731.70535,397.98719 C 730.79575,401.73719 726.61159,403.61219 724.42855,407.36219 C 722.24551,403.61219 718.06135,401.73719 717.15175,397.98719 C 716.24215,394.23719 718.24327,392.36219 720.79015,392.36219 C 723.33703,392.36219 724.06471,394.23719 724.42855,396.11219 z" style="fill: rgb(212, 0, 0); fill-opacity: 1; stroke: none; stroke-width: 0.354331; stroke-linecap: round; stroke-linejoin: round; stroke-miterlimit: 4; stroke-dasharray: 1.41732, 1.41732; stroke-dashoffset: 0pt; stroke-opacity: 1;"/>
      <path sodipodi:nodetypes="ccccccc" id="path5694" d="M 740.42855,381.11219 C 740.79239,379.23719 741.52007,377.36219 744.06695,377.36219 C 746.61383,377.36219 748.61495,379.23719 747.70535,382.98719 C 746.79575,386.73719 742.61159,388.61219 740.42855,392.36219 C 738.24551,388.61219 734.06135,386.73719 733.15175,382.98719 C 732.24215,379.23719 734.24327,377.36219 736.79015,377.36219 C 739.33703,377.36219 740.06471,379.23719 740.42855,381.11219 z" style="fill: rgb(212, 0, 0); fill-opacity: 1; stroke: none; stroke-width: 0.354331; stroke-linecap: round; stroke-linejoin: round; stroke-miterlimit: 4; stroke-dasharray: 1.41732, 1.41732; stroke-dashoffset: 0pt; stroke-opacity: 1;"/>
      <path sodipodi:nodetypes="ccccccc" id="path5696" d="M 741.42855,360.11219 C 741.79239,358.23719 742.52007,356.36219 745.06695,356.36219 C 747.61383,356.36219 749.61495,358.23719 748.70535,361.98719 C 747.79575,365.73719 743.61159,367.61219 741.42855,371.36219 C 739.24551,367.61219 735.06135,365.73719 734.15175,361.98719 C 733.24215,358.23719 735.24327,356.36219 737.79015,356.36219 C 740.33703,356.36219 741.06471,358.23719 741.42855,360.11219 z" style="fill: rgb(212, 0, 0); fill-opacity: 1; stroke: none; stroke-width: 0.354331; stroke-linecap: round; stroke-linejoin: round; stroke-miterlimit: 4; stroke-dasharray: 1.41732, 1.41732; stroke-dashoffset: 0pt; stroke-opacity: 1;"/>
      <path sodipodi:nodetypes="ccccccc" id="path5698" d="M 737.42855,342.11219 C 737.79239,340.23719 738.52007,338.36219 741.06695,338.36219 C 743.61383,338.36219 745.61495,340.23719 744.70535,343.98719 C 743.79575,347.73719 739.61159,349.61219 737.42855,353.36219 C 735.24551,349.61219 731.06135,347.73719 730.15175,343.98719 C 729.24215,340.23719 731.24327,338.36219 733.79015,338.36219 C 736.33703,338.36219 737.06471,340.23719 737.42855,342.11219 z" style="fill: rgb(212, 0, 0); fill-opacity: 1; stroke: none; stroke-width: 0.354331; stroke-linecap: round; stroke-linejoin: round; stroke-miterlimit: 4; stroke-dasharray: 1.41732, 1.41732; stroke-dashoffset: 0pt; stroke-opacity: 1;"/>
    </g>
  </g>
</svg>