<?xml version="1.0" encoding="UTF-8" standalone="no"?>
<!-- Created with Inkscape (http://www.inkscape.org/) -->
<svg xmlns:dc="http://purl.org/dc/elements/1.1/" xmlns:cc="http://creativecommons.org/ns#" xmlns:rdf="http://www.w3.org/1999/02/22-rdf-syntax-ns#" xmlns:svg="http://www.w3.org/2000/svg" xmlns="http://www.w3.org/2000/svg" xmlns:sodipodi="http://sodipodi.sourceforge.net/DTD/sodipodi-0.dtd" xmlns:inkscape="http://www.inkscape.org/namespaces/inkscape" width="90" height="135" id="svg16720" sodipodi:version="0.32" inkscape:version="0.46" version="1.0" sodipodi:docname="heart_2.svg" inkscape:output_extension="org.inkscape.output.svg.inkscape">
  <defs id="defs16722">
    <inkscape:perspective sodipodi:type="inkscape:persp3d" inkscape:vp_x="0 : 526.18109 : 1" inkscape:vp_y="0 : 1000 : 0" inkscape:vp_z="744.09448 : 526.18109 : 1" inkscape:persp3d-origin="372.04724 : 350.78739 : 1" id="perspective16728"/>
  </defs>
  <sodipodi:namedview id="base" pagecolor="#ffffff" bordercolor="#666666" borderopacity="1.0" gridtolerance="10000" guidetolerance="10" objecttolerance="10" inkscape:pageopacity="0.0" inkscape:pageshadow="2" inkscape:zoom="1.4" inkscape:cx="1.1905278" inkscape:cy="112.32681" inkscape:document-units="px" inkscape:current-layer="layer1" showgrid="false" inkscape:window-width="641" inkscape:window-height="719" inkscape:window-x="611" inkscape:window-y="47"/>
  <metadata id="metadata16725">
    <rdf:RDF>
      <cc:Work rdf:about="">
        <dc:format>image/svg+xml</dc:format>
        <dc:type rdf:resource="http://purl.org/dc/dcmitype/StillImage"/>
      </cc:Work>
    </rdf:RDF>
  </metadata>
  <g inkscape:label="Layer 1" inkscape:groupmode="layer" id="layer1" transform="translate(-117.857, -330.576)">
    <g transform="translate(112.429, 42.7143)" id="g14225">
      <g transform="translate(-15.4286, 277.929)" id="g4584">
        <rect style="fill: rgb(0, 0, 0); fill-opacity: 1; stroke: none; stroke-width: 3; stroke-linecap: butt; stroke-linejoin: round; stroke-miterlimit: 4; stroke-dasharray: none; stroke-opacity: 1;" id="rect4586" width="90" height="135" x="20.85714" y="9.9336166" ry="14.04"/>
        <rect style="fill: rgb(242, 242, 242); fill-opacity: 1; stroke: none; stroke-width: 3; stroke-linecap: butt; stroke-linejoin: round; stroke-miterlimit: 4; stroke-dasharray: none; stroke-opacity: 1;" id="rect4588" width="80" height="125" x="25.85714" y="14.933617" ry="13"/>
      </g>
      <path id="text4668" d="M 38.188546,374.54646 C 37.975206,374.06649 37.815206,373.58649 37.708546,373.10646 C 37.655206,372.62649 37.54854,372.14649 37.388546,371.66646 L 37.388546,371.34646 C 41.281869,367.23983 45.441865,363.5065 49.868546,360.14646 C 54.29519,356.73317 59.041852,353.69317 64.108546,351.02646 L 64.188546,351.02646 C 64.881846,351.93317 65.441845,352.89317 65.868546,353.90646 C 66.348511,354.8665 66.801844,355.87984 67.228546,356.94646 L 67.308546,356.94646 C 63.308514,359.3465 59.388518,361.79983 55.548546,364.30646 C 51.708526,366.81316 48.001863,369.55982 44.428546,372.54646 L 43.388546,372.46646 C 42.428535,372.46649 41.495203,372.65315 40.588546,373.02646 C 39.735204,373.34649 38.988538,373.87982 38.348546,374.62646 L 38.188546,374.54646 L 38.188546,374.54646 M 31.788546,351.58646 C 34.188543,349.23984 36.828541,347.34651 39.708546,345.90646 C 42.641868,344.41318 45.788532,343.66652 49.148546,343.66646 C 51.921859,343.66652 54.481856,344.19985 56.828546,345.26646 C 59.175185,346.33318 61.308516,347.85318 63.228546,349.82646 C 63.228514,349.87984 63.201848,349.90651 63.148546,349.90646 C 63.148514,349.90651 63.148514,349.93318 63.148546,349.98646 C 58.135186,352.43984 53.415191,355.3465 48.988546,358.70646 C 44.615199,362.0665 40.615203,365.79983 36.988546,369.90646 L 36.828546,369.74646 C 35.921875,366.70649 35.095209,363.71983 34.348546,360.78646 C 33.601877,357.79984 32.775211,354.7865 31.868546,351.74646 L 31.788546,351.58646 M 50.268546,376.94646 L 50.268546,376.78646 C 50.268527,375.77315 49.868528,374.94648 49.068546,374.30646 C 48.321862,373.66649 47.495197,373.21315 46.588546,372.94646 L 46.588546,372.78646 C 49.948527,370.17316 53.388524,367.63983 56.908546,365.18646 C 60.48185,362.73316 64.028513,360.3865 67.548546,358.14646 L 67.708546,358.22646 C 68.135176,359.5065 68.455176,360.8665 68.668546,362.30646 C 68.935175,363.7465 69.068508,365.10649 69.068546,366.38646 L 69.068546,366.54646 C 69.068508,368.89316 68.668509,371.21316 67.868546,373.50646 C 67.121844,375.74648 66.055178,377.82648 64.668546,379.74646 C 63.281847,381.66648 61.628516,383.37314 59.708546,384.86646 C 57.78852,386.30647 55.681855,387.37314 53.388546,388.06646 C 52.748525,388.2798 52.028525,388.49314 51.228546,388.70646 C 50.48186,388.86647 49.735194,389.10647 48.988546,389.42646 C 48.295196,389.74647 47.681863,390.17314 47.148546,390.70646 C 46.668531,391.18647 46.401864,391.85313 46.348546,392.70646 C 46.348531,392.86647 46.348531,393.02647 46.348546,393.18646 C 46.401864,393.34647 46.428531,393.4798 46.428546,393.58646 C 49.308528,393.37313 52.188525,393.10647 55.068546,392.78646 C 57.948519,392.41313 60.828517,391.93313 63.708546,391.34646 L 63.788546,391.42646 C 63.681847,392.81313 63.628514,394.22647 63.628546,395.66646 C 63.628514,397.05313 63.601847,398.43979 63.548546,399.82646 L 63.468546,399.98646 C 58.935185,399.77313 54.401856,399.66646 49.868546,399.66646 C 45.388532,399.66646 40.855203,399.61313 36.268546,399.50646 L 36.188546,399.42646 C 36.135208,399.26646 36.108541,398.97313 36.108546,398.54646 C 36.108541,398.17313 36.135208,397.8798 36.188546,397.66646 C 36.188541,397.45313 36.161875,397.26646 36.108546,397.10646 C 36.108541,396.94646 36.108541,396.7598 36.108546,396.54646 C 36.108541,395.05313 36.321874,393.58647 36.748546,392.14646 C 37.175207,390.65314 37.78854,389.29314 38.588546,388.06646 C 39.441871,386.78647 40.428537,385.66647 41.548546,384.70646 C 42.721868,383.74648 44.028533,382.97314 45.468546,382.38646 C 46.375198,381.85314 47.335197,381.26648 48.348546,380.62646 C 49.415195,379.93315 50.028527,378.97315 50.188546,377.74646 L 50.268546,376.94646" style="font-size: 80px; font-style: normal; font-variant: normal; font-weight: normal; font-stretch: normal; text-align: start; line-height: 125%; text-anchor: start; fill: rgb(128, 0, 0); fill-opacity: 1; stroke: none; stroke-width: 1px; stroke-linecap: butt; stroke-linejoin: miter; stroke-opacity: 1; font-family: Airmole Stripe;"/>
      <path id="text5309" d="M 55.334951,304.61241 C 55.334933,305.62353 55.179377,306.56335 54.868284,307.43185 C 54.557156,308.30038 54.13586,309.05223 53.604395,309.68741 C 53.072898,310.3226 52.483084,310.9189 51.834951,311.47629 C 51.186789,312.02075 50.506234,312.53927 49.793284,313.03185 C 49.080309,313.51149 48.406236,313.97815 47.771062,314.43185 C 47.135867,314.88556 46.539571,315.3976 45.982173,315.96796 C 45.437721,316.52537 45.029388,317.09574 44.757173,317.67907 L 55.257173,317.67907 L 55.257173,322.07352 L 38.379395,322.07352 C 38.509024,319.79204 38.97569,317.97722 39.779395,316.62907 C 40.583096,315.26797 42.028465,313.86149 44.115506,312.40963 C 46.00809,311.08742 47.382163,310.03742 48.237729,309.25963 C 49.093272,308.48186 49.670124,307.7689 49.968284,307.12074 C 50.279382,306.47261 50.434938,305.6689 50.434951,304.70963 C 50.434938,303.4652 50.123827,302.49298 49.501618,301.79296 C 48.879384,301.08002 48.023829,300.72354 46.934951,300.72352 C 45.820128,300.72354 44.95161,301.10595 44.329395,301.87074 C 43.72013,302.63557 43.4155,303.70502 43.415506,305.07907 L 43.415506,305.89574 L 38.729395,305.89574 C 38.703468,305.6365 38.690505,305.35131 38.690506,305.04018 C 38.690505,302.40872 39.409949,300.36706 40.84884,298.91518 C 42.287724,297.46336 44.290499,296.73743 46.857173,296.73741 C 49.462716,296.73743 51.523826,297.45039 53.040506,298.87629 C 54.570119,300.28928 55.334933,302.20131 55.334951,304.61241" style="font-size: 35px; font-style: normal; font-variant: normal; font-weight: bold; font-stretch: normal; text-align: start; line-height: 125%; text-anchor: start; fill: rgb(170, 0, 0); fill-opacity: 1; stroke: none; stroke-width: 1px; stroke-linecap: butt; stroke-linejoin: miter; stroke-opacity: 1; font-family: AlMothnna;"/>
      <path sodipodi:nodetypes="ccccccc" id="path5442" d="M 25.401295,305.29639 C 26.007696,302.17139 27.220496,299.04639 31.465298,299.04639 C 35.710099,299.04639 39.045302,302.17139 37.529301,308.42139 C 36.0133,314.67139 29.039697,317.79639 25.401295,324.04639 C 21.762893,317.79639 14.78929,314.67139 13.273289,308.42139 C 11.757289,302.17139 15.09249,299.04639 19.337292,299.04639 C 23.582094,299.04639 24.794894,302.17139 25.401295,305.29639 z" style="fill: rgb(212, 0, 0); fill-opacity: 1; stroke: none; stroke-width: 0.354331; stroke-linecap: round; stroke-linejoin: round; stroke-miterlimit: 4; stroke-dasharray: 1.41732, 1.41732; stroke-dashoffset: 0pt; stroke-opacity: 1;"/>
      <path sodipodi:nodetypes="ccccccc" id="path5608" d="M 32.42855,346.11219 C 32.792391,344.23719 33.520071,342.36219 36.066952,342.36219 C 38.613832,342.36219 40.614954,344.23719 39.705354,347.98719 C 38.795753,351.73719 34.611591,353.61219 32.42855,357.36219 C 30.245509,353.61219 26.061347,351.73719 25.151746,347.98719 C 24.242146,344.23719 26.243267,342.36219 28.790148,342.36219 C 31.337029,342.36219 32.064709,344.23719 32.42855,346.11219 z" style="fill: rgb(212, 0, 0); fill-opacity: 1; stroke: none; stroke-width: 0.354331; stroke-linecap: round; stroke-linejoin: round; stroke-miterlimit: 4; stroke-dasharray: 1.41732, 1.41732; stroke-dashoffset: 0pt; stroke-opacity: 1;"/>
      <path sodipodi:nodetypes="ccccccc" id="path5610" d="M 66.42855,396.11219 C 66.792391,394.23719 67.520071,392.36219 70.066952,392.36219 C 72.613832,392.36219 74.614954,394.23719 73.705354,397.98719 C 72.795753,401.73719 68.611591,403.61219 66.42855,407.36219 C 64.245509,403.61219 60.061347,401.73719 59.151746,397.98719 C 58.242146,394.23719 60.243267,392.36219 62.790148,392.36219 C 65.337029,392.36219 66.064709,394.23719 66.42855,396.11219 z" style="fill: rgb(212, 0, 0); fill-opacity: 1; stroke: none; stroke-width: 0.354331; stroke-linecap: round; stroke-linejoin: round; stroke-miterlimit: 4; stroke-dasharray: 1.41732, 1.41732; stroke-dashoffset: 0pt; stroke-opacity: 1;"/>
    </g>
  </g>
</svg>