<?xml version="1.0" encoding="UTF-8" standalone="no"?>
<!-- Created with Inkscape (http://www.inkscape.org/) -->
<svg xmlns:dc="http://purl.org/dc/elements/1.1/" xmlns:cc="http://creativecommons.org/ns#" xmlns:rdf="http://www.w3.org/1999/02/22-rdf-syntax-ns#" xmlns:svg="http://www.w3.org/2000/svg" xmlns="http://www.w3.org/2000/svg" xmlns:sodipodi="http://sodipodi.sourceforge.net/DTD/sodipodi-0.dtd" xmlns:inkscape="http://www.inkscape.org/namespaces/inkscape" width="90" height="135" id="svg16720" sodipodi:version="0.32" inkscape:version="0.46" version="1.0" sodipodi:docname="heart_4.svg" inkscape:output_extension="org.inkscape.output.svg.inkscape">
  <defs id="defs16722">
    <inkscape:perspective sodipodi:type="inkscape:persp3d" inkscape:vp_x="0 : 526.18109 : 1" inkscape:vp_y="0 : 1000 : 0" inkscape:vp_z="744.09448 : 526.18109 : 1" inkscape:persp3d-origin="372.04724 : 350.78739 : 1" id="perspective16728"/>
  </defs>
  <sodipodi:namedview id="base" pagecolor="#ffffff" bordercolor="#666666" borderopacity="1.0" gridtolerance="10000" guidetolerance="10" objecttolerance="10" inkscape:pageopacity="0.0" inkscape:pageshadow="2" inkscape:zoom="1.4" inkscape:cx="1.1905278" inkscape:cy="112.32681" inkscape:document-units="px" inkscape:current-layer="layer1" showgrid="false" inkscape:window-width="641" inkscape:window-height="719" inkscape:window-x="611" inkscape:window-y="47"/>
  <metadata id="metadata16725">
    <rdf:RDF>
      <cc:Work rdf:about="">
        <dc:format>image/svg+xml</dc:format>
        <dc:type rdf:resource="http://purl.org/dc/dcmitype/StillImage"/>
      </cc:Work>
    </rdf:RDF>
  </metadata>
  <g inkscape:label="Layer 1" inkscape:groupmode="layer" id="layer1" transform="translate(-117.857, -330.576)">
    <g transform="translate(-79.4395, 42.7143)" id="g14273">
      <g transform="translate(176.44, 277.929)" id="g4596">
        <rect style="fill: rgb(0, 0, 0); fill-opacity: 1; stroke: none; stroke-width: 3; stroke-linecap: butt; stroke-linejoin: round; stroke-miterlimit: 4; stroke-dasharray: none; stroke-opacity: 1;" id="rect4598" width="90" height="135" x="20.85714" y="9.9336166" ry="14.04"/>
        <rect style="fill: rgb(242, 242, 242); fill-opacity: 1; stroke: none; stroke-width: 3; stroke-linecap: butt; stroke-linejoin: round; stroke-miterlimit: 4; stroke-dasharray: none; stroke-opacity: 1;" id="rect4600" width="80" height="125" x="25.85714" y="14.933617" ry="13"/>
      </g>
      <path id="text4676" d="M 222.93667,378.94646 C 225.65666,376.65315 228.45666,374.51982 231.33667,372.54646 C 234.26998,370.51982 237.36331,368.65316 240.61667,366.94646 L 240.69667,367.02646 C 240.69664,367.66649 240.72331,368.33316 240.77667,369.02646 C 240.88331,369.66649 240.96331,370.30649 241.01667,370.94646 L 240.85667,371.02646 C 237.70998,372.57315 234.72332,374.27982 231.89667,376.14646 C 229.06999,377.95982 226.29666,380.06648 223.57667,382.46646 L 223.41667,382.38646 C 223.31,381.79981 223.20333,381.23981 223.09667,380.70646 C 222.99,380.17315 222.88333,379.61315 222.77667,379.02646 L 222.93667,378.94646 M 263.25667,356.46646 C 263.09662,357.31984 262.96329,358.17317 262.85667,359.02646 C 262.80329,359.87983 262.72329,360.73317 262.61667,361.58646 L 262.45667,361.58646 C 259.04329,363.13316 255.6033,364.6265 252.13667,366.06646 C 248.66997,367.50649 245.17664,369.05316 241.65667,370.70646 L 241.57667,370.62646 L 241.65667,366.30646 C 245.17664,364.43983 248.7233,362.67983 252.29667,361.02646 C 255.86996,359.37317 259.49663,357.8265 263.17667,356.38646 L 263.25667,356.46646 M 263.73667,352.22646 C 263.73662,352.65317 263.68329,353.07984 263.57667,353.50646 C 263.46996,353.93317 263.41662,354.35984 263.41667,354.78646 L 263.33667,354.70646 C 259.65663,356.09317 256.0033,357.63984 252.37667,359.34646 C 248.8033,360.99983 245.22997,362.73316 241.65667,364.54646 L 241.57667,362.70646 C 241.57664,361.31983 241.57664,359.95983 241.57667,358.62646 C 241.62998,357.23984 241.65664,355.85317 241.65667,354.46646 L 241.65667,352.70646 C 245.01664,352.54651 248.34997,352.41317 251.65667,352.30646 C 254.9633,352.19984 258.21663,352.14651 261.41667,352.14646 L 263.73667,352.22646 L 263.73667,352.22646 M 217.89667,344.46646 C 221.41666,344.30652 224.85666,344.17318 228.21667,344.06646 C 231.62999,343.95985 235.09665,343.85318 238.61667,343.74646 L 238.85667,343.66646 C 239.12331,347.29318 239.36331,350.86651 239.57667,354.38646 C 239.84331,357.85317 240.16331,361.4265 240.53667,365.10646 L 240.45667,365.02646 C 237.25665,366.83983 234.16332,368.75982 231.17667,370.78646 C 228.24332,372.81315 225.41666,374.97315 222.69667,377.26646 L 222.53667,377.18646 C 221.52333,371.69315 220.61666,366.27983 219.81667,360.94646 C 219.07,355.61317 218.40333,350.11984 217.81667,344.46646 L 217.89667,344.38646 L 217.89667,344.46646 M 224.61667,387.66646 C 224.45666,387.07981 224.32333,386.51981 224.21667,385.98646 C 224.16333,385.39981 224.02999,384.81314 223.81667,384.22646 L 223.73667,384.14646 C 226.34999,381.79981 229.09666,379.66648 231.97667,377.74646 C 234.90998,375.82648 237.94998,374.09315 241.09667,372.54646 L 241.17667,372.62646 C 241.22998,373.37315 241.28331,374.11982 241.33667,374.86646 C 241.38998,375.55982 241.46998,376.27982 241.57667,377.02646 L 241.65667,372.22646 C 245.01664,370.57316 248.4033,369.05316 251.81667,367.66646 C 255.2833,366.27983 258.77663,364.81316 262.29667,363.26646 L 262.37667,363.34646 C 262.05662,365.21316 261.78996,367.10649 261.57667,369.02646 C 261.36329,370.94649 261.09662,372.83982 260.77667,374.70646 C 261.78996,374.65315 262.77662,374.59982 263.73667,374.54646 C 264.69662,374.43982 265.68329,374.35982 266.69667,374.30646 L 266.77667,374.38646 L 266.69667,385.50646 C 265.52329,385.55981 264.37662,385.61314 263.25667,385.66646 C 262.13662,385.71981 260.98996,385.74647 259.81667,385.74646 C 259.49663,387.98647 259.22996,390.17314 259.01667,392.30646 C 258.80329,394.4398 258.56329,396.62646 258.29667,398.86646 C 255.73663,399.13313 253.2033,399.34646 250.69667,399.50646 C 248.2433,399.66646 245.73664,399.85313 243.17667,400.06646 L 243.01667,399.98646 C 242.80331,397.7998 242.56331,395.6398 242.29667,393.50646 C 242.02998,391.3198 241.73664,389.13314 241.41667,386.94646 C 238.69665,387.05314 235.92332,387.18647 233.09667,387.34646 C 230.32332,387.50647 227.52332,387.63981 224.69667,387.74646 L 224.61667,387.66646 L 224.61667,387.66646" style="font-size: 80px; font-style: normal; font-variant: normal; font-weight: normal; font-stretch: normal; text-align: start; line-height: 125%; text-anchor: start; fill: rgb(128, 0, 0); fill-opacity: 1; stroke: none; stroke-width: 1px; stroke-linecap: butt; stroke-linejoin: miter; stroke-opacity: 1; font-family: Airmole Stripe;"/>
      <path id="text5317" d="M 248.22706,312.50685 L 248.22706,316.57074 L 245.6215,316.57074 L 245.6215,322.07352 L 240.7215,322.07352 L 240.7215,316.57074 L 230.78539,316.57074 L 230.78539,312.46796 L 239.8465,297.24296 L 245.6215,297.24296 L 245.6215,312.50685 L 248.22706,312.50685 M 240.7215,312.50685 L 240.7215,301.90963 L 234.2465,312.50685 L 240.7215,312.50685" style="font-size: 35px; font-style: normal; font-variant: normal; font-weight: bold; font-stretch: normal; text-align: start; line-height: 125%; text-anchor: start; fill: rgb(170, 0, 0); fill-opacity: 1; stroke: none; stroke-width: 1px; stroke-linecap: butt; stroke-linejoin: miter; stroke-opacity: 1; font-family: AlMothnna;"/>
      <path sodipodi:nodetypes="ccccccc" id="path5446" d="M 217.2694,305.29639 C 217.8758,302.17139 219.0886,299.04639 223.3334,299.04639 C 227.5782,299.04639 230.91341,302.17139 229.3974,308.42139 C 227.8814,314.67139 220.9078,317.79639 217.2694,324.04639 C 213.631,317.79639 206.65739,314.67139 205.14139,308.42139 C 203.62539,302.17139 206.96059,299.04639 211.2054,299.04639 C 215.4502,299.04639 216.663,302.17139 217.2694,305.29639 z" style="fill: rgb(212, 0, 0); fill-opacity: 1; stroke: none; stroke-width: 0.354331; stroke-linecap: round; stroke-linejoin: round; stroke-miterlimit: 4; stroke-dasharray: 1.41732, 1.41732; stroke-dashoffset: 0pt; stroke-opacity: 1;"/>
      <path sodipodi:nodetypes="ccccccc" id="path5618" d="M 220.42855,340.11219 C 220.79239,338.23719 221.52007,336.36219 224.06695,336.36219 C 226.61383,336.36219 228.61495,338.23719 227.70535,341.98719 C 226.79575,345.73719 222.61159,347.61219 220.42855,351.36219 C 218.24551,347.61219 214.06135,345.73719 213.15175,341.98719 C 212.24215,338.23719 214.24327,336.36219 216.79015,336.36219 C 219.33703,336.36219 220.06471,338.23719 220.42855,340.11219 z" style="fill: rgb(212, 0, 0); fill-opacity: 1; stroke: none; stroke-width: 0.354331; stroke-linecap: round; stroke-linejoin: round; stroke-miterlimit: 4; stroke-dasharray: 1.41732, 1.41732; stroke-dashoffset: 0pt; stroke-opacity: 1;"/>
      <path sodipodi:nodetypes="ccccccc" id="path5622" d="M 260.42855,351.11219 C 260.79239,349.23719 261.52007,347.36219 264.06695,347.36219 C 266.61383,347.36219 268.61495,349.23719 267.70535,352.98719 C 266.79575,356.73719 262.61159,358.61219 260.42855,362.36219 C 258.24551,358.61219 254.06135,356.73719 253.15175,352.98719 C 252.24215,349.23719 254.24327,347.36219 256.79015,347.36219 C 259.33703,347.36219 260.06471,349.23719 260.42855,351.11219 z" style="fill: rgb(212, 0, 0); fill-opacity: 1; stroke: none; stroke-width: 0.354331; stroke-linecap: round; stroke-linejoin: round; stroke-miterlimit: 4; stroke-dasharray: 1.41732, 1.41732; stroke-dashoffset: 0pt; stroke-opacity: 1;"/>
      <path sodipodi:nodetypes="ccccccc" id="path5624" d="M 260.42855,395.11219 C 260.79239,393.23719 261.52007,391.36219 264.06695,391.36219 C 266.61383,391.36219 268.61495,393.23719 267.70535,396.98719 C 266.79575,400.73719 262.61159,402.61219 260.42855,406.36219 C 258.24551,402.61219 254.06135,400.73719 253.15175,396.98719 C 252.24215,393.23719 254.24327,391.36219 256.79015,391.36219 C 259.33703,391.36219 260.06471,393.23719 260.42855,395.11219 z" style="fill: rgb(212, 0, 0); fill-opacity: 1; stroke: none; stroke-width: 0.354331; stroke-linecap: round; stroke-linejoin: round; stroke-miterlimit: 4; stroke-dasharray: 1.41732, 1.41732; stroke-dashoffset: 0pt; stroke-opacity: 1;"/>
      <path sodipodi:nodetypes="ccccccc" id="path5626" d="M 227.42855,381.11219 C 227.79239,379.23719 228.52007,377.36219 231.06695,377.36219 C 233.61383,377.36219 235.61495,379.23719 234.70535,382.98719 C 233.79575,386.73719 229.61159,388.61219 227.42855,392.36219 C 225.24551,388.61219 221.06135,386.73719 220.15175,382.98719 C 219.24215,379.23719 221.24327,377.36219 223.79015,377.36219 C 226.33703,377.36219 227.06471,379.23719 227.42855,381.11219 z" style="fill: rgb(212, 0, 0); fill-opacity: 1; stroke: none; stroke-width: 0.354331; stroke-linecap: round; stroke-linejoin: round; stroke-miterlimit: 4; stroke-dasharray: 1.41732, 1.41732; stroke-dashoffset: 0pt; stroke-opacity: 1;"/>
    </g>
  </g>
</svg>