<?xml version="1.0" encoding="UTF-8" standalone="no"?>
<!-- Created with Inkscape (http://www.inkscape.org/) -->
<svg xmlns:dc="http://purl.org/dc/elements/1.1/" xmlns:cc="http://creativecommons.org/ns#" xmlns:rdf="http://www.w3.org/1999/02/22-rdf-syntax-ns#" xmlns:svg="http://www.w3.org/2000/svg" xmlns="http://www.w3.org/2000/svg" xmlns:sodipodi="http://sodipodi.sourceforge.net/DTD/sodipodi-0.dtd" xmlns:inkscape="http://www.inkscape.org/namespaces/inkscape" width="90" height="135" id="svg16720" sodipodi:version="0.32" inkscape:version="0.46" version="1.0" sodipodi:docname="club_10.svg" inkscape:output_extension="org.inkscape.output.svg.inkscape">
  <defs id="defs16722">
    <inkscape:perspective sodipodi:type="inkscape:persp3d" inkscape:vp_x="0 : 526.18109 : 1" inkscape:vp_y="0 : 1000 : 0" inkscape:vp_z="744.09448 : 526.18109 : 1" inkscape:persp3d-origin="372.04724 : 350.78739 : 1" id="perspective16728"/>
  </defs>
  <sodipodi:namedview id="base" pagecolor="#ffffff" bordercolor="#666666" borderopacity="1.0" gridtolerance="10000" guidetolerance="10" objecttolerance="10" inkscape:pageopacity="0.0" inkscape:pageshadow="2" inkscape:zoom="1.4" inkscape:cx="1.1905278" inkscape:cy="112.32681" inkscape:document-units="px" inkscape:current-layer="layer1" showgrid="false" inkscape:window-width="641" inkscape:window-height="719" inkscape:window-x="97" inkscape:window-y="47"/>
  <metadata id="metadata16725">
    <rdf:RDF>
      <cc:Work rdf:about="">
        <dc:format>image/svg+xml</dc:format>
        <dc:type rdf:resource="http://purl.org/dc/dcmitype/StillImage"/>
      </cc:Work>
    </rdf:RDF>
  </metadata>
  <g inkscape:label="Layer 1" inkscape:groupmode="layer" id="layer1" transform="translate(-117.857, -330.576)">
    <g transform="translate(-656.044, 183.714)" id="g15708">
      <g transform="translate(753.044, 136.929)" id="g4496">
        <rect style="fill: rgb(0, 0, 0); fill-opacity: 1; stroke: none; stroke-width: 3; stroke-linecap: butt; stroke-linejoin: round; stroke-miterlimit: 4; stroke-dasharray: none; stroke-opacity: 1;" id="rect4498" width="90" height="135" x="20.85714" y="9.9336166" ry="14.04"/>
        <rect style="fill: rgb(242, 242, 242); fill-opacity: 1; stroke: none; stroke-width: 3; stroke-linecap: butt; stroke-linejoin: round; stroke-miterlimit: 4; stroke-dasharray: none; stroke-opacity: 1;" id="rect4500" width="80" height="125" x="25.85714" y="14.933617" ry="13"/>
      </g>
      <path id="text4560" d="M 784.96221,233.38645 C 784.90887,232.58648 784.85554,231.81315 784.80221,231.06645 C 784.8022,230.31981 784.77554,229.54648 784.72221,228.74645 L 784.72221,228.58645 C 788.18887,225.06649 791.9222,221.97316 795.92221,219.30645 C 799.97552,216.58649 804.08218,214.1065 808.24221,211.86645 L 808.32221,211.94645 C 808.21551,213.17316 808.13551,214.4265 808.08221,215.70645 C 808.02885,216.98649 807.94885,218.23983 807.84221,219.46645 L 807.76221,219.70645 C 803.81552,221.57316 799.94886,223.62649 796.16221,225.86645 C 792.42886,228.05315 788.8022,230.58648 785.28221,233.46645 L 784.96221,233.38645 L 784.96221,233.38645 M 783.68221,204.74645 C 787.89553,204.31984 792.0822,203.97317 796.24221,203.70645 C 800.45552,203.43984 804.64218,203.09317 808.80221,202.66645 L 808.88221,202.74645 C 808.82885,203.97317 808.74885,205.22651 808.64221,206.50645 C 808.53551,207.73317 808.48218,208.95984 808.48221,210.18645 C 804.26885,212.53317 800.16219,215.01316 796.16221,217.62645 C 792.1622,220.23982 788.37553,223.25315 784.80221,226.66645 L 784.64221,226.58645 C 784.4822,222.85315 784.3222,219.17316 784.16221,215.54645 C 784.0022,211.91983 783.81554,208.31984 783.60221,204.74645 L 783.68221,204.66645 L 783.68221,204.74645 M 789.36221,259.86645 C 788.93553,255.49312 788.69553,251.06646 788.64221,246.58645 C 788.58887,242.10647 788.4022,237.65314 788.08221,233.22645 L 788.16221,233.06645 C 791.2022,230.82648 794.34886,228.74648 797.60221,226.82645 C 800.90885,224.90649 804.24218,223.03982 807.60221,221.22645 L 807.36221,221.30645 C 807.09552,227.70648 806.74885,233.99981 806.32221,240.18645 C 805.89552,246.3198 805.30885,252.53313 804.56221,258.82645 L 804.48221,258.98645 C 801.92219,259.19979 799.38886,259.41312 796.88221,259.62645 C 794.42886,259.78645 791.94886,259.94645 789.44221,260.10645 L 789.36221,259.86645 M 832.83971,228.50645 C 832.78635,228.71982 832.75968,229.03982 832.75971,229.46645 C 832.75968,229.73315 832.75968,230.02648 832.75971,230.34645 C 832.81302,230.61315 832.83968,230.87981 832.83971,231.14645 C 832.83968,231.57315 832.81302,231.89315 832.75971,232.10645 L 832.75971,232.02645 C 829.39969,234.10648 826.22636,236.42647 823.23971,238.98645 C 820.25303,241.49314 817.45303,244.2398 814.83971,247.22645 L 814.67971,247.14645 C 814.41304,246.7198 814.22637,246.29313 814.11971,245.86645 C 814.01304,245.4398 813.85304,245.01313 813.63971,244.58645 L 813.55971,244.58645 C 816.49303,241.38647 819.5597,238.45314 822.75971,235.78645 C 825.95969,233.11981 829.26635,230.66648 832.67971,228.42645 L 832.83971,228.50645 L 832.83971,228.50645 M 851.63971,218.18645 C 851.79967,218.71983 851.98633,219.25316 852.19971,219.78645 C 852.413,220.26649 852.573,220.77316 852.67971,221.30645 L 852.75971,221.22645 C 849.34633,222.82649 845.98634,224.47982 842.67971,226.18645 C 839.37301,227.83982 836.19968,229.70648 833.15971,231.78645 L 832.99971,230.82645 L 832.91971,229.14645 L 832.99971,228.26645 C 835.93301,226.39982 838.94634,224.58649 842.03971,222.82645 C 845.13301,221.06649 848.30634,219.49316 851.55971,218.10645 L 851.63971,218.18645 M 832.11971,260.74645 C 830.25302,260.74645 828.46636,260.39978 826.75971,259.70645 C 825.05303,259.06645 823.47969,258.18645 822.03971,257.06645 C 820.65303,255.94646 819.37303,254.66646 818.19971,253.22645 C 817.0797,251.78646 816.14637,250.29313 815.39971,248.74645 L 815.31971,248.66645 C 817.8797,245.78647 820.57303,243.1198 823.39971,240.66645 C 826.27969,238.15981 829.34635,235.89314 832.59971,233.86645 L 832.91971,233.86645 C 832.81302,238.39981 832.67968,242.8798 832.51971,247.30645 C 832.41302,251.73313 832.25302,256.18645 832.03971,260.66645 L 832.11971,260.74645 M 833.79971,260.58645 C 833.69302,256.05312 833.58635,251.54646 833.47971,247.06645 C 833.42635,242.58647 833.31968,238.07981 833.15971,233.54645 L 833.15971,233.38645 C 836.41301,231.41315 839.66634,229.57315 842.91971,227.86645 C 846.22634,226.15982 849.58633,224.47982 852.99971,222.82645 L 853.07971,222.90645 C 853.453,224.34649 853.71966,225.81315 853.87971,227.30645 C 854.03966,228.79982 854.14633,230.29315 854.19971,231.78645 L 854.19971,232.66645 C 854.19966,235.75981 853.79966,238.90647 852.99971,242.10645 C 852.19967,245.30647 850.973,248.2398 849.31971,250.90645 C 847.66634,253.51979 845.55967,255.73312 842.99971,257.54645 C 840.49301,259.30645 837.50635,260.34645 834.03971,260.66645 L 833.95971,260.58645 L 833.79971,260.58645 M 811.39971,231.94645 C 811.39971,228.85315 811.85304,225.59982 812.75971,222.18645 C 813.66637,218.77316 815.02637,215.6265 816.83971,212.74645 C 818.65303,209.8665 820.89303,207.49317 823.55971,205.62645 C 826.27969,203.75984 829.45302,202.82651 833.07971,202.82645 C 835.10635,202.82651 837.05301,203.22651 838.91971,204.02645 C 840.78634,204.77317 842.49301,205.81317 844.03971,207.14645 C 845.58634,208.47984 846.94634,209.99983 848.11971,211.70645 C 849.34633,213.41316 850.333,215.17316 851.07971,216.98645 L 850.99971,217.06645 C 847.90634,218.34649 844.83967,219.78649 841.79971,221.38645 C 838.81301,222.93315 835.87968,224.58649 832.99971,226.34645 L 832.75971,226.42645 C 829.18635,228.82648 825.74636,231.38648 822.43971,234.10645 C 819.18636,236.82647 816.14637,239.86647 813.31971,243.22645 L 813.15971,243.14645 C 812.6797,241.33314 812.30637,239.49314 812.03971,237.62645 C 811.77304,235.70648 811.63971,233.81314 811.63971,231.94645 L 811.39971,231.94645" style="font-size: 80px; font-style: normal; font-variant: normal; font-weight: normal; font-stretch: normal; text-align: start; line-height: 125%; text-anchor: start; fill: rgb(51, 51, 51); fill-opacity: 1; stroke: none; stroke-width: 1px; stroke-linecap: butt; stroke-linejoin: miter; stroke-opacity: 1; font-family: Airmole Stripe;"/>
      <path id="text5289" d="M 807.88898,162.66462 L 802.44898,162.66462 L 802.44898,159.69573 C 806.36008,159.69575 808.68304,158.33872 809.41787,155.62462 L 812.36898,155.62462 L 812.36898,178.32684 L 807.88898,178.32684 L 807.88898,162.66462 M 829.99453,178.41573 C 829.07008,178.8424 827.99749,179.05573 826.77676,179.05573 C 825.55601,179.05573 824.48342,178.84832 823.55898,178.43351 C 822.64638,178.0187 821.89972,177.46166 821.31898,176.7624 C 820.75009,176.06314 820.28194,175.19796 819.91453,174.16684 C 819.55898,173.12389 819.31009,172.03944 819.16787,170.91351 C 819.0375,169.78759 818.97231,168.52537 818.97231,167.12684 C 818.97231,162.78908 819.61231,159.76686 820.89231,158.06018 C 821.57972,157.1239 822.42712,156.40687 823.43453,155.90907 C 824.44194,155.41131 825.55601,155.16242 826.77676,155.1624 C 828.10415,155.16242 829.30119,155.45279 830.36787,156.03351 C 831.44637,156.61427 832.31156,157.4439 832.96342,158.5224 C 834.04193,160.24094 834.58118,163.15056 834.5812,167.25129 C 834.58118,168.61426 834.51007,169.84685 834.36787,170.94907 C 834.23748,172.05129 833.99452,173.11796 833.63898,174.14907 C 833.28341,175.18018 832.81526,176.04536 832.23453,176.74462 C 831.66563,177.44388 830.91897,178.00092 829.99453,178.41573 M 830.1012,167.14462 C 830.10119,165.42612 830.02415,164.00389 829.87009,162.87795 C 829.72786,161.75205 829.50267,160.89871 829.19453,160.31795 C 828.88638,159.72538 828.54267,159.32242 828.16342,159.10907 C 827.79601,158.89575 827.33378,158.78909 826.77676,158.78907 C 825.98267,158.78909 825.3486,159.03205 824.87453,159.51795 C 824.41231,160.0039 824.05675,160.85723 823.80787,162.07795 C 823.57083,163.29871 823.45231,164.97575 823.45231,167.10907 C 823.45231,168.75648 823.52342,170.12537 823.66565,171.21573 C 823.80786,172.29426 824.02712,173.12389 824.32342,173.70462 C 824.63157,174.27351 824.97527,174.67055 825.35453,174.89573 C 825.74564,175.10907 826.21971,175.21574 826.77676,175.21573 C 828.0686,175.21574 828.98119,174.5224 829.51453,173.13573 C 829.68045,172.69722 829.81675,171.90907 829.92342,170.77129 C 830.04193,169.62167 830.10119,168.41278 830.1012,167.14462" style="font-size: 32px; font-style: normal; font-variant: normal; font-weight: bold; font-stretch: normal; text-align: start; line-height: 125%; text-anchor: start; fill: rgb(0, 0, 0); fill-opacity: 1; stroke: none; stroke-width: 1px; stroke-linecap: butt; stroke-linejoin: miter; stroke-opacity: 1; font-family: AlMothnna;"/>
      <path sodipodi:nodetypes="ccccsccccccscccc" id="path5432" d="M 792.8737,154.79661 C 789.91656,154.79661 787.51656,157.31661 787.51656,160.42161 C 787.54239,162.37565 788.55061,164.02688 789.59989,165.59739 C 788.43032,164.71236 787.13051,164.17713 785.73084,164.17161 C 782.7737,164.17161 780.3737,166.69161 780.3737,169.79661 C 780.3737,172.90161 782.7737,175.42161 785.73084,175.42161 C 788.12637,175.38152 790.0423,173.7054 791.92504,172.29661 C 791.58814,176.50483 790.90286,178.86758 786.92132,179.79661 C 789.89751,179.79661 795.84989,179.79661 798.82608,179.79661 C 794.84455,178.86758 794.15926,176.50483 793.82236,172.29661 C 795.68329,173.89167 797.63494,175.24478 800.01656,175.42161 C 802.9737,175.42161 805.3737,172.90161 805.3737,169.79661 C 805.3737,166.69161 802.9737,164.17161 800.01656,164.17161 C 798.58099,164.17146 797.34102,164.83206 796.14751,165.59739 C 797.33511,164.04306 798.11685,162.36587 798.23085,160.42161 C 798.23085,157.31661 795.83085,154.79661 792.8737,154.79661 z" style="fill: rgb(0, 0, 0); fill-opacity: 1; stroke: none; stroke-width: 0.354331; stroke-linecap: round; stroke-linejoin: round; stroke-miterlimit: 4; stroke-dasharray: 1.41732, 1.41732; stroke-dashoffset: 0pt; stroke-opacity: 1;"/>
      <path sodipodi:nodetypes="ccccsccccccscccc" id="path5580" d="M 785.42855,197.36219 C 783.65426,197.36219 782.21426,198.87419 782.21426,200.73719 C 782.22976,201.90961 782.8347,202.90035 783.46426,203.84266 C 782.76252,203.31164 781.98263,202.9905 781.14283,202.98719 C 779.36855,202.98719 777.92855,204.49919 777.92855,206.36219 C 777.92855,208.22519 779.36855,209.73719 781.14283,209.73719 C 782.58015,209.71314 783.72971,208.70746 784.85935,207.86219 C 784.65721,210.38712 784.24604,211.80477 781.85712,212.36219 C 783.64284,212.36219 787.21426,212.36219 788.99998,212.36219 C 786.61106,211.80477 786.19989,210.38712 785.99775,207.86219 C 787.1143,208.81923 788.28529,209.63109 789.71426,209.73719 C 791.48855,209.73719 792.92855,208.22519 792.92855,206.36219 C 792.92855,204.49919 791.48855,202.98719 789.71426,202.98719 C 788.85292,202.9871 788.10894,203.38346 787.39284,203.84266 C 788.1054,202.91006 788.57444,201.90375 788.64284,200.73719 C 788.64284,198.87419 787.20284,197.36219 785.42855,197.36219 z" style="fill: rgb(0, 0, 0); fill-opacity: 1; stroke: none; stroke-width: 0.354331; stroke-linecap: round; stroke-linejoin: round; stroke-miterlimit: 4; stroke-dasharray: 1.41732, 1.41732; stroke-dashoffset: 0pt; stroke-opacity: 1;"/>
      <path sodipodi:nodetypes="ccccsccccccscccc" id="path5582" d="M 806.42855,197.36219 C 804.65426,197.36219 803.21426,198.87419 803.21426,200.73719 C 803.22976,201.90961 803.8347,202.90035 804.46426,203.84266 C 803.76252,203.31164 802.98263,202.9905 802.14283,202.98719 C 800.36855,202.98719 798.92855,204.49919 798.92855,206.36219 C 798.92855,208.22519 800.36855,209.73719 802.14283,209.73719 C 803.58015,209.71314 804.72971,208.70746 805.85935,207.86219 C 805.65721,210.38712 805.24604,211.80477 802.85712,212.36219 C 804.64284,212.36219 808.21426,212.36219 809.99998,212.36219 C 807.61106,211.80477 807.19989,210.38712 806.99775,207.86219 C 808.1143,208.81923 809.28529,209.63109 810.71426,209.73719 C 812.48855,209.73719 813.92855,208.22519 813.92855,206.36219 C 813.92855,204.49919 812.48855,202.98719 810.71426,202.98719 C 809.85292,202.9871 809.10894,203.38346 808.39284,203.84266 C 809.1054,202.91006 809.57444,201.90375 809.64284,200.73719 C 809.64284,198.87419 808.20284,197.36219 806.42855,197.36219 z" style="fill: rgb(0, 0, 0); fill-opacity: 1; stroke: none; stroke-width: 0.354331; stroke-linecap: round; stroke-linejoin: round; stroke-miterlimit: 4; stroke-dasharray: 1.41732, 1.41732; stroke-dashoffset: 0pt; stroke-opacity: 1;"/>
      <path sodipodi:nodetypes="ccccsccccccscccc" id="path5584" d="M 789.42855,251.36219 C 787.65426,251.36219 786.21426,252.87419 786.21426,254.73719 C 786.22976,255.90961 786.8347,256.90035 787.46426,257.84266 C 786.76252,257.31164 785.98263,256.9905 785.14283,256.98719 C 783.36855,256.98719 781.92855,258.49919 781.92855,260.36219 C 781.92855,262.22519 783.36855,263.73719 785.14283,263.73719 C 786.58015,263.71314 787.72971,262.70746 788.85935,261.86219 C 788.65721,264.38712 788.24604,265.80477 785.85712,266.36219 C 787.64284,266.36219 791.21426,266.36219 792.99998,266.36219 C 790.61106,265.80477 790.19989,264.38712 789.99775,261.86219 C 791.1143,262.81923 792.28529,263.63109 793.71426,263.73719 C 795.48855,263.73719 796.92855,262.22519 796.92855,260.36219 C 796.92855,258.49919 795.48855,256.98719 793.71426,256.98719 C 792.85292,256.9871 792.10894,257.38346 791.39284,257.84266 C 792.1054,256.91006 792.57444,255.90375 792.64284,254.73719 C 792.64284,252.87419 791.20284,251.36219 789.42855,251.36219 z" style="fill: rgb(0, 0, 0); fill-opacity: 1; stroke: none; stroke-width: 0.354331; stroke-linecap: round; stroke-linejoin: round; stroke-miterlimit: 4; stroke-dasharray: 1.41732, 1.41732; stroke-dashoffset: 0pt; stroke-opacity: 1;"/>
      <path sodipodi:nodetypes="ccccsccccccscccc" id="path5586" d="M 804.42855,248.36219 C 802.65426,248.36219 801.21426,249.87419 801.21426,251.73719 C 801.22976,252.90961 801.8347,253.90035 802.46426,254.84266 C 801.76252,254.31164 800.98263,253.9905 800.14283,253.98719 C 798.36855,253.98719 796.92855,255.49919 796.92855,257.36219 C 796.92855,259.22519 798.36855,260.73719 800.14283,260.73719 C 801.58015,260.71314 802.72971,259.70746 803.85935,258.86219 C 803.65721,261.38712 803.24604,262.80477 800.85712,263.36219 C 802.64284,263.36219 806.21426,263.36219 807.99998,263.36219 C 805.61106,262.80477 805.19989,261.38712 804.99775,258.86219 C 806.1143,259.81923 807.28529,260.63109 808.71426,260.73719 C 810.48855,260.73719 811.92855,259.22519 811.92855,257.36219 C 811.92855,255.49919 810.48855,253.98719 808.71426,253.98719 C 807.85292,253.9871 807.10894,254.38346 806.39284,254.84266 C 807.1054,253.91006 807.57444,252.90375 807.64284,251.73719 C 807.64284,249.87419 806.20284,248.36219 804.42855,248.36219 z" style="fill: rgb(0, 0, 0); fill-opacity: 1; stroke: none; stroke-width: 0.354331; stroke-linecap: round; stroke-linejoin: round; stroke-miterlimit: 4; stroke-dasharray: 1.41732, 1.41732; stroke-dashoffset: 0pt; stroke-opacity: 1;"/>
      <path sodipodi:nodetypes="ccccsccccccscccc" id="path5588" d="M 834.42855,220.36219 C 832.65426,220.36219 831.21426,221.87419 831.21426,223.73719 C 831.22976,224.90961 831.8347,225.90035 832.46426,226.84266 C 831.76252,226.31164 830.98263,225.9905 830.14283,225.98719 C 828.36855,225.98719 826.92855,227.49919 826.92855,229.36219 C 826.92855,231.22519 828.36855,232.73719 830.14283,232.73719 C 831.58015,232.71314 832.72971,231.70746 833.85935,230.86219 C 833.65721,233.38712 833.24604,234.80477 830.85712,235.36219 C 832.64284,235.36219 836.21426,235.36219 837.99998,235.36219 C 835.61106,234.80477 835.19989,233.38712 834.99775,230.86219 C 836.1143,231.81923 837.28529,232.63109 838.71426,232.73719 C 840.48855,232.73719 841.92855,231.22519 841.92855,229.36219 C 841.92855,227.49919 840.48855,225.98719 838.71426,225.98719 C 837.85292,225.9871 837.10894,226.38346 836.39284,226.84266 C 837.1054,225.91006 837.57444,224.90375 837.64284,223.73719 C 837.64284,221.87419 836.20284,220.36219 834.42855,220.36219 z" style="fill: rgb(0, 0, 0); fill-opacity: 1; stroke: none; stroke-width: 0.354331; stroke-linecap: round; stroke-linejoin: round; stroke-miterlimit: 4; stroke-dasharray: 1.41732, 1.41732; stroke-dashoffset: 0pt; stroke-opacity: 1;"/>
      <path sodipodi:nodetypes="ccccsccccccscccc" id="path5590" d="M 818.42855,202.36219 C 816.65426,202.36219 815.21426,203.87419 815.21426,205.73719 C 815.22976,206.90961 815.8347,207.90035 816.46426,208.84266 C 815.76252,208.31164 814.98263,207.9905 814.14283,207.98719 C 812.36855,207.98719 810.92855,209.49919 810.92855,211.36219 C 810.92855,213.22519 812.36855,214.73719 814.14283,214.73719 C 815.58015,214.71314 816.72971,213.70746 817.85935,212.86219 C 817.65721,215.38712 817.24604,216.80477 814.85712,217.36219 C 816.64284,217.36219 820.21426,217.36219 821.99998,217.36219 C 819.61106,216.80477 819.19989,215.38712 818.99775,212.86219 C 820.1143,213.81923 821.28529,214.63109 822.71426,214.73719 C 824.48855,214.73719 825.92855,213.22519 825.92855,211.36219 C 825.92855,209.49919 824.48855,207.98719 822.71426,207.98719 C 821.85292,207.9871 821.10894,208.38346 820.39284,208.84266 C 821.1054,207.91006 821.57444,206.90375 821.64284,205.73719 C 821.64284,203.87419 820.20284,202.36219 818.42855,202.36219 z" style="fill: rgb(0, 0, 0); fill-opacity: 1; stroke: none; stroke-width: 0.354331; stroke-linecap: round; stroke-linejoin: round; stroke-miterlimit: 4; stroke-dasharray: 1.41732, 1.41732; stroke-dashoffset: 0pt; stroke-opacity: 1;"/>
      <path sodipodi:nodetypes="ccccsccccccscccc" id="path5592" d="M 846.42855,199.36219 C 844.65426,199.36219 843.21426,200.87419 843.21426,202.73719 C 843.22976,203.90961 843.8347,204.90035 844.46426,205.84266 C 843.76252,205.31164 842.98263,204.9905 842.14283,204.98719 C 840.36855,204.98719 838.92855,206.49919 838.92855,208.36219 C 838.92855,210.22519 840.36855,211.73719 842.14283,211.73719 C 843.58015,211.71314 844.72971,210.70746 845.85935,209.86219 C 845.65721,212.38712 845.24604,213.80477 842.85712,214.36219 C 844.64284,214.36219 848.21426,214.36219 849.99998,214.36219 C 847.61106,213.80477 847.19989,212.38712 846.99775,209.86219 C 848.1143,210.81923 849.28529,211.63109 850.71426,211.73719 C 852.48855,211.73719 853.92855,210.22519 853.92855,208.36219 C 853.92855,206.49919 852.48855,204.98719 850.71426,204.98719 C 849.85292,204.9871 849.10894,205.38346 848.39284,205.84266 C 849.1054,204.91006 849.57444,203.90375 849.64284,202.73719 C 849.64284,200.87419 848.20284,199.36219 846.42855,199.36219 z" style="fill: rgb(0, 0, 0); fill-opacity: 1; stroke: none; stroke-width: 0.354331; stroke-linecap: round; stroke-linejoin: round; stroke-miterlimit: 4; stroke-dasharray: 1.41732, 1.41732; stroke-dashoffset: 0pt; stroke-opacity: 1;"/>
      <path sodipodi:nodetypes="ccccsccccccscccc" id="path5594" d="M 852.42855,222.36219 C 850.65426,222.36219 849.21426,223.87419 849.21426,225.73719 C 849.22976,226.90961 849.8347,227.90035 850.46426,228.84266 C 849.76252,228.31164 848.98263,227.9905 848.14283,227.98719 C 846.36855,227.98719 844.92855,229.49919 844.92855,231.36219 C 844.92855,233.22519 846.36855,234.73719 848.14283,234.73719 C 849.58015,234.71314 850.72971,233.70746 851.85935,232.86219 C 851.65721,235.38712 851.24604,236.80477 848.85712,237.36219 C 850.64284,237.36219 854.21426,237.36219 855.99998,237.36219 C 853.61106,236.80477 853.19989,235.38712 852.99775,232.86219 C 854.1143,233.81923 855.28529,234.63109 856.71426,234.73719 C 858.48855,234.73719 859.92855,233.22519 859.92855,231.36219 C 859.92855,229.49919 858.48855,227.98719 856.71426,227.98719 C 855.85292,227.9871 855.10894,228.38346 854.39284,228.84266 C 855.1054,227.91006 855.57444,226.90375 855.64284,225.73719 C 855.64284,223.87419 854.20284,222.36219 852.42855,222.36219 z" style="fill: rgb(0, 0, 0); fill-opacity: 1; stroke: none; stroke-width: 0.354331; stroke-linecap: round; stroke-linejoin: round; stroke-miterlimit: 4; stroke-dasharray: 1.41732, 1.41732; stroke-dashoffset: 0pt; stroke-opacity: 1;"/>
      <path sodipodi:nodetypes="ccccsccccccscccc" id="path5596" d="M 845.42855,246.36219 C 843.65426,246.36219 842.21426,247.87419 842.21426,249.73719 C 842.22976,250.90961 842.8347,251.90035 843.46426,252.84266 C 842.76252,252.31164 841.98263,251.9905 841.14283,251.98719 C 839.36855,251.98719 837.92855,253.49919 837.92855,255.36219 C 837.92855,257.22519 839.36855,258.73719 841.14283,258.73719 C 842.58015,258.71314 843.72971,257.70746 844.85935,256.86219 C 844.65721,259.38712 844.24604,260.80477 841.85712,261.36219 C 843.64284,261.36219 847.21426,261.36219 848.99998,261.36219 C 846.61106,260.80477 846.19989,259.38712 845.99775,256.86219 C 847.1143,257.81923 848.28529,258.63109 849.71426,258.73719 C 851.48855,258.73719 852.92855,257.22519 852.92855,255.36219 C 852.92855,253.49919 851.48855,251.98719 849.71426,251.98719 C 848.85292,251.9871 848.10894,252.38346 847.39284,252.84266 C 848.1054,251.91006 848.57444,250.90375 848.64284,249.73719 C 848.64284,247.87419 847.20284,246.36219 845.42855,246.36219 z" style="fill: rgb(0, 0, 0); fill-opacity: 1; stroke: none; stroke-width: 0.354331; stroke-linecap: round; stroke-linejoin: round; stroke-miterlimit: 4; stroke-dasharray: 1.41732, 1.41732; stroke-dashoffset: 0pt; stroke-opacity: 1;"/>
      <path sodipodi:nodetypes="ccccsccccccscccc" id="path5598" d="M 824.42855,247.36219 C 822.65426,247.36219 821.21426,248.87419 821.21426,250.73719 C 821.22976,251.90961 821.8347,252.90035 822.46426,253.84266 C 821.76252,253.31164 820.98263,252.9905 820.14283,252.98719 C 818.36855,252.98719 816.92855,254.49919 816.92855,256.36219 C 816.92855,258.22519 818.36855,259.73719 820.14283,259.73719 C 821.58015,259.71314 822.72971,258.70746 823.85935,257.86219 C 823.65721,260.38712 823.24604,261.80477 820.85712,262.36219 C 822.64284,262.36219 826.21426,262.36219 827.99998,262.36219 C 825.61106,261.80477 825.19989,260.38712 824.99775,257.86219 C 826.1143,258.81923 827.28529,259.63109 828.71426,259.73719 C 830.48855,259.73719 831.92855,258.22519 831.92855,256.36219 C 831.92855,254.49919 830.48855,252.98719 828.71426,252.98719 C 827.85292,252.9871 827.10894,253.38346 826.39284,253.84266 C 827.1054,252.91006 827.57444,251.90375 827.64284,250.73719 C 827.64284,248.87419 826.20284,247.36219 824.42855,247.36219 z" style="fill: rgb(0, 0, 0); fill-opacity: 1; stroke: none; stroke-width: 0.354331; stroke-linecap: round; stroke-linejoin: round; stroke-miterlimit: 4; stroke-dasharray: 1.41732, 1.41732; stroke-dashoffset: 0pt; stroke-opacity: 1;"/>
    </g>
  </g>
</svg>