<?xml version="1.0" encoding="UTF-8" standalone="no"?>
<!-- Created with Inkscape (http://www.inkscape.org/) -->
<svg xmlns:dc="http://purl.org/dc/elements/1.1/" xmlns:cc="http://creativecommons.org/ns#" xmlns:rdf="http://www.w3.org/1999/02/22-rdf-syntax-ns#" xmlns:svg="http://www.w3.org/2000/svg" xmlns="http://www.w3.org/2000/svg" xmlns:sodipodi="http://sodipodi.sourceforge.net/DTD/sodipodi-0.dtd" xmlns:inkscape="http://www.inkscape.org/namespaces/inkscape" width="90" height="135" id="svg16720" sodipodi:version="0.32" inkscape:version="0.46" version="1.0" sodipodi:docname="club_9.svg" inkscape:output_extension="org.inkscape.output.svg.inkscape">
  <defs id="defs16722">
    <inkscape:perspective sodipodi:type="inkscape:persp3d" inkscape:vp_x="0 : 526.18109 : 1" inkscape:vp_y="0 : 1000 : 0" inkscape:vp_z="744.09448 : 526.18109 : 1" inkscape:persp3d-origin="372.04724 : 350.78739 : 1" id="perspective16728"/>
  </defs>
  <sodipodi:namedview id="base" pagecolor="#ffffff" bordercolor="#666666" borderopacity="1.0" gridtolerance="10000" guidetolerance="10" objecttolerance="10" inkscape:pageopacity="0.0" inkscape:pageshadow="2" inkscape:zoom="1.4" inkscape:cx="1.1905278" inkscape:cy="112.32681" inkscape:document-units="px" inkscape:current-layer="layer1" showgrid="false" inkscape:window-width="641" inkscape:window-height="719" inkscape:window-x="611" inkscape:window-y="47"/>
  <metadata id="metadata16725">
    <rdf:RDF>
      <cc:Work rdf:about="">
        <dc:format>image/svg+xml</dc:format>
        <dc:type rdf:resource="http://purl.org/dc/dcmitype/StillImage"/>
      </cc:Work>
    </rdf:RDF>
  </metadata>
  <g inkscape:label="Layer 1" inkscape:groupmode="layer" id="layer1" transform="translate(-117.857, -330.576)">
    <g transform="translate(-560.11, 183.714)" id="g14159">
      <g transform="translate(657.11, 136.929)" id="g4490">
        <rect style="fill: rgb(0, 0, 0); fill-opacity: 1; stroke: none; stroke-width: 3; stroke-linecap: butt; stroke-linejoin: round; stroke-miterlimit: 4; stroke-dasharray: none; stroke-opacity: 1;" id="rect4492" width="90" height="135" x="20.85714" y="9.9336166" ry="14.04"/>
        <rect style="fill: rgb(242, 242, 242); fill-opacity: 1; stroke: none; stroke-width: 3; stroke-linecap: butt; stroke-linejoin: round; stroke-miterlimit: 4; stroke-dasharray: none; stroke-opacity: 1;" id="rect4494" width="80" height="125" x="25.85714" y="14.933617" ry="13"/>
      </g>
      <path id="text4556" d="M 741.32687,215.46645 L 741.64687,216.42645 C 741.70016,216.74649 741.83349,217.09316 742.04687,217.46645 L 742.12687,217.86645 C 738.8735,219.14649 735.64683,220.50649 732.44687,221.94645 C 729.30017,223.33315 726.20684,224.85315 723.16687,226.50645 C 720.12685,228.15982 717.19352,229.97315 714.36687,231.94645 C 711.54019,233.91981 708.87353,236.10648 706.36687,238.50645 L 706.20687,238.50645 C 705.83353,238.07981 705.51353,237.62647 705.24687,237.14645 C 705.03353,236.66647 704.79353,236.18647 704.52687,235.70645 L 704.84687,235.86645 C 709.96686,231.17315 715.64685,227.09315 721.88687,223.62645 C 728.12684,220.15982 734.58017,217.41316 741.24687,215.38645 L 741.32687,215.46645 M 722.76687,202.74645 C 724.58018,202.85317 726.39351,203.17317 728.20687,203.70645 C 730.07351,204.18651 731.80684,204.90651 733.40687,205.86645 C 735.00683,206.77317 736.42017,207.91984 737.64687,209.30645 C 738.92683,210.69317 739.94016,212.2665 740.68687,214.02645 L 740.92687,214.02645 C 734.1535,216.42649 727.62018,219.22649 721.32687,222.42645 C 715.08685,225.57315 709.30019,229.51981 703.96687,234.26645 C 703.7002,234.26648 703.48687,233.97314 703.32687,233.38645 C 703.16687,232.74648 703.03353,232.05315 702.92687,231.30645 C 702.8202,230.50648 702.7402,229.75981 702.68687,229.06645 C 702.63353,228.31982 702.60687,227.83982 702.60687,227.62645 L 702.60687,226.02645 C 702.60687,223.19982 703.0602,220.39982 703.96687,217.62645 C 704.92686,214.79983 706.2602,212.29317 707.96687,210.10645 C 709.67353,207.8665 711.72686,206.07984 714.12687,204.74645 C 716.52685,203.35984 719.19352,202.66651 722.12687,202.66645 L 722.68687,202.66645 L 722.76687,202.74645 M 726.12687,244.26645 C 725.22018,244.58647 724.28685,244.8798 723.32687,245.14645 C 722.42018,245.3598 721.48685,245.46647 720.52687,245.46645 L 720.12687,245.46645 C 717.67352,245.41313 715.27352,244.90647 712.92687,243.94645 C 710.63353,242.93313 708.66019,241.46647 707.00687,239.54645 L 706.76687,239.14645 C 712.15352,234.87981 717.83352,231.11981 723.80687,227.86645 C 729.78017,224.55982 735.96683,221.54649 742.36687,218.82645 L 742.44687,218.90645 C 742.60683,220.18649 742.76683,221.43982 742.92687,222.66645 C 743.08683,223.89315 743.22016,225.17315 743.32687,226.50645 C 743.22016,230.02648 742.68683,233.43981 741.72687,236.74645 C 740.76683,239.9998 739.48683,243.14647 737.88687,246.18645 C 736.28683,249.22646 734.3935,252.13313 732.20687,254.90645 C 730.07351,257.62645 727.75351,260.18645 725.24687,262.58645 L 725.08687,262.58645 C 724.02018,261.62645 723.00685,260.58645 722.04687,259.46645 C 721.14018,258.34645 720.10018,257.33312 718.92687,256.42645 L 719.08687,256.26645 C 722.44685,252.42646 725.27351,248.26646 727.56687,243.78645 C 729.86017,239.25314 731.56684,234.47981 732.68687,229.46645 C 731.94017,232.07981 730.98017,234.61314 729.80687,237.06645 C 728.68684,239.5198 727.48684,241.9198 726.20687,244.26645 L 726.12687,244.26645" style="font-size: 80px; font-style: normal; font-variant: normal; font-weight: normal; font-stretch: normal; text-align: start; line-height: 125%; text-anchor: start; fill: rgb(51, 51, 51); fill-opacity: 1; stroke: none; stroke-width: 1px; stroke-linecap: butt; stroke-linejoin: miter; stroke-opacity: 1; font-family: Airmole Stripe;"/>
      <path id="text5285" d="M 728.27647,165.33239 C 728.27646,166.96574 728.17275,168.45648 727.96536,169.80462 C 727.75794,171.13981 727.48572,172.27407 727.1487,173.20739 C 726.81164,174.14073 726.39683,174.97036 725.90425,175.69628 C 725.41164,176.40925 724.89961,176.97962 724.36814,177.40739 C 723.84961,177.82221 723.27276,178.15925 722.63759,178.41851 C 722.01535,178.69073 721.42554,178.87221 720.86814,178.96295 C 720.31072,179.06665 719.72739,179.1185 719.11814,179.11851 C 717.71813,179.1185 716.44776,178.83332 715.30703,178.26295 C 714.16629,177.69258 713.25888,176.90184 712.58481,175.89073 C 711.92369,174.87962 711.5737,173.74536 711.53481,172.48795 L 716.27925,172.48795 C 716.3311,173.22684 716.62925,173.81666 717.1737,174.25739 C 717.71813,174.69814 718.41813,174.91851 719.2737,174.91851 C 722.00887,174.91851 723.37646,172.56573 723.37647,167.86017 C 723.3635,167.87315 723.24683,168.00926 723.02647,168.26851 C 722.80609,168.51481 722.63757,168.69629 722.52092,168.81295 C 722.4172,168.91666 722.21628,169.08518 721.91814,169.31851 C 721.61998,169.55185 721.32832,169.72685 721.04314,169.84351 C 720.77091,169.94722 720.41443,170.05092 719.9737,170.15462 C 719.54591,170.25833 719.09221,170.31018 718.61259,170.31017 C 716.40888,170.31018 714.61999,169.51296 713.24592,167.91851 C 711.87184,166.32407 711.18481,164.25 711.18481,161.69628 C 711.18481,159.10371 711.9561,156.99723 713.4987,155.37684 C 715.05425,153.75649 717.06999,152.94631 719.54592,152.94628 C 720.09035,152.94631 720.62183,152.99168 721.14036,153.08239 C 721.65887,153.1602 722.2098,153.32223 722.79314,153.56851 C 723.38942,153.81483 723.94035,154.13242 724.44592,154.52128 C 724.96442,154.89723 725.4635,155.40927 725.94314,156.05739 C 726.42275,156.6926 726.83109,157.43149 727.16814,158.27406 C 727.50516,159.11667 727.7709,160.14075 727.96536,161.34628 C 728.17275,162.55185 728.27646,163.88056 728.27647,165.33239 M 719.40981,156.93239 C 718.33387,156.93242 717.47184,157.36019 716.8237,158.21573 C 716.17554,159.05834 715.85147,160.1926 715.85147,161.61851 C 715.85147,163.04445 716.17554,164.17222 716.8237,165.00184 C 717.4848,165.83148 718.37924,166.2463 719.50703,166.24628 C 720.62183,166.2463 721.52924,165.83148 722.22925,165.00184 C 722.92924,164.15926 723.27924,163.05741 723.27925,161.69628 C 723.27924,160.23149 722.92924,159.0713 722.22925,158.21573 C 721.52924,157.36019 720.58943,156.93242 719.40981,156.93239" style="font-size: 35px; font-style: normal; font-variant: normal; font-weight: bold; font-stretch: normal; text-align: start; line-height: 125%; text-anchor: start; fill: rgb(0, 0, 0); fill-opacity: 1; stroke: none; stroke-width: 1px; stroke-linecap: butt; stroke-linejoin: miter; stroke-opacity: 1; font-family: AlMothnna;"/>
      <path sodipodi:nodetypes="ccccsccccccscccc" id="path5430" d="M 696.93965,154.79661 C 693.98251,154.79661 691.58251,157.31661 691.58251,160.42161 C 691.60834,162.37565 692.61656,164.02688 693.66584,165.59739 C 692.49627,164.71236 691.19646,164.17713 689.79679,164.17161 C 686.83965,164.17161 684.43965,166.69161 684.43965,169.79661 C 684.43965,172.90161 686.83965,175.42161 689.79679,175.42161 C 692.19232,175.38152 694.10825,173.7054 695.99099,172.29661 C 695.65409,176.50483 694.96881,178.86758 690.98727,179.79661 C 693.96346,179.79661 699.91584,179.79661 702.89203,179.79661 C 698.9105,178.86758 698.22521,176.50483 697.88831,172.29661 C 699.74924,173.89167 701.70088,175.24478 704.08251,175.42161 C 707.03965,175.42161 709.43965,172.90161 709.43965,169.79661 C 709.43965,166.69161 707.03965,164.17161 704.08251,164.17161 C 702.64694,164.17146 701.40697,164.83206 700.21346,165.59739 C 701.40106,164.04306 702.18279,162.36587 702.29679,160.42161 C 702.29679,157.31661 699.89679,154.79661 696.93965,154.79661 z" style="fill: rgb(0, 0, 0); fill-opacity: 1; stroke: none; stroke-width: 0.354331; stroke-linecap: round; stroke-linejoin: round; stroke-miterlimit: 4; stroke-dasharray: 1.41732, 1.41732; stroke-dashoffset: 0pt; stroke-opacity: 1;"/>
      <path sodipodi:nodetypes="ccccsccccccscccc" id="path5564" d="M 724.42855,213.36219 C 722.65426,213.36219 721.21426,214.87419 721.21426,216.73719 C 721.22976,217.90961 721.8347,218.90035 722.46426,219.84266 C 721.76252,219.31164 720.98263,218.9905 720.14283,218.98719 C 718.36855,218.98719 716.92855,220.49919 716.92855,222.36219 C 716.92855,224.22519 718.36855,225.73719 720.14283,225.73719 C 721.58015,225.71314 722.72971,224.70746 723.85935,223.86219 C 723.65721,226.38712 723.24604,227.80477 720.85712,228.36219 C 722.64284,228.36219 726.21426,228.36219 727.99998,228.36219 C 725.61106,227.80477 725.19989,226.38712 724.99775,223.86219 C 726.1143,224.81923 727.28529,225.63109 728.71426,225.73719 C 730.48855,225.73719 731.92855,224.22519 731.92855,222.36219 C 731.92855,220.49919 730.48855,218.98719 728.71426,218.98719 C 727.85292,218.9871 727.10894,219.38346 726.39284,219.84266 C 727.1054,218.91006 727.57444,217.90375 727.64284,216.73719 C 727.64284,214.87419 726.20284,213.36219 724.42855,213.36219 z" style="fill: rgb(0, 0, 0); fill-opacity: 1; stroke: none; stroke-width: 0.354331; stroke-linecap: round; stroke-linejoin: round; stroke-miterlimit: 4; stroke-dasharray: 1.41732, 1.41732; stroke-dashoffset: 0pt; stroke-opacity: 1;"/>
      <path sodipodi:nodetypes="ccccsccccccscccc" id="path5566" d="M 723.42855,192.36219 C 721.65426,192.36219 720.21426,193.87419 720.21426,195.73719 C 720.22976,196.90961 720.8347,197.90035 721.46426,198.84266 C 720.76252,198.31164 719.98263,197.9905 719.14283,197.98719 C 717.36855,197.98719 715.92855,199.49919 715.92855,201.36219 C 715.92855,203.22519 717.36855,204.73719 719.14283,204.73719 C 720.58015,204.71314 721.72971,203.70746 722.85935,202.86219 C 722.65721,205.38712 722.24604,206.80477 719.85712,207.36219 C 721.64284,207.36219 725.21426,207.36219 726.99998,207.36219 C 724.61106,206.80477 724.19989,205.38712 723.99775,202.86219 C 725.1143,203.81923 726.28529,204.63109 727.71426,204.73719 C 729.48855,204.73719 730.92855,203.22519 730.92855,201.36219 C 730.92855,199.49919 729.48855,197.98719 727.71426,197.98719 C 726.85292,197.9871 726.10894,198.38346 725.39284,198.84266 C 726.1054,197.91006 726.57444,196.90375 726.64284,195.73719 C 726.64284,193.87419 725.20284,192.36219 723.42855,192.36219 z" style="fill: rgb(0, 0, 0); fill-opacity: 1; stroke: none; stroke-width: 0.354331; stroke-linecap: round; stroke-linejoin: round; stroke-miterlimit: 4; stroke-dasharray: 1.41732, 1.41732; stroke-dashoffset: 0pt; stroke-opacity: 1;"/>
      <path sodipodi:nodetypes="ccccsccccccscccc" id="path5568" d="M 704.42855,206.36219 C 702.65426,206.36219 701.21426,207.87419 701.21426,209.73719 C 701.22976,210.90961 701.8347,211.90035 702.46426,212.84266 C 701.76252,212.31164 700.98263,211.9905 700.14283,211.98719 C 698.36855,211.98719 696.92855,213.49919 696.92855,215.36219 C 696.92855,217.22519 698.36855,218.73719 700.14283,218.73719 C 701.58015,218.71314 702.72971,217.70746 703.85935,216.86219 C 703.65721,219.38712 703.24604,220.80477 700.85712,221.36219 C 702.64284,221.36219 706.21426,221.36219 707.99998,221.36219 C 705.61106,220.80477 705.19989,219.38712 704.99775,216.86219 C 706.1143,217.81923 707.28529,218.63109 708.71426,218.73719 C 710.48855,218.73719 711.92855,217.22519 711.92855,215.36219 C 711.92855,213.49919 710.48855,211.98719 708.71426,211.98719 C 707.85292,211.9871 707.10894,212.38346 706.39284,212.84266 C 707.1054,211.91006 707.57444,210.90375 707.64284,209.73719 C 707.64284,207.87419 706.20284,206.36219 704.42855,206.36219 z" style="fill: rgb(0, 0, 0); fill-opacity: 1; stroke: none; stroke-width: 0.354331; stroke-linecap: round; stroke-linejoin: round; stroke-miterlimit: 4; stroke-dasharray: 1.41732, 1.41732; stroke-dashoffset: 0pt; stroke-opacity: 1;"/>
      <path sodipodi:nodetypes="ccccsccccccscccc" id="path5570" d="M 715.42855,235.36219 C 713.65426,235.36219 712.21426,236.87419 712.21426,238.73719 C 712.22976,239.90961 712.8347,240.90035 713.46426,241.84266 C 712.76252,241.31164 711.98263,240.9905 711.14283,240.98719 C 709.36855,240.98719 707.92855,242.49919 707.92855,244.36219 C 707.92855,246.22519 709.36855,247.73719 711.14283,247.73719 C 712.58015,247.71314 713.72971,246.70746 714.85935,245.86219 C 714.65721,248.38712 714.24604,249.80477 711.85712,250.36219 C 713.64284,250.36219 717.21426,250.36219 718.99998,250.36219 C 716.61106,249.80477 716.19989,248.38712 715.99775,245.86219 C 717.1143,246.81923 718.28529,247.63109 719.71426,247.73719 C 721.48855,247.73719 722.92855,246.22519 722.92855,244.36219 C 722.92855,242.49919 721.48855,240.98719 719.71426,240.98719 C 718.85292,240.9871 718.10894,241.38346 717.39284,241.84266 C 718.1054,240.91006 718.57444,239.90375 718.64284,238.73719 C 718.64284,236.87419 717.20284,235.36219 715.42855,235.36219 z" style="fill: rgb(0, 0, 0); fill-opacity: 1; stroke: none; stroke-width: 0.354331; stroke-linecap: round; stroke-linejoin: round; stroke-miterlimit: 4; stroke-dasharray: 1.41732, 1.41732; stroke-dashoffset: 0pt; stroke-opacity: 1;"/>
      <path sodipodi:nodetypes="ccccsccccccscccc" id="path5572" d="M 723.42855,252.36219 C 721.65426,252.36219 720.21426,253.87419 720.21426,255.73719 C 720.22976,256.90961 720.8347,257.90035 721.46426,258.84266 C 720.76252,258.31164 719.98263,257.9905 719.14283,257.98719 C 717.36855,257.98719 715.92855,259.49919 715.92855,261.36219 C 715.92855,263.22519 717.36855,264.73719 719.14283,264.73719 C 720.58015,264.71314 721.72971,263.70746 722.85935,262.86219 C 722.65721,265.38712 722.24604,266.80477 719.85712,267.36219 C 721.64284,267.36219 725.21426,267.36219 726.99998,267.36219 C 724.61106,266.80477 724.19989,265.38712 723.99775,262.86219 C 725.1143,263.81923 726.28529,264.63109 727.71426,264.73719 C 729.48855,264.73719 730.92855,263.22519 730.92855,261.36219 C 730.92855,259.49919 729.48855,257.98719 727.71426,257.98719 C 726.85292,257.9871 726.10894,258.38346 725.39284,258.84266 C 726.1054,257.91006 726.57444,256.90375 726.64284,255.73719 C 726.64284,253.87419 725.20284,252.36219 723.42855,252.36219 z" style="fill: rgb(0, 0, 0); fill-opacity: 1; stroke: none; stroke-width: 0.354331; stroke-linecap: round; stroke-linejoin: round; stroke-miterlimit: 4; stroke-dasharray: 1.41732, 1.41732; stroke-dashoffset: 0pt; stroke-opacity: 1;"/>
      <path sodipodi:nodetypes="ccccsccccccscccc" id="path5574" d="M 738.42855,236.36219 C 736.65426,236.36219 735.21426,237.87419 735.21426,239.73719 C 735.22976,240.90961 735.8347,241.90035 736.46426,242.84266 C 735.76252,242.31164 734.98263,241.9905 734.14283,241.98719 C 732.36855,241.98719 730.92855,243.49919 730.92855,245.36219 C 730.92855,247.22519 732.36855,248.73719 734.14283,248.73719 C 735.58015,248.71314 736.72971,247.70746 737.85935,246.86219 C 737.65721,249.38712 737.24604,250.80477 734.85712,251.36219 C 736.64284,251.36219 740.21426,251.36219 741.99998,251.36219 C 739.61106,250.80477 739.19989,249.38712 738.99775,246.86219 C 740.1143,247.81923 741.28529,248.63109 742.71426,248.73719 C 744.48855,248.73719 745.92855,247.22519 745.92855,245.36219 C 745.92855,243.49919 744.48855,241.98719 742.71426,241.98719 C 741.85292,241.9871 741.10894,242.38346 740.39284,242.84266 C 741.1054,241.91006 741.57444,240.90375 741.64284,239.73719 C 741.64284,237.87419 740.20284,236.36219 738.42855,236.36219 z" style="fill: rgb(0, 0, 0); fill-opacity: 1; stroke: none; stroke-width: 0.354331; stroke-linecap: round; stroke-linejoin: round; stroke-miterlimit: 4; stroke-dasharray: 1.41732, 1.41732; stroke-dashoffset: 0pt; stroke-opacity: 1;"/>
      <path sodipodi:nodetypes="ccccsccccccscccc" id="path5576" d="M 746.42855,215.36219 C 744.65426,215.36219 743.21426,216.87419 743.21426,218.73719 C 743.22976,219.90961 743.8347,220.90035 744.46426,221.84266 C 743.76252,221.31164 742.98263,220.9905 742.14283,220.98719 C 740.36855,220.98719 738.92855,222.49919 738.92855,224.36219 C 738.92855,226.22519 740.36855,227.73719 742.14283,227.73719 C 743.58015,227.71314 744.72971,226.70746 745.85935,225.86219 C 745.65721,228.38712 745.24604,229.80477 742.85712,230.36219 C 744.64284,230.36219 748.21426,230.36219 749.99998,230.36219 C 747.61106,229.80477 747.19989,228.38712 746.99775,225.86219 C 748.1143,226.81923 749.28529,227.63109 750.71426,227.73719 C 752.48855,227.73719 753.92855,226.22519 753.92855,224.36219 C 753.92855,222.49919 752.48855,220.98719 750.71426,220.98719 C 749.85292,220.9871 749.10894,221.38346 748.39284,221.84266 C 749.1054,220.91006 749.57444,219.90375 749.64284,218.73719 C 749.64284,216.87419 748.20284,215.36219 746.42855,215.36219 z" style="fill: rgb(0, 0, 0); fill-opacity: 1; stroke: none; stroke-width: 0.354331; stroke-linecap: round; stroke-linejoin: round; stroke-miterlimit: 4; stroke-dasharray: 1.41732, 1.41732; stroke-dashoffset: 0pt; stroke-opacity: 1;"/>
      <path sodipodi:nodetypes="ccccsccccccscccc" id="path5578" d="M 739.42855,201.36219 C 737.65426,201.36219 736.21426,202.87419 736.21426,204.73719 C 736.22976,205.90961 736.8347,206.90035 737.46426,207.84266 C 736.76252,207.31164 735.98263,206.9905 735.14283,206.98719 C 733.36855,206.98719 731.92855,208.49919 731.92855,210.36219 C 731.92855,212.22519 733.36855,213.73719 735.14283,213.73719 C 736.58015,213.71314 737.72971,212.70746 738.85935,211.86219 C 738.65721,214.38712 738.24604,215.80477 735.85712,216.36219 C 737.64284,216.36219 741.21426,216.36219 742.99998,216.36219 C 740.61106,215.80477 740.19989,214.38712 739.99775,211.86219 C 741.1143,212.81923 742.28529,213.63109 743.71426,213.73719 C 745.48855,213.73719 746.92855,212.22519 746.92855,210.36219 C 746.92855,208.49919 745.48855,206.98719 743.71426,206.98719 C 742.85292,206.9871 742.10894,207.38346 741.39284,207.84266 C 742.1054,206.91006 742.57444,205.90375 742.64284,204.73719 C 742.64284,202.87419 741.20284,201.36219 739.42855,201.36219 z" style="fill: rgb(0, 0, 0); fill-opacity: 1; stroke: none; stroke-width: 0.354331; stroke-linecap: round; stroke-linejoin: round; stroke-miterlimit: 4; stroke-dasharray: 1.41732, 1.41732; stroke-dashoffset: 0pt; stroke-opacity: 1;"/>
    </g>
  </g>
</svg>