<?xml version="1.0" encoding="UTF-8" standalone="no"?>
<!-- Created with Inkscape (http://www.inkscape.org/) -->
<svg xmlns:dc="http://purl.org/dc/elements/1.1/" xmlns:cc="http://creativecommons.org/ns#" xmlns:rdf="http://www.w3.org/1999/02/22-rdf-syntax-ns#" xmlns:svg="http://www.w3.org/2000/svg" xmlns="http://www.w3.org/2000/svg" xmlns:sodipodi="http://sodipodi.sourceforge.net/DTD/sodipodi-0.dtd" xmlns:inkscape="http://www.inkscape.org/namespaces/inkscape" width="90" height="135" id="svg16720" sodipodi:version="0.32" inkscape:version="0.46" version="1.0" sodipodi:docname="club_q.svg" inkscape:output_extension="org.inkscape.output.svg.inkscape">
  <defs id="defs16722">
    <inkscape:perspective sodipodi:type="inkscape:persp3d" inkscape:vp_x="0 : 526.18109 : 1" inkscape:vp_y="0 : 1000 : 0" inkscape:vp_z="744.09448 : 526.18109 : 1" inkscape:persp3d-origin="372.04724 : 350.78739 : 1" id="perspective16728"/>
  </defs>
  <sodipodi:namedview id="base" pagecolor="#ffffff" bordercolor="#666666" borderopacity="1.0" gridtolerance="10000" guidetolerance="10" objecttolerance="10" inkscape:pageopacity="0.0" inkscape:pageshadow="2" inkscape:zoom="1.4" inkscape:cx="1.1905278" inkscape:cy="112.32681" inkscape:document-units="px" inkscape:current-layer="layer1" showgrid="false" inkscape:window-width="641" inkscape:window-height="719" inkscape:window-x="97" inkscape:window-y="47"/>
  <metadata id="metadata16725">
    <rdf:RDF>
      <cc:Work rdf:about="">
        <dc:format>image/svg+xml</dc:format>
        <dc:type rdf:resource="http://purl.org/dc/dcmitype/StillImage"/>
      </cc:Work>
    </rdf:RDF>
  </metadata>
  <g inkscape:label="Layer 1" inkscape:groupmode="layer" id="layer1" transform="translate(-117.857, -330.576)">
    <g transform="translate(-847.912, 183.714)" id="g15663">
      <g transform="translate(944.912, 136.929)" id="g4508">
        <rect style="fill: rgb(0, 0, 0); fill-opacity: 1; stroke: none; stroke-width: 3; stroke-linecap: butt; stroke-linejoin: round; stroke-miterlimit: 4; stroke-dasharray: none; stroke-opacity: 1;" id="rect4510" width="90" height="135" x="20.85714" y="9.9336166" ry="14.04"/>
        <rect style="fill: rgb(242, 242, 242); fill-opacity: 1; stroke: none; stroke-width: 3; stroke-linecap: butt; stroke-linejoin: round; stroke-miterlimit: 4; stroke-dasharray: none; stroke-opacity: 1;" id="rect4512" width="80" height="125" x="25.85714" y="14.933617" ry="13"/>
      </g>
      <path id="text5297" d="M 1008.0896,153.97194 C 1010.5525,153.97196 1012.7238,154.56178 1014.6035,155.74138 C 1016.496,156.92104 1017.9349,158.51548 1018.9201,160.52472 C 1019.9053,162.53399 1020.3979,164.78306 1020.3979,167.27194 C 1020.3979,168.98306 1020.1451,170.65528 1019.6396,172.28861 C 1019.134,173.92194 1018.4534,175.26361 1017.5979,176.31361 L 1020.3979,178.97749 L 1017.734,181.79694 L 1014.7007,178.97749 C 1012.7822,180.1312 1010.5785,180.70805 1008.0896,180.70805 C 1005.6396,180.70805 1003.4748,180.1312 1001.5951,178.97749 C 999.72846,177.82379 998.29606,176.23583 997.29791,174.21361 C 996.29976,172.19139 995.80069,169.90343 995.80069,167.34972 C 995.80069,164.79603 996.29976,162.50807 997.29791,160.48583 C 998.29606,158.46363 999.72846,156.87567 1001.5951,155.72194 C 1003.4748,154.5553 1005.6396,153.97196 1008.0896,153.97194 M 1011.1035,170.18861 L 1013.9812,172.91083 C 1014.7331,171.39417 1015.109,169.55343 1015.109,167.38861 C 1015.109,164.6664 1014.4738,162.4951 1013.2035,160.87472 C 1011.9331,159.25437 1010.2285,158.44418 1008.0896,158.44416 C 1005.9766,158.44418 1004.2785,159.26085 1002.9951,160.89416 C 1001.7118,162.51455 1001.0701,164.6664 1001.0701,167.34972 C 1001.0701,170.0201 1001.7118,172.16547 1002.9951,173.78583 C 1004.2785,175.4062 1005.9701,176.21639 1008.0701,176.21638 C 1009.2627,176.21639 1010.2868,176.0025 1011.1424,175.57472 L 1008.4396,173.00805 L 1011.1035,170.18861" style="font-size: 35px; font-style: normal; font-variant: normal; font-weight: bold; font-stretch: normal; text-align: start; line-height: 125%; text-anchor: start; fill: rgb(0, 0, 0); fill-opacity: 1; stroke: none; stroke-width: 1px; stroke-linecap: butt; stroke-linejoin: miter; stroke-opacity: 1; font-family: AlMothnna;"/>
      <path sodipodi:nodetypes="ccccsccccccscccc" id="path5436" d="M 984.74186,154.79661 C 981.78476,154.79661 979.38476,157.31661 979.38476,160.42161 C 979.41056,162.37565 980.41876,164.02688 981.46806,165.59739 C 980.29846,164.71236 978.99866,164.17713 977.59906,164.17161 C 974.64186,164.17161 972.24184,166.69161 972.24184,169.79661 C 972.24184,172.90161 974.64186,175.42161 977.59906,175.42161 C 979.99456,175.38152 981.91046,173.7054 983.79326,172.29661 C 983.45636,176.50483 982.77106,178.86758 978.78946,179.79661 C 981.76566,179.79661 987.71806,179.79661 990.69426,179.79661 C 986.71276,178.86758 986.02746,176.50483 985.69056,172.29661 C 987.55146,173.89167 989.50316,175.24478 991.88476,175.42161 C 994.84186,175.42161 997.24186,172.90161 997.24186,169.79661 C 997.24186,166.69161 994.84186,164.17161 991.88476,164.17161 C 990.44916,164.17146 989.20916,164.83206 988.01566,165.59739 C 989.20326,164.04306 989.98506,162.36587 990.09906,160.42161 C 990.09906,157.31661 987.69906,154.79661 984.74186,154.79661 z" style="fill: rgb(0, 0, 0); fill-opacity: 1; stroke: none; stroke-width: 0.354331; stroke-linecap: round; stroke-linejoin: round; stroke-miterlimit: 4; stroke-dasharray: 1.41732, 1.41732; stroke-dashoffset: 0pt; stroke-opacity: 1;"/>
      <path sodipodi:nodetypes="ccccsccccccscccc" id="path5602" d="M 1011.7691,181.36219 C 1005.8551,181.36219 1001.0551,186.40219 1001.0551,192.61219 C 1001.1068,196.52026 1003.1231,199.82272 1005.2218,202.96376 C 1002.8824,201.19369 1000.2828,200.12322 997.48344,200.11219 C 991.56919,200.11219 986.76919,205.15219 986.76919,211.36219 C 986.76919,217.57219 991.56919,222.61219 997.48344,222.61219 C 1002.2748,222.53202 1006.1064,219.17976 1009.8721,216.36219 C 1009.1981,224.77862 1007.8274,229.50412 999.86444,231.36219 C 1005.8168,231.36219 1017.7218,231.36219 1023.6741,231.36219 C 1015.7111,229.50412 1014.3404,224.77862 1013.6664,216.36219 C 1017.3884,219.55232 1021.2918,222.25852 1026.0551,222.61219 C 1031.9691,222.61219 1036.7691,217.57219 1036.7691,211.36219 C 1036.7691,205.15219 1031.9691,200.11219 1026.0551,200.11219 C 1023.1838,200.11189 1020.7038,201.43309 1018.3168,202.96376 C 1020.6921,199.85509 1022.2554,196.50072 1022.4834,192.61219 C 1022.4834,186.40219 1017.6834,181.36219 1011.7691,181.36219 z" style="fill: rgb(0, 0, 0); fill-opacity: 1; stroke: none; stroke-width: 0.354331; stroke-linecap: round; stroke-linejoin: round; stroke-miterlimit: 4; stroke-dasharray: 1.41732, 1.41732; stroke-dashoffset: 0pt; stroke-opacity: 1;"/>
      <path id="text4568" d="M 1033.169,219.30646 C 1029.7023,219.73316 1026.2623,220.4265 1022.849,221.38646 C 1019.489,222.29316 1016.1557,223.38649 1012.849,224.66646 C 1009.5957,225.89316 1006.369,227.25316 1003.169,228.74646 C 1000.0223,230.23982 996.95567,231.75982 993.96902,233.30646 C 993.54234,233.51982 992.98234,233.83982 992.28902,234.26646 C 991.59568,234.63982 990.87568,235.03982 990.12902,235.46646 C 989.43568,235.83981 988.74235,236.18648 988.04902,236.50646 C 987.40902,236.82648 986.84902,236.98648 986.36902,236.98646 L 986.44902,236.98646 C 986.39568,236.98648 986.34235,237.01315 986.28902,237.06646 C 986.28902,237.06648 986.26235,237.06648 986.20902,237.06646 L 986.12902,236.98646 C 986.02235,236.39981 985.94235,235.78648 985.88902,235.14646 C 985.83568,234.50648 985.80902,233.89315 985.80902,233.30646 L 985.56902,232.82646 C 992.55568,228.61315 999.94234,225.06649 1007.729,222.18646 C 1015.5157,219.3065 1023.569,217.35983 1031.889,216.34646 L 1031.969,216.42646 C 1032.129,216.85317 1032.3423,217.27983 1032.609,217.70646 C 1032.8756,218.13317 1033.089,218.5865 1033.249,219.06646 L 1033.169,219.14646 L 1033.169,219.30646 M 1009.729,261.46646 C 1006.7423,261.30646 1003.9423,260.55979 1001.329,259.22646 C 998.71567,257.89313 996.39567,256.18646 994.36902,254.10646 C 992.34234,251.97313 990.63568,249.5998 989.24902,246.98646 C 987.86235,244.31981 986.90235,241.57314 986.36902,238.74646 L 986.52902,238.74646 C 988.39568,237.41315 990.31568,236.26648 992.28902,235.30646 C 994.26234,234.34648 996.26234,233.43982 998.28902,232.58646 C 1000.3157,231.73315 1002.3423,230.93315 1004.369,230.18646 C 1006.449,229.38649 1008.529,228.50649 1010.609,227.54646 L 1010.689,227.78646 C 1010.5823,232.85315 1010.449,237.99981 1010.289,243.22646 C 1010.1823,248.45314 1010.3157,253.70646 1010.689,258.98646 L 1009.969,261.22646 L 1009.729,261.46646 M 1010.689,202.66646 L 1011.089,202.66646 C 1013.2223,202.66651 1015.2757,202.98651 1017.249,203.62646 C 1019.2223,204.21318 1021.0623,205.06651 1022.769,206.18646 C 1024.4756,207.25318 1026.049,208.53318 1027.489,210.02646 C 1028.929,211.46651 1030.1823,213.03984 1031.249,214.74646 C 1031.249,214.79984 1031.2223,214.8265 1031.169,214.82646 C 1031.0623,214.8265 1030.9556,214.79984 1030.849,214.74646 C 1023.1156,215.8665 1015.3823,217.83983 1007.649,220.66646 C 999.969,223.43983 992.74234,227.03982 985.96902,231.46646 L 985.56902,231.22646 C 985.56902,227.75982 986.18235,224.34649 987.40902,220.98646 C 988.68901,217.57317 990.44901,214.53317 992.68902,211.86646 C 994.92901,209.19984 997.56901,207.03984 1000.609,205.38646 C 1003.7023,203.67985 1007.089,202.79985 1010.769,202.74646 L 1010.689,202.66646 M 1011.969,261.38646 C 1011.8623,255.57313 1011.649,249.86647 1011.329,244.26646 C 1011.0623,238.66648 1010.849,233.09315 1010.689,227.54646 L 1010.769,227.46646 C 1014.5557,226.02649 1018.289,224.61316 1021.969,223.22646 C 1025.649,221.7865 1029.5423,220.8265 1033.649,220.34646 L 1033.729,220.42646 C 1034.4223,222.29316 1034.9556,224.21316 1035.329,226.18646 C 1035.7556,228.10649 1035.969,230.07982 1035.969,232.10646 C 1035.969,234.82648 1035.6223,237.54648 1034.929,240.26646 C 1034.2356,242.93314 1033.2223,245.46647 1031.889,247.86646 C 1030.609,250.21313 1029.009,252.34646 1027.089,254.26646 C 1025.169,256.18646 1023.009,257.78646 1020.609,259.06646 C 1021.8356,259.54646 1023.0623,259.99979 1024.289,260.42646 C 1025.569,260.79979 1026.8223,261.19979 1028.049,261.62646 L 1028.129,261.70646 C 1027.7023,262.98645 1027.3023,264.26645 1026.929,265.54646 C 1026.609,266.82645 1026.2356,268.07978 1025.809,269.30646 L 1025.729,269.38646 C 1023.9156,268.63978 1022.129,267.86645 1020.369,267.06646 C 1018.609,266.31978 1016.8223,265.59978 1015.009,264.90646 L 1014.929,264.82646 C 1015.1957,264.13312 1015.4357,263.41312 1015.649,262.66646 C 1015.8623,261.97312 1016.1023,261.27979 1016.369,260.58646 C 1015.6223,260.85312 1014.849,261.01312 1014.049,261.06646 C 1013.3023,261.11979 1012.5557,261.19979 1011.809,261.30646 L 1011.729,261.22646 L 1011.969,261.38646" style="font-size: 80px; font-style: normal; font-variant: normal; font-weight: normal; font-stretch: normal; text-align: start; line-height: 125%; text-anchor: start; fill: rgb(51, 51, 51); fill-opacity: 1; stroke: none; stroke-width: 1px; stroke-linecap: butt; stroke-linejoin: miter; stroke-opacity: 1; font-family: Airmole Stripe;"/>
    </g>
  </g>
</svg>