<?xml version="1.0" encoding="UTF-8" standalone="no"?>
<!-- Created with Inkscape (http://www.inkscape.org/) -->
<svg xmlns:dc="http://purl.org/dc/elements/1.1/" xmlns:cc="http://creativecommons.org/ns#" xmlns:rdf="http://www.w3.org/1999/02/22-rdf-syntax-ns#" xmlns:svg="http://www.w3.org/2000/svg" xmlns="http://www.w3.org/2000/svg" xmlns:sodipodi="http://sodipodi.sourceforge.net/DTD/sodipodi-0.dtd" xmlns:inkscape="http://www.inkscape.org/namespaces/inkscape" width="90" height="135" id="svg16720" sodipodi:version="0.32" inkscape:version="0.46" version="1.0" sodipodi:docname="club_k.svg" inkscape:output_extension="org.inkscape.output.svg.inkscape">
  <defs id="defs16722">
    <inkscape:perspective sodipodi:type="inkscape:persp3d" inkscape:vp_x="0 : 526.18109 : 1" inkscape:vp_y="0 : 1000 : 0" inkscape:vp_z="744.09448 : 526.18109 : 1" inkscape:persp3d-origin="372.04724 : 350.78739 : 1" id="perspective16728"/>
  </defs>
  <sodipodi:namedview id="base" pagecolor="#ffffff" bordercolor="#666666" borderopacity="1.0" gridtolerance="10000" guidetolerance="10" objecttolerance="10" inkscape:pageopacity="0.0" inkscape:pageshadow="2" inkscape:zoom="1.4" inkscape:cx="1.1905278" inkscape:cy="112.32681" inkscape:document-units="px" inkscape:current-layer="layer1" showgrid="false" inkscape:window-width="641" inkscape:window-height="719" inkscape:window-x="97" inkscape:window-y="47"/>
  <metadata id="metadata16725">
    <rdf:RDF>
      <cc:Work rdf:about="">
        <dc:format>image/svg+xml</dc:format>
        <dc:type rdf:resource="http://purl.org/dc/dcmitype/StillImage"/>
      </cc:Work>
    </rdf:RDF>
  </metadata>
  <g inkscape:label="Layer 1" inkscape:groupmode="layer" id="layer1" transform="translate(-117.857, -330.576)">
    <g transform="translate(-943.846, 183.714)" id="g15643">
      <g transform="translate(1040.85, 136.929)" id="g4514">
        <rect style="fill: rgb(0, 0, 0); fill-opacity: 1; stroke: none; stroke-width: 3; stroke-linecap: butt; stroke-linejoin: round; stroke-miterlimit: 4; stroke-dasharray: none; stroke-opacity: 1;" id="rect4516" width="90" height="135" x="20.85714" y="9.9336166" ry="14.04"/>
        <rect style="fill: rgb(242, 242, 242); fill-opacity: 1; stroke: none; stroke-width: 3; stroke-linecap: butt; stroke-linejoin: round; stroke-miterlimit: 4; stroke-dasharray: none; stroke-opacity: 1;" id="rect4518" width="80" height="125" x="25.85714" y="14.933617" ry="13"/>
      </g>
      <path id="text5301" d="M 1098.4107,170.70185 L 1098.4107,179.23796 L 1093.1607,179.23796 L 1093.1607,153.70741 L 1098.4107,153.70741 L 1098.4107,164.90741 L 1108.4051,153.70741 L 1114.5885,153.70741 L 1104.3801,164.73241 L 1115.6774,179.23796 L 1109.3968,179.23796 L 1101.0357,167.96018 L 1098.4107,170.70185" style="font-size: 35px; font-style: normal; font-variant: normal; font-weight: bold; font-stretch: normal; text-align: start; line-height: 125%; text-anchor: start; fill: rgb(0, 0, 0); fill-opacity: 1; stroke: none; stroke-width: 1px; stroke-linecap: butt; stroke-linejoin: miter; stroke-opacity: 1; font-family: AlMothnna;"/>
      <path sodipodi:nodetypes="ccccsccccccscccc" id="path5438" d="M 1080.6758,154.79661 C 1077.7186,154.79661 1075.3186,157.31661 1075.3186,160.42161 C 1075.3445,162.37565 1076.3527,164.02688 1077.402,165.59739 C 1076.2324,164.71236 1074.9326,164.17713 1073.5329,164.17161 C 1070.5758,164.17161 1068.1758,166.69161 1068.1758,169.79661 C 1068.1758,172.90161 1070.5758,175.42161 1073.5329,175.42161 C 1075.9285,175.38152 1077.8444,173.7054 1079.7271,172.29661 C 1079.3902,176.50483 1078.7049,178.86758 1074.7234,179.79661 C 1077.6996,179.79661 1083.652,179.79661 1086.6282,179.79661 C 1082.6466,178.86758 1081.9613,176.50483 1081.6244,172.29661 C 1083.4854,173.89167 1085.437,175.24478 1087.8186,175.42161 C 1090.7758,175.42161 1093.1758,172.90161 1093.1758,169.79661 C 1093.1758,166.69161 1090.7758,164.17161 1087.8186,164.17161 C 1086.3831,164.17146 1085.1431,164.83206 1083.9496,165.59739 C 1085.1372,164.04306 1085.9189,162.36587 1086.0329,160.42161 C 1086.0329,157.31661 1083.6329,154.79661 1080.6758,154.79661 z" style="fill: rgb(0, 0, 0); fill-opacity: 1; stroke: none; stroke-width: 0.354331; stroke-linecap: round; stroke-linejoin: round; stroke-miterlimit: 4; stroke-dasharray: 1.41732, 1.41732; stroke-dashoffset: 0pt; stroke-opacity: 1;"/>
      <path sodipodi:nodetypes="ccccsccccccscccc" id="path5604" d="M 1107.7032,181.36219 C 1101.7892,181.36219 1096.9892,186.40219 1096.9892,192.61219 C 1097.0409,196.52026 1099.0572,199.82272 1101.1559,202.96376 C 1098.8165,201.19369 1096.2169,200.12322 1093.4175,200.11219 C 1087.5032,200.11219 1082.7032,205.15219 1082.7032,211.36219 C 1082.7032,217.57219 1087.5032,222.61219 1093.4175,222.61219 C 1098.2089,222.53202 1102.0405,219.17976 1105.8062,216.36219 C 1105.1322,224.77862 1103.7615,229.50412 1095.7985,231.36219 C 1101.7509,231.36219 1113.6559,231.36219 1119.6082,231.36219 C 1111.6452,229.50412 1110.2745,224.77862 1109.6005,216.36219 C 1113.3225,219.55232 1117.2259,222.25852 1121.9892,222.61219 C 1127.9032,222.61219 1132.7032,217.57219 1132.7032,211.36219 C 1132.7032,205.15219 1127.9032,200.11219 1121.9892,200.11219 C 1119.1179,200.11189 1116.6379,201.43309 1114.2509,202.96376 C 1116.6262,199.85509 1118.1895,196.50072 1118.4175,192.61219 C 1118.4175,186.40219 1113.6175,181.36219 1107.7032,181.36219 z" style="fill: rgb(0, 0, 0); fill-opacity: 1; stroke: none; stroke-width: 0.354331; stroke-linecap: round; stroke-linejoin: round; stroke-miterlimit: 4; stroke-dasharray: 1.41732, 1.41732; stroke-dashoffset: 0pt; stroke-opacity: 1;"/>
      <path id="text4572" d="M 1116.5031,219.94646 C 1116.5564,220.21317 1116.583,220.47983 1116.5831,220.74646 C 1116.6364,220.95983 1116.6897,221.19983 1116.7431,221.46646 L 1116.8231,221.30646 C 1111.3831,223.33316 1106.0231,225.3865 1100.7431,227.46646 C 1095.5164,229.54649 1090.5297,232.10649 1085.7831,235.14646 L 1085.6231,235.06646 C 1085.5164,234.42649 1085.4897,233.78649 1085.5431,233.14646 C 1085.5964,232.50649 1085.5697,231.86649 1085.4631,231.22646 L 1085.4631,231.14646 C 1090.4764,228.21316 1095.6764,225.41316 1101.0631,222.74646 C 1106.5031,220.0265 1112.1031,217.73317 1117.8631,215.86646 C 1117.863,215.91984 1117.863,215.9465 1117.8631,215.94646 C 1117.9164,215.9465 1117.943,215.97317 1117.9431,216.02646 C 1117.6764,216.45317 1117.383,216.87984 1117.0631,217.30646 C 1116.7964,217.67984 1116.5297,218.07984 1116.2631,218.50646 L 1116.5031,219.94646 M 1084.1031,203.86646 C 1087.7831,203.81318 1091.4897,203.65318 1095.2231,203.38646 C 1098.9564,203.11985 1102.6897,202.90652 1106.4231,202.74646 L 1106.5831,202.74646 C 1106.3164,205.19985 1106.1031,207.59985 1105.9431,209.94646 C 1105.7831,212.23984 1105.5697,214.58651 1105.3031,216.98646 C 1105.9431,214.58651 1106.6097,212.21318 1107.3031,209.86646 C 1108.0497,207.51985 1108.7164,205.14652 1109.3031,202.74646 L 1109.3831,202.66646 C 1112.1564,202.77318 1114.903,202.93318 1117.6231,203.14646 C 1120.343,203.35985 1123.063,203.57318 1125.7831,203.78646 C 1124.7164,205.54652 1123.623,207.27985 1122.5031,208.98646 C 1121.383,210.63984 1120.3697,212.34651 1119.4631,214.10646 C 1113.4897,215.75984 1107.6497,217.89317 1101.9431,220.50646 C 1096.2364,223.0665 1090.7697,226.18649 1085.5431,229.86646 L 1085.1431,229.70646 L 1085.1431,228.10646 C 1085.1431,224.15983 1085.0364,220.1865 1084.8231,216.18646 C 1084.6631,212.18651 1084.4497,208.15985 1084.1831,204.10646 L 1084.2631,204.02646 L 1084.1031,203.86646 M 1087.0631,259.54646 C 1086.6897,255.81313 1086.4497,252.0798 1086.3431,248.34646 C 1086.2897,244.55981 1086.0764,240.74648 1085.7031,236.90646 L 1085.5431,236.66646 C 1087.9431,235.11982 1090.4231,233.70649 1092.9831,232.42646 C 1095.5431,231.14649 1098.1297,229.97316 1100.7431,228.90646 C 1103.4097,227.83983 1106.1031,226.82649 1108.8231,225.86646 C 1111.5431,224.85316 1114.263,223.8665 1116.9831,222.90646 L 1117.0631,222.98646 C 1118.343,228.85316 1120.023,234.53315 1122.1031,240.02646 C 1124.183,245.46648 1126.583,250.74647 1129.3031,255.86646 L 1129.1431,255.94646 C 1125.943,256.69313 1122.7164,257.41313 1119.4631,258.10646 C 1116.263,258.74646 1113.0364,259.43979 1109.7831,260.18646 C 1108.0231,258.05313 1106.6364,255.7598 1105.6231,253.30646 C 1104.6097,250.7998 1103.7564,248.23981 1103.0631,245.62646 C 1102.9031,247.81314 1102.7164,249.97314 1102.5031,252.10646 C 1102.3431,254.2398 1102.2097,256.3998 1102.1031,258.58646 L 1102.0231,258.74646 C 1099.5164,258.90646 1097.0097,259.09313 1094.5031,259.30646 C 1092.0497,259.46646 1089.5697,259.59979 1087.0631,259.70646 L 1086.9831,259.62646 L 1087.0631,259.54646" style="font-size: 80px; font-style: normal; font-variant: normal; font-weight: normal; font-stretch: normal; text-align: start; line-height: 125%; text-anchor: start; fill: rgb(51, 51, 51); fill-opacity: 1; stroke: none; stroke-width: 1px; stroke-linecap: butt; stroke-linejoin: miter; stroke-opacity: 1; font-family: Airmole Stripe;"/>
    </g>
  </g>
</svg>