<?xml version="1.0" encoding="UTF-8" standalone="no"?>
<!-- Created with Inkscape (http://www.inkscape.org/) -->
<svg xmlns:dc="http://purl.org/dc/elements/1.1/" xmlns:cc="http://creativecommons.org/ns#" xmlns:rdf="http://www.w3.org/1999/02/22-rdf-syntax-ns#" xmlns:svg="http://www.w3.org/2000/svg" xmlns="http://www.w3.org/2000/svg" xmlns:sodipodi="http://sodipodi.sourceforge.net/DTD/sodipodi-0.dtd" xmlns:inkscape="http://www.inkscape.org/namespaces/inkscape" width="90" height="135" id="svg16720" sodipodi:version="0.32" inkscape:version="0.46" version="1.0" sodipodi:docname="club_6.svg" inkscape:output_extension="org.inkscape.output.svg.inkscape">
  <defs id="defs16722">
    <inkscape:perspective sodipodi:type="inkscape:persp3d" inkscape:vp_x="0 : 526.18109 : 1" inkscape:vp_y="0 : 1000 : 0" inkscape:vp_z="744.09448 : 526.18109 : 1" inkscape:persp3d-origin="372.04724 : 350.78739 : 1" id="perspective16728"/>
  </defs>
  <sodipodi:namedview id="base" pagecolor="#ffffff" bordercolor="#666666" borderopacity="1.0" gridtolerance="10000" guidetolerance="10" objecttolerance="10" inkscape:pageopacity="0.0" inkscape:pageshadow="2" inkscape:zoom="1.4" inkscape:cx="1.1905278" inkscape:cy="112.32681" inkscape:document-units="px" inkscape:current-layer="layer1" showgrid="false" inkscape:window-width="641" inkscape:window-height="719" inkscape:window-x="611" inkscape:window-y="47"/>
  <metadata id="metadata16725">
    <rdf:RDF>
      <cc:Work rdf:about="">
        <dc:format>image/svg+xml</dc:format>
        <dc:type rdf:resource="http://purl.org/dc/dcmitype/StillImage"/>
      </cc:Work>
    </rdf:RDF>
  </metadata>
  <g inkscape:label="Layer 1" inkscape:groupmode="layer" id="layer1" transform="translate(-117.857, -330.576)">
    <g transform="translate(-272.308, 183.714)" id="g14061">
      <g transform="translate(369.308, 136.929)" id="g4472">
        <rect style="fill: rgb(0, 0, 0); fill-opacity: 1; stroke: none; stroke-width: 3; stroke-linecap: butt; stroke-linejoin: round; stroke-miterlimit: 4; stroke-dasharray: none; stroke-opacity: 1;" id="rect4474" width="90" height="135" x="20.85714" y="9.9336166" ry="14.04"/>
        <rect style="fill: rgb(242, 242, 242); fill-opacity: 1; stroke: none; stroke-width: 3; stroke-linecap: butt; stroke-linejoin: round; stroke-miterlimit: 4; stroke-dasharray: none; stroke-opacity: 1;" id="rect4476" width="80" height="125" x="25.85714" y="14.933617" ry="13"/>
      </g>
      <path id="text4580" d="M 450.84476,228.98645 C 450.95139,229.25315 451.08472,229.46649 451.24476,229.62645 C 451.40472,229.78649 451.59139,229.97315 451.80476,230.18645 L 451.80476,230.34645 C 448.71139,231.67982 445.64473,233.09315 442.60476,234.58645 C 439.61807,236.07981 436.7114,237.70648 433.88476,239.46645 C 431.05807,241.17314 428.31141,243.06647 425.64476,245.14645 C 423.03142,247.17313 420.55142,249.41313 418.20476,251.86645 L 418.04476,251.78645 C 417.77809,251.25313 417.53809,250.7198 417.32476,250.18645 C 417.16475,249.5998 416.95142,249.0398 416.68476,248.50645 L 417.00476,248.42645 C 419.19142,246.13314 421.59142,243.9998 424.20476,242.02645 C 426.87141,240.05314 429.64474,238.26648 432.52476,236.66645 C 435.40474,235.06648 438.36473,233.62648 441.40476,232.34645 C 444.49806,231.06648 447.61806,229.94649 450.76476,228.98645 L 450.84476,228.98645 L 450.84476,228.98645 M 447.24476,226.02645 C 447.67139,226.29316 448.07139,226.55982 448.44476,226.82645 C 448.81806,227.09315 449.19139,227.38649 449.56476,227.70645 L 449.40476,228.10645 C 443.53806,229.97315 437.72473,232.42648 431.96476,235.46645 C 426.25808,238.45314 421.05808,242.21314 416.36476,246.74645 L 416.20476,246.66645 C 415.83142,245.54647 415.56476,244.3198 415.40476,242.98645 C 415.29809,241.65314 415.24476,240.39981 415.24476,239.22645 L 415.24476,238.42645 C 415.24476,234.95981 415.72476,231.57315 416.68476,228.26645 C 417.69809,224.90649 419.03142,221.70649 420.68476,218.66645 C 422.39142,215.6265 424.31141,212.77317 426.44476,210.10645 C 428.63141,207.38651 430.92474,204.90651 433.32476,202.66645 L 433.48476,202.74645 C 435.1914,204.82651 437.05807,206.77317 439.08476,208.58645 C 441.1114,210.3465 443.13806,212.07984 445.16476,213.78645 C 445.16473,213.83983 445.13806,213.89317 445.08476,213.94645 C 445.08473,213.9465 445.08473,213.99983 445.08476,214.10645 C 442.89806,215.0665 440.73806,216.2665 438.60476,217.70645 C 436.52474,219.1465 434.57807,220.79983 432.76476,222.66645 C 431.00474,224.47982 429.48474,226.50649 428.20476,228.74645 C 426.97808,230.93315 426.17808,233.27982 425.80476,235.78645 C 426.28475,234.39981 426.81808,232.98648 427.40476,231.54645 C 427.99141,230.10648 428.73808,228.79982 429.64476,227.62645 C 430.60474,226.45316 431.72474,225.49316 433.00476,224.74645 C 434.33807,223.99982 435.96474,223.62649 437.88476,223.62645 L 438.36476,223.62645 C 441.56473,223.73316 444.52473,224.53316 447.24476,226.02645 M 435.72476,262.58645 C 432.31141,262.53312 429.11141,261.73312 426.12476,260.18645 C 423.13808,258.58646 420.71142,256.26646 418.84476,253.22645 L 418.84476,253.06645 C 423.69808,248.21313 429.00474,244.10647 434.76476,240.74645 C 440.52473,237.38648 446.49806,234.31981 452.68476,231.54645 L 452.76476,231.78645 L 452.76476,231.70645 C 453.56472,233.03982 454.15138,234.47981 454.52476,236.02645 C 454.89805,237.57314 455.08472,239.17314 455.08476,240.82645 L 455.08476,241.70645 C 455.08472,244.26647 454.60472,246.7998 453.64476,249.30645 C 452.73805,251.81313 451.45805,254.05313 449.80476,256.02645 C 448.20472,257.99979 446.25806,259.59979 443.96476,260.82645 C 441.72473,261.99979 439.2714,262.58645 436.60476,262.58645 L 435.80476,262.58645 L 435.72476,262.58645" style="font-size: 80px; font-style: normal; font-variant: normal; font-weight: normal; font-stretch: normal; text-align: start; line-height: 125%; text-anchor: start; fill: rgb(51, 51, 51); fill-opacity: 1; stroke: none; stroke-width: 1px; stroke-linecap: butt; stroke-linejoin: miter; stroke-opacity: 1; font-family: Airmole Stripe;"/>
      <path id="text5273" d="M 422.21607,166.52407 C 422.21606,157.50186 425.26884,152.99076 431.3744,152.99073 C 431.65957,152.99076 431.93828,153.00372 432.21051,153.02962 C 432.49568,153.04261 432.87161,153.09446 433.33829,153.18518 C 433.8179,153.27594 434.25864,153.39909 434.66051,153.55462 C 435.07531,153.7102 435.51605,153.94353 435.98273,154.25462 C 436.46235,154.56576 436.87716,154.9352 437.22718,155.36295 C 437.57716,155.77779 437.90123,156.31575 438.1994,156.97684 C 438.49753,157.62501 438.70494,158.35094 438.82162,159.15462 L 434.29107,159.15462 C 433.96698,158.3639 433.57161,157.80001 433.10495,157.46295 C 432.63828,157.12594 432.01605,156.95742 431.23829,156.9574 C 430.25309,156.95742 429.42346,157.26853 428.7494,157.89073 C 428.08828,158.51297 427.64754,159.38149 427.42718,160.49629 C 427.3105,161.02779 427.23921,161.44908 427.21329,161.76018 C 427.18736,162.0713 427.15495,162.88149 427.11607,164.19073 C 427.88087,163.38704 428.63272,162.82316 429.37162,162.49907 C 430.12346,162.16204 431.01791,161.99353 432.05495,161.99351 C 434.18087,161.99353 435.91142,162.7389 437.24662,164.22962 C 438.58179,165.72037 439.24938,167.65185 439.2494,170.02407 C 439.24938,172.72037 438.48457,174.91111 436.95495,176.59629 C 435.42531,178.28147 433.42902,179.12406 430.96607,179.12407 C 429.48828,179.12406 428.13365,178.79999 426.90218,178.15184 C 425.67069,177.5037 424.69847,176.60277 423.98551,175.44907 C 423.36329,174.46388 422.90958,173.27129 422.6244,171.87129 C 422.35217,170.4713 422.21606,168.68889 422.21607,166.52407 M 430.8494,165.82407 C 429.72161,165.82408 428.80124,166.25186 428.08829,167.1074 C 427.38828,167.96296 427.03828,169.0713 427.03829,170.4324 C 427.03828,171.75463 427.38828,172.83703 428.08829,173.67962 C 428.78828,174.50925 429.69569,174.92407 430.81051,174.92407 C 431.89939,174.92407 432.80031,174.49629 433.51329,173.64073 C 434.2392,172.77222 434.60216,171.67685 434.60218,170.35462 C 434.60216,168.98056 434.25864,167.88519 433.57162,167.06851 C 432.89753,166.23889 431.99013,165.82408 430.8494,165.82407" style="font-size: 35px; font-style: normal; font-variant: normal; font-weight: bold; font-stretch: normal; text-align: start; line-height: 125%; text-anchor: start; fill: rgb(0, 0, 0); fill-opacity: 1; stroke: none; stroke-width: 1px; stroke-linecap: butt; stroke-linejoin: miter; stroke-opacity: 1; font-family: AlMothnna;"/>
      <path sodipodi:nodetypes="ccccsccccccscccc" id="path5424" d="M 409.13751,154.79661 C 406.18037,154.79661 403.78037,157.31661 403.78037,160.42161 C 403.8062,162.37565 404.81442,164.02688 405.8637,165.59739 C 404.69413,164.71236 403.39432,164.17713 401.99466,164.17161 C 399.03751,164.17161 396.63751,166.69161 396.63751,169.79661 C 396.63751,172.90161 399.03751,175.42161 401.99466,175.42161 C 404.39019,175.38152 406.30611,173.7054 408.18885,172.29661 C 407.85195,176.50483 407.16667,178.86758 403.18513,179.79661 C 406.16132,179.79661 412.1137,179.79661 415.08989,179.79661 C 411.10836,178.86758 410.42307,176.50483 410.08617,172.29661 C 411.9471,173.89167 413.89875,175.24478 416.28037,175.42161 C 419.23751,175.42161 421.63751,172.90161 421.63751,169.79661 C 421.63751,166.69161 419.23751,164.17161 416.28037,164.17161 C 414.8448,164.17146 413.60483,164.83206 412.41132,165.59739 C 413.59892,164.04306 414.38066,162.36587 414.49466,160.42161 C 414.49466,157.31661 412.09466,154.79661 409.13751,154.79661 z" style="fill: rgb(0, 0, 0); fill-opacity: 1; stroke: none; stroke-width: 0.354331; stroke-linecap: round; stroke-linejoin: round; stroke-miterlimit: 4; stroke-dasharray: 1.41732, 1.41732; stroke-dashoffset: 0pt; stroke-opacity: 1;"/>
      <path sodipodi:nodetypes="ccccsccccccscccc" id="path5522" d="M 434.42855,194.36219 C 432.65426,194.36219 431.21426,195.87419 431.21426,197.73719 C 431.22976,198.90961 431.8347,199.90035 432.46426,200.84266 C 431.76252,200.31164 430.98263,199.9905 430.14283,199.98719 C 428.36855,199.98719 426.92855,201.49919 426.92855,203.36219 C 426.92855,205.22519 428.36855,206.73719 430.14283,206.73719 C 431.58015,206.71314 432.72971,205.70746 433.85935,204.86219 C 433.65721,207.38712 433.24604,208.80477 430.85712,209.36219 C 432.64284,209.36219 436.21426,209.36219 437.99998,209.36219 C 435.61106,208.80477 435.19989,207.38712 434.99775,204.86219 C 436.1143,205.81923 437.28529,206.63109 438.71426,206.73719 C 440.48855,206.73719 441.92855,205.22519 441.92855,203.36219 C 441.92855,201.49919 440.48855,199.98719 438.71426,199.98719 C 437.85292,199.9871 437.10894,200.38346 436.39284,200.84266 C 437.1054,199.91006 437.57444,198.90375 437.64284,197.73719 C 437.64284,195.87419 436.20284,194.36219 434.42855,194.36219 z" style="fill: rgb(0, 0, 0); fill-opacity: 1; stroke: none; stroke-width: 0.354331; stroke-linecap: round; stroke-linejoin: round; stroke-miterlimit: 4; stroke-dasharray: 1.41732, 1.41732; stroke-dashoffset: 0pt; stroke-opacity: 1;"/>
      <path sodipodi:nodetypes="ccccsccccccscccc" id="path5524" d="M 439.42855,235.36219 C 437.65426,235.36219 436.21426,236.87419 436.21426,238.73719 C 436.22976,239.90961 436.8347,240.90035 437.46426,241.84266 C 436.76252,241.31164 435.98263,240.9905 435.14283,240.98719 C 433.36855,240.98719 431.92855,242.49919 431.92855,244.36219 C 431.92855,246.22519 433.36855,247.73719 435.14283,247.73719 C 436.58015,247.71314 437.72971,246.70746 438.85935,245.86219 C 438.65721,248.38712 438.24604,249.80477 435.85712,250.36219 C 437.64284,250.36219 441.21426,250.36219 442.99998,250.36219 C 440.61106,249.80477 440.19989,248.38712 439.99775,245.86219 C 441.1143,246.81923 442.28529,247.63109 443.71426,247.73719 C 445.48855,247.73719 446.92855,246.22519 446.92855,244.36219 C 446.92855,242.49919 445.48855,240.98719 443.71426,240.98719 C 442.85292,240.9871 442.10894,241.38346 441.39284,241.84266 C 442.1054,240.91006 442.57444,239.90375 442.64284,238.73719 C 442.64284,236.87419 441.20284,235.36219 439.42855,235.36219 z" style="fill: rgb(0, 0, 0); fill-opacity: 1; stroke: none; stroke-width: 0.354331; stroke-linecap: round; stroke-linejoin: round; stroke-miterlimit: 4; stroke-dasharray: 1.41732, 1.41732; stroke-dashoffset: 0pt; stroke-opacity: 1;"/>
      <path sodipodi:nodetypes="ccccsccccccscccc" id="path5526" d="M 417.42855,226.36219 C 415.65426,226.36219 414.21426,227.87419 414.21426,229.73719 C 414.22976,230.90961 414.8347,231.90035 415.46426,232.84266 C 414.76252,232.31164 413.98263,231.9905 413.14283,231.98719 C 411.36855,231.98719 409.92855,233.49919 409.92855,235.36219 C 409.92855,237.22519 411.36855,238.73719 413.14283,238.73719 C 414.58015,238.71314 415.72971,237.70746 416.85935,236.86219 C 416.65721,239.38712 416.24604,240.80477 413.85712,241.36219 C 415.64284,241.36219 419.21426,241.36219 420.99998,241.36219 C 418.61106,240.80477 418.19989,239.38712 417.99775,236.86219 C 419.1143,237.81923 420.28529,238.63109 421.71426,238.73719 C 423.48855,238.73719 424.92855,237.22519 424.92855,235.36219 C 424.92855,233.49919 423.48855,231.98719 421.71426,231.98719 C 420.85292,231.9871 420.10894,232.38346 419.39284,232.84266 C 420.1054,231.91006 420.57444,230.90375 420.64284,229.73719 C 420.64284,227.87419 419.20284,226.36219 417.42855,226.36219 z" style="fill: rgb(0, 0, 0); fill-opacity: 1; stroke: none; stroke-width: 0.354331; stroke-linecap: round; stroke-linejoin: round; stroke-miterlimit: 4; stroke-dasharray: 1.41732, 1.41732; stroke-dashoffset: 0pt; stroke-opacity: 1;"/>
      <path sodipodi:nodetypes="ccccsccccccscccc" id="path5528" d="M 422.42855,250.36219 C 420.65426,250.36219 419.21426,251.87419 419.21426,253.73719 C 419.22976,254.90961 419.8347,255.90035 420.46426,256.84266 C 419.76252,256.31164 418.98263,255.9905 418.14283,255.98719 C 416.36855,255.98719 414.92855,257.49919 414.92855,259.36219 C 414.92855,261.22519 416.36855,262.73719 418.14283,262.73719 C 419.58015,262.71314 420.72971,261.70746 421.85935,260.86219 C 421.65721,263.38712 421.24604,264.80477 418.85712,265.36219 C 420.64284,265.36219 424.21426,265.36219 425.99998,265.36219 C 423.61106,264.80477 423.19989,263.38712 422.99775,260.86219 C 424.1143,261.81923 425.28529,262.63109 426.71426,262.73719 C 428.48855,262.73719 429.92855,261.22519 429.92855,259.36219 C 429.92855,257.49919 428.48855,255.98719 426.71426,255.98719 C 425.85292,255.9871 425.10894,256.38346 424.39284,256.84266 C 425.1054,255.91006 425.57444,254.90375 425.64284,253.73719 C 425.64284,251.87419 424.20284,250.36219 422.42855,250.36219 z" style="fill: rgb(0, 0, 0); fill-opacity: 1; stroke: none; stroke-width: 0.354331; stroke-linecap: round; stroke-linejoin: round; stroke-miterlimit: 4; stroke-dasharray: 1.41732, 1.41732; stroke-dashoffset: 0pt; stroke-opacity: 1;"/>
      <path sodipodi:nodetypes="ccccsccccccscccc" id="path5530" d="M 455.42855,245.36219 C 453.65426,245.36219 452.21426,246.87419 452.21426,248.73719 C 452.22976,249.90961 452.8347,250.90035 453.46426,251.84266 C 452.76252,251.31164 451.98263,250.9905 451.14283,250.98719 C 449.36855,250.98719 447.92855,252.49919 447.92855,254.36219 C 447.92855,256.22519 449.36855,257.73719 451.14283,257.73719 C 452.58015,257.71314 453.72971,256.70746 454.85935,255.86219 C 454.65721,258.38712 454.24604,259.80477 451.85712,260.36219 C 453.64284,260.36219 457.21426,260.36219 458.99998,260.36219 C 456.61106,259.80477 456.19989,258.38712 455.99775,255.86219 C 457.1143,256.81923 458.28529,257.63109 459.71426,257.73719 C 461.48855,257.73719 462.92855,256.22519 462.92855,254.36219 C 462.92855,252.49919 461.48855,250.98719 459.71426,250.98719 C 458.85292,250.9871 458.10894,251.38346 457.39284,251.84266 C 458.1054,250.91006 458.57444,249.90375 458.64284,248.73719 C 458.64284,246.87419 457.20284,245.36219 455.42855,245.36219 z" style="fill: rgb(0, 0, 0); fill-opacity: 1; stroke: none; stroke-width: 0.354331; stroke-linecap: round; stroke-linejoin: round; stroke-miterlimit: 4; stroke-dasharray: 1.41732, 1.41732; stroke-dashoffset: 0pt; stroke-opacity: 1;"/>
      <path sodipodi:nodetypes="ccccsccccccscccc" id="path5532" d="M 449.42855,220.36219 C 447.65426,220.36219 446.21426,221.87419 446.21426,223.73719 C 446.22976,224.90961 446.8347,225.90035 447.46426,226.84266 C 446.76252,226.31164 445.98263,225.9905 445.14283,225.98719 C 443.36855,225.98719 441.92855,227.49919 441.92855,229.36219 C 441.92855,231.22519 443.36855,232.73719 445.14283,232.73719 C 446.58015,232.71314 447.72971,231.70746 448.85935,230.86219 C 448.65721,233.38712 448.24604,234.80477 445.85712,235.36219 C 447.64284,235.36219 451.21426,235.36219 452.99998,235.36219 C 450.61106,234.80477 450.19989,233.38712 449.99775,230.86219 C 451.1143,231.81923 452.28529,232.63109 453.71426,232.73719 C 455.48855,232.73719 456.92855,231.22519 456.92855,229.36219 C 456.92855,227.49919 455.48855,225.98719 453.71426,225.98719 C 452.85292,225.9871 452.10894,226.38346 451.39284,226.84266 C 452.1054,225.91006 452.57444,224.90375 452.64284,223.73719 C 452.64284,221.87419 451.20284,220.36219 449.42855,220.36219 z" style="fill: rgb(0, 0, 0); fill-opacity: 1; stroke: none; stroke-width: 0.354331; stroke-linecap: round; stroke-linejoin: round; stroke-miterlimit: 4; stroke-dasharray: 1.41732, 1.41732; stroke-dashoffset: 0pt; stroke-opacity: 1;"/>
    </g>
  </g>
</svg>