<?xml version="1.0" encoding="UTF-8" standalone="no"?>
<!-- Created with Inkscape (http://www.inkscape.org/) -->
<svg xmlns:dc="http://purl.org/dc/elements/1.1/" xmlns:cc="http://creativecommons.org/ns#" xmlns:rdf="http://www.w3.org/1999/02/22-rdf-syntax-ns#" xmlns:svg="http://www.w3.org/2000/svg" xmlns="http://www.w3.org/2000/svg" xmlns:sodipodi="http://sodipodi.sourceforge.net/DTD/sodipodi-0.dtd" xmlns:inkscape="http://www.inkscape.org/namespaces/inkscape" width="90" height="135" id="svg16720" sodipodi:version="0.32" inkscape:version="0.46" version="1.0" sodipodi:docname="club_j.svg" inkscape:output_extension="org.inkscape.output.svg.inkscape">
  <defs id="defs16722">
    <inkscape:perspective sodipodi:type="inkscape:persp3d" inkscape:vp_x="0 : 526.18109 : 1" inkscape:vp_y="0 : 1000 : 0" inkscape:vp_z="744.09448 : 526.18109 : 1" inkscape:persp3d-origin="372.04724 : 350.78739 : 1" id="perspective16728"/>
  </defs>
  <sodipodi:namedview id="base" pagecolor="#ffffff" bordercolor="#666666" borderopacity="1.0" gridtolerance="10000" guidetolerance="10" objecttolerance="10" inkscape:pageopacity="0.0" inkscape:pageshadow="2" inkscape:zoom="1.4" inkscape:cx="1.1905278" inkscape:cy="112.32681" inkscape:document-units="px" inkscape:current-layer="layer1" showgrid="false" inkscape:window-width="641" inkscape:window-height="719" inkscape:window-x="97" inkscape:window-y="47"/>
  <metadata id="metadata16725">
    <rdf:RDF>
      <cc:Work rdf:about="">
        <dc:format>image/svg+xml</dc:format>
        <dc:type rdf:resource="http://purl.org/dc/dcmitype/StillImage"/>
      </cc:Work>
    </rdf:RDF>
  </metadata>
  <g inkscape:label="Layer 1" inkscape:groupmode="layer" id="layer1" transform="translate(-117.857, -330.576)">
    <g transform="translate(-751.978, 183.714)" id="g15683">
      <g transform="translate(848.978, 136.929)" id="g4502">
        <rect style="fill: rgb(0, 0, 0); fill-opacity: 1; stroke: none; stroke-width: 3; stroke-linecap: butt; stroke-linejoin: round; stroke-miterlimit: 4; stroke-dasharray: none; stroke-opacity: 1;" id="rect4504" width="90" height="135" x="20.85714" y="9.9336166" ry="14.04"/>
        <rect style="fill: rgb(242, 242, 242); fill-opacity: 1; stroke: none; stroke-width: 3; stroke-linecap: butt; stroke-linejoin: round; stroke-miterlimit: 4; stroke-dasharray: none; stroke-opacity: 1;" id="rect4506" width="80" height="125" x="25.85714" y="14.933617" ry="13"/>
      </g>
      <path id="text5293" d="M 909.54293,179.12407 C 908.79107,179.12406 908.06514,179.05277 907.36515,178.91018 C 906.66514,178.78055 905.95218,178.54073 905.22626,178.19073 C 904.50033,177.82777 903.87163,177.36758 903.34015,176.81018 C 902.82163,176.23981 902.39385,175.49444 902.05682,174.57407 C 901.71978,173.6537 901.55126,172.59722 901.55126,171.40462 L 901.55126,168.87684 L 906.80126,168.87684 L 906.80126,171.32684 C 906.80125,172.49352 907.02162,173.33611 907.46237,173.85462 C 907.9031,174.37314 908.62255,174.6324 909.6207,174.6324 C 910.54107,174.6324 911.24755,174.37962 911.74015,173.87407 C 912.23273,173.36851 912.47903,172.63611 912.47904,171.67684 L 912.47904,152.79629 L 917.72904,152.79629 L 917.72904,171.67684 C 917.72902,174.06203 917.01606,175.90277 915.59015,177.19907 C 914.16421,178.4824 912.14847,179.12406 909.54293,179.12407" style="font-size: 35px; font-style: normal; font-variant: normal; font-weight: bold; font-stretch: normal; text-align: start; line-height: 125%; text-anchor: start; fill: rgb(0, 0, 0); fill-opacity: 1; stroke: none; stroke-width: 1px; stroke-linecap: butt; stroke-linejoin: miter; stroke-opacity: 1; font-family: AlMothnna;"/>
      <path sodipodi:nodetypes="ccccsccccccscccc" id="path5434" d="M 888.80778,154.79661 C 885.85064,154.79661 883.45064,157.31661 883.45064,160.42161 C 883.47647,162.37565 884.48469,164.02688 885.53397,165.59739 C 884.3644,164.71236 883.06459,164.17713 881.66493,164.17161 C 878.70778,164.17161 876.30778,166.69161 876.30778,169.79661 C 876.30778,172.90161 878.70778,175.42161 881.66493,175.42161 C 884.06046,175.38152 885.97638,173.7054 887.85912,172.29661 C 887.52222,176.50483 886.83694,178.86758 882.8554,179.79661 C 885.83159,179.79661 891.78397,179.79661 894.76016,179.79661 C 890.77863,178.86758 890.09334,176.50483 889.75644,172.29661 C 891.61737,173.89167 893.56902,175.24478 895.95064,175.42161 C 898.90778,175.42161 901.30778,172.90161 901.30778,169.79661 C 901.30778,166.69161 898.90778,164.17161 895.95064,164.17161 C 894.51507,164.17146 893.2751,164.83206 892.08159,165.59739 C 893.26919,164.04306 894.05093,162.36587 894.16493,160.42161 C 894.16493,157.31661 891.76493,154.79661 888.80778,154.79661 z" style="fill: rgb(0, 0, 0); fill-opacity: 1; stroke: none; stroke-width: 0.354331; stroke-linecap: round; stroke-linejoin: round; stroke-miterlimit: 4; stroke-dasharray: 1.41732, 1.41732; stroke-dashoffset: 0pt; stroke-opacity: 1;"/>
      <path sodipodi:nodetypes="ccccsccccccscccc" id="path5600" d="M 915.83514,181.36219 C 909.92114,181.36219 905.12114,186.40219 905.12114,192.61219 C 905.17284,196.52026 907.18914,199.82272 909.28784,202.96376 C 906.94844,201.19369 904.34884,200.12322 901.54944,200.11219 C 895.63514,200.11219 890.83514,205.15219 890.83514,211.36219 C 890.83514,217.57219 895.63514,222.61219 901.54944,222.61219 C 906.34084,222.53202 910.17244,219.17976 913.93814,216.36219 C 913.26414,224.77862 911.89344,229.50412 903.93044,231.36219 C 909.88284,231.36219 921.78784,231.36219 927.74014,231.36219 C 919.77714,229.50412 918.40644,224.77862 917.73244,216.36219 C 921.45444,219.55232 925.35784,222.25852 930.12114,222.61219 C 936.03514,222.61219 940.83514,217.57219 940.83514,211.36219 C 940.83514,205.15219 936.03514,200.11219 930.12114,200.11219 C 927.24984,200.11189 924.76984,201.43309 922.38284,202.96376 C 924.75814,199.85509 926.32144,196.50072 926.54944,192.61219 C 926.54944,186.40219 921.74944,181.36219 915.83514,181.36219 z" style="fill: rgb(0, 0, 0); fill-opacity: 1; stroke: none; stroke-width: 0.354331; stroke-linecap: round; stroke-linejoin: round; stroke-miterlimit: 4; stroke-dasharray: 1.41732, 1.41732; stroke-dashoffset: 0pt; stroke-opacity: 1;"/>
      <path id="text4564" d="M 928.87504,216.50647 C 928.76835,217.14651 928.68835,217.86651 928.63504,218.66647 C 928.58168,219.41318 928.55501,220.13318 928.55504,220.82647 L 928.39504,220.82647 C 924.92835,221.62651 921.51502,222.79984 918.15504,224.34647 C 914.84836,225.83984 911.56836,227.41317 908.31504,229.06647 L 908.23504,228.98647 C 908.1817,228.29317 908.12837,227.6265 908.07504,226.98647 C 908.07503,226.3465 908.04837,225.67984 907.99504,224.98647 L 908.07504,224.82647 C 911.27503,223.06651 914.63503,221.49318 918.15504,220.10647 C 921.67502,218.71984 925.22168,217.49318 928.79504,216.42647 L 928.87504,216.50647 M 907.67504,203.78647 C 911.24836,203.62653 914.87503,203.43986 918.55504,203.22647 C 922.23502,202.95986 925.94168,202.77319 929.67504,202.66647 L 929.83504,202.74647 C 929.72835,204.77319 929.59501,206.79986 929.43504,208.82647 C 929.27501,210.79985 929.14168,212.79985 929.03504,214.82647 L 928.87504,214.98647 C 925.19502,215.78651 921.59502,216.93318 918.07504,218.42647 C 914.55503,219.86651 911.19503,221.43984 907.99504,223.14647 L 907.91504,223.06647 C 907.8617,219.86651 907.7817,216.69318 907.67504,213.54647 C 907.56837,210.34652 907.48837,207.14652 907.43504,203.94647 L 907.51504,203.86647 L 907.67504,203.78647 M 908.31504,230.50647 L 908.39504,230.58647 C 911.59503,228.87983 914.87503,227.35984 918.23504,226.02647 C 921.64835,224.69317 925.03502,223.49317 928.39504,222.42647 L 928.47504,222.50647 C 928.42168,225.65317 928.20835,228.79983 927.83504,231.94647 C 927.46168,235.03983 927.14168,238.10649 926.87504,241.14647 C 926.60835,243.97315 925.99502,246.74648 925.03504,249.46647 C 924.07502,252.18648 922.74169,254.66648 921.03504,256.90647 C 919.38169,259.14647 917.35503,261.01314 914.95504,262.50647 C 912.60836,263.9998 909.91503,264.8798 906.87504,265.14647 L 906.71504,265.06647 C 905.59504,262.66647 904.44837,260.26647 903.27504,257.86647 C 902.10171,255.46647 900.95504,253.03981 899.83504,250.58647 L 900.07504,250.58647 C 901.30171,250.58648 902.44837,250.34648 903.51504,249.86647 C 904.5817,249.38648 905.51504,248.71981 906.31504,247.86647 C 907.11504,247.01315 907.72837,246.05315 908.15504,244.98647 C 908.63503,243.91982 908.87503,242.77315 908.87504,241.54647 C 908.87503,241.38649 908.84837,241.22649 908.79504,241.06647 C 908.79503,240.90649 908.79503,240.74649 908.79504,240.58647 L 908.79504,239.38647 L 908.31504,230.50647" style="font-size: 80px; font-style: normal; font-variant: normal; font-weight: normal; font-stretch: normal; text-align: start; line-height: 125%; text-anchor: start; fill: rgb(51, 51, 51); fill-opacity: 1; stroke: none; stroke-width: 1px; stroke-linecap: butt; stroke-linejoin: miter; stroke-opacity: 1; font-family: Airmole Stripe;"/>
    </g>
  </g>
</svg>