<?xml version="1.0" encoding="UTF-8" standalone="no"?>
<!-- Created with Inkscape (http://www.inkscape.org/) -->
<svg xmlns:dc="http://purl.org/dc/elements/1.1/" xmlns:cc="http://creativecommons.org/ns#" xmlns:rdf="http://www.w3.org/1999/02/22-rdf-syntax-ns#" xmlns:svg="http://www.w3.org/2000/svg" xmlns="http://www.w3.org/2000/svg" xmlns:sodipodi="http://sodipodi.sourceforge.net/DTD/sodipodi-0.dtd" xmlns:inkscape="http://www.inkscape.org/namespaces/inkscape" width="90" height="135" id="svg16720" sodipodi:version="0.32" inkscape:version="0.46" version="1.0" sodipodi:docname="club_2.svg" inkscape:output_extension="org.inkscape.output.svg.inkscape">
  <defs id="defs16722">
    <inkscape:perspective sodipodi:type="inkscape:persp3d" inkscape:vp_x="0 : 526.18109 : 1" inkscape:vp_y="0 : 1000 : 0" inkscape:vp_z="744.09448 : 526.18109 : 1" inkscape:persp3d-origin="372.04724 : 350.78739 : 1" id="perspective16728"/>
  </defs>
  <sodipodi:namedview id="base" pagecolor="#ffffff" bordercolor="#666666" borderopacity="1.0" gridtolerance="10000" guidetolerance="10" objecttolerance="10" inkscape:pageopacity="0.0" inkscape:pageshadow="2" inkscape:zoom="1.4" inkscape:cx="1.1905278" inkscape:cy="112.32681" inkscape:document-units="px" inkscape:current-layer="layer1" showgrid="false" inkscape:window-width="641" inkscape:window-height="719" inkscape:window-x="611" inkscape:window-y="47"/>
  <metadata id="metadata16725">
    <rdf:RDF>
      <cc:Work rdf:about="">
        <dc:format>image/svg+xml</dc:format>
        <dc:type rdf:resource="http://purl.org/dc/dcmitype/StillImage"/>
      </cc:Work>
    </rdf:RDF>
  </metadata>
  <g inkscape:label="Layer 1" inkscape:groupmode="layer" id="layer1" transform="translate(-117.857, -330.576)">
    <g transform="translate(111.429, 183.714)" id="g13957">
      <g transform="translate(-14.4286, 136.929)" id="g4448">
        <rect style="fill: rgb(0, 0, 0); fill-opacity: 1; stroke: none; stroke-width: 3; stroke-linecap: butt; stroke-linejoin: round; stroke-miterlimit: 4; stroke-dasharray: none; stroke-opacity: 1;" id="rect4450" width="90" height="135" x="20.85714" y="9.9336166" ry="14.04"/>
        <rect style="fill: rgb(242, 242, 242); fill-opacity: 1; stroke: none; stroke-width: 3; stroke-linecap: butt; stroke-linejoin: round; stroke-miterlimit: 4; stroke-dasharray: none; stroke-opacity: 1;" id="rect4452" width="80" height="125" x="25.85714" y="14.933617" ry="13"/>
      </g>
      <path id="text4532" d="M 39.188577,233.54646 C 38.975237,233.06649 38.815237,232.58649 38.708577,232.10646 C 38.655237,231.62649 38.54857,231.14649 38.388577,230.66646 L 38.388577,230.34646 C 42.2819,226.23983 46.441896,222.5065 50.868577,219.14646 C 55.29522,215.73317 60.041882,212.69317 65.108577,210.02646 L 65.188577,210.02646 C 65.881876,210.93317 66.441876,211.89317 66.868577,212.90646 C 67.348542,213.8665 67.801874,214.87984 68.228577,215.94646 L 68.308577,215.94646 C 64.308545,218.3465 60.388549,220.79983 56.548577,223.30646 C 52.708556,225.81316 49.001893,228.55982 45.428577,231.54646 L 44.388577,231.46646 C 43.428565,231.46649 42.495233,231.65315 41.588577,232.02646 C 40.735235,232.34649 39.988569,232.87982 39.348577,233.62646 L 39.188577,233.54646 L 39.188577,233.54646 M 32.788577,210.58646 C 35.188574,208.23984 37.828571,206.34651 40.708577,204.90646 C 43.641899,203.41318 46.788562,202.66652 50.148577,202.66646 C 52.921889,202.66652 55.481887,203.19985 57.828577,204.26646 C 60.175215,205.33318 62.308547,206.85318 64.228577,208.82646 C 64.228545,208.87984 64.201878,208.90651 64.148577,208.90646 C 64.148545,208.90651 64.148545,208.93318 64.148577,208.98646 C 59.135216,211.43984 54.415221,214.3465 49.988577,217.70646 C 45.61523,221.0665 41.615234,224.79983 37.988577,228.90646 L 37.828577,228.74646 C 36.921905,225.70649 36.095239,222.71983 35.348577,219.78646 C 34.601908,216.79984 33.775242,213.7865 32.868577,210.74646 L 32.788577,210.58646 M 51.268577,235.94646 L 51.268577,235.78646 C 51.268558,234.77315 50.868558,233.94648 50.068577,233.30646 C 49.321893,232.66649 48.495227,232.21315 47.588577,231.94646 L 47.588577,231.78646 C 50.948558,229.17316 54.388555,226.63983 57.908577,224.18646 C 61.481881,221.73316 65.028544,219.3865 68.548577,217.14646 L 68.708577,217.22646 C 69.135206,218.5065 69.455206,219.8665 69.668577,221.30646 C 69.935206,222.7465 70.068539,224.10649 70.068577,225.38646 L 70.068577,225.54646 C 70.068539,227.89316 69.668539,230.21316 68.868577,232.50646 C 68.121874,234.74648 67.055209,236.82648 65.668577,238.74646 C 64.281878,240.66648 62.628546,242.37314 60.708577,243.86646 C 58.78855,245.30647 56.681886,246.37314 54.388577,247.06646 C 53.748555,247.2798 53.028556,247.49314 52.228577,247.70646 C 51.481891,247.86647 50.735225,248.10647 49.988577,248.42646 C 49.295226,248.74647 48.681894,249.17314 48.148577,249.70646 C 47.668561,250.18647 47.401895,250.85313 47.348577,251.70646 C 47.348562,251.86647 47.348562,252.02647 47.348577,252.18646 C 47.401895,252.34647 47.428561,252.4798 47.428577,252.58646 C 50.308559,252.37313 53.188556,252.10647 56.068577,251.78646 C 58.94855,251.41313 61.828547,250.93313 64.708577,250.34646 L 64.788577,250.42646 C 64.681878,251.81313 64.628544,253.22647 64.628577,254.66646 C 64.628544,256.05313 64.601878,257.43979 64.548577,258.82646 L 64.468577,258.98646 C 59.935216,258.77313 55.401887,258.66646 50.868577,258.66646 C 46.388563,258.66646 41.855234,258.61313 37.268577,258.50646 L 37.188577,258.42646 C 37.135238,258.26646 37.108572,257.97313 37.108577,257.54646 C 37.108572,257.17313 37.135238,256.8798 37.188577,256.66646 C 37.188572,256.45313 37.161905,256.26646 37.108577,256.10646 C 37.108572,255.94646 37.108572,255.7598 37.108577,255.54646 C 37.108572,254.05313 37.321905,252.58647 37.748577,251.14646 C 38.175237,249.65314 38.78857,248.29314 39.588577,247.06646 C 40.441902,245.78647 41.428567,244.66647 42.548577,243.70646 C 43.721899,242.74648 45.028564,241.97314 46.468577,241.38646 C 47.375228,240.85314 48.335227,240.26648 49.348577,239.62646 C 50.415225,238.93315 51.028558,237.97315 51.188577,236.74646 L 51.268577,235.94646" style="font-size: 80px; font-style: normal; font-variant: normal; font-weight: normal; font-stretch: normal; text-align: start; line-height: 125%; text-anchor: start; fill: rgb(51, 51, 51); fill-opacity: 1; stroke: none; stroke-width: 1px; stroke-linecap: butt; stroke-linejoin: miter; stroke-opacity: 1; font-family: Airmole Stripe;"/>
      <path id="text5257" d="M 53.920732,161.77685 C 53.920714,162.78798 53.765159,163.72779 53.454065,164.59629 C 53.142937,165.46483 52.721641,166.21668 52.190176,166.85185 C 51.658679,167.48705 51.068865,168.08334 50.420732,168.64074 C 49.77257,169.18519 49.092015,169.70371 48.379065,170.19629 C 47.666091,170.67593 46.992017,171.1426 46.356843,171.59629 C 45.721648,172.05001 45.125352,172.56204 44.567954,173.13241 C 44.023502,173.68982 43.615169,174.26019 43.342954,174.84352 L 53.842954,174.84352 L 53.842954,179.23796 L 36.965176,179.23796 C 37.094805,176.95648 37.561471,175.14167 38.365176,173.79352 C 39.168877,172.43241 40.614246,171.02593 42.701288,169.57407 C 44.593871,168.25186 45.967944,167.20186 46.82351,166.42407 C 47.679054,165.64631 48.255905,164.93335 48.554065,164.28518 C 48.865163,163.63705 49.020719,162.83335 49.020732,161.87407 C 49.020719,160.62965 48.709608,159.65742 48.087399,158.95741 C 47.465165,158.24446 46.60961,157.88798 45.520732,157.88796 C 44.405909,157.88798 43.537391,158.27039 42.915176,159.03518 C 42.305911,159.80002 42.001281,160.86946 42.001288,162.24352 L 42.001288,163.06018 L 37.315176,163.06018 C 37.289249,162.80094 37.276286,162.51576 37.276288,162.20463 C 37.276286,159.57317 37.99573,157.5315 39.434621,156.07963 C 40.873505,154.6278 42.876281,153.90188 45.442954,153.90185 C 48.048498,153.90188 50.109607,154.61484 51.626288,156.04074 C 53.1559,157.45372 53.920714,159.36576 53.920732,161.77685" style="font-size: 35px; font-style: normal; font-variant: normal; font-weight: bold; font-stretch: normal; text-align: start; line-height: 125%; text-anchor: start; fill: rgb(0, 0, 0); fill-opacity: 1; stroke: none; stroke-width: 1px; stroke-linecap: butt; stroke-linejoin: miter; stroke-opacity: 1; font-family: AlMothnna;"/>
      <path sodipodi:nodetypes="ccccsccccccscccc" id="path5416" d="M 25.401296,154.79661 C 22.444154,154.79661 20.044153,157.31661 20.044153,160.42161 C 20.069981,162.37565 21.078207,164.02688 22.127486,165.59739 C 20.957915,164.71236 19.658103,164.17713 18.258438,164.17161 C 15.301296,164.17161 12.901295,166.69161 12.901295,169.79661 C 12.901295,172.90161 15.301296,175.42161 18.258438,175.42161 C 20.653968,175.38152 22.569897,173.7054 24.452635,172.29661 C 24.115736,176.50483 23.430451,178.86758 19.448915,179.79661 C 22.425106,179.79661 28.377486,179.79661 31.353677,179.79661 C 27.372141,178.86758 26.686856,176.50483 26.349957,172.29661 C 28.210885,173.89167 30.162529,175.24478 32.544153,175.42161 C 35.501296,175.42161 37.901296,172.90161 37.901296,169.79661 C 37.901296,166.69161 35.501296,164.17161 32.544153,164.17161 C 31.108582,164.17146 29.868611,164.83206 28.675106,165.59739 C 29.862707,164.04306 30.644439,162.36587 30.758439,160.42161 C 30.758439,157.31661 28.358439,154.79661 25.401296,154.79661 z" style="fill: rgb(0, 0, 0); fill-opacity: 1; stroke: none; stroke-width: 0.354331; stroke-linecap: round; stroke-linejoin: round; stroke-miterlimit: 4; stroke-dasharray: 1.41732, 1.41732; stroke-dashoffset: 0pt; stroke-opacity: 1;"/>
      <path sodipodi:nodetypes="ccccsccccccscccc" id="path5494" d="M 35.127034,202.22302 C 33.352749,202.22302 31.912748,203.73502 31.912748,205.59802 C 31.928245,206.77044 32.533181,207.76118 33.162748,208.70349 C 32.461005,208.17247 31.681118,207.85133 30.841319,207.84802 C 29.067034,207.84802 27.627034,209.36002 27.627034,211.22302 C 27.627034,213.08602 29.067034,214.59802 30.841319,214.59802 C 32.278637,214.57397 33.428195,213.56829 34.557837,212.72302 C 34.355698,215.24795 33.944527,216.6656 31.555605,217.22302 C 33.34132,217.22302 36.912748,217.22302 38.698463,217.22302 C 36.309541,216.6656 35.89837,215.24795 35.696231,212.72302 C 36.812787,213.68006 37.983774,214.49192 39.412748,214.59802 C 41.187034,214.59802 42.627034,213.08602 42.627034,211.22302 C 42.627034,209.36002 41.187034,207.84802 39.412748,207.84802 C 38.551406,207.84793 37.807423,208.24429 37.09132,208.70349 C 37.803881,207.77089 38.27292,206.76458 38.34132,205.59802 C 38.34132,203.73502 36.90132,202.22302 35.127034,202.22302 z" style="fill: rgb(0, 0, 0); fill-opacity: 1; stroke: none; stroke-width: 0.354331; stroke-linecap: round; stroke-linejoin: round; stroke-miterlimit: 4; stroke-dasharray: 1.41732, 1.41732; stroke-dashoffset: 0pt; stroke-opacity: 1;"/>
      <path sodipodi:nodetypes="ccccsccccccscccc" id="path5496" d="M 69.06816,248.89206 C 67.293875,248.89206 65.853874,250.40406 65.853874,252.26706 C 65.869371,253.43948 66.474307,254.43022 67.103874,255.37253 C 66.402131,254.84151 65.622244,254.52037 64.782445,254.51706 C 63.00816,254.51706 61.56816,256.02906 61.56816,257.89206 C 61.56816,259.75506 63.00816,261.26706 64.782445,261.26706 C 66.219763,261.24301 67.369321,260.23733 68.498963,259.39206 C 68.296824,261.91699 67.885653,263.33464 65.496731,263.89206 C 67.282446,263.89206 70.853874,263.89206 72.639589,263.89206 C 70.250667,263.33464 69.839496,261.91699 69.637357,259.39206 C 70.753913,260.3491 71.9249,261.16096 73.353874,261.26706 C 75.12816,261.26706 76.56816,259.75506 76.56816,257.89206 C 76.56816,256.02906 75.12816,254.51706 73.353874,254.51706 C 72.492532,254.51697 71.748549,254.91333 71.032446,255.37253 C 71.745007,254.43993 72.214046,253.43362 72.282446,252.26706 C 72.282446,250.40406 70.842446,248.89206 69.06816,248.89206 z" style="fill: rgb(0, 0, 0); fill-opacity: 1; stroke: none; stroke-width: 0.354331; stroke-linecap: round; stroke-linejoin: round; stroke-miterlimit: 4; stroke-dasharray: 1.41732, 1.41732; stroke-dashoffset: 0pt; stroke-opacity: 1;"/>
    </g>
  </g>
</svg>