<?xml version="1.0" encoding="UTF-8" standalone="no"?>
<!-- Created with Inkscape (http://www.inkscape.org/) -->
<svg xmlns:dc="http://purl.org/dc/elements/1.1/" xmlns:cc="http://creativecommons.org/ns#" xmlns:rdf="http://www.w3.org/1999/02/22-rdf-syntax-ns#" xmlns:svg="http://www.w3.org/2000/svg" xmlns="http://www.w3.org/2000/svg" xmlns:sodipodi="http://sodipodi.sourceforge.net/DTD/sodipodi-0.dtd" xmlns:inkscape="http://www.inkscape.org/namespaces/inkscape" width="90" height="135" id="svg16720" sodipodi:version="0.32" inkscape:version="0.46" version="1.0" sodipodi:docname="club_8.svg" inkscape:output_extension="org.inkscape.output.svg.inkscape">
  <defs id="defs16722">
    <inkscape:perspective sodipodi:type="inkscape:persp3d" inkscape:vp_x="0 : 526.18109 : 1" inkscape:vp_y="0 : 1000 : 0" inkscape:vp_z="744.09448 : 526.18109 : 1" inkscape:persp3d-origin="372.04724 : 350.78739 : 1" id="perspective16728"/>
  </defs>
  <sodipodi:namedview id="base" pagecolor="#ffffff" bordercolor="#666666" borderopacity="1.0" gridtolerance="10000" guidetolerance="10" objecttolerance="10" inkscape:pageopacity="0.0" inkscape:pageshadow="2" inkscape:zoom="1.4" inkscape:cx="1.1905278" inkscape:cy="112.32681" inkscape:document-units="px" inkscape:current-layer="layer1" showgrid="false" inkscape:window-width="641" inkscape:window-height="719" inkscape:window-x="611" inkscape:window-y="47"/>
  <metadata id="metadata16725">
    <rdf:RDF>
      <cc:Work rdf:about="">
        <dc:format>image/svg+xml</dc:format>
        <dc:type rdf:resource="http://purl.org/dc/dcmitype/StillImage"/>
      </cc:Work>
    </rdf:RDF>
  </metadata>
  <g inkscape:label="Layer 1" inkscape:groupmode="layer" id="layer1" transform="translate(-117.857, -330.576)">
    <g transform="translate(-464.176, 183.714)" id="g14125">
      <g transform="translate(561.176, 136.929)" id="g4484">
        <rect style="fill: rgb(0, 0, 0); fill-opacity: 1; stroke: none; stroke-width: 3; stroke-linecap: butt; stroke-linejoin: round; stroke-miterlimit: 4; stroke-dasharray: none; stroke-opacity: 1;" id="rect4486" width="90" height="135" x="20.85714" y="9.9336166" ry="14.04"/>
        <rect style="fill: rgb(242, 242, 242); fill-opacity: 1; stroke: none; stroke-width: 3; stroke-linecap: butt; stroke-linejoin: round; stroke-miterlimit: 4; stroke-dasharray: none; stroke-opacity: 1;" id="rect4488" width="80" height="125" x="25.85714" y="14.933617" ry="13"/>
      </g>
      <path id="text4552" d="M 649.59284,216.82644 L 650.47284,219.30644 C 646.47279,221.17314 642.52613,222.90647 638.63284,224.50644 C 634.7928,226.05314 630.97947,227.78647 627.19284,229.70644 L 627.11284,229.62644 C 627.11281,229.14647 627.08614,228.66647 627.03284,228.18644 C 627.03281,227.70647 627.03281,227.22647 627.03284,226.74644 L 627.11284,225.94644 C 630.84614,224.18647 634.49947,222.50648 638.07284,220.90644 C 641.69946,219.25315 645.51279,217.86648 649.51284,216.74644 L 649.59284,216.82644 M 626.95284,226.18644 C 626.84614,226.77314 626.81948,227.38647 626.87284,228.02644 C 626.92614,228.66647 626.89948,229.2798 626.79284,229.86644 L 626.71284,229.78644 C 620.31282,233.09313 614.60616,237.30646 609.59284,242.42644 L 609.43284,242.42644 C 608.84616,241.89312 608.28616,241.33312 607.75284,240.74644 C 607.27283,240.10646 606.8195,239.46646 606.39284,238.82644 L 606.31284,238.74644 C 609.51283,236.02646 612.89949,233.70646 616.47284,231.78644 C 620.04615,229.86647 623.51281,227.97314 626.87284,226.10644 L 626.95284,226.18644 L 626.95284,226.18644 M 613.11284,252.02644 C 613.11282,250.95978 613.32616,249.97311 613.75284,249.06644 C 614.23282,248.10645 614.84616,247.27978 615.59284,246.58644 C 613.77949,245.78645 612.12616,244.74645 610.63284,243.46644 L 610.63284,243.30644 C 612.97949,240.85312 615.51282,238.69313 618.23284,236.82644 C 620.95282,234.90646 623.77948,233.14646 626.71284,231.54644 L 626.95284,231.38644 C 626.68614,236.45313 626.49948,241.46646 626.39284,246.42644 C 626.28614,251.38645 626.12615,256.29311 625.91284,261.14644 L 625.83284,261.22644 C 624.49948,261.1731 623.11281,260.9331 621.67284,260.50644 C 620.23282,260.1331 618.89949,259.5731 617.67284,258.82644 C 616.44615,258.07977 615.40616,257.14644 614.55284,256.02644 C 613.69949,254.90644 613.21949,253.57311 613.11284,252.02644 M 628.23284,261.14644 C 628.07281,256.13311 627.88614,251.17311 627.67284,246.26644 C 627.45948,241.30646 627.29948,236.31979 627.19284,231.30644 L 627.27284,231.38644 C 631.11281,229.30647 635.08614,227.33314 639.19284,225.46644 C 643.29946,223.54647 647.21946,221.97314 650.95284,220.74644 L 651.03284,220.82644 C 651.19279,221.57314 651.32612,222.31981 651.43284,223.06644 C 651.53945,223.81314 651.59279,224.55981 651.59284,225.30644 L 651.59284,226.58644 C 651.59279,228.77314 651.24612,230.8798 650.55284,232.90644 C 649.91279,234.8798 649.00612,236.74646 647.83284,238.50644 C 646.71279,240.26646 645.32613,241.83979 643.67284,243.22644 C 642.0728,244.61312 640.3128,245.75979 638.39284,246.66644 C 639.13947,247.35978 639.7528,248.15978 640.23284,249.06644 C 640.76613,249.97311 641.0328,250.93311 641.03284,251.94644 C 640.92613,253.49311 640.44613,254.85311 639.59284,256.02644 C 638.7928,257.14644 637.7528,258.07977 636.47284,258.82644 C 635.24614,259.5731 633.9128,260.1331 632.47284,260.50644 C 631.03281,260.9331 629.64614,261.1731 628.31284,261.22644 L 628.23284,261.14644 L 628.23284,261.14644 M 626.95284,224.02644 C 623.11281,225.89314 619.43282,227.94647 615.91284,230.18644 C 612.44616,232.42647 609.16616,234.98646 606.07284,237.86644 L 605.91284,237.86644 C 603.6195,234.18646 602.47284,230.21313 602.47284,225.94644 L 602.47284,225.70644 C 602.47284,222.55981 603.1395,219.59981 604.47284,216.82644 C 605.8595,213.99982 607.64616,211.54649 609.83284,209.46644 C 612.07283,207.38649 614.60616,205.73316 617.43284,204.50644 C 620.31282,203.27983 623.24615,202.6665 626.23284,202.66644 L 626.87284,202.66644 C 629.11281,202.71983 631.35281,203.03983 633.59284,203.62644 C 635.8328,204.21316 637.9128,205.06649 639.83284,206.18644 C 641.80613,207.25316 643.56613,208.58649 645.11284,210.18644 C 646.71279,211.78649 647.99279,213.62648 648.95284,215.70644 L 648.87284,215.86644 C 645.08613,216.93315 641.3528,218.15981 637.67284,219.54644 C 634.04614,220.93314 630.49947,222.42648 627.03284,224.02644 L 626.95284,224.02644" style="font-size: 80px; font-style: normal; font-variant: normal; font-weight: normal; font-stretch: normal; text-align: start; line-height: 125%; text-anchor: start; fill: rgb(51, 51, 51); fill-opacity: 1; stroke: none; stroke-width: 1px; stroke-linecap: butt; stroke-linejoin: miter; stroke-opacity: 1; font-family: Airmole Stripe;"/>
      <path id="text5281" d="M 631.34712,159.69907 C 631.3471,160.60649 631.18506,161.41019 630.86101,162.11018 C 630.54988,162.79723 630.17395,163.33519 629.73323,163.72407 C 629.30543,164.10001 628.77395,164.46297 628.13878,164.81295 C 629.56469,165.57778 630.59525,166.46574 631.23045,167.47684 C 631.87858,168.48796 632.20265,169.72593 632.20267,171.19073 C 632.20265,173.53703 631.37951,175.44907 629.73323,176.92684 C 628.09988,178.39166 625.98692,179.12406 623.39434,179.12407 C 620.80174,179.12406 618.6823,178.39166 617.03601,176.92684 C 615.40267,175.44907 614.586,173.53703 614.58601,171.19073 C 614.586,169.71296 614.9036,168.475 615.53878,167.47684 C 616.17397,166.46574 617.20452,165.57778 618.63045,164.81295 C 617.50267,164.21667 616.686,163.52315 616.18045,162.7324 C 615.67489,161.92871 615.42211,160.93705 615.42212,159.7574 C 615.42211,157.80001 616.17397,156.18612 617.67767,154.91573 C 619.18137,153.63242 621.08692,152.99076 623.39434,152.99073 C 625.70173,152.99076 627.60081,153.62594 629.09156,154.89629 C 630.59525,156.16668 631.3471,157.7676 631.34712,159.69907 M 623.41378,156.9574 C 622.32489,156.95742 621.43692,157.25557 620.74989,157.85184 C 620.07581,158.44816 619.73878,159.21945 619.73878,160.16573 C 619.73878,161.12501 620.0823,161.90927 620.76934,162.51851 C 621.45637,163.12778 622.33785,163.43241 623.41378,163.4324 C 624.4897,163.43241 625.37118,163.13427 626.05823,162.53795 C 626.75821,161.92871 627.10821,161.15093 627.10823,160.20462 C 627.10821,159.23242 626.7647,158.44816 626.07767,157.85184 C 625.40359,157.25557 624.51562,156.95742 623.41378,156.9574 M 623.37489,166.77684 C 622.19526,166.77685 621.24896,167.15278 620.53601,167.90462 C 619.836,168.64352 619.486,169.64167 619.48601,170.89907 C 619.486,172.13055 619.836,173.10926 620.53601,173.83518 C 621.24896,174.56111 622.19526,174.92407 623.37489,174.92407 C 624.55451,174.92407 625.50081,174.56759 626.21378,173.85462 C 626.9397,173.1287 627.30266,172.16944 627.30267,170.97684 C 627.30266,169.68056 626.94618,168.65648 626.23323,167.90462 C 625.53322,167.15278 624.58044,166.77685 623.37489,166.77684" style="font-size: 35px; font-style: normal; font-variant: normal; font-weight: bold; font-stretch: normal; text-align: start; line-height: 125%; text-anchor: start; fill: rgb(0, 0, 0); fill-opacity: 1; stroke: none; stroke-width: 1px; stroke-linecap: butt; stroke-linejoin: miter; stroke-opacity: 1; font-family: AlMothnna;"/>
      <path sodipodi:nodetypes="ccccsccccccscccc" id="path5428" d="M 601.00558,154.79661 C 598.04844,154.79661 595.64844,157.31661 595.64844,160.42161 C 595.67427,162.37565 596.68249,164.02688 597.73177,165.59739 C 596.5622,164.71236 595.26239,164.17713 593.86273,164.17161 C 590.90558,164.17161 588.50558,166.69161 588.50558,169.79661 C 588.50558,172.90161 590.90558,175.42161 593.86273,175.42161 C 596.25826,175.38152 598.17418,173.7054 600.05692,172.29661 C 599.72002,176.50483 599.03474,178.86758 595.0532,179.79661 C 598.02939,179.79661 603.98177,179.79661 606.95796,179.79661 C 602.97643,178.86758 602.29114,176.50483 601.95424,172.29661 C 603.81517,173.89167 605.76682,175.24478 608.14844,175.42161 C 611.10558,175.42161 613.50558,172.90161 613.50558,169.79661 C 613.50558,166.69161 611.10558,164.17161 608.14844,164.17161 C 606.71287,164.17146 605.4729,164.83206 604.27939,165.59739 C 605.46699,164.04306 606.24873,162.36587 606.36273,160.42161 C 606.36273,157.31661 603.96273,154.79661 601.00558,154.79661 z" style="fill: rgb(0, 0, 0); fill-opacity: 1; stroke: none; stroke-width: 0.354331; stroke-linecap: round; stroke-linejoin: round; stroke-miterlimit: 4; stroke-dasharray: 1.41732, 1.41732; stroke-dashoffset: 0pt; stroke-opacity: 1;"/>
      <path sodipodi:nodetypes="ccccsccccccscccc" id="path5548" d="M 626.42855,193.36219 C 624.65426,193.36219 623.21426,194.87419 623.21426,196.73719 C 623.22976,197.90961 623.8347,198.90035 624.46426,199.84266 C 623.76252,199.31164 622.98263,198.9905 622.14283,198.98719 C 620.36855,198.98719 618.92855,200.49919 618.92855,202.36219 C 618.92855,204.22519 620.36855,205.73719 622.14283,205.73719 C 623.58015,205.71314 624.72971,204.70746 625.85935,203.86219 C 625.65721,206.38712 625.24604,207.80477 622.85712,208.36219 C 624.64284,208.36219 628.21426,208.36219 629.99998,208.36219 C 627.61106,207.80477 627.19989,206.38712 626.99775,203.86219 C 628.1143,204.81923 629.28529,205.63109 630.71426,205.73719 C 632.48855,205.73719 633.92855,204.22519 633.92855,202.36219 C 633.92855,200.49919 632.48855,198.98719 630.71426,198.98719 C 629.85292,198.9871 629.10894,199.38346 628.39284,199.84266 C 629.1054,198.91006 629.57444,197.90375 629.64284,196.73719 C 629.64284,194.87419 628.20284,193.36219 626.42855,193.36219 z" style="fill: rgb(0, 0, 0); fill-opacity: 1; stroke: none; stroke-width: 0.354331; stroke-linecap: round; stroke-linejoin: round; stroke-miterlimit: 4; stroke-dasharray: 1.41732, 1.41732; stroke-dashoffset: 0pt; stroke-opacity: 1;"/>
      <path sodipodi:nodetypes="ccccsccccccscccc" id="path5550" d="M 627.42855,216.36219 C 625.65426,216.36219 624.21426,217.87419 624.21426,219.73719 C 624.22976,220.90961 624.8347,221.90035 625.46426,222.84266 C 624.76252,222.31164 623.98263,221.9905 623.14283,221.98719 C 621.36855,221.98719 619.92855,223.49919 619.92855,225.36219 C 619.92855,227.22519 621.36855,228.73719 623.14283,228.73719 C 624.58015,228.71314 625.72971,227.70746 626.85935,226.86219 C 626.65721,229.38712 626.24604,230.80477 623.85712,231.36219 C 625.64284,231.36219 629.21426,231.36219 630.99998,231.36219 C 628.61106,230.80477 628.19989,229.38712 627.99775,226.86219 C 629.1143,227.81923 630.28529,228.63109 631.71426,228.73719 C 633.48855,228.73719 634.92855,227.22519 634.92855,225.36219 C 634.92855,223.49919 633.48855,221.98719 631.71426,221.98719 C 630.85292,221.9871 630.10894,222.38346 629.39284,222.84266 C 630.1054,221.91006 630.57444,220.90375 630.64284,219.73719 C 630.64284,217.87419 629.20284,216.36219 627.42855,216.36219 z" style="fill: rgb(0, 0, 0); fill-opacity: 1; stroke: none; stroke-width: 0.354331; stroke-linecap: round; stroke-linejoin: round; stroke-miterlimit: 4; stroke-dasharray: 1.41732, 1.41732; stroke-dashoffset: 0pt; stroke-opacity: 1;"/>
      <path sodipodi:nodetypes="ccccsccccccscccc" id="path5552" d="M 605.42855,206.36219 C 603.65426,206.36219 602.21426,207.87419 602.21426,209.73719 C 602.22976,210.90961 602.8347,211.90035 603.46426,212.84266 C 602.76252,212.31164 601.98263,211.9905 601.14283,211.98719 C 599.36855,211.98719 597.92855,213.49919 597.92855,215.36219 C 597.92855,217.22519 599.36855,218.73719 601.14283,218.73719 C 602.58015,218.71314 603.72971,217.70746 604.85935,216.86219 C 604.65721,219.38712 604.24604,220.80477 601.85712,221.36219 C 603.64284,221.36219 607.21426,221.36219 608.99998,221.36219 C 606.61106,220.80477 606.19989,219.38712 605.99775,216.86219 C 607.1143,217.81923 608.28529,218.63109 609.71426,218.73719 C 611.48855,218.73719 612.92855,217.22519 612.92855,215.36219 C 612.92855,213.49919 611.48855,211.98719 609.71426,211.98719 C 608.85292,211.9871 608.10894,212.38346 607.39284,212.84266 C 608.1054,211.91006 608.57444,210.90375 608.64284,209.73719 C 608.64284,207.87419 607.20284,206.36219 605.42855,206.36219 z" style="fill: rgb(0, 0, 0); fill-opacity: 1; stroke: none; stroke-width: 0.354331; stroke-linecap: round; stroke-linejoin: round; stroke-miterlimit: 4; stroke-dasharray: 1.41732, 1.41732; stroke-dashoffset: 0pt; stroke-opacity: 1;"/>
      <path sodipodi:nodetypes="ccccsccccccscccc" id="path5554" d="M 607.42855,231.36219 C 605.65426,231.36219 604.21426,232.87419 604.21426,234.73719 C 604.22976,235.90961 604.8347,236.90035 605.46426,237.84266 C 604.76252,237.31164 603.98263,236.9905 603.14283,236.98719 C 601.36855,236.98719 599.92855,238.49919 599.92855,240.36219 C 599.92855,242.22519 601.36855,243.73719 603.14283,243.73719 C 604.58015,243.71314 605.72971,242.70746 606.85935,241.86219 C 606.65721,244.38712 606.24604,245.80477 603.85712,246.36219 C 605.64284,246.36219 609.21426,246.36219 610.99998,246.36219 C 608.61106,245.80477 608.19989,244.38712 607.99775,241.86219 C 609.1143,242.81923 610.28529,243.63109 611.71426,243.73719 C 613.48855,243.73719 614.92855,242.22519 614.92855,240.36219 C 614.92855,238.49919 613.48855,236.98719 611.71426,236.98719 C 610.85292,236.9871 610.10894,237.38346 609.39284,237.84266 C 610.1054,236.91006 610.57444,235.90375 610.64284,234.73719 C 610.64284,232.87419 609.20284,231.36219 607.42855,231.36219 z" style="fill: rgb(0, 0, 0); fill-opacity: 1; stroke: none; stroke-width: 0.354331; stroke-linecap: round; stroke-linejoin: round; stroke-miterlimit: 4; stroke-dasharray: 1.41732, 1.41732; stroke-dashoffset: 0pt; stroke-opacity: 1;"/>
      <path sodipodi:nodetypes="ccccsccccccscccc" id="path5556" d="M 619.42855,249.36219 C 617.65426,249.36219 616.21426,250.87419 616.21426,252.73719 C 616.22976,253.90961 616.8347,254.90035 617.46426,255.84266 C 616.76252,255.31164 615.98263,254.9905 615.14283,254.98719 C 613.36855,254.98719 611.92855,256.49919 611.92855,258.36219 C 611.92855,260.22519 613.36855,261.73719 615.14283,261.73719 C 616.58015,261.71314 617.72971,260.70746 618.85935,259.86219 C 618.65721,262.38712 618.24604,263.80477 615.85712,264.36219 C 617.64284,264.36219 621.21426,264.36219 622.99998,264.36219 C 620.61106,263.80477 620.19989,262.38712 619.99775,259.86219 C 621.1143,260.81923 622.28529,261.63109 623.71426,261.73719 C 625.48855,261.73719 626.92855,260.22519 626.92855,258.36219 C 626.92855,256.49919 625.48855,254.98719 623.71426,254.98719 C 622.85292,254.9871 622.10894,255.38346 621.39284,255.84266 C 622.1054,254.91006 622.57444,253.90375 622.64284,252.73719 C 622.64284,250.87419 621.20284,249.36219 619.42855,249.36219 z" style="fill: rgb(0, 0, 0); fill-opacity: 1; stroke: none; stroke-width: 0.354331; stroke-linecap: round; stroke-linejoin: round; stroke-miterlimit: 4; stroke-dasharray: 1.41732, 1.41732; stroke-dashoffset: 0pt; stroke-opacity: 1;"/>
      <path sodipodi:nodetypes="ccccsccccccscccc" id="path5558" d="M 642.42855,248.36219 C 640.65426,248.36219 639.21426,249.87419 639.21426,251.73719 C 639.22976,252.90961 639.8347,253.90035 640.46426,254.84266 C 639.76252,254.31164 638.98263,253.9905 638.14283,253.98719 C 636.36855,253.98719 634.92855,255.49919 634.92855,257.36219 C 634.92855,259.22519 636.36855,260.73719 638.14283,260.73719 C 639.58015,260.71314 640.72971,259.70746 641.85935,258.86219 C 641.65721,261.38712 641.24604,262.80477 638.85712,263.36219 C 640.64284,263.36219 644.21426,263.36219 645.99998,263.36219 C 643.61106,262.80477 643.19989,261.38712 642.99775,258.86219 C 644.1143,259.81923 645.28529,260.63109 646.71426,260.73719 C 648.48855,260.73719 649.92855,259.22519 649.92855,257.36219 C 649.92855,255.49919 648.48855,253.98719 646.71426,253.98719 C 645.85292,253.9871 645.10894,254.38346 644.39284,254.84266 C 645.1054,253.91006 645.57444,252.90375 645.64284,251.73719 C 645.64284,249.87419 644.20284,248.36219 642.42855,248.36219 z" style="fill: rgb(0, 0, 0); fill-opacity: 1; stroke: none; stroke-width: 0.354331; stroke-linecap: round; stroke-linejoin: round; stroke-miterlimit: 4; stroke-dasharray: 1.41732, 1.41732; stroke-dashoffset: 0pt; stroke-opacity: 1;"/>
      <path sodipodi:nodetypes="ccccsccccccscccc" id="path5560" d="M 651.42855,224.36219 C 649.65426,224.36219 648.21426,225.87419 648.21426,227.73719 C 648.22976,228.90961 648.8347,229.90035 649.46426,230.84266 C 648.76252,230.31164 647.98263,229.9905 647.14283,229.98719 C 645.36855,229.98719 643.92855,231.49919 643.92855,233.36219 C 643.92855,235.22519 645.36855,236.73719 647.14283,236.73719 C 648.58015,236.71314 649.72971,235.70746 650.85935,234.86219 C 650.65721,237.38712 650.24604,238.80477 647.85712,239.36219 C 649.64284,239.36219 653.21426,239.36219 654.99998,239.36219 C 652.61106,238.80477 652.19989,237.38712 651.99775,234.86219 C 653.1143,235.81923 654.28529,236.63109 655.71426,236.73719 C 657.48855,236.73719 658.92855,235.22519 658.92855,233.36219 C 658.92855,231.49919 657.48855,229.98719 655.71426,229.98719 C 654.85292,229.9871 654.10894,230.38346 653.39284,230.84266 C 654.1054,229.91006 654.57444,228.90375 654.64284,227.73719 C 654.64284,225.87419 653.20284,224.36219 651.42855,224.36219 z" style="fill: rgb(0, 0, 0); fill-opacity: 1; stroke: none; stroke-width: 0.354331; stroke-linecap: round; stroke-linejoin: round; stroke-miterlimit: 4; stroke-dasharray: 1.41732, 1.41732; stroke-dashoffset: 0pt; stroke-opacity: 1;"/>
      <path sodipodi:nodetypes="ccccsccccccscccc" id="path5562" d="M 647.42855,201.36219 C 645.65426,201.36219 644.21426,202.87419 644.21426,204.73719 C 644.22976,205.90961 644.8347,206.90035 645.46426,207.84266 C 644.76252,207.31164 643.98263,206.9905 643.14283,206.98719 C 641.36855,206.98719 639.92855,208.49919 639.92855,210.36219 C 639.92855,212.22519 641.36855,213.73719 643.14283,213.73719 C 644.58015,213.71314 645.72971,212.70746 646.85935,211.86219 C 646.65721,214.38712 646.24604,215.80477 643.85712,216.36219 C 645.64284,216.36219 649.21426,216.36219 650.99998,216.36219 C 648.61106,215.80477 648.19989,214.38712 647.99775,211.86219 C 649.1143,212.81923 650.28529,213.63109 651.71426,213.73719 C 653.48855,213.73719 654.92855,212.22519 654.92855,210.36219 C 654.92855,208.49919 653.48855,206.98719 651.71426,206.98719 C 650.85292,206.9871 650.10894,207.38346 649.39284,207.84266 C 650.1054,206.91006 650.57444,205.90375 650.64284,204.73719 C 650.64284,202.87419 649.20284,201.36219 647.42855,201.36219 z" style="fill: rgb(0, 0, 0); fill-opacity: 1; stroke: none; stroke-width: 0.354331; stroke-linecap: round; stroke-linejoin: round; stroke-miterlimit: 4; stroke-dasharray: 1.41732, 1.41732; stroke-dashoffset: 0pt; stroke-opacity: 1;"/>
    </g>
  </g>
</svg>