<?xml version="1.0" encoding="UTF-8" standalone="no"?>
<!-- Created with Inkscape (http://www.inkscape.org/) -->
<svg xmlns:dc="http://purl.org/dc/elements/1.1/" xmlns:cc="http://creativecommons.org/ns#" xmlns:rdf="http://www.w3.org/1999/02/22-rdf-syntax-ns#" xmlns:svg="http://www.w3.org/2000/svg" xmlns="http://www.w3.org/2000/svg" xmlns:sodipodi="http://sodipodi.sourceforge.net/DTD/sodipodi-0.dtd" xmlns:inkscape="http://www.inkscape.org/namespaces/inkscape" width="90" height="135" id="svg16720" sodipodi:version="0.32" inkscape:version="0.46" version="1.0" sodipodi:docname="club_7.svg" inkscape:output_extension="org.inkscape.output.svg.inkscape">
  <defs id="defs16722">
    <inkscape:perspective sodipodi:type="inkscape:persp3d" inkscape:vp_x="0 : 526.18109 : 1" inkscape:vp_y="0 : 1000 : 0" inkscape:vp_z="744.09448 : 526.18109 : 1" inkscape:persp3d-origin="372.04724 : 350.78739 : 1" id="perspective16728"/>
  </defs>
  <sodipodi:namedview id="base" pagecolor="#ffffff" bordercolor="#666666" borderopacity="1.0" gridtolerance="10000" guidetolerance="10" objecttolerance="10" inkscape:pageopacity="0.0" inkscape:pageshadow="2" inkscape:zoom="1.4" inkscape:cx="1.1905278" inkscape:cy="112.32681" inkscape:document-units="px" inkscape:current-layer="layer1" showgrid="false" inkscape:window-width="641" inkscape:window-height="719" inkscape:window-x="611" inkscape:window-y="47"/>
  <metadata id="metadata16725">
    <rdf:RDF>
      <cc:Work rdf:about="">
        <dc:format>image/svg+xml</dc:format>
        <dc:type rdf:resource="http://purl.org/dc/dcmitype/StillImage"/>
      </cc:Work>
    </rdf:RDF>
  </metadata>
  <g inkscape:label="Layer 1" inkscape:groupmode="layer" id="layer1" transform="translate(-117.857, -330.576)">
    <g transform="translate(-368.242, 183.714)" id="g14092">
      <g transform="translate(465.242, 136.929)" id="g4478">
        <rect style="fill: rgb(0, 0, 0); fill-opacity: 1; stroke: none; stroke-width: 3; stroke-linecap: butt; stroke-linejoin: round; stroke-miterlimit: 4; stroke-dasharray: none; stroke-opacity: 1;" id="rect4480" width="90" height="135" x="20.85714" y="9.9336166" ry="14.04"/>
        <rect style="fill: rgb(242, 242, 242); fill-opacity: 1; stroke: none; stroke-width: 3; stroke-linecap: butt; stroke-linejoin: round; stroke-miterlimit: 4; stroke-dasharray: none; stroke-opacity: 1;" id="rect4482" width="80" height="125" x="25.85714" y="14.933617" ry="13"/>
      </g>
      <path id="text4548" d="M 548.77881,217.30646 C 548.51211,218.05317 548.27211,218.8265 548.05881,219.62646 C 547.89877,220.37317 547.68544,221.11983 547.41881,221.86646 L 547.57881,221.86646 C 543.04544,223.73317 538.59212,225.65316 534.21881,227.62646 C 529.84546,229.54649 525.6588,231.89316 521.65881,234.66646 C 520.27213,234.71982 518.91214,234.77315 517.57881,234.82646 C 516.24547,234.87982 514.88547,234.93315 513.49881,234.98646 L 513.65881,234.82646 C 516.2188,232.79982 518.91214,230.95982 521.73881,229.30646 C 524.6188,227.65316 527.55213,226.13316 530.53881,224.74646 C 533.52545,223.3065 536.53878,221.97317 539.57881,220.74646 C 542.61878,219.51984 545.65878,218.3465 548.69881,217.22646 L 548.77881,217.30646 M 518.37881,258.50646 C 518.8588,254.66647 519.47213,250.82647 520.21881,246.98646 C 520.96547,243.09315 521.95213,239.30648 523.17881,235.62646 C 526.69879,233.06649 530.45879,230.87982 534.45881,229.06646 C 538.51212,227.19983 542.61878,225.41316 546.77881,223.70646 L 546.77881,223.78646 C 544.91211,229.75983 542.96544,235.73315 540.93881,241.70646 C 538.91212,247.62647 536.69878,253.41314 534.29881,259.06646 L 534.29881,259.14646 C 531.57879,258.93313 528.93879,258.82646 526.37881,258.82646 C 523.8188,258.82646 521.1788,258.7198 518.45881,258.50646 L 518.37881,258.50646 M 509.41881,203.46646 C 516.56547,203.35985 523.76546,203.19985 531.01881,202.98646 C 538.32545,202.77319 545.63211,202.66652 552.93881,202.66646 L 553.01881,202.74646 C 552.37877,204.93318 551.76544,207.09318 551.17881,209.22646 C 550.5921,211.35984 549.97877,213.51984 549.33881,215.70646 L 549.09881,215.70646 C 545.73878,216.93317 542.37878,218.1865 539.01881,219.46646 C 535.65879,220.69317 532.35212,222.07983 529.09881,223.62646 C 525.8988,225.11983 522.75213,226.8265 519.65881,228.74646 C 516.56547,230.61316 513.63214,232.74649 510.85881,235.14646 L 510.45881,235.14646 L 509.25881,235.30646 C 509.31215,233.91982 509.33881,232.55982 509.33881,231.22646 C 509.33881,229.89316 509.33881,228.55983 509.33881,227.22646 C 509.33881,223.7065 509.31215,220.23984 509.25881,216.82646 C 509.20548,213.35984 509.17881,209.86651 509.17881,206.34646 L 509.25881,203.78646 L 509.41881,203.46646" style="font-size: 80px; font-style: normal; font-variant: normal; font-weight: normal; font-stretch: normal; text-align: start; line-height: 125%; text-anchor: start; fill: rgb(51, 51, 51); fill-opacity: 1; stroke: none; stroke-width: 1px; stroke-linecap: butt; stroke-linejoin: miter; stroke-opacity: 1; font-family: Airmole Stripe;"/>
      <path id="text5277" d="M 535.76495,154.40741 L 535.76495,158.27685 C 532.82234,161.82872 530.65753,165.23149 529.2705,168.48518 C 527.89642,171.73889 527.0992,175.32315 526.87884,179.23796 L 521.95939,179.23796 C 522.28346,176.60648 522.69179,174.37685 523.18439,172.54907 C 523.67698,170.7213 524.35105,168.90649 525.20661,167.10463 C 525.68623,166.01575 526.52235,164.5639 527.71495,162.74907 C 528.92049,160.93428 529.90567,159.61854 530.6705,158.80185 L 518.32328,158.80185 L 518.32328,154.40741 L 535.76495,154.40741" style="font-size: 35px; font-style: normal; font-variant: normal; font-weight: bold; font-stretch: normal; text-align: start; line-height: 125%; text-anchor: start; fill: rgb(0, 0, 0); fill-opacity: 1; stroke: none; stroke-width: 1px; stroke-linecap: butt; stroke-linejoin: miter; stroke-opacity: 1; font-family: AlMothnna;"/>
      <path sodipodi:nodetypes="ccccsccccccscccc" id="path5426" d="M 505.07161,154.79661 C 502.11446,154.79661 499.71446,157.31661 499.71446,160.42161 C 499.74029,162.37565 500.74852,164.02688 501.7978,165.59739 C 500.62823,164.71236 499.32841,164.17713 497.92875,164.17161 C 494.97161,164.17161 492.57161,166.69161 492.57161,169.79661 C 492.57161,172.90161 494.97161,175.42161 497.92875,175.42161 C 500.32428,175.38152 502.24021,173.7054 504.12295,172.29661 C 503.78605,176.50483 503.10076,178.86758 499.11923,179.79661 C 502.09542,179.79661 508.0478,179.79661 511.02399,179.79661 C 507.04245,178.86758 506.35717,176.50483 506.02027,172.29661 C 507.8812,173.89167 509.83284,175.24478 512.21446,175.42161 C 515.17161,175.42161 517.57161,172.90161 517.57161,169.79661 C 517.57161,166.69161 515.17161,164.17161 512.21446,164.17161 C 510.77889,164.17146 509.53892,164.83206 508.34542,165.59739 C 509.53302,164.04306 510.31475,162.36587 510.42875,160.42161 C 510.42875,157.31661 508.02875,154.79661 505.07161,154.79661 z" style="fill: rgb(0, 0, 0); fill-opacity: 1; stroke: none; stroke-width: 0.354331; stroke-linecap: round; stroke-linejoin: round; stroke-miterlimit: 4; stroke-dasharray: 1.41732, 1.41732; stroke-dashoffset: 0pt; stroke-opacity: 1;"/>
      <path sodipodi:nodetypes="ccccsccccccscccc" id="path5534" d="M 510.42855,195.36219 C 508.65426,195.36219 507.21426,196.87419 507.21426,198.73719 C 507.22976,199.90961 507.8347,200.90035 508.46426,201.84266 C 507.76252,201.31164 506.98263,200.9905 506.14283,200.98719 C 504.36855,200.98719 502.92855,202.49919 502.92855,204.36219 C 502.92855,206.22519 504.36855,207.73719 506.14283,207.73719 C 507.58015,207.71314 508.72971,206.70746 509.85935,205.86219 C 509.65721,208.38712 509.24604,209.80477 506.85712,210.36219 C 508.64284,210.36219 512.21426,210.36219 513.99998,210.36219 C 511.61106,209.80477 511.19989,208.38712 510.99775,205.86219 C 512.1143,206.81923 513.28529,207.63109 514.71426,207.73719 C 516.48855,207.73719 517.92855,206.22519 517.92855,204.36219 C 517.92855,202.49919 516.48855,200.98719 514.71426,200.98719 C 513.85292,200.9871 513.10894,201.38346 512.39284,201.84266 C 513.1054,200.91006 513.57444,199.90375 513.64284,198.73719 C 513.64284,196.87419 512.20284,195.36219 510.42855,195.36219 z" style="fill: rgb(0, 0, 0); fill-opacity: 1; stroke: none; stroke-width: 0.354331; stroke-linecap: round; stroke-linejoin: round; stroke-miterlimit: 4; stroke-dasharray: 1.41732, 1.41732; stroke-dashoffset: 0pt; stroke-opacity: 1;"/>
      <path sodipodi:nodetypes="ccccsccccccscccc" id="path5536" d="M 531.42855,188.36219 C 529.65426,188.36219 528.21426,189.87419 528.21426,191.73719 C 528.22976,192.90961 528.8347,193.90035 529.46426,194.84266 C 528.76252,194.31164 527.98263,193.9905 527.14283,193.98719 C 525.36855,193.98719 523.92855,195.49919 523.92855,197.36219 C 523.92855,199.22519 525.36855,200.73719 527.14283,200.73719 C 528.58015,200.71314 529.72971,199.70746 530.85935,198.86219 C 530.65721,201.38712 530.24604,202.80477 527.85712,203.36219 C 529.64284,203.36219 533.21426,203.36219 534.99998,203.36219 C 532.61106,202.80477 532.19989,201.38712 531.99775,198.86219 C 533.1143,199.81923 534.28529,200.63109 535.71426,200.73719 C 537.48855,200.73719 538.92855,199.22519 538.92855,197.36219 C 538.92855,195.49919 537.48855,193.98719 535.71426,193.98719 C 534.85292,193.9871 534.10894,194.38346 533.39284,194.84266 C 534.1054,193.91006 534.57444,192.90375 534.64284,191.73719 C 534.64284,189.87419 533.20284,188.36219 531.42855,188.36219 z" style="fill: rgb(0, 0, 0); fill-opacity: 1; stroke: none; stroke-width: 0.354331; stroke-linecap: round; stroke-linejoin: round; stroke-miterlimit: 4; stroke-dasharray: 1.41732, 1.41732; stroke-dashoffset: 0pt; stroke-opacity: 1;"/>
      <path sodipodi:nodetypes="ccccsccccccscccc" id="path5538" d="M 551.42855,196.36219 C 549.65426,196.36219 548.21426,197.87419 548.21426,199.73719 C 548.22976,200.90961 548.8347,201.90035 549.46426,202.84266 C 548.76252,202.31164 547.98263,201.9905 547.14283,201.98719 C 545.36855,201.98719 543.92855,203.49919 543.92855,205.36219 C 543.92855,207.22519 545.36855,208.73719 547.14283,208.73719 C 548.58015,208.71314 549.72971,207.70746 550.85935,206.86219 C 550.65721,209.38712 550.24604,210.80477 547.85712,211.36219 C 549.64284,211.36219 553.21426,211.36219 554.99998,211.36219 C 552.61106,210.80477 552.19989,209.38712 551.99775,206.86219 C 553.1143,207.81923 554.28529,208.63109 555.71426,208.73719 C 557.48855,208.73719 558.92855,207.22519 558.92855,205.36219 C 558.92855,203.49919 557.48855,201.98719 555.71426,201.98719 C 554.85292,201.9871 554.10894,202.38346 553.39284,202.84266 C 554.1054,201.91006 554.57444,200.90375 554.64284,199.73719 C 554.64284,197.87419 553.20284,196.36219 551.42855,196.36219 z" style="fill: rgb(0, 0, 0); fill-opacity: 1; stroke: none; stroke-width: 0.354331; stroke-linecap: round; stroke-linejoin: round; stroke-miterlimit: 4; stroke-dasharray: 1.41732, 1.41732; stroke-dashoffset: 0pt; stroke-opacity: 1;"/>
      <path sodipodi:nodetypes="ccccsccccccscccc" id="path5540" d="M 545.42855,224.36219 C 543.65426,224.36219 542.21426,225.87419 542.21426,227.73719 C 542.22976,228.90961 542.8347,229.90035 543.46426,230.84266 C 542.76252,230.31164 541.98263,229.9905 541.14283,229.98719 C 539.36855,229.98719 537.92855,231.49919 537.92855,233.36219 C 537.92855,235.22519 539.36855,236.73719 541.14283,236.73719 C 542.58015,236.71314 543.72971,235.70746 544.85935,234.86219 C 544.65721,237.38712 544.24604,238.80477 541.85712,239.36219 C 543.64284,239.36219 547.21426,239.36219 548.99998,239.36219 C 546.61106,238.80477 546.19989,237.38712 545.99775,234.86219 C 547.1143,235.81923 548.28529,236.63109 549.71426,236.73719 C 551.48855,236.73719 552.92855,235.22519 552.92855,233.36219 C 552.92855,231.49919 551.48855,229.98719 549.71426,229.98719 C 548.85292,229.9871 548.10894,230.38346 547.39284,230.84266 C 548.1054,229.91006 548.57444,228.90375 548.64284,227.73719 C 548.64284,225.87419 547.20284,224.36219 545.42855,224.36219 z" style="fill: rgb(0, 0, 0); fill-opacity: 1; stroke: none; stroke-width: 0.354331; stroke-linecap: round; stroke-linejoin: round; stroke-miterlimit: 4; stroke-dasharray: 1.41732, 1.41732; stroke-dashoffset: 0pt; stroke-opacity: 1;"/>
      <path sodipodi:nodetypes="ccccsccccccscccc" id="path5542" d="M 537.42855,249.36219 C 535.65426,249.36219 534.21426,250.87419 534.21426,252.73719 C 534.22976,253.90961 534.8347,254.90035 535.46426,255.84266 C 534.76252,255.31164 533.98263,254.9905 533.14283,254.98719 C 531.36855,254.98719 529.92855,256.49919 529.92855,258.36219 C 529.92855,260.22519 531.36855,261.73719 533.14283,261.73719 C 534.58015,261.71314 535.72971,260.70746 536.85935,259.86219 C 536.65721,262.38712 536.24604,263.80477 533.85712,264.36219 C 535.64284,264.36219 539.21426,264.36219 540.99998,264.36219 C 538.61106,263.80477 538.19989,262.38712 537.99775,259.86219 C 539.1143,260.81923 540.28529,261.63109 541.71426,261.73719 C 543.48855,261.73719 544.92855,260.22519 544.92855,258.36219 C 544.92855,256.49919 543.48855,254.98719 541.71426,254.98719 C 540.85292,254.9871 540.10894,255.38346 539.39284,255.84266 C 540.1054,254.91006 540.57444,253.90375 540.64284,252.73719 C 540.64284,250.87419 539.20284,249.36219 537.42855,249.36219 z" style="fill: rgb(0, 0, 0); fill-opacity: 1; stroke: none; stroke-width: 0.354331; stroke-linecap: round; stroke-linejoin: round; stroke-miterlimit: 4; stroke-dasharray: 1.41732, 1.41732; stroke-dashoffset: 0pt; stroke-opacity: 1;"/>
      <path sodipodi:nodetypes="ccccsccccccscccc" id="path5544" d="M 515.42855,251.36219 C 513.65426,251.36219 512.21426,252.87419 512.21426,254.73719 C 512.22976,255.90961 512.8347,256.90035 513.46426,257.84266 C 512.76252,257.31164 511.98263,256.9905 511.14283,256.98719 C 509.36855,256.98719 507.92855,258.49919 507.92855,260.36219 C 507.92855,262.22519 509.36855,263.73719 511.14283,263.73719 C 512.58015,263.71314 513.72971,262.70746 514.85935,261.86219 C 514.65721,264.38712 514.24604,265.80477 511.85712,266.36219 C 513.64284,266.36219 517.21426,266.36219 518.99998,266.36219 C 516.61106,265.80477 516.19989,264.38712 515.99775,261.86219 C 517.1143,262.81923 518.28529,263.63109 519.71426,263.73719 C 521.48855,263.73719 522.92855,262.22519 522.92855,260.36219 C 522.92855,258.49919 521.48855,256.98719 519.71426,256.98719 C 518.85292,256.9871 518.10894,257.38346 517.39284,257.84266 C 518.1054,256.91006 518.57444,255.90375 518.64284,254.73719 C 518.64284,252.87419 517.20284,251.36219 515.42855,251.36219 z" style="fill: rgb(0, 0, 0); fill-opacity: 1; stroke: none; stroke-width: 0.354331; stroke-linecap: round; stroke-linejoin: round; stroke-miterlimit: 4; stroke-dasharray: 1.41732, 1.41732; stroke-dashoffset: 0pt; stroke-opacity: 1;"/>
      <path sodipodi:nodetypes="ccccsccccccscccc" id="path5546" d="M 510.42855,225.36219 C 508.65426,225.36219 507.21426,226.87419 507.21426,228.73719 C 507.22976,229.90961 507.8347,230.90035 508.46426,231.84266 C 507.76252,231.31164 506.98263,230.9905 506.14283,230.98719 C 504.36855,230.98719 502.92855,232.49919 502.92855,234.36219 C 502.92855,236.22519 504.36855,237.73719 506.14283,237.73719 C 507.58015,237.71314 508.72971,236.70746 509.85935,235.86219 C 509.65721,238.38712 509.24604,239.80477 506.85712,240.36219 C 508.64284,240.36219 512.21426,240.36219 513.99998,240.36219 C 511.61106,239.80477 511.19989,238.38712 510.99775,235.86219 C 512.1143,236.81923 513.28529,237.63109 514.71426,237.73719 C 516.48855,237.73719 517.92855,236.22519 517.92855,234.36219 C 517.92855,232.49919 516.48855,230.98719 514.71426,230.98719 C 513.85292,230.9871 513.10894,231.38346 512.39284,231.84266 C 513.1054,230.91006 513.57444,229.90375 513.64284,228.73719 C 513.64284,226.87419 512.20284,225.36219 510.42855,225.36219 z" style="fill: rgb(0, 0, 0); fill-opacity: 1; stroke: none; stroke-width: 0.354331; stroke-linecap: round; stroke-linejoin: round; stroke-miterlimit: 4; stroke-dasharray: 1.41732, 1.41732; stroke-dashoffset: 0pt; stroke-opacity: 1;"/>
    </g>
  </g>
</svg>