<?xml version="1.0" encoding="UTF-8" standalone="no"?>
<!-- Created with Inkscape (http://www.inkscape.org/) -->
<svg xmlns:dc="http://purl.org/dc/elements/1.1/" xmlns:cc="http://creativecommons.org/ns#" xmlns:rdf="http://www.w3.org/1999/02/22-rdf-syntax-ns#" xmlns:svg="http://www.w3.org/2000/svg" xmlns="http://www.w3.org/2000/svg" xmlns:sodipodi="http://sodipodi.sourceforge.net/DTD/sodipodi-0.dtd" xmlns:inkscape="http://www.inkscape.org/namespaces/inkscape" width="90" height="135" id="svg16720" sodipodi:version="0.32" inkscape:version="0.46" version="1.0" sodipodi:docname="club_4.svg" inkscape:output_extension="org.inkscape.output.svg.inkscape">
  <defs id="defs16722">
    <inkscape:perspective sodipodi:type="inkscape:persp3d" inkscape:vp_x="0 : 526.18109 : 1" inkscape:vp_y="0 : 1000 : 0" inkscape:vp_z="744.09448 : 526.18109 : 1" inkscape:persp3d-origin="372.04724 : 350.78739 : 1" id="perspective16728"/>
  </defs>
  <sodipodi:namedview id="base" pagecolor="#ffffff" bordercolor="#666666" borderopacity="1.0" gridtolerance="10000" guidetolerance="10" objecttolerance="10" inkscape:pageopacity="0.0" inkscape:pageshadow="2" inkscape:zoom="1.4" inkscape:cx="1.1905278" inkscape:cy="112.32681" inkscape:document-units="px" inkscape:current-layer="layer1" showgrid="false" inkscape:window-width="641" inkscape:window-height="719" inkscape:window-x="611" inkscape:window-y="47"/>
  <metadata id="metadata16725">
    <rdf:RDF>
      <cc:Work rdf:about="">
        <dc:format>image/svg+xml</dc:format>
        <dc:type rdf:resource="http://purl.org/dc/dcmitype/StillImage"/>
      </cc:Work>
    </rdf:RDF>
  </metadata>
  <g inkscape:label="Layer 1" inkscape:groupmode="layer" id="layer1" transform="translate(-117.857, -330.576)">
    <g transform="translate(-80.4395, 183.714)" id="g14005">
      <g transform="translate(177.44, 136.929)" id="g4460">
        <rect style="fill: rgb(0, 0, 0); fill-opacity: 1; stroke: none; stroke-width: 3; stroke-linecap: butt; stroke-linejoin: round; stroke-miterlimit: 4; stroke-dasharray: none; stroke-opacity: 1;" id="rect4462" width="90" height="135" x="20.85714" y="9.9336166" ry="14.04"/>
        <rect style="fill: rgb(242, 242, 242); fill-opacity: 1; stroke: none; stroke-width: 3; stroke-linecap: butt; stroke-linejoin: round; stroke-miterlimit: 4; stroke-dasharray: none; stroke-opacity: 1;" id="rect4464" width="80" height="125" x="25.85714" y="14.933617" ry="13"/>
      </g>
      <path id="text4540" d="M 223.93667,237.94646 C 226.65666,235.65315 229.45666,233.51982 232.33667,231.54646 C 235.26998,229.51982 238.36331,227.65316 241.61667,225.94646 L 241.69667,226.02646 C 241.69664,226.66649 241.72331,227.33316 241.77667,228.02646 C 241.88331,228.66649 241.96331,229.30649 242.01667,229.94646 L 241.85667,230.02646 C 238.70998,231.57315 235.72332,233.27982 232.89667,235.14646 C 230.06999,236.95982 227.29666,239.06648 224.57667,241.46646 L 224.41667,241.38646 C 224.31,240.79981 224.20333,240.23981 224.09667,239.70646 C 223.99,239.17315 223.88333,238.61315 223.77667,238.02646 L 223.93667,237.94646 M 264.25667,215.46646 C 264.09662,216.31984 263.96329,217.17317 263.85667,218.02646 C 263.80329,218.87983 263.72329,219.73317 263.61667,220.58646 L 263.45667,220.58646 C 260.04329,222.13316 256.6033,223.6265 253.13667,225.06646 C 249.66997,226.50649 246.17664,228.05316 242.65667,229.70646 L 242.57667,229.62646 L 242.65667,225.30646 C 246.17664,223.43983 249.7233,221.67983 253.29667,220.02646 C 256.86996,218.37317 260.49663,216.8265 264.17667,215.38646 L 264.25667,215.46646 M 264.73667,211.22646 C 264.73662,211.65317 264.68329,212.07984 264.57667,212.50646 C 264.46996,212.93317 264.41662,213.35984 264.41667,213.78646 L 264.33667,213.70646 C 260.65663,215.09317 257.0033,216.63984 253.37667,218.34646 C 249.8033,219.99983 246.22997,221.73316 242.65667,223.54646 L 242.57667,221.70646 C 242.57664,220.31983 242.57664,218.95983 242.57667,217.62646 C 242.62998,216.23984 242.65664,214.85317 242.65667,213.46646 L 242.65667,211.70646 C 246.01664,211.54651 249.34997,211.41317 252.65667,211.30646 C 255.9633,211.19984 259.21663,211.14651 262.41667,211.14646 L 264.73667,211.22646 L 264.73667,211.22646 M 218.89667,203.46646 C 222.41666,203.30652 225.85666,203.17318 229.21667,203.06646 C 232.62999,202.95985 236.09665,202.85318 239.61667,202.74646 L 239.85667,202.66646 C 240.12331,206.29318 240.36331,209.86651 240.57667,213.38646 C 240.84331,216.85317 241.16331,220.4265 241.53667,224.10646 L 241.45667,224.02646 C 238.25665,225.83983 235.16332,227.75982 232.17667,229.78646 C 229.24332,231.81315 226.41666,233.97315 223.69667,236.26646 L 223.53667,236.18646 C 222.52333,230.69315 221.61666,225.27983 220.81667,219.94646 C 220.07,214.61317 219.40333,209.11984 218.81667,203.46646 L 218.89667,203.38646 L 218.89667,203.46646 M 225.61667,246.66646 C 225.45666,246.07981 225.32333,245.51981 225.21667,244.98646 C 225.16333,244.39981 225.02999,243.81314 224.81667,243.22646 L 224.73667,243.14646 C 227.34999,240.79981 230.09666,238.66648 232.97667,236.74646 C 235.90998,234.82648 238.94998,233.09315 242.09667,231.54646 L 242.17667,231.62646 C 242.22998,232.37315 242.28331,233.11982 242.33667,233.86646 C 242.38998,234.55982 242.46998,235.27982 242.57667,236.02646 L 242.65667,231.22646 C 246.01664,229.57316 249.4033,228.05316 252.81667,226.66646 C 256.2833,225.27983 259.77663,223.81316 263.29667,222.26646 L 263.37667,222.34646 C 263.05662,224.21316 262.78996,226.10649 262.57667,228.02646 C 262.36329,229.94649 262.09662,231.83982 261.77667,233.70646 C 262.78996,233.65315 263.77662,233.59982 264.73667,233.54646 C 265.69662,233.43982 266.68329,233.35982 267.69667,233.30646 L 267.77667,233.38646 L 267.69667,244.50646 C 266.52329,244.55981 265.37662,244.61314 264.25667,244.66646 C 263.13662,244.71981 261.98996,244.74647 260.81667,244.74646 C 260.49663,246.98647 260.22996,249.17314 260.01667,251.30646 C 259.80329,253.4398 259.56329,255.62646 259.29667,257.86646 C 256.73663,258.13313 254.2033,258.34646 251.69667,258.50646 C 249.2433,258.66646 246.73664,258.85313 244.17667,259.06646 L 244.01667,258.98646 C 243.80331,256.7998 243.56331,254.6398 243.29667,252.50646 C 243.02998,250.3198 242.73664,248.13314 242.41667,245.94646 C 239.69665,246.05314 236.92332,246.18647 234.09667,246.34646 C 231.32332,246.50647 228.52332,246.63981 225.69667,246.74646 L 225.61667,246.66646 L 225.61667,246.66646" style="font-size: 80px; font-style: normal; font-variant: normal; font-weight: normal; font-stretch: normal; text-align: start; line-height: 125%; text-anchor: start; fill: rgb(51, 51, 51); fill-opacity: 1; stroke: none; stroke-width: 1px; stroke-linecap: butt; stroke-linejoin: miter; stroke-opacity: 1; font-family: Airmole Stripe;"/>
      <path id="text5265" d="M 246.81284,169.67129 L 246.81284,173.73518 L 244.20729,173.73518 L 244.20729,179.23796 L 239.30729,179.23796 L 239.30729,173.73518 L 229.37118,173.73518 L 229.37118,169.63241 L 238.43229,154.40741 L 244.20729,154.40741 L 244.20729,169.67129 L 246.81284,169.67129 M 239.30729,169.67129 L 239.30729,159.07407 L 232.83229,169.67129 L 239.30729,169.67129" style="font-size: 35px; font-style: normal; font-variant: normal; font-weight: bold; font-stretch: normal; text-align: start; line-height: 125%; text-anchor: start; fill: rgb(0, 0, 0); fill-opacity: 1; stroke: none; stroke-width: 1px; stroke-linecap: butt; stroke-linejoin: miter; stroke-opacity: 1; font-family: AlMothnna;"/>
      <path sodipodi:nodetypes="ccccsccccccscccc" id="path5420" d="M 217.2694,154.79661 C 214.31226,154.79661 211.91226,157.31661 211.91226,160.42161 C 211.93809,162.37565 212.94631,164.02688 213.99559,165.59739 C 212.82602,164.71236 211.52621,164.17713 210.12655,164.17161 C 207.1694,164.17161 204.7694,166.69161 204.7694,169.79661 C 204.7694,172.90161 207.1694,175.42161 210.12655,175.42161 C 212.52208,175.38152 214.438,173.7054 216.32074,172.29661 C 215.98384,176.50483 215.29856,178.86758 211.31702,179.79661 C 214.29321,179.79661 220.24559,179.79661 223.22178,179.79661 C 219.24025,178.86758 218.55496,176.50483 218.21806,172.29661 C 220.07899,173.89167 222.03064,175.24478 224.41226,175.42161 C 227.3694,175.42161 229.7694,172.90161 229.7694,169.79661 C 229.7694,166.69161 227.3694,164.17161 224.41226,164.17161 C 222.97669,164.17146 221.73672,164.83206 220.54321,165.59739 C 221.73081,164.04306 222.51255,162.36587 222.62655,160.42161 C 222.62655,157.31661 220.22655,154.79661 217.2694,154.79661 z" style="fill: rgb(0, 0, 0); fill-opacity: 1; stroke: none; stroke-width: 0.354331; stroke-linecap: round; stroke-linejoin: round; stroke-miterlimit: 4; stroke-dasharray: 1.41732, 1.41732; stroke-dashoffset: 0pt; stroke-opacity: 1;"/>
      <path sodipodi:nodetypes="ccccsccccccscccc" id="path5504" d="M 221.42855,195.36219 C 219.65426,195.36219 218.21426,196.87419 218.21426,198.73719 C 218.22976,199.90961 218.8347,200.90035 219.46426,201.84266 C 218.76252,201.31164 217.98263,200.9905 217.14283,200.98719 C 215.36855,200.98719 213.92855,202.49919 213.92855,204.36219 C 213.92855,206.22519 215.36855,207.73719 217.14283,207.73719 C 218.58015,207.71314 219.72971,206.70746 220.85935,205.86219 C 220.65721,208.38712 220.24604,209.80477 217.85712,210.36219 C 219.64284,210.36219 223.21426,210.36219 224.99998,210.36219 C 222.61106,209.80477 222.19989,208.38712 221.99775,205.86219 C 223.1143,206.81923 224.28529,207.63109 225.71426,207.73719 C 227.48855,207.73719 228.92855,206.22519 228.92855,204.36219 C 228.92855,202.49919 227.48855,200.98719 225.71426,200.98719 C 224.85292,200.9871 224.10894,201.38346 223.39284,201.84266 C 224.1054,200.91006 224.57444,199.90375 224.64284,198.73719 C 224.64284,196.87419 223.20284,195.36219 221.42855,195.36219 z" style="fill: rgb(0, 0, 0); fill-opacity: 1; stroke: none; stroke-width: 0.354331; stroke-linecap: round; stroke-linejoin: round; stroke-miterlimit: 4; stroke-dasharray: 1.41732, 1.41732; stroke-dashoffset: 0pt; stroke-opacity: 1;"/>
      <path sodipodi:nodetypes="ccccsccccccscccc" id="path5506" d="M 266.42855,203.36219 C 264.65426,203.36219 263.21426,204.87419 263.21426,206.73719 C 263.22976,207.90961 263.8347,208.90035 264.46426,209.84266 C 263.76252,209.31164 262.98263,208.9905 262.14283,208.98719 C 260.36855,208.98719 258.92855,210.49919 258.92855,212.36219 C 258.92855,214.22519 260.36855,215.73719 262.14283,215.73719 C 263.58015,215.71314 264.72971,214.70746 265.85935,213.86219 C 265.65721,216.38712 265.24604,217.80477 262.85712,218.36219 C 264.64284,218.36219 268.21426,218.36219 269.99998,218.36219 C 267.61106,217.80477 267.19989,216.38712 266.99775,213.86219 C 268.1143,214.81923 269.28529,215.63109 270.71426,215.73719 C 272.48855,215.73719 273.92855,214.22519 273.92855,212.36219 C 273.92855,210.49919 272.48855,208.98719 270.71426,208.98719 C 269.85292,208.9871 269.10894,209.38346 268.39284,209.84266 C 269.1054,208.91006 269.57444,207.90375 269.64284,206.73719 C 269.64284,204.87419 268.20284,203.36219 266.42855,203.36219 z" style="fill: rgb(0, 0, 0); fill-opacity: 1; stroke: none; stroke-width: 0.354331; stroke-linecap: round; stroke-linejoin: round; stroke-miterlimit: 4; stroke-dasharray: 1.41732, 1.41732; stroke-dashoffset: 0pt; stroke-opacity: 1;"/>
      <path sodipodi:nodetypes="ccccsccccccscccc" id="path5508" d="M 226.42855,237.36219 C 224.65426,237.36219 223.21426,238.87419 223.21426,240.73719 C 223.22976,241.90961 223.8347,242.90035 224.46426,243.84266 C 223.76252,243.31164 222.98263,242.9905 222.14283,242.98719 C 220.36855,242.98719 218.92855,244.49919 218.92855,246.36219 C 218.92855,248.22519 220.36855,249.73719 222.14283,249.73719 C 223.58015,249.71314 224.72971,248.70746 225.85935,247.86219 C 225.65721,250.38712 225.24604,251.80477 222.85712,252.36219 C 224.64284,252.36219 228.21426,252.36219 229.99998,252.36219 C 227.61106,251.80477 227.19989,250.38712 226.99775,247.86219 C 228.1143,248.81923 229.28529,249.63109 230.71426,249.73719 C 232.48855,249.73719 233.92855,248.22519 233.92855,246.36219 C 233.92855,244.49919 232.48855,242.98719 230.71426,242.98719 C 229.85292,242.9871 229.10894,243.38346 228.39284,243.84266 C 229.1054,242.91006 229.57444,241.90375 229.64284,240.73719 C 229.64284,238.87419 228.20284,237.36219 226.42855,237.36219 z" style="fill: rgb(0, 0, 0); fill-opacity: 1; stroke: none; stroke-width: 0.354331; stroke-linecap: round; stroke-linejoin: round; stroke-miterlimit: 4; stroke-dasharray: 1.41732, 1.41732; stroke-dashoffset: 0pt; stroke-opacity: 1;"/>
      <path sodipodi:nodetypes="ccccsccccccscccc" id="path5510" d="M 260.42855,249.36219 C 258.65426,249.36219 257.21426,250.87419 257.21426,252.73719 C 257.22976,253.90961 257.8347,254.90035 258.46426,255.84266 C 257.76252,255.31164 256.98263,254.9905 256.14283,254.98719 C 254.36855,254.98719 252.92855,256.49919 252.92855,258.36219 C 252.92855,260.22519 254.36855,261.73719 256.14283,261.73719 C 257.58015,261.71314 258.72971,260.70746 259.85935,259.86219 C 259.65721,262.38712 259.24604,263.80477 256.85712,264.36219 C 258.64284,264.36219 262.21426,264.36219 263.99998,264.36219 C 261.61106,263.80477 261.19989,262.38712 260.99775,259.86219 C 262.1143,260.81923 263.28529,261.63109 264.71426,261.73719 C 266.48855,261.73719 267.92855,260.22519 267.92855,258.36219 C 267.92855,256.49919 266.48855,254.98719 264.71426,254.98719 C 263.85292,254.9871 263.10894,255.38346 262.39284,255.84266 C 263.1054,254.91006 263.57444,253.90375 263.64284,252.73719 C 263.64284,250.87419 262.20284,249.36219 260.42855,249.36219 z" style="fill: rgb(0, 0, 0); fill-opacity: 1; stroke: none; stroke-width: 0.354331; stroke-linecap: round; stroke-linejoin: round; stroke-miterlimit: 4; stroke-dasharray: 1.41732, 1.41732; stroke-dashoffset: 0pt; stroke-opacity: 1;"/>
    </g>
  </g>
</svg>