<?xml version="1.0" encoding="UTF-8" standalone="no"?>
<!-- Created with Inkscape (http://www.inkscape.org/) -->
<svg xmlns:dc="http://purl.org/dc/elements/1.1/" xmlns:cc="http://creativecommons.org/ns#" xmlns:rdf="http://www.w3.org/1999/02/22-rdf-syntax-ns#" xmlns:svg="http://www.w3.org/2000/svg" xmlns="http://www.w3.org/2000/svg" xmlns:sodipodi="http://sodipodi.sourceforge.net/DTD/sodipodi-0.dtd" xmlns:inkscape="http://www.inkscape.org/namespaces/inkscape" width="90" height="135" id="svg16720" sodipodi:version="0.32" inkscape:version="0.46" version="1.0" sodipodi:docname="club_3.svg" inkscape:output_extension="org.inkscape.output.svg.inkscape">
  <defs id="defs16722">
    <inkscape:perspective sodipodi:type="inkscape:persp3d" inkscape:vp_x="0 : 526.18109 : 1" inkscape:vp_y="0 : 1000 : 0" inkscape:vp_z="744.09448 : 526.18109 : 1" inkscape:persp3d-origin="372.04724 : 350.78739 : 1" id="perspective16728"/>
  </defs>
  <sodipodi:namedview id="base" pagecolor="#ffffff" bordercolor="#666666" borderopacity="1.0" gridtolerance="10000" guidetolerance="10" objecttolerance="10" inkscape:pageopacity="0.0" inkscape:pageshadow="2" inkscape:zoom="1.4" inkscape:cx="1.1905278" inkscape:cy="112.32681" inkscape:document-units="px" inkscape:current-layer="layer1" showgrid="false" inkscape:window-width="641" inkscape:window-height="719" inkscape:window-x="611" inkscape:window-y="47"/>
  <metadata id="metadata16725">
    <rdf:RDF>
      <cc:Work rdf:about="">
        <dc:format>image/svg+xml</dc:format>
        <dc:type rdf:resource="http://purl.org/dc/dcmitype/StillImage"/>
      </cc:Work>
    </rdf:RDF>
  </metadata>
  <g inkscape:label="Layer 1" inkscape:groupmode="layer" id="layer1" transform="translate(-117.857, -330.576)">
    <g transform="translate(15.4945, 183.714)" id="g13980">
      <g transform="translate(81.5055, 136.929)" id="g4454">
        <rect style="fill: rgb(0, 0, 0); fill-opacity: 1; stroke: none; stroke-width: 3; stroke-linecap: butt; stroke-linejoin: round; stroke-miterlimit: 4; stroke-dasharray: none; stroke-opacity: 1;" id="rect4456" width="90" height="135" x="20.85714" y="9.9336166" ry="14.04"/>
        <rect style="fill: rgb(242, 242, 242); fill-opacity: 1; stroke: none; stroke-width: 3; stroke-linecap: butt; stroke-linejoin: round; stroke-miterlimit: 4; stroke-dasharray: none; stroke-opacity: 1;" id="rect4458" width="80" height="125" x="25.85714" y="14.933617" ry="13"/>
      </g>
      <path id="text4536" d="M 162.3226,211.22645 C 162.74923,211.97317 163.12256,212.71983 163.4426,213.46645 C 163.76256,214.21317 164.0559,214.95983 164.3226,215.70645 L 164.1626,215.62645 C 159.20257,218.07983 154.34924,220.77316 149.6026,223.70645 C 144.85591,226.58649 140.42925,229.97315 136.3226,233.86645 L 135.9226,233.94645 L 134.1626,234.34645 C 134.05593,233.75981 133.92259,233.22648 133.7626,232.74645 C 133.60259,232.26648 133.46926,231.73315 133.3626,231.14645 L 133.2826,231.14645 C 137.44259,226.82649 141.97592,223.01316 146.8826,219.70645 C 151.78924,216.39983 156.90924,213.5465 162.2426,211.14645 L 162.3226,211.22645 M 160.2426,208.18645 C 160.34923,208.45317 160.5359,208.7465 160.8026,209.06645 C 161.06923,209.33317 161.30923,209.57317 161.5226,209.78645 L 161.6826,209.94645 C 156.18924,212.3465 151.01591,215.11983 146.1626,218.26645 C 141.36258,221.35982 137.01592,225.09315 133.1226,229.46645 L 133.0426,229.46645 C 132.29593,226.37315 131.57593,223.30649 130.8826,220.26645 C 130.18926,217.2265 129.46926,214.1865 128.7226,211.14645 L 128.7226,211.06645 C 130.58926,208.29317 133.06926,206.21317 136.1626,204.82645 C 139.30925,203.38651 142.50925,202.66651 145.7626,202.66645 L 146.0026,202.66645 C 148.56258,202.71984 151.09591,203.17318 153.6026,204.02645 C 156.16257,204.87984 158.3759,206.23984 160.2426,208.10645 L 160.2426,208.18645 M 136.3226,244.98645 C 136.26926,244.13314 136.21592,243.30647 136.1626,242.50645 C 136.10926,241.70647 136.05592,240.87981 136.0026,240.02645 L 136.0826,239.94645 C 136.72259,240.05314 137.36259,240.10647 138.0026,240.10645 C 138.64259,240.10647 139.28259,240.13314 139.9226,240.18645 C 140.45592,240.18647 141.04258,240.15981 141.6826,240.10645 C 142.32258,240.05314 142.93592,239.94647 143.5226,239.78645 C 144.10925,239.62647 144.64258,239.38647 145.1226,239.06645 C 145.60258,238.69314 145.92258,238.18647 146.0826,237.54645 C 145.92258,236.74648 145.57591,236.10648 145.0426,235.62645 C 144.50925,235.14648 143.89592,234.77314 143.2026,234.50645 C 142.56258,234.18648 141.84258,233.97315 141.0426,233.86645 C 140.29592,233.70648 139.57592,233.62648 138.8826,233.62645 L 138.6426,233.46645 C 142.64258,229.83982 146.82925,226.77315 151.2026,224.26645 C 155.5759,221.75982 160.10923,219.35983 164.8026,217.06645 L 164.8826,217.14645 C 165.30923,218.37316 165.60256,219.65316 165.7626,220.98645 C 165.92256,222.26649 166.00256,223.57316 166.0026,224.90645 C 165.94923,227.03982 165.65589,229.11982 165.1226,231.14645 C 164.64256,233.17315 163.8959,235.03981 162.8826,236.74645 C 161.86923,238.39981 160.58923,239.83981 159.0426,241.06645 C 157.54923,242.2398 155.76257,243.09314 153.6826,243.62645 C 154.74924,244.37314 155.62924,245.30647 156.3226,246.42645 C 157.0159,247.49313 157.36257,248.66646 157.3626,249.94645 C 157.2559,251.54646 156.80257,252.98646 156.0026,254.26645 C 155.2559,255.54646 154.26924,256.63979 153.0426,257.54645 C 151.81591,258.39979 150.45591,259.03979 148.9626,259.46645 C 147.52258,259.94645 146.08258,260.18645 144.6426,260.18645 L 144.4826,260.18645 C 141.01592,260.07979 137.81592,259.14645 134.8826,257.38645 L 134.8026,257.30645 C 135.06926,256.07979 135.28259,254.87979 135.4426,253.70645 C 135.60259,252.53313 135.81592,251.33313 136.0826,250.10645 L 136.1626,250.02645 C 136.90926,250.18646 137.62925,250.3198 138.3226,250.42645 C 139.06925,250.53313 139.81592,250.58646 140.5626,250.58645 C 141.46925,250.58646 142.45592,250.4798 143.5226,250.26645 C 144.58925,249.9998 145.28258,249.3598 145.6026,248.34645 C 145.22925,247.54647 144.66925,246.9598 143.9226,246.58645 C 143.22925,246.1598 142.45592,245.8398 141.6026,245.62645 C 140.74925,245.41313 139.86925,245.30647 138.9626,245.30645 C 138.05592,245.25313 137.20259,245.17313 136.4026,245.06645 L 136.3226,244.98645 L 136.3226,244.98645" style="font-size: 80px; font-style: normal; font-variant: normal; font-weight: normal; font-stretch: normal; text-align: start; line-height: 125%; text-anchor: start; fill: rgb(51, 51, 51); fill-opacity: 1; stroke: none; stroke-width: 1px; stroke-linecap: butt; stroke-linejoin: miter; stroke-opacity: 1; font-family: Airmole Stripe;"/>
      <path id="text5261" d="M 133.5418,160.90462 C 133.54179,159.62131 133.72328,158.49353 134.08624,157.52129 C 134.4492,156.53612 134.9029,155.76483 135.44735,155.2074 C 135.99179,154.65002 136.63994,154.19631 137.3918,153.84629 C 138.15661,153.49631 138.86957,153.26946 139.53069,153.16573 C 140.19179,153.04909 140.87882,152.99076 141.5918,152.99073 C 144.0029,152.99076 145.92141,153.60002 147.34735,154.81851 C 148.77326,156.03705 149.48622,157.68335 149.48624,159.7574 C 149.48622,160.88519 149.22696,161.87038 148.70846,162.71295 C 148.20289,163.5426 147.37326,164.31389 146.21957,165.02684 C 147.61956,165.71389 148.64363,166.55 149.2918,167.53518 C 149.95289,168.52037 150.28344,169.73889 150.28346,171.19073 C 150.28344,173.60185 149.4927,175.52685 147.91124,176.96573 C 146.34271,178.40462 144.23623,179.12406 141.5918,179.12407 C 139.05105,179.12406 137.02883,178.39814 135.52513,176.94629 C 134.02142,175.49444 133.26309,173.53055 133.25013,171.05462 L 138.01402,171.05462 C 138.15661,173.63426 139.3816,174.92407 141.68902,174.92407 C 142.76493,174.92407 143.64641,174.57407 144.33346,173.87407 C 145.03345,173.16111 145.38345,172.26666 145.38346,171.19073 C 145.38345,170.28333 145.13715,169.49259 144.64457,168.81851 C 144.16493,168.14445 143.5103,167.69722 142.68069,167.47684 C 142.0066,167.30834 141.05382,167.22408 139.82235,167.22407 L 139.82235,163.9574 L 140.25013,163.9574 C 143.14086,163.95741 144.58623,162.70649 144.58624,160.20462 C 144.58623,159.1676 144.31401,158.37038 143.76957,157.81295 C 143.23808,157.24261 142.48623,156.95742 141.51402,156.9574 C 140.21771,156.95742 139.32975,157.3139 138.85013,158.02684 C 138.38346,158.73983 138.13068,159.8352 138.0918,161.31295 L 133.5418,161.31295 L 133.5418,160.90462" style="font-size: 35px; font-style: normal; font-variant: normal; font-weight: bold; font-stretch: normal; text-align: start; line-height: 125%; text-anchor: start; fill: rgb(0, 0, 0); fill-opacity: 1; stroke: none; stroke-width: 1px; stroke-linecap: butt; stroke-linejoin: miter; stroke-opacity: 1; font-family: AlMothnna;"/>
      <path sodipodi:nodetypes="ccccsccccccscccc" id="path5418" d="M 121.33535,154.79661 C 118.37821,154.79661 115.97821,157.31661 115.97821,160.42161 C 116.00404,162.37565 117.01226,164.02688 118.06154,165.59739 C 116.89197,164.71236 115.59216,164.17713 114.19249,164.17161 C 111.23535,164.17161 108.83535,166.69161 108.83535,169.79661 C 108.83535,172.90161 111.23535,175.42161 114.19249,175.42161 C 116.58802,175.38152 118.50395,173.7054 120.38669,172.29661 C 120.04979,176.50483 119.36451,178.86758 115.38297,179.79661 C 118.35916,179.79661 124.31154,179.79661 127.28773,179.79661 C 123.3062,178.86758 122.62091,176.50483 122.28401,172.29661 C 124.14494,173.89167 126.09658,175.24478 128.47821,175.42161 C 131.43535,175.42161 133.83535,172.90161 133.83535,169.79661 C 133.83535,166.69161 131.43535,164.17161 128.47821,164.17161 C 127.04264,164.17146 125.80267,164.83206 124.60916,165.59739 C 125.79676,164.04306 126.57849,162.36587 126.69249,160.42161 C 126.69249,157.31661 124.29249,154.79661 121.33535,154.79661 z" style="fill: rgb(0, 0, 0); fill-opacity: 1; stroke: none; stroke-width: 0.354331; stroke-linecap: round; stroke-linejoin: round; stroke-miterlimit: 4; stroke-dasharray: 1.41732, 1.41732; stroke-dashoffset: 0pt; stroke-opacity: 1;"/>
      <path sodipodi:nodetypes="ccccsccccccscccc" id="path5498" d="M 132.42855,201.36219 C 130.65426,201.36219 129.21426,202.87419 129.21426,204.73719 C 129.22976,205.90961 129.8347,206.90035 130.46426,207.84266 C 129.76252,207.31164 128.98263,206.9905 128.14283,206.98719 C 126.36855,206.98719 124.92855,208.49919 124.92855,210.36219 C 124.92855,212.22519 126.36855,213.73719 128.14283,213.73719 C 129.58015,213.71314 130.72971,212.70746 131.85935,211.86219 C 131.65721,214.38712 131.24604,215.80477 128.85712,216.36219 C 130.64284,216.36219 134.21426,216.36219 135.99998,216.36219 C 133.61106,215.80477 133.19989,214.38712 132.99775,211.86219 C 134.1143,212.81923 135.28529,213.63109 136.71426,213.73719 C 138.48855,213.73719 139.92855,212.22519 139.92855,210.36219 C 139.92855,208.49919 138.48855,206.98719 136.71426,206.98719 C 135.85292,206.9871 135.10894,207.38346 134.39284,207.84266 C 135.1054,206.91006 135.57444,205.90375 135.64284,204.73719 C 135.64284,202.87419 134.20284,201.36219 132.42855,201.36219 z" style="fill: rgb(0, 0, 0); fill-opacity: 1; stroke: none; stroke-width: 0.354331; stroke-linecap: round; stroke-linejoin: round; stroke-miterlimit: 4; stroke-dasharray: 1.41732, 1.41732; stroke-dashoffset: 0pt; stroke-opacity: 1;"/>
      <path sodipodi:nodetypes="ccccsccccccscccc" id="path5500" d="M 165.42855,227.36219 C 163.65426,227.36219 162.21426,228.87419 162.21426,230.73719 C 162.22976,231.90961 162.8347,232.90035 163.46426,233.84266 C 162.76252,233.31164 161.98263,232.9905 161.14283,232.98719 C 159.36855,232.98719 157.92855,234.49919 157.92855,236.36219 C 157.92855,238.22519 159.36855,239.73719 161.14283,239.73719 C 162.58015,239.71314 163.72971,238.70746 164.85935,237.86219 C 164.65721,240.38712 164.24604,241.80477 161.85712,242.36219 C 163.64284,242.36219 167.21426,242.36219 168.99998,242.36219 C 166.61106,241.80477 166.19989,240.38712 165.99775,237.86219 C 167.1143,238.81923 168.28529,239.63109 169.71426,239.73719 C 171.48855,239.73719 172.92855,238.22519 172.92855,236.36219 C 172.92855,234.49919 171.48855,232.98719 169.71426,232.98719 C 168.85292,232.9871 168.10894,233.38346 167.39284,233.84266 C 168.1054,232.91006 168.57444,231.90375 168.64284,230.73719 C 168.64284,228.87419 167.20284,227.36219 165.42855,227.36219 z" style="fill: rgb(0, 0, 0); fill-opacity: 1; stroke: none; stroke-width: 0.354331; stroke-linecap: round; stroke-linejoin: round; stroke-miterlimit: 4; stroke-dasharray: 1.41732, 1.41732; stroke-dashoffset: 0pt; stroke-opacity: 1;"/>
      <path sodipodi:nodetypes="ccccsccccccscccc" id="path5502" d="M 136.42855,248.36219 C 134.65426,248.36219 133.21426,249.87419 133.21426,251.73719 C 133.22976,252.90961 133.8347,253.90035 134.46426,254.84266 C 133.76252,254.31164 132.98263,253.9905 132.14283,253.98719 C 130.36855,253.98719 128.92855,255.49919 128.92855,257.36219 C 128.92855,259.22519 130.36855,260.73719 132.14283,260.73719 C 133.58015,260.71314 134.72971,259.70746 135.85935,258.86219 C 135.65721,261.38712 135.24604,262.80477 132.85712,263.36219 C 134.64284,263.36219 138.21426,263.36219 139.99998,263.36219 C 137.61106,262.80477 137.19989,261.38712 136.99775,258.86219 C 138.1143,259.81923 139.28529,260.63109 140.71426,260.73719 C 142.48855,260.73719 143.92855,259.22519 143.92855,257.36219 C 143.92855,255.49919 142.48855,253.98719 140.71426,253.98719 C 139.85292,253.9871 139.10894,254.38346 138.39284,254.84266 C 139.1054,253.91006 139.57444,252.90375 139.64284,251.73719 C 139.64284,249.87419 138.20284,248.36219 136.42855,248.36219 z" style="fill: rgb(0, 0, 0); fill-opacity: 1; stroke: none; stroke-width: 0.354331; stroke-linecap: round; stroke-linejoin: round; stroke-miterlimit: 4; stroke-dasharray: 1.41732, 1.41732; stroke-dashoffset: 0pt; stroke-opacity: 1;"/>
    </g>
  </g>
</svg>