<?xml version="1.0" encoding="UTF-8" standalone="no"?>
<!-- Created with Inkscape (http://www.inkscape.org/) -->
<svg xmlns:dc="http://purl.org/dc/elements/1.1/" xmlns:cc="http://creativecommons.org/ns#" xmlns:rdf="http://www.w3.org/1999/02/22-rdf-syntax-ns#" xmlns:svg="http://www.w3.org/2000/svg" xmlns="http://www.w3.org/2000/svg" xmlns:sodipodi="http://sodipodi.sourceforge.net/DTD/sodipodi-0.dtd" xmlns:inkscape="http://www.inkscape.org/namespaces/inkscape" width="90" height="135" id="svg16720" sodipodi:version="0.32" inkscape:version="0.46" version="1.0" sodipodi:docname="club_5.svg" inkscape:output_extension="org.inkscape.output.svg.inkscape">
  <defs id="defs16722">
    <inkscape:perspective sodipodi:type="inkscape:persp3d" inkscape:vp_x="0 : 526.18109 : 1" inkscape:vp_y="0 : 1000 : 0" inkscape:vp_z="744.09448 : 526.18109 : 1" inkscape:persp3d-origin="372.04724 : 350.78739 : 1" id="perspective16728"/>
  </defs>
  <sodipodi:namedview id="base" pagecolor="#ffffff" bordercolor="#666666" borderopacity="1.0" gridtolerance="10000" guidetolerance="10" objecttolerance="10" inkscape:pageopacity="0.0" inkscape:pageshadow="2" inkscape:zoom="1.4" inkscape:cx="1.1905278" inkscape:cy="112.32681" inkscape:document-units="px" inkscape:current-layer="layer1" showgrid="false" inkscape:window-width="641" inkscape:window-height="719" inkscape:window-x="611" inkscape:window-y="47"/>
  <metadata id="metadata16725">
    <rdf:RDF>
      <cc:Work rdf:about="">
        <dc:format>image/svg+xml</dc:format>
        <dc:type rdf:resource="http://purl.org/dc/dcmitype/StillImage"/>
      </cc:Work>
    </rdf:RDF>
  </metadata>
  <g inkscape:label="Layer 1" inkscape:groupmode="layer" id="layer1" transform="translate(-117.857, -330.576)">
    <g transform="translate(-176.374, 183.714)" id="g14032">
      <g transform="translate(273.374, 136.929)" id="g4466">
        <rect style="fill: rgb(0, 0, 0); fill-opacity: 1; stroke: none; stroke-width: 3; stroke-linecap: butt; stroke-linejoin: round; stroke-miterlimit: 4; stroke-dasharray: none; stroke-opacity: 1;" id="rect4468" width="90" height="135" x="20.85714" y="9.9336166" ry="14.04"/>
        <rect style="fill: rgb(242, 242, 242); fill-opacity: 1; stroke: none; stroke-width: 3; stroke-linecap: butt; stroke-linejoin: round; stroke-miterlimit: 4; stroke-dasharray: none; stroke-opacity: 1;" id="rect4470" width="80" height="125" x="25.85714" y="14.933617" ry="13"/>
      </g>
      <path id="text4544" d="M 360.99072,212.50645 L 360.91072,212.98645 C 360.80401,213.57316 360.72401,214.18649 360.67072,214.82645 C 360.67068,215.46649 360.64401,216.10649 360.59072,216.74645 L 360.43072,216.90645 C 356.96401,218.23982 353.47068,219.59982 349.95072,220.98645 C 346.48402,222.37315 343.04403,223.86648 339.63072,225.46645 C 336.2707,227.06648 332.93737,228.82648 329.63072,230.74645 C 326.37738,232.66647 323.28405,234.82647 320.35072,237.22645 L 320.19072,237.14645 C 319.97738,236.45314 319.81738,235.6798 319.71072,234.82645 C 319.60405,233.9198 319.55072,233.09314 319.55072,232.34645 L 319.23072,232.02645 C 325.41738,227.11981 332.08404,223.06648 339.23072,219.86645 C 346.37736,216.61316 353.60402,214.13316 360.91072,212.42645 L 360.99072,212.50645 M 317.15072,203.78645 C 323.76405,203.89317 330.40404,203.73317 337.07072,203.30645 C 343.79069,202.87984 350.56402,202.71984 357.39072,202.82645 L 361.55072,202.90645 C 361.44401,204.23983 361.36401,205.57317 361.31072,206.90645 C 361.31068,208.1865 361.25734,209.49316 361.15072,210.82645 L 361.31072,211.30645 C 353.52402,213.01316 346.13736,215.46649 339.15072,218.66645 C 332.16404,221.86648 325.60405,225.83981 319.47072,230.58645 L 319.39072,230.50645 C 318.80405,225.97315 318.32405,221.51982 317.95072,217.14645 C 317.57739,212.77316 317.23072,208.39983 316.91072,204.02645 L 316.99072,203.94645 L 317.15072,203.78645 M 321.63072,245.14645 C 321.41738,244.07979 321.23072,243.06646 321.07072,242.10645 C 320.96405,241.14646 320.77738,240.13313 320.51072,239.06645 L 320.91072,238.90645 C 326.51071,234.1598 332.72404,230.13314 339.55072,226.82645 C 346.37736,223.46648 353.31068,220.61315 360.35072,218.26645 L 360.43072,218.34645 C 360.16401,220.79982 359.84401,223.22648 359.47072,225.62645 C 359.15068,228.02648 358.83068,230.42647 358.51072,232.82645 L 358.59072,232.82645 C 355.07068,232.61314 351.55069,232.37314 348.03072,232.10645 C 344.51069,231.78647 340.9907,231.49314 337.47072,231.22645 L 337.47072,231.86645 C 337.4707,232.39981 337.44403,232.90647 337.39072,233.38645 C 337.3907,233.86647 337.3907,234.37314 337.39072,234.90645 L 337.39072,235.54645 C 337.81737,235.4398 338.21737,235.3598 338.59072,235.30645 C 338.96403,235.1998 339.36403,235.14647 339.79072,235.14645 C 341.5507,235.14647 343.44403,235.38647 345.47072,235.86645 C 347.49736,236.34647 349.36402,237.09313 351.07072,238.10645 C 352.83068,239.1198 354.27068,240.42646 355.39072,242.02645 C 356.56401,243.57313 357.15068,245.41313 357.15072,247.54645 C 357.15068,250.05312 356.59068,252.15979 355.47072,253.86645 C 354.40402,255.51978 353.01735,256.85312 351.31072,257.86645 C 349.65735,258.87978 347.79069,259.59978 345.71072,260.02645 C 343.68403,260.50644 341.7107,260.74644 339.79072,260.74645 C 336.7507,260.74644 333.76404,260.34645 330.83072,259.54645 C 327.95071,258.79978 325.25738,257.57311 322.75072,255.86645 L 322.75072,255.78645 C 323.17738,254.61312 323.63071,253.46645 324.11072,252.34645 C 324.59071,251.22645 325.04405,250.07979 325.47072,248.90645 L 325.55072,248.82645 C 327.41738,249.57312 329.33738,250.26646 331.31072,250.90645 C 333.33737,251.54645 335.36404,251.89312 337.39072,251.94645 L 337.79072,251.94645 C 338.96403,251.94645 340.08403,251.62645 341.15072,250.98645 C 342.21736,250.34646 342.77736,249.35979 342.83072,248.02645 L 342.83072,247.70645 C 342.56403,246.69313 342.08403,245.94646 341.39072,245.46645 C 340.69736,244.93313 339.89736,244.55979 338.99072,244.34645 C 338.08403,244.13313 337.12403,244.02646 336.11072,244.02645 C 335.1507,243.97313 334.2707,243.91979 333.47072,243.86645 C 329.57737,243.86646 325.65738,244.31979 321.71072,245.22645 L 321.63072,245.14645" style="font-size: 80px; font-style: normal; font-variant: normal; font-weight: normal; font-stretch: normal; text-align: start; line-height: 125%; text-anchor: start; fill: rgb(51, 51, 51); fill-opacity: 1; stroke: none; stroke-width: 1px; stroke-linecap: butt; stroke-linejoin: miter; stroke-opacity: 1; font-family: Airmole Stripe;"/>
      <path id="text5269" d="M 342.03668,153.49629 L 342.03668,157.89073 L 331.77002,157.89073 L 330.97279,163.06295 C 332.29501,162.06482 333.72742,161.56575 335.27002,161.56573 C 337.55149,161.56575 339.41167,162.36297 340.85057,163.9574 C 342.28944,165.53889 343.00889,167.6 343.00891,170.14073 C 343.00889,172.81111 342.17926,174.97592 340.52002,176.63518 C 338.87371,178.29444 336.71538,179.12406 334.04502,179.12407 C 331.6339,179.12406 329.67649,178.45647 328.17279,177.12129 C 326.66909,175.77314 325.89131,174.01018 325.83946,171.8324 L 330.70057,171.8324 C 330.73946,172.84352 331.05057,173.61481 331.63391,174.14629 C 332.21723,174.66481 333.04038,174.92407 334.10335,174.92407 C 335.33482,174.92407 336.30704,174.50925 337.02002,173.67962 C 337.74593,172.85 338.10889,171.70926 338.10891,170.2574 C 338.10889,168.74074 337.75241,167.56111 337.03946,166.71851 C 336.32649,165.87593 335.34778,165.45463 334.10335,165.45462 C 332.52186,165.45463 331.47834,166.08334 330.97279,167.34073 L 326.53946,167.34073 L 328.75613,153.49629 L 342.03668,153.49629" style="font-size: 35px; font-style: normal; font-variant: normal; font-weight: bold; font-stretch: normal; text-align: start; line-height: 125%; text-anchor: start; fill: rgb(0, 0, 0); fill-opacity: 1; stroke: none; stroke-width: 1px; stroke-linecap: butt; stroke-linejoin: miter; stroke-opacity: 1; font-family: AlMothnna;"/>
      <path sodipodi:nodetypes="ccccsccccccscccc" id="path5422" d="M 313.20344,154.79661 C 310.2463,154.79661 307.8463,157.31661 307.8463,160.42161 C 307.87212,162.37565 308.88035,164.02688 309.92963,165.59739 C 308.76006,164.71236 307.46025,164.17713 306.06058,164.17161 C 303.10344,164.17161 300.70344,166.69161 300.70344,169.79661 C 300.70344,172.90161 303.10344,175.42161 306.06058,175.42161 C 308.45611,175.38152 310.37204,173.7054 312.25478,172.29661 C 311.91788,176.50483 311.23259,178.86758 307.25106,179.79661 C 310.22725,179.79661 316.17963,179.79661 319.15582,179.79661 C 315.17428,178.86758 314.489,176.50483 314.1521,172.29661 C 316.01303,173.89167 317.96467,175.24478 320.3463,175.42161 C 323.30344,175.42161 325.70344,172.90161 325.70344,169.79661 C 325.70344,166.69161 323.30344,164.17161 320.3463,164.17161 C 318.91072,164.17146 317.67075,164.83206 316.47725,165.59739 C 317.66485,164.04306 318.44658,162.36587 318.56058,160.42161 C 318.56058,157.31661 316.16058,154.79661 313.20344,154.79661 z" style="fill: rgb(0, 0, 0); fill-opacity: 1; stroke: none; stroke-width: 0.354331; stroke-linecap: round; stroke-linejoin: round; stroke-miterlimit: 4; stroke-dasharray: 1.41732, 1.41732; stroke-dashoffset: 0pt; stroke-opacity: 1;"/>
      <path sodipodi:nodetypes="ccccsccccccscccc" id="path5512" d="M 319.42855,194.36219 C 317.65426,194.36219 316.21426,195.87419 316.21426,197.73719 C 316.22976,198.90961 316.8347,199.90035 317.46426,200.84266 C 316.76252,200.31164 315.98263,199.9905 315.14283,199.98719 C 313.36855,199.98719 311.92855,201.49919 311.92855,203.36219 C 311.92855,205.22519 313.36855,206.73719 315.14283,206.73719 C 316.58015,206.71314 317.72971,205.70746 318.85935,204.86219 C 318.65721,207.38712 318.24604,208.80477 315.85712,209.36219 C 317.64284,209.36219 321.21426,209.36219 322.99998,209.36219 C 320.61106,208.80477 320.19989,207.38712 319.99775,204.86219 C 321.1143,205.81923 322.28529,206.63109 323.71426,206.73719 C 325.48855,206.73719 326.92855,205.22519 326.92855,203.36219 C 326.92855,201.49919 325.48855,199.98719 323.71426,199.98719 C 322.85292,199.9871 322.10894,200.38346 321.39284,200.84266 C 322.1054,199.91006 322.57444,198.90375 322.64284,197.73719 C 322.64284,195.87419 321.20284,194.36219 319.42855,194.36219 z" style="fill: rgb(0, 0, 0); fill-opacity: 1; stroke: none; stroke-width: 0.354331; stroke-linecap: round; stroke-linejoin: round; stroke-miterlimit: 4; stroke-dasharray: 1.41732, 1.41732; stroke-dashoffset: 0pt; stroke-opacity: 1;"/>
      <path sodipodi:nodetypes="ccccsccccccscccc" id="path5514" d="M 322.42855,234.36219 C 320.65426,234.36219 319.21426,235.87419 319.21426,237.73719 C 319.22976,238.90961 319.8347,239.90035 320.46426,240.84266 C 319.76252,240.31164 318.98263,239.9905 318.14283,239.98719 C 316.36855,239.98719 314.92855,241.49919 314.92855,243.36219 C 314.92855,245.22519 316.36855,246.73719 318.14283,246.73719 C 319.58015,246.71314 320.72971,245.70746 321.85935,244.86219 C 321.65721,247.38712 321.24604,248.80477 318.85712,249.36219 C 320.64284,249.36219 324.21426,249.36219 325.99998,249.36219 C 323.61106,248.80477 323.19989,247.38712 322.99775,244.86219 C 324.1143,245.81923 325.28529,246.63109 326.71426,246.73719 C 328.48855,246.73719 329.92855,245.22519 329.92855,243.36219 C 329.92855,241.49919 328.48855,239.98719 326.71426,239.98719 C 325.85292,239.9871 325.10894,240.38346 324.39284,240.84266 C 325.1054,239.91006 325.57444,238.90375 325.64284,237.73719 C 325.64284,235.87419 324.20284,234.36219 322.42855,234.36219 z" style="fill: rgb(0, 0, 0); fill-opacity: 1; stroke: none; stroke-width: 0.354331; stroke-linecap: round; stroke-linejoin: round; stroke-miterlimit: 4; stroke-dasharray: 1.41732, 1.41732; stroke-dashoffset: 0pt; stroke-opacity: 1;"/>
      <path sodipodi:nodetypes="ccccsccccccscccc" id="path5516" d="M 360.42855,222.36219 C 358.65426,222.36219 357.21426,223.87419 357.21426,225.73719 C 357.22976,226.90961 357.8347,227.90035 358.46426,228.84266 C 357.76252,228.31164 356.98263,227.9905 356.14283,227.98719 C 354.36855,227.98719 352.92855,229.49919 352.92855,231.36219 C 352.92855,233.22519 354.36855,234.73719 356.14283,234.73719 C 357.58015,234.71314 358.72971,233.70746 359.85935,232.86219 C 359.65721,235.38712 359.24604,236.80477 356.85712,237.36219 C 358.64284,237.36219 362.21426,237.36219 363.99998,237.36219 C 361.61106,236.80477 361.19989,235.38712 360.99775,232.86219 C 362.1143,233.81923 363.28529,234.63109 364.71426,234.73719 C 366.48855,234.73719 367.92855,233.22519 367.92855,231.36219 C 367.92855,229.49919 366.48855,227.98719 364.71426,227.98719 C 363.85292,227.9871 363.10894,228.38346 362.39284,228.84266 C 363.1054,227.91006 363.57444,226.90375 363.64284,225.73719 C 363.64284,223.87419 362.20284,222.36219 360.42855,222.36219 z" style="fill: rgb(0, 0, 0); fill-opacity: 1; stroke: none; stroke-width: 0.354331; stroke-linecap: round; stroke-linejoin: round; stroke-miterlimit: 4; stroke-dasharray: 1.41732, 1.41732; stroke-dashoffset: 0pt; stroke-opacity: 1;"/>
      <path sodipodi:nodetypes="ccccsccccccscccc" id="path5518" d="M 364.42855,193.36219 C 362.65426,193.36219 361.21426,194.87419 361.21426,196.73719 C 361.22976,197.90961 361.8347,198.90035 362.46426,199.84266 C 361.76252,199.31164 360.98263,198.9905 360.14283,198.98719 C 358.36855,198.98719 356.92855,200.49919 356.92855,202.36219 C 356.92855,204.22519 358.36855,205.73719 360.14283,205.73719 C 361.58015,205.71314 362.72971,204.70746 363.85935,203.86219 C 363.65721,206.38712 363.24604,207.80477 360.85712,208.36219 C 362.64284,208.36219 366.21426,208.36219 367.99998,208.36219 C 365.61106,207.80477 365.19989,206.38712 364.99775,203.86219 C 366.1143,204.81923 367.28529,205.63109 368.71426,205.73719 C 370.48855,205.73719 371.92855,204.22519 371.92855,202.36219 C 371.92855,200.49919 370.48855,198.98719 368.71426,198.98719 C 367.85292,198.9871 367.10894,199.38346 366.39284,199.84266 C 367.1054,198.91006 367.57444,197.90375 367.64284,196.73719 C 367.64284,194.87419 366.20284,193.36219 364.42855,193.36219 z" style="fill: rgb(0, 0, 0); fill-opacity: 1; stroke: none; stroke-width: 0.354331; stroke-linecap: round; stroke-linejoin: round; stroke-miterlimit: 4; stroke-dasharray: 1.41732, 1.41732; stroke-dashoffset: 0pt; stroke-opacity: 1;"/>
      <path sodipodi:nodetypes="ccccsccccccscccc" id="path5520" d="M 350.42855,247.36219 C 348.65426,247.36219 347.21426,248.87419 347.21426,250.73719 C 347.22976,251.90961 347.8347,252.90035 348.46426,253.84266 C 347.76252,253.31164 346.98263,252.9905 346.14283,252.98719 C 344.36855,252.98719 342.92855,254.49919 342.92855,256.36219 C 342.92855,258.22519 344.36855,259.73719 346.14283,259.73719 C 347.58015,259.71314 348.72971,258.70746 349.85935,257.86219 C 349.65721,260.38712 349.24604,261.80477 346.85712,262.36219 C 348.64284,262.36219 352.21426,262.36219 353.99998,262.36219 C 351.61106,261.80477 351.19989,260.38712 350.99775,257.86219 C 352.1143,258.81923 353.28529,259.63109 354.71426,259.73719 C 356.48855,259.73719 357.92855,258.22519 357.92855,256.36219 C 357.92855,254.49919 356.48855,252.98719 354.71426,252.98719 C 353.85292,252.9871 353.10894,253.38346 352.39284,253.84266 C 353.1054,252.91006 353.57444,251.90375 353.64284,250.73719 C 353.64284,248.87419 352.20284,247.36219 350.42855,247.36219 z" style="fill: rgb(0, 0, 0); fill-opacity: 1; stroke: none; stroke-width: 0.354331; stroke-linecap: round; stroke-linejoin: round; stroke-miterlimit: 4; stroke-dasharray: 1.41732, 1.41732; stroke-dashoffset: 0pt; stroke-opacity: 1;"/>
    </g>
  </g>
</svg>