<?xml version="1.0" encoding="UTF-8" standalone="no"?>
<!-- Created with Inkscape (http://www.inkscape.org/) -->
<svg xmlns:dc="http://purl.org/dc/elements/1.1/" xmlns:cc="http://creativecommons.org/ns#" xmlns:rdf="http://www.w3.org/1999/02/22-rdf-syntax-ns#" xmlns:svg="http://www.w3.org/2000/svg" xmlns="http://www.w3.org/2000/svg" xmlns:sodipodi="http://sodipodi.sourceforge.net/DTD/sodipodi-0.dtd" xmlns:inkscape="http://www.inkscape.org/namespaces/inkscape" width="90" height="135" id="svg16720" sodipodi:version="0.32" inkscape:version="0.46" version="1.0" sodipodi:docname="club_a.svg" inkscape:output_extension="org.inkscape.output.svg.inkscape">
  <defs id="defs16722">
    <inkscape:perspective sodipodi:type="inkscape:persp3d" inkscape:vp_x="0 : 526.18109 : 1" inkscape:vp_y="0 : 1000 : 0" inkscape:vp_z="744.09448 : 526.18109 : 1" inkscape:persp3d-origin="372.04724 : 350.78739 : 1" id="perspective16728"/>
  </defs>
  <sodipodi:namedview id="base" pagecolor="#ffffff" bordercolor="#666666" borderopacity="1.0" gridtolerance="10000" guidetolerance="10" objecttolerance="10" inkscape:pageopacity="0.0" inkscape:pageshadow="2" inkscape:zoom="1.4" inkscape:cx="1.1905278" inkscape:cy="112.32681" inkscape:document-units="px" inkscape:current-layer="layer1" showgrid="false" inkscape:window-width="641" inkscape:window-height="719" inkscape:window-x="97" inkscape:window-y="47"/>
  <metadata id="metadata16725">
    <rdf:RDF>
      <cc:Work rdf:about="">
        <dc:format>image/svg+xml</dc:format>
        <dc:type rdf:resource="http://purl.org/dc/dcmitype/StillImage"/>
      </cc:Work>
    </rdf:RDF>
  </metadata>
  <g inkscape:label="Layer 1" inkscape:groupmode="layer" id="layer1" transform="translate(-117.857, -330.576)">
    <g transform="translate(-1039.78, 183.714)" id="g15623">
      <g transform="translate(1136.78, 136.929)" id="g4520">
        <rect style="fill: rgb(0, 0, 0); fill-opacity: 1; stroke: none; stroke-width: 3; stroke-linecap: butt; stroke-linejoin: round; stroke-miterlimit: 4; stroke-dasharray: none; stroke-opacity: 1;" id="rect4522" width="90" height="135" x="20.85714" y="9.9336166" ry="14.04"/>
        <rect style="fill: rgb(242, 242, 242); fill-opacity: 1; stroke: none; stroke-width: 3; stroke-linecap: butt; stroke-linejoin: round; stroke-miterlimit: 4; stroke-dasharray: none; stroke-opacity: 1;" id="rect4524" width="80" height="125" x="25.85714" y="14.933617" ry="13"/>
      </g>
      <path id="text5305" d="M 1202.8563,174.10463 L 1193.2896,174.10463 L 1191.5785,179.23796 L 1186.2313,179.23796 L 1195.3118,153.70741 L 1201.0868,153.70741 L 1209.9146,179.23796 L 1204.5479,179.23796 L 1202.8563,174.10463 M 1201.4174,169.71018 L 1198.1118,159.73518 L 1194.7674,169.71018 L 1201.4174,169.71018" style="font-size: 35px; font-style: normal; font-variant: normal; font-weight: bold; font-stretch: normal; text-align: start; line-height: 125%; text-anchor: start; fill: rgb(0, 0, 0); fill-opacity: 1; stroke: none; stroke-width: 1px; stroke-linecap: butt; stroke-linejoin: miter; stroke-opacity: 1; font-family: AlMothnna;"/>
      <path sodipodi:nodetypes="ccccsccccccscccc" id="path5440" d="M 1176.61,154.79661 C 1173.6529,154.79661 1171.2529,157.31661 1171.2529,160.42161 C 1171.2787,162.37565 1172.2869,164.02688 1173.3362,165.59739 C 1172.1666,164.71236 1170.8668,164.17713 1169.4672,164.17161 C 1166.51,164.17161 1164.11,166.69161 1164.11,169.79661 C 1164.11,172.90161 1166.51,175.42161 1169.4672,175.42161 C 1171.8627,175.38152 1173.7786,173.7054 1175.6614,172.29661 C 1175.3245,176.50483 1174.6392,178.86758 1170.6576,179.79661 C 1173.6338,179.79661 1179.5862,179.79661 1182.5624,179.79661 C 1178.5809,178.86758 1177.8956,176.50483 1177.5587,172.29661 C 1179.4196,173.89167 1181.3713,175.24478 1183.7529,175.42161 C 1186.71,175.42161 1189.11,172.90161 1189.11,169.79661 C 1189.11,166.69161 1186.71,164.17161 1183.7529,164.17161 C 1182.3173,164.17146 1181.0773,164.83206 1179.8838,165.59739 C 1181.0714,164.04306 1181.8532,162.36587 1181.9672,160.42161 C 1181.9672,157.31661 1179.5672,154.79661 1176.61,154.79661 z" style="fill: rgb(0, 0, 0); fill-opacity: 1; stroke: none; stroke-width: 0.354331; stroke-linecap: round; stroke-linejoin: round; stroke-miterlimit: 4; stroke-dasharray: 1.41732, 1.41732; stroke-dashoffset: 0pt; stroke-opacity: 1;"/>
      <path sodipodi:nodetypes="ccccsccccccscccc" id="path5606" d="M 1203.6372,181.36219 C 1197.7232,181.36219 1192.9232,186.40219 1192.9232,192.61219 C 1192.9749,196.52026 1194.9912,199.82272 1197.0899,202.96376 C 1194.7505,201.19369 1192.1509,200.12322 1189.3515,200.11219 C 1183.4372,200.11219 1178.6372,205.15219 1178.6372,211.36219 C 1178.6372,217.57219 1183.4372,222.61219 1189.3515,222.61219 C 1194.1429,222.53202 1197.9745,219.17976 1201.7402,216.36219 C 1201.0662,224.77862 1199.6955,229.50412 1191.7325,231.36219 C 1197.6849,231.36219 1209.5899,231.36219 1215.5422,231.36219 C 1207.5792,229.50412 1206.2085,224.77862 1205.5345,216.36219 C 1209.2565,219.55232 1213.1599,222.25852 1217.9232,222.61219 C 1223.8372,222.61219 1228.6372,217.57219 1228.6372,211.36219 C 1228.6372,205.15219 1223.8372,200.11219 1217.9232,200.11219 C 1215.0519,200.11189 1212.5719,201.43309 1210.1849,202.96376 C 1212.5602,199.85509 1214.1235,196.50072 1214.3515,192.61219 C 1214.3515,186.40219 1209.5515,181.36219 1203.6372,181.36219 z" style="fill: rgb(0, 0, 0); fill-opacity: 1; stroke: none; stroke-width: 0.354331; stroke-linecap: round; stroke-linejoin: round; stroke-miterlimit: 4; stroke-dasharray: 1.41732, 1.41732; stroke-dashoffset: 0pt; stroke-opacity: 1;"/>
      <path id="text4576" d="M 1213.1572,225.54647 C 1213.4239,226.39984 1213.7439,227.2265 1214.1172,228.02647 C 1214.4905,228.8265 1214.8372,229.6265 1215.1572,230.42647 L 1215.0772,230.58647 C 1210.2239,230.7465 1205.4772,231.43983 1200.8372,232.66647 C 1196.1972,233.83983 1191.8239,235.89316 1187.7172,238.82647 L 1187.5572,238.74647 C 1187.9306,237.99983 1188.2239,237.25316 1188.4372,236.50647 C 1188.7039,235.75983 1188.9706,234.9865 1189.2372,234.18647 C 1193.0772,232.15983 1196.9705,230.4265 1200.9172,228.98647 C 1204.8639,227.49317 1208.9172,226.31984 1213.0772,225.46647 L 1213.1572,225.54647 L 1213.1572,225.54647 M 1203.2372,202.66647 C 1204.8372,206.34653 1206.4372,209.91986 1208.0372,213.38647 C 1209.6372,216.85318 1211.1572,220.42651 1212.5972,224.10647 L 1212.5172,224.10647 C 1208.6772,224.85317 1204.9172,225.89317 1201.2372,227.22647 C 1197.6105,228.55984 1194.0372,230.1065 1190.5172,231.86647 L 1190.1972,231.94647 C 1192.4372,226.98651 1194.5972,222.07984 1196.6772,217.22647 C 1198.7572,212.31985 1200.9172,207.49319 1203.1572,202.74647 L 1203.2372,202.66647 M 1178.7572,261.62647 C 1180.1439,258.26647 1181.4506,254.85314 1182.6772,251.38647 C 1183.9572,247.91982 1185.3172,244.47982 1186.7572,241.06647 C 1188.6772,239.62649 1190.7839,238.34649 1193.0772,237.22647 C 1195.4239,236.05316 1197.8505,235.0665 1200.3572,234.26647 C 1202.8639,233.4665 1205.3972,232.85317 1207.9572,232.42647 C 1210.5705,231.99983 1213.1305,231.7865 1215.6372,231.78647 L 1215.5572,231.62647 C 1217.5839,236.85316 1219.4505,242.05316 1221.1572,247.22647 C 1222.9172,252.39981 1224.7038,257.57314 1226.5172,262.74647 L 1226.2772,262.90647 C 1222.8639,263.06647 1219.3972,263.14647 1215.8772,263.14647 C 1212.3572,263.14647 1208.7839,263.17314 1205.1572,263.22647 L 1205.0772,263.14647 C 1204.5972,261.4398 1204.1439,259.73314 1203.7172,258.02647 C 1203.2905,256.26648 1202.8372,254.53314 1202.3572,252.82647 L 1200.1972,261.94647 L 1200.2772,261.78647 L 1178.7572,261.78647 L 1178.7572,261.62647" style="font-size: 80px; font-style: normal; font-variant: normal; font-weight: normal; font-stretch: normal; text-align: start; line-height: 125%; text-anchor: start; fill: rgb(51, 51, 51); fill-opacity: 1; stroke: none; stroke-width: 1px; stroke-linecap: butt; stroke-linejoin: miter; stroke-opacity: 1; font-family: Airmole Stripe;"/>
    </g>
  </g>
</svg>